<svg xmlns="http://www.w3.org/2000/svg" viewBox="0 0 512 512"><path d="M512 384c0 31.418-25.473 56.889-56.889 56.889H56.89C25.472 440.889 0 415.417 0 384V128c0-31.418 25.472-56.889 56.889-56.889H455.11C486.53 71.111 512 96.584 512 128v256z" fill="#75aadb"/><path d="M512 327.111H0V184.89h512V327.11z" fill="#eee"/><path d="M249.984 286.236l-17.579 26.724 6.471-31.331-26.481 17.962 17.977-26.467-31.33 6.471 26.708-17.579L194.332 256l31.432-6.016-26.724-17.579 31.331 6.471-17.977-26.467 26.481 17.962-6.471-31.331 17.579 26.724 6.016-31.418 6.016 31.403 17.579-26.709-6.471 31.331 26.467-17.962-17.962 26.467 31.33-6.471-26.723 17.579L317.653 256l-31.418 6.016 26.724 17.579-31.331-6.471 17.948 26.453-26.453-17.948 6.47 31.331-17.578-26.724-6.016 31.418-6.015-31.418z" fill="#fcbf49"/><path d="M321.692 227.555h.072-.072zm-15.417-28.444h.071-.071zm-23.054-14.222h.071-.07zm-27.221 0l-6.94 36.238-20.266-30.82 7.452 36.126-30.535-20.722 20.721 30.535-36.125-7.452 30.82 20.266L184.89 256l36.238 6.94-30.82 20.281 36.125-7.466-20.72 30.521 30.534-20.721-7.452 36.139 20.266-30.82 6.94 36.239 6.94-36.24 20.281 30.82-7.466-36.138 30.521 20.721-20.721-30.521 36.139 7.466-30.82-20.281 36.238-6.94-36.238-6.94 30.82-20.266-36.139 7.452 20.721-30.535-30.521 20.721 7.466-36.125-20.281 30.82L256 184.89zm0 18.916l3.441 17.991 1.65 8.605 4.821-7.325 10.056-15.302-3.698 17.948-1.777 8.59 7.253-4.935 15.162-10.282-10.298 15.161-4.921 7.239 8.59-1.764 17.934-3.697-15.303 10.055-7.31 4.821 8.605 1.65 18.005 3.441-18.005 3.442-8.59 1.65 7.296 4.82 15.303 10.056-17.934-3.698-8.59-1.777 4.921 7.254 10.298 15.16-15.161-10.297-7.254-4.921 1.777 8.59 3.698 17.949-10.055-15.318-4.821-7.296-1.65 8.59L256 308.21l-3.441-18.005-1.65-8.605-4.821 7.31-10.055 15.318 3.697-17.95 1.764-8.59-7.239 4.922-15.161 10.298 10.283-15.162 4.92-7.253-8.576 1.777-17.948 3.698 15.302-10.055 7.325-4.822-8.605-1.65L203.805 256l17.991-3.441 8.605-1.65-7.325-4.821-15.302-10.055 17.949 3.697 8.576 1.764-4.922-7.239-10.282-15.161 15.161 10.282 7.239 4.921-1.764-8.576-3.697-17.949 10.055 15.303 4.821 7.325 1.65-8.605 3.44-17.99z" fill="#843511"/><path d="M227.555 256c0-15.715 12.743-28.445 28.445-28.445 15.715 0 28.445 12.729 28.445 28.445 0 15.701-12.729 28.445-28.445 28.445-15.701 0-28.445-12.744-28.445-28.445" fill="#fcbf49"/><path d="M227.555 256c0-15.715 12.743-28.445 28.445-28.445 15.715 0 28.445 12.729 28.445 28.445 0 15.701-12.729 28.445-28.445 28.445-15.701 0-28.445-12.744-28.445-28.445z" fill="none" stroke="#843511" stroke-width=".3125" stroke-miterlimit="10"/><g fill="#c16540"><path d="M253.17 252.786c0 2.205-3.712 3.983-8.291 3.983-4.594 0-8.306-1.778-8.306-3.983s3.712-3.982 8.306-3.982c4.579 0 8.291 1.777 8.291 3.982M275.271 252.445c0-2.29-3.782-4.152-8.447-4.152-4.665 0-8.434 1.862-8.434 4.152s3.769 4.152 8.434 4.152c4.663 0 8.447-1.863 8.447-4.152"/></g><path d="M248.363 268.374c0-1.793 3.498-3.258 7.793-3.258 4.309 0 7.808 1.465 7.808 3.258 0 1.792-3.499 3.257-7.808 3.257-4.295-.001-7.794-1.466-7.794-3.257" fill="#ed8662"/></svg>