<svg xmlns="http://www.w3.org/2000/svg" viewBox="0 0 512 512"><path d="M455.111 71.111H130.517l-9.457 6.884 5.177 15.971-13.582-9.885-13.596 9.885 5.191-15.971-9.458-6.884H56.89C25.473 71.111 0 96.583 0 128v256c0 31.418 25.473 56.889 56.889 56.889h280.534l1.493-4.608-13.582-9.885h16.796l5.191-15.957 5.191 15.957h16.797l-13.596 9.885 1.507 4.608h97.891C486.53 440.889 512 415.416 512 384V128c0-31.418-25.473-56.889-56.889-56.889" fill="#2d3189"/><g fill="#e1e8ed"><path d="M99.057 93.966l13.597-9.885 13.582 9.885-5.191-15.971 9.472-6.884h-35.74l9.473 6.884-5.193 15.971zM369.309 426.382h-16.797l-5.19-15.97-5.192 15.97h-16.796l13.582 9.885-1.494 4.608h19.798l-1.494-4.607 13.583-9.886z"/></g><path d="M142.208 96.995l5.19 15.971h16.797l-13.582 9.87 5.177 15.972-13.582-9.87-13.597 9.87 5.191-15.972-13.582-9.87h16.796l5.191-15.971zM174.235 145.718l5.191 15.97h16.797l-13.583 9.87 5.178 15.972-13.583-9.87-13.596 9.87 5.191-15.971-13.582-9.87h16.796l5.191-15.971z" fill="#e1e8ed"/><g fill="#e1e8ed"><path d="M200.817 186.496l5.192 15.971h16.796l-13.582 9.885 5.19 15.972-13.596-9.885-13.596 9.885 5.191-15.972-13.582-9.885h16.796l5.191-15.97zM230.159 231.296l5.191 15.972h16.796l-13.582 9.87 5.191 15.97-13.596-9.87-13.596 9.87 5.19-15.97-13.582-9.87h16.796l5.192-15.972zM259.47 276.081l5.191 15.986h16.796l-13.582 9.857 5.191 15.986-13.596-9.885-13.582 9.885 5.177-15.986-13.582-9.856h16.796l5.191-15.987zM288.796 320.854l5.191 15.971h16.797L297.2 346.71l5.191 15.957-13.596-9.87-13.582 9.87 5.177-15.957-13.582-9.885h16.796l5.191-15.971zM317.995 365.639l5.191 15.986h16.797l-13.583 9.87 5.191 15.971-13.596-9.87-13.596 9.87 5.191-15.971-13.582-9.87h16.796l5.191-15.986z"/></g><path d="M398.222 440.889V71.11H156.445L398.222 440.89z" fill="#fbd116"/></svg>