<svg xmlns="http://www.w3.org/2000/svg" viewBox="0 0 512 512"><path d="M512 384c0 31.418-25.473 56.889-56.889 56.889H56.89C25.472 440.889 0 415.417 0 384V128c0-31.418 25.472-56.889 56.889-56.889H455.11C486.53 71.111 512 96.584 512 128v256z" fill="#007934"/><path d="M512 327.111H0V184.89h512V327.11z" fill="#ffe000"/><path d="M455.111 71.111H56.89C25.472 71.111 0 96.582 0 128v56.889h512V128c0-31.417-25.473-56.889-56.889-56.889" fill="#d52b1e"/><g fill="#fff"><path d="M183.381 232.32c.583.881 5.419 7.822 5.419 7.822h6.955l-2.83-3.91-9.544-3.912zM193.806 225.422c.583.868 5.419 7.823 5.419 7.823h6.955l-2.83-3.911-9.544-3.912zM203.506 216.648c.27 1.01 2.632 9.145 2.632 9.145l6.57 2.218-1.422-4.607-7.78-6.756z"/></g><g fill="#a05a2d"><path d="M198.442 305.749a1.132 1.132 0 0 1-1.55-.513 1.156 1.156 0 0 1 .498-1.565l35.086-17.906c.555-.313 1.266-.071 1.55.484.285.582.058 1.28-.497 1.565l-35.086 17.935zM205.469 312.178c-.54.34-1.251.185-1.608-.342s-.213-1.251.328-1.621l32.839-21.717c.54-.355 1.25-.228 1.607.312.355.54.214 1.238-.328 1.608l-32.838 21.76z"/><path d="M212.58 318.251c-.426.469-1.166.527-1.635.114a1.185 1.185 0 0 1-.114-1.65l26.041-29.567a1.15 1.15 0 0 1 1.635-.085c.484.412.527 1.137.1 1.62l-26.027 29.568z"/><path d="M246.728 294.614l-8.107 16.796-1.451-1.479-3.157 4.366-8.577-4.65 10.639-20.836 10.653 5.803z"/></g><path d="M250.211 320.355L256 292.849l-.597-24.05-41.685-39.823-2.902 9.131-5.789-4.636-1.734 9.558s-7.254-5.205-7.538-4.338-2.02 22.016-2.603 33.891c-.568 11.862-1.066 29.525 11.876 31.858 22.585 4.054 39.395-12.758 39.395-12.758s5.503 5.234 5.788 6.088c.285.867-2.034 11.007-2.901 15.061s2.901 7.524 2.901 7.524" fill="#d52b1e"/><path d="M221.226 236.715l-2.304 6.614-3.755-2.02s-9.6 48.37 6.06 52.125c15.658 3.769 17.407-2.603 17.407-2.603l-7.538-10.126-5.66 2.589s-2.731-7.481-2.731-17.621c0-9.06 1.451-17.992 1.451-17.992l2.859 2.02.597-6.656-6.386-6.33z" fill="#ffe000"/><path d="M237.17 251.15l-9.557-8.121-.598 6.656-3.755-2.603s-2.063 6.97-2.047 15.944c.028 8.974 1.18 17.664 1.18 17.664s6.67 2.304 10.14 0c3.47-2.319 4.637-29.54 4.637-29.54" fill="#007934"/><path d="M234.013 278.371c-7.524 3.229-22.913 9.032-18.86 16.242 4.068 7.225 15.93 4.323 23.467-3.798 7.539-8.106-4.608-12.444-4.608-12.444" fill="#e8a30f"/><g fill="#fff"><path d="M328.675 232.32c-.569.881-5.419 7.822-5.419 7.822h-6.955l2.83-3.91 9.544-3.912zM318.18 225.422c-.569.868-5.405 7.823-5.405 7.823h-6.955l2.83-3.911 9.53-3.912zM308.494 216.648c-.285 1.01-2.632 9.145-2.632 9.145l-6.585 2.218 1.437-4.607 7.78-6.756z"/></g><g fill="#a05a2d"><path d="M313.6 305.749c.569.298 1.28.071 1.55-.513a1.156 1.156 0 0 0-.497-1.565l-35.073-17.906c-.582-.313-1.251-.071-1.565.484a1.145 1.145 0 0 0 .513 1.565l35.072 17.935zM306.531 312.178c.54.34 1.266.185 1.608-.342.37-.526.214-1.251-.328-1.621l-32.838-21.717c-.527-.355-1.252-.228-1.593.312a1.164 1.164 0 0 0 .313 1.608l32.838 21.76z"/><path d="M299.377 318.251c.413.469 1.153.527 1.622.114a1.185 1.185 0 0 0 .113-1.65l-26.04-29.567c-.4-.484-1.138-.513-1.622-.085a1.148 1.148 0 0 0-.114 1.62l26.041 29.568z"/><path d="M265.272 294.614l8.107 16.796 1.451-1.479 3.157 4.366 8.577-4.65-10.639-20.836-10.653 5.803z"/></g><path d="M261.789 320.355L256 292.85l.597-24.05 41.686-39.822 2.915 9.13 5.788-4.635 1.735 9.557s7.225-5.205 7.509-4.337c.313.867 2.048 22.016 2.618 33.89.582 11.862 1.066 29.526-11.862 31.858-22.598 4.054-39.41-12.757-39.41-12.757s-5.503 5.234-5.788 6.087c-.285.868 2.033 11.008 2.9 15.061.87 4.053-2.9 7.523-2.9 7.523" fill="#d52b1e"/><path d="M290.774 236.715l2.29 6.614 3.769-2.02s9.613 48.37-6.06 52.125c-15.672 3.769-17.407-2.603-17.407-2.603l7.538-10.126 5.66 2.589s2.731-7.481 2.731-17.621c0-9.06-1.436-17.992-1.436-17.992l-2.873 2.02-.597-6.656 6.385-6.33z" fill="#ffe000"/><path d="M274.83 251.15l9.557-8.121.598 6.656 3.74-2.603s2.076 6.97 2.047 15.944c-.028 8.974-1.18 17.664-1.18 17.664s-6.67 2.304-10.14 0c-3.484-2.319-4.622-29.54-4.622-29.54" fill="#007934"/><path d="M277.987 278.371c7.524 3.229 22.898 9.032 18.845 16.242-4.053 7.225-15.928 4.323-23.452-3.798-7.539-8.106 4.608-12.444 4.608-12.444" fill="#e8a30f"/><path d="M232.262 224.995c2.433 2.873 2.32 6.955-.256 9.131-2.546 2.161-6.599 1.593-9.031-1.28-2.417-2.859-2.304-6.94.241-9.116 2.576-2.176 6.629-1.608 9.046 1.265" fill="#d52b1e"/><path d="M280.889 224.995c-2.418 2.873-2.304 6.955.27 9.131 2.56 2.161 6.585 1.593 9.031-1.28 2.433-2.859 2.319-6.94-.241-9.116-2.575-2.176-6.614-1.608-9.06 1.265" fill="#e7e7e7"/><g fill="#007934"><path d="M256 241.351v-10.425s-17.095-8.106-18.248-18.247c-1.152-10.14 4.637-19.399 2.603-20.85-2.02-1.452-12.743 7.822-13.313 17.663-.582 9.842 9.387 24.675 15.915 27.52 6.558 2.846 13.043 4.34 13.043 4.34"/><path d="M256 241.351v-10.425s17.081-8.106 18.248-18.247c1.152-10.14-4.637-19.399-2.603-20.85 2.02-1.452 12.743 7.822 13.313 17.663.597 9.842-9.373 24.675-15.916 27.52-6.557 2.846-13.042 4.34-13.042 4.34"/></g><path d="M256 230.585s1.735-6.088 13.041-9.558c11.293-3.485 22.001-6.087 26.055-6.37 4.068-.3-16.071-8.107-20.85-8.705-4.779-.555-10.709.598-11.591 4.068-.867 3.47-2.304 2.319-6.656 2.901-4.353.569-7.239-3.485-9.273-6.371-2.02-2.901-9.714-1.451-13.469-1.153-3.755.27-18.105 9.26-18.105 9.26s24.918 4.053 30.138 6.655c5.205 2.618.285 11.89-1.166 14.493s8.618-.797 11.876-5.22" fill="#fff"/><path d="M256 230.585s1.735-6.088 13.041-9.558c11.293-3.485 22.001-6.087 26.055-6.37 4.068-.3-14.762-6.088-19.555-6.67-4.779-.57-8.534-.57-9.401 2.9-.867 3.47-5.789 1.452-10.14 2.034-4.353.569-9.273-.867-11.293-3.769-2.033-2.9-5.503-1.735-9.272-1.45-3.755.284-20.281 6.954-20.281 6.954s24.917 4.054 30.137 6.656c5.205 2.618.285 11.89-1.166 14.493s8.617-.797 11.875-5.22"/><path d="M225.01 265.33c0-18.702 13.881-33.877 30.99-33.877 17.124 0 30.976 15.175 30.976 33.877 0 18.716-13.852 33.891-30.976 33.891-17.109 0-30.99-15.175-30.99-33.891" fill="#00a6de"/><path d="M233.259 265.33c0-14.706 10.182-26.639 22.741-26.639 12.544 0 22.727 11.933 22.727 26.639 0 14.734-10.182 26.653-22.727 26.653-12.559 0-22.741-11.92-22.741-26.653" fill="#e8a30f"/><path d="M246.159 253.725c0-5.433 4.409-9.841 9.841-9.841 5.447 0 9.856 4.409 9.856 9.841a9.851 9.851 0 0 1-9.856 9.856c-5.432-.001-9.841-4.41-9.841-9.856" fill="#d52b1e"/><path d="M256 291.983c12.075 0 21.959-11.023 22.699-24.96-7.424-2.76-19.655-13.284-22.699-13.284-3.186 0-7.239 3.485-12.459 8.121-2.674 2.389-6.812 4.309-10.211 5.604.939 13.71 10.724 24.519 22.67 24.519" fill="#007934"/><path d="M258.901 215.225c0 1.451-2.986 2.618-6.656 2.618-3.684 0-6.67-1.167-6.67-2.618 0-1.436 2.986-2.602 6.67-2.602 3.67 0 6.656 1.166 6.656 2.602" fill="#e8a30f"/><path d="M244.48 278.371h6.955l2.02-5.788 2.603 3.17-2.888 8.406h-6.371l-2.319-5.788z" fill="#fff"/><g fill="#b37d0a"><path d="M262.072 283.306c0 2.716-1.35 4.935-3.028 4.935S256 286.022 256 283.306s1.365-4.921 3.044-4.921 3.029 2.205 3.029 4.921M266.425 288.227c0 .328-.27.583-.583.583a.574.574 0 0 1-.568-.583v-15.06c0-.313.256-.583.568-.583.313 0 .583.27.583.582v15.062z"/></g><path d="M270.791 271.715c0 2.56-2.261 4.636-5.062 4.636s-5.063-2.076-5.063-4.636 2.261-4.636 5.063-4.636 5.062 2.076 5.062 4.636" fill="#32b266"/></svg>