<svg xmlns="http://www.w3.org/2000/svg" viewBox="0 0 512 512"><path d="M455.111 71.111H56.89C25.472 71.111 0 96.584 0 128v256c0 31.416 25.472 56.889 56.889 56.889H455.11C486.527 440.889 512 415.416 512 384V128c0-31.416-25.473-56.889-56.889-56.889z" fill="#de2910"/><g fill="#ffde02"><path d="M99.555 155.749l13.213 37.974 40.192.838-32.043 24.278 11.648 38.499-33.009-22.968-33.01 22.969 11.648-38.499-32.043-24.278 40.193-.838 13.211-37.975zM184.889 107.063l4.835 9.784 10.794 1.566-7.808 7.623 1.834 10.753-9.656-5.078-9.657 5.078 1.849-10.753-7.822-7.624 10.808-1.565 4.823-9.785zM213.334 163.951l4.835 9.785 10.794 1.565-7.808 7.624 1.834 10.753-9.656-5.08-9.657 5.078 1.849-10.752-7.822-7.624 10.808-1.565 4.823-9.784zM213.334 220.84l4.835 9.785 10.794 1.565-7.808 7.624 1.834 10.752-9.656-5.079-9.657 5.078 1.849-10.753-7.822-7.623 10.808-1.565 4.823-9.784zM184.889 277.721l4.835 9.799 10.794 1.565-7.808 7.609 1.834 10.766-9.656-5.078-9.657 5.078 1.849-10.766-7.822-7.609 10.808-1.565 4.823-9.799z"/></g></svg>