<svg xmlns="http://www.w3.org/2000/svg" viewBox="0 0 512 512"><path d="M455.111 71.111H56.889C25.472 71.111 0 96.583 0 128v256c0 31.417 25.472 56.889 56.889 56.889h398.222C486.528 440.889 512 415.417 512 384V128c0-31.417-25.472-56.889-56.889-56.889z" fill="#003893"/><g fill="#eee"><path d="M0 270.222h512v28.444H0zM0 341.333h512v28.444H0z"/></g><path fill="#cf2027" d="M0 298.667h512v42.667H0z"/><g fill="#f7d116"><path d="M204.05 226.184l10.866-7.893H201.49l-4.153-12.772-4.153 12.772h-13.44l10.866 7.893-4.139 12.772 10.866-7.893 10.866 7.893-4.153-12.772zM291.97 290.059l10.866-7.893H289.41l-4.153-12.772-4.153 12.772h-13.44l10.866 7.893-4.139 12.772 10.866-7.893 10.866 7.893-4.153-12.772zM116.129 290.059l10.866-7.893h-13.426l-4.153-12.772-4.153 12.772h-13.44l10.866 7.893-4.139 12.772 10.866-7.893 10.866 7.893-4.153-12.772zM116.129 347.193l10.866-7.893h-13.426l-4.153-12.772-4.153 12.772h-13.44l10.866 7.893-4.139 12.772 10.866-7.893 10.866 7.893-4.153-12.772zM291.97 347.193l10.866-7.893H289.41l-4.153-12.772-4.153 12.772h-13.44l10.866 7.893-4.139 12.772 10.866-7.893 10.866 7.893-4.153-12.772zM201.485 403.176l-4.153-12.772-4.153 12.772h-13.426l10.866 7.893-4.153 12.772 10.866-7.893 10.866 7.893-4.153-12.772 10.88-7.893h-13.44zM258.389 393.415l10.866-7.893h-13.426l-4.153-12.772-4.153 12.772h-13.44l10.866 7.893-4.139 12.772 10.866-7.893 10.866 7.893-4.153-12.772zM258.389 244.027l10.866-7.893h-13.426l-4.153-12.772-4.153 12.772h-13.44l10.866 7.893-4.139 12.772 10.866-7.893 10.866 7.893-4.153-12.772zM136.279 393.415l-10.866-7.893h13.426l4.153-12.772 4.153 12.772h13.44l-10.866 7.893 4.139 12.772-10.866-7.893-10.866 7.893 4.153-12.772zM136.279 244.027l-10.866-7.893h13.426l4.153-12.772 4.153 12.772h13.44l-10.866 7.893 4.139 12.772-10.866-7.893-10.866 7.893 4.153-12.772z"/></g></svg>