<svg xmlns="http://www.w3.org/2000/svg" viewBox="0 0 512 512"><path d="M512 384c0 31.418-25.473 56.889-56.889 56.889H56.89C25.472 440.889 0 415.417 0 384V128c0-31.418 25.472-56.889 56.889-56.889H455.11C486.53 71.111 512 96.584 512 128v256z" fill="#eee"/><path d="M45.313 72.306C28.7 75.748 14.96 86.556 7.097 101.035L217.4 256 7.097 410.965c7.865 14.479 21.604 25.288 38.215 28.729L256 284.444l210.703 155.25c16.61-3.442 30.365-14.252 38.215-28.729L294.597 256l210.32-154.965c-7.852-14.479-21.604-25.288-38.216-28.729L256 227.555 45.312 72.306z" fill="#d52048"/><path d="M291.996 99.555c-2.388.925-3.612 5.191-3.612 5.191s-2.134-4.821-8.605-1.663c0 0 3.527 3.512 2.774 6.485-.754 2.972-2.802 4.266-6.3 3.797-4.097-.555-4.835-5.276-4.835-5.276s2.517-.469 2.8-2.603c.172-1.294-.468-3.157-2.687-3.327-1.692-.143-3.342.925-3.342 2.958 0 1.494 1.862 2.774 1.862 2.774s-1.493 3.2-4.835 3.343c-4.266.185-6.143-2.219-6.201-6.3-.1-5.845 7.41-5.932 7.41-5.932s-.654-2.872-3.242-4.352c-2.59-1.494-5.007.555-5.007.555s1.849-4.181 1.294-7.054c-.469-2.46-2.333-4.906-3.001-5.731v-.285s-.043.042-.114.142c-.085-.1-.128-.142-.128-.142v.285c-.668.825-2.517 3.271-3 5.731-.556 2.873 1.293 7.054 1.293 7.054s-2.404-2.048-4.993-.555c-2.602 1.479-3.257 4.352-3.257 4.352s7.509.085 7.424 5.932c-.071 4.081-1.949 6.485-6.215 6.3-3.343-.143-4.821-3.343-4.821-3.343s1.848-1.28 1.848-2.774c0-2.033-1.65-3.1-3.327-2.958-2.219.171-2.859 2.033-2.688 3.327.285 2.134 2.788 2.603 2.788 2.603s-.754 4.721-4.835 5.276c-3.499.469-5.546-.825-6.3-3.797-.725-2.973 2.787-6.486 2.787-6.486-6.485-3.157-8.619 1.664-8.619 1.664s-1.208-4.266-3.612-5.191c-2.417-.925-4.821-.555-4.821-.555s4.451 7.054 7.41 13.895c2.972 6.855 4.081 13.909 4.081 13.909s5.078-3.542 13.34-5.562c6.4-1.55 14.564-1.663 15.645-1.678 1.066.013 9.23.127 15.616 1.678 8.306 2.02 13.355 5.562 13.355 5.562s1.109-7.054 4.081-13.909C292.38 106.054 296.832 99 296.832 99s-2.417-.369-4.835.555" fill="#ffcc4d"/><path d="M285.298 126.862s-6.784-4.45-13.895-6.03c-6.642-1.464-14.067-1.478-15.09-1.478-1.01 0-8.434.013-15.075 1.478-7.14 1.58-13.895 6.03-13.895 6.03s-5.818 21.618-2.418 37.348c6.728 31.09 28.743 43.89 31.275 45.284v.127s.043-.029.114-.057c.085.028.127.057.127.057v-.127c2.518-1.394 24.548-14.194 31.275-45.284 3.413-15.73-2.419-37.348-2.419-37.348" fill="#dd2e44"/><path d="M285.298 126.862s-6.784-4.45-13.895-6.03c-6.642-1.464-14.067-1.478-15.09-1.478-1.01 0-8.434.013-15.075 1.478-7.14 1.58-13.895 6.03-13.895 6.03s-5.818 21.618-2.418 37.348c6.728 31.09 28.743 43.89 31.275 45.284v.127s.043-.029.114-.057c.085.028.127.057.127.057v-.127c2.518-1.394 24.548-14.194 31.275-45.284 3.413-15.73-2.419-37.348-2.419-37.348z" fill="none" stroke="#231f20" stroke-width=".00625" stroke-miterlimit="10"/><path d="M275.996 126.862s-1.309 1.764-5.845 1.764-2.502-.597-6.115-.597c-3.626 0-5.191.91-5.191 2.034 0 1.108 1.294 1.806 6.13 1.806 4.807 0 6.585-1.209 10.467-1.209 3.883 0 5.362 1.394 5.362 3.157 0 1.75-2.503 5.007-6.5 3.983 0 0 2.801 1.38 5.773 1.209 2.944-.185 5.448-.754 5.647-.1.185.654 1.38 4.067 1.222 5.931-.285 2.873-3.925 3.882-5.39 3.713-1.479-.185-3.427 1.208-3.982 1.848l.37-1.949-1.508.556.839-2.404h-1.835s.91-1.863 2.389-1.863c1.493 0 4.835.384 5.02-.64.171-1.01-.939-2.403-3.044-2.318-2.148.1-6.229 1.308-8.733.653 0 0-.825 1.195-.085 2.134.725.925 1.835 2.034 1.28 2.688-.555.64-1.933.64-3.228.555-1.309-.1-5.76.27-7.325.825-1.579.555-3.058 1.393-3.058 1.393l.74-2.133s-1.479-.47-2.219.185c0 0 .27-1.38 1.48-1.664l-1.395-.37s.57-1.664 2.603-1.479c2.034.171 2.959.64 3.612-.1s-1.578-2.219-1.578-2.219-1.664.64-5.377 1.195c-3.712.569-6.115.37-6.115.37s-.468 3.898-6.4 4.552c-5.93.64-8.888-2.134-10.282-2.688-1.38-.555-3.343-.1-3.343-.1l.94-1.764-2.233.469s-.143-2.134 1.393-2.219l-2.033-.555s1.478-1.763 3.512-1.308c2.048.468 3.1 2.19 5.006 3.157 3.158 1.579 10.482.455 5.007-.654-1.267-.256-2.177-1.478-2.177-1.478s-3.485.74-6.172-3.428c-1.82-2.859-2.674-5.191-6.016-4.537 0 0 1.565-2.034 3.342-1.394 0 0-1.024-1.294-2.602-1.209 0 0 .74-1.849 2.972-1.195 0 0-1.209-1.124-2.319-1.024 0 0 .64-1.948 3.613-.285 2.972 1.664 1.18 3.073 1.764 4.082.37.64 1.18 1.763 3.142 3.512 3.343 2.973 4.921 3.713 3.898.698-1.109-.725-1.764-2.632-2.034-3.57-.285-.925-1.863-3.143-1.394-3.698.455-.555 1.849.469 1.849.469s1.764-.754 4.167-.754c2.418 0 3.343 1.109 3.343 1.109s1.664-1.294 1.949-.64c.285.64-.925 1.664-1.479 2.787-.569 1.109.085 2.404.085 2.404s1.621 2.119 4.964 2.219c3.327.1 8.291-.455 10.055-.825 1.748-.384 4.807-.981 6.855-.611 2.047.383 7.793.227 7.608-1.252-.198-1.478-1.592-1.933-4.45-1.578-2.873.37-5.377 1.308-10.667.938-5.291-.37-5.818-3.057-5.475-4.366.469-1.764 3.441-2.816 6.215-2.816 2.787 0 6.272 1.166 8.291 1.166 2.05.001 4.695-.567 4.695-.567" fill="#ffcc4d"/><path d="M241.706 134.998s1.109.526 1.764.468c.654-.057 1.806-.64 1.806-.64s-.37.698-.37 1.338-.142 1.309-1.251 1.337c-1.664.058-1.436-1.023-1.536-1.478-.085-.457-.413-1.025-.413-1.025" fill="#dd2e44"/><g fill="#11429a"><path d="M244.48 140.942a.84.84 0 0 1-.839.84h-.185a.838.838 0 0 1-.825-.84v-3.612c0-.455.37-.825.825-.825h.185c.469 0 .839.37.839.825v3.612zM229.831 140.515c-.867.413-1.393 1.039-1.393 1.039l2.047.555c-1.536.085-1.394 2.232-1.394 2.232l2.205-.469-1.465-3.357zM276.977 145.01c-.967.498-1.52 1.635-1.52 1.635h1.82l-.826 2.404 1.494-.555-.355 1.948c.256-.327.881-.825 1.607-1.237l-2.22-4.195zM260.011 149.376l-1.521-4.58c-.925.413-1.209 1.28-1.209 1.28l1.394.37c-1.209.27-1.494 1.664-1.494 1.664.74-.654 2.233-.185 2.233-.185l-.74 2.134s.54-.313 1.337-.683M228.977 128.469c.64-.058 1.338.299 1.778.611l.27-1.507c-1.635-.313-2.048.896-2.048.896M231.31 143.873l-.91 1.748s.711-.185 1.593-.185l-.683-1.564zM230.414 131.385l.327-2.005c-1.777-.199-2.389 1.323-2.389 1.323.895-.058 1.607.34 2.062.682M227.555 133.291c1.024-.199 1.806-.114 2.46.171l.285-1.678c-1.508-.087-2.745 1.507-2.745 1.507"/></g><path d="M273.337 152.447s-1.137 1.58-5.233 1.58c-4.081 0-2.248-.54-5.49-.54s-4.665.824-4.665 1.834c0 .982 1.166 1.608 5.503 1.608 4.31 0 5.903-1.081 9.387-1.081 3.499 0 4.835 1.266 4.835 2.83 0 1.592-2.261 4.493-5.818 3.583 0 0 2.475 1.252 5.149 1.082 2.66-.172 4.921-.67 5.078-.085.17.582 1.222 3.655 1.08 5.333-.24 2.574-3.498 3.485-4.82 3.328-1.338-.171-3.087 1.081-3.584 1.664l.327-1.75-1.337.485.753-2.148h-1.663s.825-1.664 2.161-1.664c1.338 0 4.338.328 4.509-.582.156-.925-.839-2.162-2.759-2.077-1.92.072-5.575 1.153-7.822.583 0 0-.74 1.081-.072 1.92.654.825 1.65 1.82 1.153 2.404s-1.749.582-2.902.497c-1.166-.085-5.162.256-6.57.754-1.423.498-2.746 1.238-2.746 1.238l.654-1.907s-1.338-.426-1.991.171c0 0 .256-1.25 1.337-1.507l-1.251-.328s.497-1.493 2.319-1.322c1.835.156 2.673.583 3.257-.1.569-.669-1.422-1.991-1.422-1.991s-1.494.582-4.835 1.081c-3.314.513-5.475.328-5.475.328s-.427 3.498-5.747 4.08c-5.333.57-7.992-1.92-9.245-2.417-1.237-.497-2.986-.071-2.986-.071l.825-1.592-1.991.426s-.114-1.92 1.237-2.005l-1.82-.498s1.338-1.578 3.158-1.166c1.835.413 2.787 1.978 4.509 2.845 2.816 1.408 9.401.399 4.493-.597-1.166-.228-1.962-1.323-1.962-1.323s-3.115.654-5.533-3.086c-1.663-2.56-2.417-4.665-5.418-4.081 0 0 1.422-1.82 3.001-1.252 0 0-.91-1.152-2.333-1.081 0 0 .67-1.664 2.66-1.081 0 0-1.08-.981-2.076-.896 0 0 .583-1.75 3.243-.27 2.673 1.507 1.066 2.758 1.578 3.668.342.583 1.067 1.593 2.83 3.172 3.002 2.66 4.423 3.313 3.5.61-1.01-.653-1.58-2.374-1.836-3.2-.241-.838-1.664-2.83-1.237-3.327.412-.497 1.663.427 1.663.427s1.565-.683 3.74-.683c2.162 0 2.987 1.01 2.987 1.01s1.507-1.166 1.748-.597c.257.597-.825 1.507-1.322 2.502-.498.995.085 2.161.085 2.161s1.451 1.92 4.451 2.005c2.986.072 7.439-.426 9.018-.753 1.592-.328 4.337-.868 6.158-.54 1.85.34 6.998.213 6.827-1.124s-1.423-1.749-3.997-1.423c-2.588.342-4.82 1.167-9.557.839-4.75-.341-5.22-2.731-4.906-3.911.412-1.579 3.072-2.531 5.575-2.531 2.488 0 5.617 1.038 7.452 1.038 1.82 0 4.181-.498 4.181-.498" fill="#ffcc4d"/><path d="M241.778 159.715s.995.455 1.578.426c.583-.057 1.622-.597 1.622-.597s-.328.626-.328 1.209-.127 1.18-1.124 1.208c-1.507.043-1.293-.925-1.38-1.337-.07-.41-.368-.909-.368-.909" fill="#dd2e44"/><g fill="#11429a"><path d="M244.338 165.077a.741.741 0 0 1-.754.754h-.156a.75.75 0 0 1-.754-.754v-3.242c0-.413.341-.74.754-.74h.156c.426 0 .754.327.754.74v3.242zM231.154 164.665c-.768.355-1.251.925-1.251.925l1.835.512c-1.38.072-1.252 1.992-1.252 1.992l1.978-.413-1.31-3.016zM273.479 168.675c-.868.455-1.394 1.465-1.394 1.465h1.679l-.725 2.161 1.322-.497-.327 1.749c.227-.285.782-.74 1.451-1.095l-2.006-3.783zM258.275 172.629l-1.365-4.11c-.839.37-1.095 1.152-1.095 1.152l1.251.328c-1.081.256-1.337 1.494-1.337 1.494.668-.583 1.991-.172 1.991-.172l-.654 1.92s.499-.285 1.209-.612M230.414 153.885c.597-.057 1.209.256 1.607.54l.214-1.365c-1.465-.271-1.821.825-1.821.825M232.476 167.68l-.825 1.565s.654-.156 1.436-.156l-.61-1.409zM231.68 156.472l.299-1.792c-1.593-.199-2.134 1.166-2.134 1.166.796-.041 1.436.328 1.835.626M229.12 158.18c.91-.171 1.621-.114 2.205.156l.256-1.521c-1.352-.057-2.461 1.365-2.461 1.365"/></g><path d="M268.288 177.238s-.882 1.166-3.898 1.166c-3.029 0-1.664-.399-4.081-.399-2.404 0-3.456.626-3.456 1.351 0 .768.853 1.223 4.067 1.223 3.214 0 4.409-.812 6.997-.812 2.59 0 3.584.94 3.584 2.105 0 1.18-1.678 3.343-4.323 2.66 0 0 1.862.925 3.826.797 1.977-.114 3.669-.498 3.769-.058.113.441.925 2.716.81 3.954-.198 1.92-2.602 2.602-3.583 2.475-.995-.128-2.275.811-2.66 1.251l.241-1.309-.995.37.583-1.607h-1.252s.627-1.238 1.593-1.238c.995 0 3.242.257 3.356-.426.114-.697-.611-1.621-2.062-1.55-1.408.071-4.11.854-5.789.426 0 0-.569.812-.071 1.423.497.626 1.237 1.365.867 1.806-.37.413-1.294.413-2.176.355-.854-.057-3.826.185-4.864.555-1.066.384-2.047.939-2.047.939l.497-1.436s-.995-.285-1.494.127c0 0 .185-.91.995-1.109l-.925-.24s.355-1.11 1.722-.996c1.365.128 1.977.441 2.417-.057.426-.498-1.052-1.494-1.052-1.494s-1.109.441-3.584.811-4.081.241-4.081.241-.313 2.603-4.267 3.03c-3.953.44-5.93-1.408-6.868-1.778-.925-.37-2.219-.072-2.219-.072l.611-1.18-1.479.313s-.085-1.423.925-1.479l-1.35-.37s.98-1.18 2.332-.867c1.365.312 2.076 1.465 3.342 2.105 2.105 1.052 6.998.298 3.343-.427-.839-.17-1.452-.995-1.452-.995s-2.318.498-4.11-2.29c-1.222-1.906-1.792-3.456-4.025-3.028 0 0 1.053-1.352 2.233-.925 0 0-.683-.868-1.735-.812 0 0 .497-1.222 1.977-.796 0 0-.796-.754-1.55-.697 0 0 .442-1.28 2.418-.172 1.991 1.11.796 2.048 1.18 2.732.241.426.782 1.166 2.105 2.332 2.219 1.978 3.271 2.475 2.589.484-.74-.513-1.18-1.778-1.352-2.389-.185-.626-1.237-2.105-.938-2.489.312-.37 1.237.313 1.237.313s1.18-.498 2.788-.498c1.607 0 2.232.754 2.232.754s1.109-.881 1.294-.441c.185.441-.626 1.124-.995 1.862s.057 1.608.057 1.608 1.095 1.422 3.314 1.479c2.233.071 5.533-.313 6.713-.555 1.18-.242 3.213-.64 4.565-.399 1.38.241 5.205.156 5.077-.839-.114-.981-1.052-1.294-2.972-1.052-1.907.256-3.584.867-7.112.626-3.512-.256-3.868-2.034-3.64-2.915.312-1.166 2.29-1.891 4.138-1.891s4.181.782 5.532.782c1.368.001 3.13-.369 3.13-.369" fill="#ffcc4d"/><path d="M245.405 182.614s.74.327 1.18.298c.426-.028 1.195-.44 1.195-.44s-.241.468-.241.91c0 .425-.085.867-.839.895-1.109.043-.952-.668-1.01-.994-.057-.314-.285-.67-.285-.67" fill="#dd2e44"/><g fill="#11429a"><path d="M247.254 186.639a.555.555 0 0 1-.555.555h-.114a.568.568 0 0 1-.569-.555v-2.404a.57.57 0 0 1 .569-.569h.114a.56.56 0 0 1 .555.569v2.404zM237.498 186.311c-.57.27-.925.698-.925.698l1.35.37c-1.01.057-.924 1.479-.924 1.479l1.465-.313-.966-2.234zM268.928 189.313c-.627.327-1.01 1.095-1.01 1.095h1.25L268.6 192l.981-.37-.241 1.309c.171-.228.598-.569 1.081-.825l-1.493-2.801zM257.565 192.241l-1.01-3.057c-.626.285-.811.854-.811.854l.925.256c-.811.185-.995 1.095-.995 1.095.497-.413 1.493-.114 1.493-.114l-.497 1.422c-.001 0 .369-.2.895-.456M236.928 178.275c.44-.043.896.214 1.195.413l.17-1.01c-1.094-.213-1.366.597-1.366.597M238.479 188.572l-.612 1.153s.484-.114 1.067-.128l-.455-1.025zM237.881 180.224l.214-1.338c-1.18-.142-1.592.881-1.592.881.596-.04 1.08.215 1.378.457M236.004 181.475c.669-.127 1.195-.071 1.635.114l.185-1.124c-.995-.042-1.82 1.01-1.82 1.01"/></g></svg>