<svg xmlns="http://www.w3.org/2000/svg" viewBox="0 0 512 512"><path d="M455.111 71.111H56.889c-14.269 0-27.299 5.476-37.286 14.158l-.134-.097C7.544 95.6 0 110.915 0 128v256c0 17.085 7.544 32.4 19.469 42.828L128 348.444 256 256l-128 92.863-108.531 78.174c10.004 8.748 23.089 13.852 37.42 13.852h398.222C486.528 440.889 512 415.417 512 384V128c0-31.417-25.472-56.889-56.889-56.889zM111.626 201.316l-.464 1.448.462-1.45.002.002zm0 37.56l-.467 1.449.465-1.45.002.001zm0 37.559l-.465 1.437.465-1.437zm-3.257 47.543l3.271-9.974-3.254 9.961-.017.013zm0-37.479l.002-.006 8.546-6.211-8.548 6.217zm0-37.482l.016-.049 8.532-6.179-8.548 6.228zm0-37.483l.029-.091 8.518-6.147-8.547 6.238zm17.094 74.96l-2.802-8.622 2.803 8.624-.001-.002zm-.015-37.526l-2.787-8.645 2.802 8.656-.015-.011zm-.013-37.525l-2.775-8.68 2.804 8.701-.029-.021zm.025 112.572l-3.267-10.012 3.271 10.015-.004-.003zm-3.267-47.581l8.548-6.212-8.548 6.212zm.002-37.56l-.002-.005 8.548-6.294-8.546 6.299zm.002-37.561l-.003-.009 8.548-6.376-8.545 6.385z" fill="#3d8e33"/><path d="M455.111 71.111H56.889c-14.332 0-27.416 5.522-37.42 14.27L128 163.974h384V128c0-31.417-25.472-56.889-56.889-56.889z" fill="#ffc61e"/><path fill="#eee" d="M256 256h256v-92.026H128z"/><path fill="#ce1126" d="M128 348.863h384V256H256z"/><path d="M19.469 427.037c10.004 8.748 23.089 13.852 37.42 13.852h398.222C486.528 440.889 512 415.417 512 384v-35.137H128L19.469 427.037z" fill="#3a75c4"/><g fill="#fff"><path d="M55.836 256c0-37.362 26.126-68.58 61.084-76.516-5.632-1.28-11.449-2.02-17.451-2.02-43.378 0-78.535 35.157-78.535 78.535s35.157 78.535 78.535 78.535c6.002 0 11.819-.74 17.451-2.02C81.963 324.58 55.836 293.362 55.836 256z"/><path d="M116.917 184.873l-3.271 10.055h-10.553l8.533 6.387-3.257 10.148 8.548-6.168 8.548 6.239-3.271-10.23 8.548-6.376h-10.567l-3.258-10.055zM111.626 238.876l-3.257 10.104 8.548-6.19 8.547 6.227-3.271-10.148 8.548-6.294h-10.567l-3.257-10.055-3.271 10.055h-10.553zM120.174 270.222l-3.257-10.055-3.271 10.055h-10.553l8.533 6.213-3.257 10.06 8.548-6.212 8.547 6.216-3.271-10.065 8.548-6.212zM122.193 314.003l8.548-6.134h-10.567l-3.257-10.041-3.271 10.041h-10.553l8.547 6.134-3.271 10.015 8.548-6.235 8.547 6.245z"/></g></svg>