<svg xmlns="http://www.w3.org/2000/svg" viewBox="0 0 512 512"><path d="M455.111 71.111H56.889C25.472 71.111 0 96.583 0 128v256c0 31.417 25.472 56.889 56.889 56.889h398.222C486.528 440.889 512 415.417 512 384V128c0-31.417-25.472-56.889-56.889-56.889z" fill="#024fa2"/><g fill="#eee"><path d="M0 128h512v14.222H0zM512 369.778H0V384h512v-14.222z"/></g><path d="M512 369.778V142.222H0v227.556h512zM188.84 173.827c45.383 0 82.176 36.793 82.176 82.176s-36.793 82.176-82.176 82.176-82.176-36.793-82.176-82.176 36.793-82.176 82.176-82.176z" fill="#ed1c27"/><path d="M170.966 231.401l17.877-55.012 17.863 55.012h57.842l-46.791 33.991 17.877 55.012-46.791-33.991-46.791 33.991 17.863-55.012-46.791-33.991h57.842zm17.878 106.767c45.383 0 82.162-36.779 82.162-82.162s-36.779-82.176-82.162-82.176-82.176 36.793-82.176 82.176 36.792 82.162 82.176 82.162" fill="#fff"/><path d="M142.049 320.402l46.791-33.991 46.791 33.991-17.877-55.012 46.791-33.991h-57.828l-17.877-54.997-17.877 54.997h-57.828l46.791 33.991-17.877 55.012z" fill="#ed1c27"/></svg>