<svg xmlns="http://www.w3.org/2000/svg" viewBox="0 0 512 512"><path d="M455.112 71.113H56.894C25.477 71.113.006 96.585.006 128.001v255.997c0 31.417 25.472 56.888 56.888 56.888h398.218c31.417 0 56.888-25.472 56.888-56.888V128.001c0-31.416-25.472-56.888-56.888-56.888z" fill="#00247d"/><path d="M270.225 256v-28.857l-100.977-70.698H94.881L237.059 256h33.166z" fill="#eee"/><path d="M270.225 235.833l-113.364-79.388h-24.789l138.153 96.738v-17.35z" fill="#cf1b2b"/><path d="M115.199 156.446L0 238.45V256h47.388l142.192-99.554h-74.381z" fill="#eee"/><path d="M152.379 156.446L10.443 256h24.561l142.178-99.554h-24.803z" fill="#cf1b2b"/><path d="M237.072 71.113L94.894 170.668h74.367L270.223 99.97V71.113h-33.151z" fill="#eee"/><path d="M249.447 71.113l-142.164 99.554h24.789l138.153-96.738v-2.816h-20.778z" fill="#cf1b2b"/><path d="M9.432 96.649l132.795 92.949v-18.93h47.331L48.315 71.758c-16.227 2.456-30.198 11.77-38.883 24.891z" fill="#eee"/><path d="M13.785 90.906l128.441 90.031v-10.268h10.155L24.589 81.185a57.209 57.209 0 0 0-10.804 9.721z" fill="#cf1b2b"/><path d="M270.225 128.001h-99.554V71.113H99.56v56.888H.006v71.11H99.56V256h71.11v-56.888h99.554v-71.111z" fill="#eee"/><g fill="#cf1b2b"><path d="M156.449 256h-42.666V71.113h42.666V256z"/><path d="M270.225 184.89H.006v-42.666h270.219v42.666z"/></g><path d="M479.861 323.124c-3.968.569-5.632 6.243-7.339 9.671 0 0-3.968 3.413-10.226 2.844 0 0 2.873-4.551 5.703-9.116 2.844-4.537 1.152-10.226-2.83-10.795-3.968-.583-4.551-2.859-9.671-7.395-5.12-4.551-14.222-5.12-15.929-1.138-1.707 3.968-9.685 6.827-8.533 12.515 1.124 5.689 3.982 13.084 6.827 17.635 0 0-13.454 8.533-24.277 12.515-10.809 3.982-21.959 4.551-21.959 4.551s-8.064-.569-18.858-4.551c-10.823-3.982-21.12-12.515-21.12-12.515 2.844-4.551 5.689-11.947 6.841-17.635 1.124-5.689-6.841-8.547-8.547-12.515-1.707-3.982-10.809-3.413-15.929 1.138-5.12 4.537-5.675 6.812-9.685 7.395-3.968.569-5.689 6.258-2.844 10.795 2.844 4.565 5.675 9.116 5.675 9.116-6.272.569-10.254-2.844-10.254-2.844-1.707-3.427-3.47-9.102-7.452-9.671-3.996-.569-4.082 3.399-3.513 7.41.583 3.968 3.2 11.363 4.892 15.914 1.707 4.551 4.708 5.12 10.979 6.258 6.258 1.138 15.673-3.968 15.673-3.968 22.201 21.603 54.143 21.034 54.143 21.034s35.057.569 57.244-21.034c0 0 10.994 5.106 17.251 3.968s10.055-1.707 11.747-6.258c1.707-4.551 4.75-11.947 5.319-15.914.583-4.011.668-7.979-3.328-7.41" fill="#f9d050"/><g fill="#db1c1c"><path d="M477.695 345.874s4.537-13.639 5.675-18.204c1.138-4.551-3.413-6.258-6.812-3.428-3.413 2.873-8.547 19.37-8.547 19.37s1.707-3.413 5.134-2.859c3.412.584 4.55 5.121 4.55 5.121M450.376 324.832s6.258-7.395 6.827-11.961c.569-4.537-5.689-10.24-10.24-9.657-4.551.569-7.964 3.982-6.827 7.95 1.138 3.982 5.12 11.961 5.12 11.961s0-1.138 2.29-1.138c2.261.001 2.83 2.845 2.83 2.845M311.836 345.874s-4.551-13.639-5.703-18.204c-1.124-4.551 3.413-6.258 6.827-3.428 3.413 2.873 8.547 19.37 8.547 19.37s-1.707-3.413-5.134-2.859c-3.413.584-4.537 5.121-4.537 5.121M339.141 324.832s-6.258-7.395-6.827-11.961c-.583-4.537 5.689-10.24 10.226-9.657 4.565.569 7.979 3.982 6.841 7.95-1.138 3.982-5.134 11.961-5.134 11.961s0-1.138-2.261-1.138c-2.276.001-2.845 2.845-2.845 2.845"/></g><path d="M394.904 225.249h-45.937v55.196c0 24.476 6.187 39.267 14.137 48.924 11.079 13.454 33.123 21.077 33.123 21.077s23.893-7.623 34.972-21.077c7.964-9.657 17.322-24.448 17.322-48.924v-55.196h-53.617z" fill="#cf1b2b"/><path d="M430.528 332.208c7.964-9.685 17.991-27.292 17.991-51.768v-21.134c-14.222-.299-3.072-.469-4.309-.469-7.964 0-7.979 7.381-15.36 7.381-7.395 0-9.401-7.381-16.796-7.381s-9.813 7.381-17.223 7.381c-6.243 0-11.435-7.381-17.138-7.381-5.689 0-11.989 7.381-17.109 7.381s-8.192-7.381-13.312-7.381c-.313 0 1.692.028 1.692.085v21.518c0 24.476 6.187 42.083 14.137 51.768 7.111 8.633 16.654 6.827 24.476 21.049h14.677c7.808-14.222 21.163-12.416 28.274-21.049" fill="#fff"/><g fill="#0b50a0"><path d="M358.847 296.944c6.827 0 15.346-6.243 19.911-6.243 4.551 0 8.519 6.243 14.777 6.243 6.272 0 14.222-6.243 18.218-6.243 3.982 0 10.226 6.243 16.483 6.243 6.258 0 8.533-6.243 14.208-6.243 1.138 0 3.342.228 4.252.626.398-3.399 1.82-7.026 1.82-10.88v-4.636c-14.222-.313-3.072-.484-4.309-.484-7.964 0-7.979 7.395-15.36 7.395-7.395 0-9.401-7.395-16.796-7.395s-9.813 7.395-17.223 7.395c-6.243 0-11.435-7.395-17.138-7.395-5.689 0-11.989 7.395-17.109 7.395-5.12 0-8.192-7.395-13.298-7.395-.327 0 1.678.028 1.678.085v5.035c0 3.627-2.418 7.04-2.091 10.254 5.008.156 5.236 6.243 11.977 6.243M422.389 336.041c-3.271-2.19-5.675-5.518-10.624-5.518-7.41 0-9.685 7.395-17.066 7.395-6.272 0-11.392-7.395-17.081-7.395-3.527 0-7.267 2.844-10.837 5.006 11.819 9.586 28.117 14.919 28.117 14.919s15.744-5.149 27.491-14.407M443.015 300.36c-7.964 0-7.367 7.395-14.748 7.395-7.41 0-9.116-7.395-16.498-7.395-7.41 0-9.685 7.395-17.066 7.395-6.272 0-11.392-7.395-17.095-7.395-5.675 0-11.932 7.395-17.052 7.395-4.679 0-9.842-6.172-14.592-7.239 1.977 8.306 5.091 15.018 8.505 20.522 1.294.569 2.716.953 4.38.953 6.827 0 15.346-6.258 19.911-6.258 4.551 0 8.519 6.258 14.777 6.258 6.272 0 14.222-6.258 18.218-6.258 3.982 0 10.226 6.258 16.483 6.258 4.053 0 6.443-2.631 9.159-4.494 2.617-4.807 4.907-10.439 6.5-17.095a9.425 9.425 0 0 0-.882-.042"/></g><g fill="#059334"><path d="M363.612 282.087l5.049-17.166 5.191 17.123 17.906-.512-14.691 10.24 6.002 16.853-14.265-10.809-14.179 10.937 5.859-16.91-14.763-10.112 17.891.356zM415.962 282.087l5.049-17.166 5.205 17.123 17.891-.512-14.706 10.24 6.016 16.853-14.279-10.809-14.165 10.937 5.859-16.91-14.777-10.112 17.907.356z"/><path d="M389.792 312.808l5.049-17.18 5.191 17.138 17.906-.498-14.706 10.226 6.016 16.853-14.265-10.795-14.194 10.923 5.874-16.896-14.777-10.126 17.906.355z"/></g><g fill="#f9d050"><path d="M353.654 228.112c3.556-2.916 6.827 1.707 7.41 4.551.569 2.844 3.982 6.827 7.381 6.827 0 0 2.276-6.827 3.982-10.24 1.707-3.413 6.258-4.551 9.116-3.413 2.844 1.124 7.964.569 7.381 5.689-.569 5.12-2.276 7.395-2.276 7.395s10.24.569 14.791 0c4.565-.569 9.685-3.413 13.099-1.707 3.413 1.707 8.533 2.276 10.24 1.138 1.707-1.138 2.844-4.551-1.138-3.996-3.982.583-7.395.583-10.809 1.152-3.413.569-18.204 1.138-18.204-3.413s5.675-5.134 6.812-4.551c1.152.569 9.685-5.689 11.392-2.844 1.707 2.844 1.707 6.258-3.413 6.258s-12.53-1.138-12.53.569 2.29 2.83 5.703 2.83c3.413 0 9.102-2.261 13.07-2.261 3.996 0 9.685-4.551 13.084-1.707 3.428 2.844 6.272 6.827 3.428 8.533-2.844 1.707-13.084 2.261-16.512 1.707 0 0 3.996 2.276 7.41 2.844 3.413.569 10.24 1.707 9.685 5.12-.583 3.413 1.124 7.964-3.428 7.395-4.551-.569-3.982-2.844-2.844-4.551 1.138-1.707-1.707-3.413-6.827-2.844s-11.378-2.276-11.378-2.276-1.707 4.551.569 5.689c0 0-6.841 2.844-10.809 3.413-3.982.569-7.964 2.276-7.964 0s2.844-5.689 5.12-4.551c2.276 1.138 6.243-.569 7.395-.569 1.138 0-3.996-3.413-1.152-4.551 2.859-1.138-2.261-1.707-5.106 0-2.844 1.707-19.911 6.258-25.614 8.533-5.675 2.276-10.809 1.707-13.084 2.844-2.276 1.138-6.812-1.707-4.551-4.551 2.276-2.844 3.413-4.551 5.12-2.844 1.707 1.707 4.565 1.138 8.533 0 3.982-1.138-2.261-2.276-3.399-3.413-1.138-1.138-5.703-7.964-5.703-9.671s-10.223-3.414-3.98-8.534M379.266 186.007c-3.413-5.12-13.653-11.947-13.653-11.947l9.671 2.844s-4.565-6.258-9.671-7.395c1.124 0 10.24 1.138 13.07 3.413 0 0-7.964-9.116-11.947-10.809 0 0 9.685 2.844 13.099 6.258l-3.982-8.533s7.381 3.413 9.657 7.964c0 0-2.276-9.102-6.827-13.653 0 0 5.12 2.276 7.41 5.689 0 0 1.707-1.707 5.12-.569l2.276-6.258 4.75 2.261 7.609-3.399v3.982l2.062-4.85-7.026 3.129h3.413l4.551-3.129s-1.707 5.547-2.276 10.681c0 0 2.844-4.636 9.102-6.912 0 0-7.964 12.217-9.102 16.754 0 0 11.378-11.25 18.773-14.094 0 0-10.24 12.003-13.084 16.554 0 0 8.533-7.353 16.483-9.628 0 0-10.226 10.823-11.932 13.099 0 0 5.689-2.276 13.084-1.707 0 0-17.066 9.685-21.049 13.084-3.982 3.415-29.581-2.829-29.581-2.829"/></g><path d="M370.726 211.035c-6.243 1.138-7.964 4.551-7.395 7.979.569 3.399 4.565 6.258 8.533 4.537 3.982-1.707 7.41-2.83 7.41-2.83s3.413.555 5.675 0c2.276-.583 3.413-2.276 3.413-2.276s6.272 1.124 9.685 0c0 0 6.243 2.83 11.378.569 0 0 12.515 5.675 18.204 3.399 5.675-2.276 1.038-9.884-1.707-10.795-5.134-1.721-17.635-3.428-27.321-3.996-9.67-.569-27.875 3.413-27.875 3.413" fill="#fff"/><g fill="#00247d"><path d="M425.918 211.611c-2.091-.697-5.447-1.408-9.315-2.034l.199.327s.569 2.844 1.138 6.258c.398 2.276.526 4.821 1.764 6.243 2.93.612 5.874.825 7.922.014 5.688-2.274 1.037-9.898-1.708-10.808M392.585 207.724c1.749 2.048 2.83 7.41 5.276 10.766.057-.014.128-.028.185-.057 0 0 6.059 2.745 11.122.683.526-.967-.313-1.82-.313-1.82l-3.669-9.159a200.1 200.1 0 0 0-6.585-.512c-1.764-.1-3.84-.058-6.016.099M382.681 220.139c1.764 0 3.044 0 3.897-.1a6.79 6.79 0 0 0 1.508-1.252c-.085-.896-.868-2.404-1.991-4.907a18.34 18.34 0 0 0-3.428-5.02 218.34 218.34 0 0 0-11.619 2.105c1.834 4.495 6.4 9.174 11.633 9.174"/></g><g fill="#059334"><path d="M352.529 188.286s1.707-6.272 9.102-6.272c7.381 0 3.982 4.565 12.515 5.134 8.533.555 38.684 4.551 43.235 6.827 4.551 2.261 10.24 1.707 13.084 1.138 2.844-.583.583 2.844-2.276 4.551-2.844 1.707-8.533.569-8.533.569s6.258 5.689 7.964 9.671c1.707 3.982 0 5.689-2.844 3.982-2.844-1.707-6.258 1.707-6.827-.569s-6.258-10.24-6.258-10.24-16.498-2.276-21.049 1.707c-4.551 3.982-10.126 5.461-19.356 4.551-5.675-.569-9.088-3.413-7.95-6.827 1.138-3.413 3.968-4.551 3.968-4.551s-.569-6.827-2.83-5.12c-2.276 1.692-7.41.569-7.979-.569-.553-1.137-3.966-3.982-3.966-3.982"/><path d="M370.726 186.007c2.446-1.465 14.222-6.827 23.338-6.258 9.088.569 14.791 2.844 21.034 6.258 6.272 3.413 5.689 6.258 9.116 7.395 3.413 1.138 1.707 2.844 0 4.551-1.707 1.707-7.41 11.378-25.614 10.809-18.204-.569-19.911-5.689-22.755-7.964-2.844-2.276-4.551-7.964-4.551-9.671.001-1.706-3.398-3.413-.568-5.12"/></g><path d="M404.863 203.077c6.172-1.692 14.549-3.925 18.602-9.984-2.617-1.294-2.617-3.954-8.363-7.083-6.258-3.413-11.947-5.703-21.049-6.258-6.428-.412-14.208 2.148-19.072 4.21-.27 4.025-.27 8.875-.27 8.875s5.12 2.844 9.102 6.258c3.983 3.413 14.792 5.689 21.05 3.982" fill="#00493d"/></svg>