<svg xmlns="http://www.w3.org/2000/svg" viewBox="0 0 512 512"><path d="M512 384c0 31.418-25.473 56.889-56.889 56.889H56.89C25.472 440.889 0 415.417 0 384V128c0-31.418 25.472-56.889 56.889-56.889H455.11C486.53 71.111 512 96.584 512 128v256z" fill="#ed1c23"/><path d="M512 327.111H0V184.89h512V327.11z" fill="#eee"/><path d="M241.679 187.79c-2.603 2.888-8.747 6.913-10.14 9.658-1.394 2.758-5.874 5.588-8.263 6.598-2.404 1.024-.299 2.674 2.319 1.039 2.631-1.621 4.808-1.55 6.357-3.044 1.537-1.479 3.74-.071 1.58.939-2.148 1.024-2.96 2.731-3.898 3.954-.953 1.237-1.408 1.849-3.584 1.891-2.176.058-4.11.583-5.633 2.788-1.536 2.218-3.413 4.807-4.223 6.03-.825 1.223-.199 2.176 1.82.682 2.033-1.507 4.295-2.759 5.305-1.081 1.01 1.664.967 2.46-1.735 3.541-5.76 2.304-7.424 3.669-8.463 5.987-1.039 2.333-.426 3.044-4.025 4.21-3.599 1.167-9.444 5.406-13.255 8.278-3.811 2.873-1.635 3.015 1.28 2.873 4.466-.214 10.211-3.243 13.141-1.978.882 1.679 1.907 3.84 3.272 5.376-4.708 6.628-5.49 9.202-10.325 9.302-4.85.113-7.879 5.02-10.126 7.48-2.248 2.476-4.195 4.822-6.528 5.832-2.034.896-2.502 1.621-.91 2.433 1.579.825 2.986-1.138 4.451-.455 1.479.697 2.446.44 4.708-1.067 2.261-1.493 4.636-3.498 8.262-3.94 1.735 2.034 2.603 3.1 4.565 4.153-3.399 4.651-8.534 8.277-12.971 9.827-4.451 1.536-5.134 3.258-8.32 7.325-3.171 4.054-3.029 5.39-6.286 5.448-3.271.085-3.129.811-1.408 2.091 1.722 1.309 3.029.669 5.589 1.222 2.56.54 5.831 1.082 9.145-2.502 3.314-3.584 11.42-9.856 18.319-9.245 3.271.299 5.589.968 1.679 4.694-3.925 3.712-9.558 6.542-13.398 7.31-7.481 1.507-10.681 4.48-12.857 4.395-2.177-.071-4.21 1.422-.897 3.399 3.314 2.005 4.409 2.46 8.135.796 3.713-1.65 9.814-4.451 12.218-5.091 2.404-.67 4.21-1.68 5.902-1.223 1.722.441 3.029-.085 4.949-1.323 1.906-1.25 4.679-1.436 7.054-3.668 2.759-2.589 5.675-.355 7.524 1.166 1.848 1.536 5.49 7.622 2.205 11.819-3.3 4.181-6.955 8.619-8.122 10.822-1.166 2.205-1.835 2.346-3.213 2.845-4.438 1.679-8.96 4.438-10.283 5.562-1.309 1.108-.811 1.478 1.01 1.792 1.82.328 2.063-.057 3.726-1.407 1.664-1.365 3.684-3.457 7.794-3.328 2.176.085 3.967-1.166 5.86-3.142 1.891-1.977 5.974-3.755 8.035-3.328 2.063.441 2.66-.042 3.854-.939 1.18-.867 2.147-1.251 3.996.285 1.849 1.537 3.414 1.252 5.319.128 1.92-1.138 3.982-.698 4.509.512.497 1.195.767 2.275 2.488 3.441 1.721 1.18 7.851 4.808 9.814 5.846 1.949 1.052 3.229-.91 1.764-2.22-1.479-1.293-2.233-2.374-2.02-3.455.227-1.095 1.365-1.537 4.694-1.082 5.22.74 12.686 4.452 15.388 6.073 2.717 1.65 5.149 3.044 7.339 3.001 2.176-.057 2.873-.555.91-2.332-1.991-1.764-4.395-1.58-5.276-3.385-1.521-3.115-4.153-.868-5.546-3.997-.982-2.232-2.333-2.488-4.04-2.332-1.692.156-3.953-1.365-5.518-3.755-5.519-8.349-7.011-15.815-5.205-21.433 1.82-5.603 7.111-7.296 10.198-4.935 3.086 2.362 6.727 3.84 8.306 3.684 1.579-.156 2.915-.171 4.964.981 2.09 1.18 5.632 1.934 9.94.143 4.31-1.778 5.832-.37 8.577-.299 2.319.071 5.106.498 6.969 2.034 1.835 1.536 4.651 2.56 8.889 3.186 4.252.64 7.125-.512 3.712-2.489-3.456-1.991-6.371-3.142-7.637-4.935-1.238-1.777-3.073-2.105-4.864-2.062-1.806.042-4.75-1.224-7.225-3.713-2.46-2.502-4.423-2.943-6.358-2.66-1.933.285-4.125-.27-5.475-1.92 1.863-2.218 3.854-6.371 5.633-7.622 2.19-.171 3.982.399 5.475 1.692 1.494 1.28 3.541 1.01 5.006.982 1.451-.03 3.513.64 4.736 1.465 1.238.825 3.172.767 4.978.013 1.777-.767 1.394-1.721-.796-3.001-2.22-1.28-3.442-2.105-4.21-3.314-.725-1.18-1.365-1.764-4.012-1.721-2.66.071-3.925-1.238-6.016-3.499-4.721-5.091-7.851-5.39-10.894-4.964-3.001.427-6.016.982-8.518-2.602 3.1-1.521 5.632 1.978 9.657-1.052 2.161-1.622 3.584-2.02 6.273-1.11s5.817.612 6.64-.013c.855-.626 1.935-1.621 3.258-1.764 1.309-.156 1.153-1.92-.782-1.678-3.74.44-4.409-1.85-8.008-1.167-3.612.683-4.935.114-7.281-1.536-2.346-1.635-4.309-3.044-11.179-1.934.313-2.176.128-4.48 3.513-5.162 2.574 1.521 4.977 1.237 7.026 1.18 2.063-.043 9.088-.071 11.15.256 2.091.313 2.531-.669-.54-2.304-3.044-1.621-7.41-2.247-8.989-2.332-1.578-.1-2.346-1.166-3.356-3.2-1.01-2.034-4.054-3.655-8.547-3.684-3.642-.029-6.315-1.679-8.164-3.327-1.863-1.664-3.584-2.96-5.76-3.272-2.19-.312-4.168-1.848-3.229-3.683.91-1.835 4.538-2.632 7.125-.995 2.56 1.635 4.139 1.72 5.689.838 1.55-.881 2.531-1.266 4.85-.468 2.304.796 4.622.753 1.039-1.963-5.163-3.869-10.227-2.319-11.962-4.451-1.748-2.148-3.171-1.266-4.366-.754-1.209.513-3.371-.682-.782-2.034 1.92-1.023 3.853-1.536 5.56-.74 1.707.825 3.77.527 5.063-.1 1.323-.64 2.618-1.877-1.38-2.631-4.011-.767-10.112-3.171-12.472-5.305-2.333-2.119-4.879-2.546-6.926-2.147-2.048.412-3.74.697-7.297-1.537-3.57-2.218-8.206-4.422-11.448-8.946-3.26-4.526-3.56-1.739-5.564.48" fill="green"/><g fill="#eee"><path d="M229.689 213.575c-2.346-.285-4.253.811-3.029 2.418 1.209 1.607 1.82.597 3.356-.157 1.521-.767 2.944-1.877-.327-2.261M236.189 218.695c-2.148 1.039-4.224 2.275-4.893 4.466-.682 2.19-.582 4.125 1.436 3.599 3.073-.796 3.272-4.438 5.52-4.85-.74-1.067-.955-2.517-2.063-3.215M239.958 216.789c.198.896.497 2.346 1.237 3.057 1.978-.952 7.026-2.872 8.918-3.285.156-1.351-.228-2.261-.612-2.972-2.717.242-6.685 1.223-9.544 3.2M256.854 225.28c.029 1.337.597 4.707.867 6.045 1.209.569 2.801 1.024 4.011 1.351.825-1.592 1.01-3.882.982-5.334-2.205-1.408-4.183-2.943-5.86-2.062M252.586 227.271c.143 1.082.185 2.66.328 3.627-1.579.028-4.11.925-5.66 1.45-1.565.513-3.442-2.346-.683-3.498 2.759-1.138 4.565-1.436 6.015-1.579M213.903 238.151c2.872-1.521 4.352-.582 6.982-1.365 1.238 1.18 2.716 2.603 3.726 4.039-1.521 2.574-6.158.854-7.708 1.977-1.237-1.308-2.12-2.617-3-4.65M225.536 235.235c.754 1.565 1.521 2.872 2.134 3.584 2.19.199 3.001-1.024 3.94-2.503s.896-3.285-1.521-3.115-3.743.684-4.553 2.034M206.663 263.111c.626 1.55 2.46 2.119 2.972 3.328 2.034-1.251 3.001-1.166 4.708-.825 1.692.312 6.257-1.238 8.86-3.968 2.602-2.716.925-2.432-2.105-2.005-3.015.427-5.292.968-7.368.527-2.061-.428-5.19.468-7.067 2.943M233.373 250.425c-1.437.881-2.148 1.494-1.024 2.801 1.109 1.309 1.706.698 3.015-.071 1.322-.754 1.906-1.849 1.166-2.801-.754-.953-1.721-.812-3.158.071M240.455 248.192c-1.451.03-1.338.94-1.137 1.65.198.725.383 1.18 1.565 1.153 1.18-.029 1.35-.299.967-1.479-.385-1.167-.485-1.352-1.395-1.323M244.835 249.444c.042 1.65-.241 1.55 1.394 1.792 1.65.228 2.19.128 2.247-1.407.058-1.55.128-2.091-1.777-2.148-1.907-.044-1.892.581-1.864 1.763M251.591 250.752c-.469 1.31-1.124 2.39.881 3.158 2.02.767 2.092.227 2.688-1.507.597-1.735.669-2.56-.881-2.987-1.55-.414-2.09-.314-2.688 1.336M258.702 251.235c-.07.725-.668 2.745-.925 3.385.825.341 1.92.767 2.76 1.294.824.526 1.977-.953 1.578-2.304-.397-1.35-1.891-3.498-3.412-2.375M267.279 229.532c-.256.91-1.095 3.925-1.436 4.75 2.375.583 4.195.91 5.817.783 1.635-.128 4.266-.64 5.546-.399 1.266.241 1.963-1.039-.156-2.631-2.119-1.579-3.414-1.82-4.765-1.806-1.351.043-3.67-1.635-5.006-.697M276.324 240.782c-1.608-.256-2.518 1.053-1.394 1.934 1.109.896 2.546.498 2.702-.327.185-.824.242-1.365-1.308-1.606M279.965 240.355c.1.811.313 2.261.328 2.901 1.208 1.153 2.46-.057 3.755 1.095 1.293 1.153 2.247-.042 2.502-1.237.256-1.18.413-1.82-.669-1.793-2.375.044-3.953-2.003-5.916-.966M254.208 212.338c.285.626 1.038 2.062 1.052 2.787 1.109.698 3.669 1.465 4.366.185.698-1.294.953-1.849-.241-2.446-1.18-.611-3.784-2.83-5.177-.526M263.965 214.641c-.782.881-.156 1.365.953 1.963 1.108.626 1.89-.399 1.792-1.209-.115-.824-1.594-2.047-2.745-.754M228.125 276.438c.825.74 1.494 1.792 1.266 2.986-.213 1.222.527 1.692 1.38 2.047.854.328 3.087 2.433 3.513.156.441-2.303-1.465-5.902-2.801-6.1-1.323-.228-1.934-.214-2.547-.926-.627-.71-2.419.414-.811 1.836M302.72 266.837c-.569 2.063-2.788 6.572-4.21 7.467-2.19-1.053-6.201-1.934-6.585-3.129a72.865 72.865 0 0 1 2.19-5.361c2.49-.542 6.486-.754 8.605 1.023M289.081 263.738c-.057 1.578-.981 5.106-1.422 6.328-2.532.299-8.605-.896-10.653-.127.085-1.693.029-3.883.498-4.993 3.868-.071 7.452-2.575 11.577-1.208"/></g></svg>