<svg xmlns="http://www.w3.org/2000/svg" viewBox="0 0 512 512"><path d="M256 209.778c12.829 0 24.434 5.233 32.811 13.667-6.614-4.765-14.691-7.609-23.466-7.609-22.173 0-40.164 17.978-40.164 40.164s17.991 40.164 40.164 40.164c8.775 0 16.854-2.845 23.466-7.609-8.377 8.434-19.982 13.667-32.811 13.667-25.529 0-46.223-20.693-46.223-46.222s20.694-46.223 46.223-46.223m46.222 13.54l14.678 20.195 23.751-7.708L325.974 256l14.677 20.195-23.751-7.709-14.677 20.195v-24.974L278.47 256l23.751-7.723v-24.959zM0 341.334h512V170.668H0v170.666z" fill="#141414"/><path d="M455.111 71.111H56.89C25.472 71.111 0 96.582 0 128v42.666h512V128c0-31.418-25.473-56.889-56.889-56.889" fill="#e70013"/><path d="M455.111 440.889H56.89C25.472 440.889 0 415.417 0 384v-42.666h512V384c0 31.418-25.473 56.889-56.889 56.889" fill="#239e46"/><g fill="#fff"><path d="M256 302.222c12.829 0 24.434-5.233 32.811-13.667-6.614 4.765-14.691 7.609-23.466 7.609-22.173 0-40.164-17.978-40.164-40.164s17.991-40.164 40.164-40.164c8.775 0 16.854 2.845 23.466 7.609-8.377-8.434-19.982-13.668-32.811-13.668-25.529 0-46.223 20.694-46.223 46.223s20.694 46.222 46.223 46.222"/><path d="M302.222 263.723v24.973l14.678-20.21 23.751 7.723-14.677-20.195 14.677-20.21-23.751 7.722-14.678-20.21v24.974l-23.75 7.723 23.75 7.71z"/></g></svg>