<svg xmlns="http://www.w3.org/2000/svg" viewBox="0 0 512 512"><path d="M455.111 71.111H56.889C25.472 71.111 0 96.583 0 128v256c0 31.417 25.472 56.889 56.889 56.889h398.222C486.528 440.889 512 415.417 512 384V128c0-31.417-25.472-56.889-56.889-56.889z" fill="#c1272d"/><path d="M260.985 235.353l-4.978-15.346-4.992 15.346h9.97zm14.493 10.524l3.072 9.458 13.013-9.458h-16.085zm-55.026 0l13.013 9.458 3.072-9.458h-16.085zm21.959 15.957l13.596 9.87 13.582-9.87-5.191-15.957h-16.796l-5.191 15.957zm-3.413 10.525l-4.978 15.317 13.028-9.458-8.05-5.859zm25.955 5.859l13.028 9.458-4.978-15.317-8.05 5.859zm-50.958 37.007l16.043-49.365-41.998-30.507h51.911l16.057-49.408 16.043 49.408h51.911l-41.998 30.507 16.043 49.365-41.998-30.507-42.014 30.507z" fill="#006233"/></svg>