<svg xmlns="http://www.w3.org/2000/svg" viewBox="0 0 512 512"><path d="M455.111 71.111H341.334V440.89H455.11C486.53 440.889 512 415.416 512 384V128c0-31.417-25.473-56.889-56.889-56.889" fill="#dd2e44"/><path d="M56.889 71.111C25.472 71.111 0 96.582 0 128v256c0 31.418 25.473 56.889 56.889 56.889h113.777V71.11H56.89z" fill="#265fb5"/><path d="M170.666 440.889h170.666V71.11H170.666V440.89z" fill="#ffcc4d"/><path d="M284.445 256h-56.889v-42.666h56.889V256z" fill="#dd2e44"/><path d="M227.555 256v28.445L256 298.668l28.445-14.223V256h-56.89z" fill="#269"/><g fill="#a0724a"><path d="M227.555 156.445v14.223h14.223v28.444h28.445v-42.667h-42.668zM270.222 298.666L256 307.555l-14.223-8.889-14.222 42.666L256 355.555l28.445-14.223-14.223-42.666zM213.334 184.889l-14.223-14.223-14.222 14.223V327.11l28.445-28.445v-99.555h14.222l-14.222-14.222zM312.889 170.666l-14.223 14.223-14.222 14.222h14.222v99.555l28.445 28.445V184.89l-14.222-14.223z"/></g><g fill="#ffcc4d"><path d="M238.45 256h-7.553v-5.774h7.553V256zM281.116 256h-7.552v-5.774h7.552V256z"/></g><path d="M222.392 323.456c-1.507.881-3.74-.142-4.977-2.261l-31.744-54.983c-1.222-2.147-.995-4.58.526-5.447l1.92-1.109c1.522-.881 3.755.128 4.964 2.261l31.759 54.998c1.237 2.119.995 4.551-.513 5.432l-1.935 1.11z" fill="#77b255"/><path d="M324.509 261.589c1.521.867 1.777 3.271.555 5.361l-31.161 54.016c-1.223 2.091-3.428 3.073-4.95 2.205l-1.92-1.109c-1.507-.896-1.763-3.285-.554-5.376l31.189-54.016c1.208-2.076 3.413-3.086 4.92-2.19l1.92 1.109z" fill="#ffcc4d"/><g fill="#dd2e44"><path d="M227.555 298.666l-14.223 14.223v14.222l14.223-14.222v-14.223zM284.445 298.666v14.223l14.223 14.222V312.89l-14.223-14.223z"/></g><path d="M256 241.778l-14.223-14.223v42.07L256 284.445l14.223-14.82v-42.07L256 241.778z" fill="#ffcc4d"/></svg>