<svg xmlns="http://www.w3.org/2000/svg" viewBox="0 0 512 512"><path d="M455.111 71.111H56.889C25.472 71.111 0 96.583 0 128v256c0 31.417 25.472 56.889 56.889 56.889h398.222C486.528 440.889 512 415.417 512 384V128c0-31.417-25.472-56.889-56.889-56.889zm-28.444 284.445H85.333V156.444h341.333v199.112z" fill="#d21034"/><path d="M85.333 355.556h341.333V156.444H85.333v199.112z" fill="#007e3a"/><path d="M279.319 317.778c3.968 0 7.836-.384 11.577-1.095-28.572-5.433-50.19-30.521-50.19-60.686 0-30.151 21.618-55.253 50.19-60.672a61.934 61.934 0 0 0-11.577-1.109c-34.119 0-61.781 27.662-61.781 61.781s27.662 61.781 61.781 61.781" fill="#fff"/></svg>