<svg xmlns="http://www.w3.org/2000/svg" viewBox="0 0 512 512"><path d="M56.889 71.111C25.472 71.111 0 96.582 0 128v256c0 31.418 25.473 56.889 56.889 56.889h99.555V71.11H56.889z" fill="#006847"/><path d="M455.111 71.111h-99.555V440.89h99.555C486.53 440.889 512 415.416 512 384V128c0-31.417-25.473-56.889-56.889-56.889" fill="#ce1126"/><path d="M156.445 440.889h199.111V71.11H156.445V440.89z" fill="#eee"/><path d="M327.111 256c0 39.281-31.828 71.111-71.111 71.111-39.267 0-71.111-31.829-71.111-71.111h-14.223c0 47.133 38.202 85.334 85.334 85.334s85.334-38.201 85.334-85.334H327.11z" fill="#a6d388"/><g fill="#5c913b"><path d="M192.611 288.27a7.084 7.084 0 0 0-6.656-3.854c-.981.014-1.978.285-2.915.74-3.499 1.778-4.893 6.073-3.115 9.571a90.718 90.718 0 0 0 4.21 7.34s.014 0 .014.013a.27.27 0 0 0 .057.085c.043.057.071.1.114.156v.014c.029.029.043.058.057.085 0 .014 0 .014.014.029.014.029.029.057.058.071v.014a.329.329 0 0 1 .057.071v.029a.269.269 0 0 0 .058.071v.029c.029.014.042.042.057.057 0 .014 0 .014.014.029a.19.19 0 0 1 .043.058c0 .013.013.028.028.042.014.014.029.029.029.043.014.013.014.028.029.042.013.029.028.043.042.071 0 0 .014 0 .014.014l.042.043c0 .028.014.057.043.085v.028c.014.029.029.058.057.072 0 .013.014.013.014.013.029.043.058.1.1.143 0 .014.014.014.014.014a.253.253 0 0 0 .071.1v.013c.725 1.095 1.494 2.148 2.29 3.229 1.451 1.949 3.726 2.93 5.988 2.845a6.969 6.969 0 0 0 3.925-1.407 7.078 7.078 0 0 0 1.465-9.942 72.396 72.396 0 0 1-6.218-10.056M185.6 265.756a70.182 70.182 0 0 1-.597-6.783 67.16 67.16 0 0 1-.043-5.063c.114-3.911-2.973-7.196-6.897-7.31-.172 0-.342 0-.513.014a7.101 7.101 0 0 0-6.799 6.912 91.461 91.461 0 0 0-.014 4.423c0 .071.014.127 0 .185l.014.014c0 .028 0 .057-.014.085l.014.013v.384c0 .029 0 .043.014.071-.014.014-.014.014-.014.029 0 .029.014.058 0 .085 0 .029.014.058.014.085 0 .014-.014.014-.014.029 0 .014.014.042.014.057V259c0 .029.014.058.014.085v.014c-.014.029 0 .057 0 .071V259.583s.013.028.013.057v.014c0 .014.014.042.014.042-.014.014-.014.029-.014.029v.043c.014.013.014.013.014.028V260.195c0 .014.014.029.014.043v.028c0 .014-.014.029 0 .058V260.395c.014.1.014.199.014.285 0 .043 0 .071.013.114V260.936l.014.014c.128 2.275.355 4.551.654 6.784a7.088 7.088 0 0 0 7.325 6.101c.227-.014.455-.029.682-.057 3.902-.527 6.618-4.124 6.078-8.022M260.835 326.969c-.029.014-.057.014-.085.014l-1.764.113c-3.371.128-6.783.043-10.097-.299a6.229 6.229 0 0 0-1.024-.028c-3.47.142-6.4 2.845-6.77 6.4a7.115 7.115 0 0 0 6.358 7.78c.597.057 1.18.1 1.777.156.029.014.043.014.058.014 0 0 .013 0 .028-.014.014 0 .029 0 .043.014h.029c.028 0 .057 0 .085.013H249.558c.013 0 .028 0 .042.014h.029c.029-.014.057-.014.085-.014.014.014.014.014.029.014H249.829c.029.014.057.014.085.014.029 0 .057.014.071.014h.029a.093.093 0 0 1 .085 0h.085c.029 0 .057.014.085.014.071.013.127 0 .199 0 2.147.142 4.323.213 6.527.17.1 0 .185.015.285 0H257.564c.042 0 .071-.013.1-.013.029.014.057.014.085.014H257.96c.014-.014.043-.014.072-.014h.113c.029-.014.043-.014.072 0h.113c.029-.014.058-.014.085-.014h.029c.014 0 .043.014.071.014 0 0 0-.014.014-.014.029 0 .058 0 .085.014h.014c.029 0 .042 0 .071-.014H258.814c.029 0 .057 0 .085-.014h.084l.03.014c.028 0 .057-.014.085-.014H259.21c.014 0 .043-.013.072-.013H259.565c.029 0 .058-.014.085-.014H259.721c.014 0 .043 0 .058-.014h.014c.013 0 .042.014.057.014H259.921c.029 0 .043-.014.072-.014h.07c.598-.014 1.21-.071 1.807-.1a7.025 7.025 0 0 0 6.443-7.481c-.267-3.868-3.594-6.883-7.478-6.726M226.148 320.555a72.144 72.144 0 0 1-10.298-5.845c-1.309-.925-2.83-1.294-4.309-1.238-2.161.085-4.266 1.138-5.575 3.087-2.218 3.213-1.393 7.666 1.835 9.87l.014.014c.029 0 .058.028.085.042l.085.085h.014a.27.27 0 0 1 .085.057c.029.03.057.043.085.072h.014a85.13 85.13 0 0 0 11.975 6.755 7.003 7.003 0 0 0 3.285.654 7.119 7.119 0 0 0 6.158-4.11c1.653-3.555.102-7.793-3.453-9.443M297.685 314.894a7.09 7.09 0 0 0-3.527 1.137 73.17 73.17 0 0 1-10.44 5.504c-3.626 1.507-5.333 5.675-3.797 9.315a7.131 7.131 0 0 0 6.826 4.338c.84-.03 1.664-.228 2.46-.54.654-.3 1.267-.556 1.907-.854h.029a.27.27 0 0 0 .085-.058s.028 0 .028-.014c.029 0 .029-.013.058-.028.028.013.028.013.057 0 .029 0 .029-.029.058-.029 0-.014.029-.014.029-.029.013 0 .042-.014.07-.014.014-.013.03-.013.03-.013.013-.029.028-.029.042-.029.029-.029.043-.029.071-.029.014 0 .029-.014.043-.014a.11.11 0 0 1 .071-.028c.014-.014.014-.014.029-.014.029-.014.042-.029.071-.029l.029-.014c.042-.028.042-.042.071-.042 0-.014.029-.014.029-.014a.296.296 0 0 0 .071-.042h.029c.029-.029.057-.029.085-.043l.085-.042.029-.014c.028-.014.042-.029.07-.043.015 0 .015 0 .03-.013.028 0 .057-.014.085-.043.013 0 .013 0 .013-.014.029-.013.072 0 .1-.013.029-.014.043-.043.085-.058 0 0 0-.014.029-.014 0-.013.029-.028.058-.042h.028c.029-.014.058-.043.085-.043.058-.013.085-.013.114-.028.029-.029.058-.043.085-.058h.014c.029-.014.071-.029.1-.057 0 0 0-.014.014-.014.042-.029.113-.058.185-.085.028-.014.057-.029.1-.043.057-.042.142-.07.198-.113.029-.014.085-.029.114-.043.029-.014.043-.029.071-.042h.014a.897.897 0 0 1 .199-.1v-.014c.042-.014.071-.014.085-.029h.014c.113-.057.198-.1.298-.171.029-.014.058-.029.1-.029.072-.042.128-.071.199-.114.043-.028.071-.042.1-.057h.014c.014-.014.042-.029.1-.029.014-.042.042-.057.071-.071.029-.014.085-.029.114-.043.029-.028.057-.028.085-.057.071-.029.142-.058.199-.085h.013c.029-.014.072-.043.1-.058 0-.013 0-.013.014-.013a.19.19 0 0 1 .058-.043h.013c.043-.014.072-.042.1-.057l.085-.043h.029c.029-.029.058-.042.085-.057v-.014c.043-.014.071-.029.1-.043l.014-.013.085-.043v-.014c.029 0 .042-.013.071-.028l.029-.014c.029-.014.029-.029.057-.029s.043-.029.043-.029c.029 0 .042 0 .071-.028.014-.014.014-.014.029-.014a.296.296 0 0 1 .071-.043c.014 0 .014 0 .029-.013.029 0 .057-.029.085-.029-.014-.014 0-.014.014-.014a.227.227 0 0 1 .085-.042s0-.014.028-.014c0 0 .014-.029.043-.043 0-.013.029-.013.029-.013l.085-.043s0-.014.028-.014c0-.028.029-.028.058-.042.014 0 .029 0 .042-.014.014 0 .029-.014.058-.029.014 0 .029-.013.042-.028.014-.014.029-.029.058-.029.014-.014.029-.014.042-.029.014-.014.043-.014.043-.029l.042-.042h.058s.029-.029.057-.029c0 0 .029 0 .029-.014.029-.013.029-.028.058-.028 0-.014.028-.029.057-.043l.029-.014c.029-.013.029-.013.057-.028.014-.029.043-.029.058-.043.014-.014.029-.014.042-.029.029.014.043 0 .072-.013.013 0 .028-.029.028-.029l.058-.029c0-.014.029-.014.029-.029.013-.013.028-.013.042-.028.014 0 .029-.029.058-.029.028-.014.028-.029.057-.043.029 0 .029-.013.029-.013.029-.014.085-.014.114-.043-.03-.014-.03-.014 0-.014 0-.013.028-.013.057-.028.043-.029.071-.043.1-.058.014 0 .014 0 .029-.029.029 0 .057-.028.1-.028v-.014c.042-.043.085-.058.156-.085.029-.014.085-.058.114-.071.085-.058.171-.114.285-.157h.014c.896-.54 1.82-1.095 2.687-1.663 3.3-2.148 4.281-6.5 2.161-9.814a7.17 7.17 0 0 0-6.311-3.301M334.251 249.216c-.113.014-.227 0-.327.014a7.116 7.116 0 0 0-6.813 7.083c0 3.94-.355 7.92-1.023 11.79-.67 3.868 1.948 7.552 5.802 8.206.513.085 1.01.127 1.494.114a7.146 7.146 0 0 0 6.727-5.932v-.071l.014-.029s.014-.014.014-.029c0-.013 0-.013-.014-.028 0-.029 0-.029.014-.029v-.014c0-.014 0-.029.014-.029v-.042c0-.014 0-.014.013-.029v-.127c.029-.014.029-.043.029-.058v-.084c.299-1.836.555-3.685.74-5.547 0 0-.014 0-.014-.014.014-.014.014-.042.014-.042v-.014c0-.014 0-.043.014-.058v-.157c0-.014.014-.029.029-.043v-.013s-.014-.029-.014-.043v-.029c.014-.013.014-.028.014-.042v-.058s0-.013.028-.013c0-.014-.028-.029-.028-.043v-.042c.028-.014.028-.029.028-.043v-.1c0-.057.014-.114 0-.156v-.014c0-.014.029-.029.029-.042v-.014c.171-2.319.285-4.665.299-7.04 0-3.925-3.158-7.125-7.083-7.139M327.965 287.559a7.24 7.24 0 0 0-3.74-.881 7.124 7.124 0 0 0-5.931 3.668 68.742 68.742 0 0 1-6.585 9.856c-2.433 3.073-1.906 7.553 1.152 9.984a7.023 7.023 0 0 0 4.737 1.536 7.107 7.107 0 0 0 5.262-2.673 100.301 100.301 0 0 0 4.694-6.471c.029-.1.1-.2.142-.285l.014-.014c.014-.029.043-.058.058-.085v-.014c.028-.029.028-.058.057-.1.029-.014.058-.043.058-.071l.013.013a.27.27 0 0 1 .058-.085v-.013a.153.153 0 0 0 .042-.1c.029 0 .029-.014.029-.014.029-.029.029-.058.058-.085v-.014c.028-.014.028-.042.042-.071.014 0 .014 0 .014-.014.014-.029.042-.057.057-.085 0-.014.014-.014.014-.029.014-.028.029-.028.029-.057l.029-.029c0-.014.028-.042.028-.071h.029c0-.029.029-.043.029-.085 0 0 .014-.014.014-.029.028-.014.042-.042.057-.057 0-.014.014-.029.014-.029.014-.029.014-.058.042-.071 0-.014.014-.029.014-.043.029-.014.029-.029.058-.042 0-.014 0-.029.028-.043v-.057c.029-.014.029-.014.043-.014.014-.029.029-.043.042-.071 0-.014.014-.014.014-.029 0-.029.029-.043.043-.085 0-.014.013-.014.028-.029 0-.014.029-.029.029-.057 0-.014.029-.029.029-.043s0-.029.029-.042c0-.014 0-.029.013-.043.029-.014.029-.042.043-.071 0-.014.014-.029.014-.043 0-.013.013-.028.028-.042 0-.014.014-.029.029-.029.029-.014.029-.029.029-.042.029-.014.029-.029.029-.058 0-.014.028-.029.028-.042s.029-.043.043-.058c.014-.014.029-.042.042-.057-.013-.014 0-.029 0-.043.014-.014.029-.029.029-.042.014-.014.029-.043.043-.058s.013-.029.042-.042v-.043c.029-.029.029-.042.058-.071v-.043c.028 0 .042-.013.042-.042.014-.014.014-.029.029-.029.014-.014.014-.029.029-.042a.151.151 0 0 0 .042-.072c0-.013.029-.028.029-.042v-.029c.014-.029.014-.042.042-.071 0-.014 0-.029.029-.043 0-.013.014-.028.014-.042.014-.029.029-.029.042-.058 0-.013.014-.042.029-.057 0-.014.014-.029.029-.043.014-.013 0-.028.029-.042 0-.014 0-.029.028-.029 0-.029.029-.057.029-.071l.029-.029c0-.029.014-.042.029-.085.013 0 .013 0 .028-.014 0-.013.014-.042.029-.057l.029-.029c0-.029.014-.057.029-.071 0-.014.028-.029.028-.029 0-.029.029-.057.029-.085.029-.014 0-.029 0-.029l.058-.057c.015-.015.013-.014.013-.029 0-.014.029-.042.043-.071 0 0-.014-.014 0-.014l.042-.085.029-.029c0-.028.029-.057.029-.085v-.013c.029-.029.057-.043.071-.072.014-.028.043-.057.043-.085v-.013c.028-.043.042-.072.057-.085 0-.014.029-.014.029-.014.114-.228.227-.469.355-.669 1.88-3.452.657-7.776-2.784-9.682"/></g><path d="M298.666 298.666c0 7.865-19.1 14.223-42.666 14.223s-42.666-6.358-42.666-14.223c0-7.865 19.1-14.222 42.666-14.222s42.666 6.357 42.666 14.222" fill="#55acee"/><path d="M284.445 298.666c0 7.865-9.557 14.223-21.334 14.223-11.79 0-21.334-6.358-21.334-14.223 0-7.865 9.543-14.222 21.334-14.222 11.776.001 21.334 6.357 21.334 14.222" fill="#ffcc4d"/><g fill="#5c913b"><path d="M251.691 279.979c-.298 0-.626-.014-.925-.058-5.318-.711-10.367-1.764-15.018-3.142-3.77-1.124-5.917-5.078-4.793-8.846.029-.1.057-.185.085-.27-.057.113-.1.213-.156.327-1.934 3.414-6.258 4.651-9.685 2.731-4.835-2.702-9.174-5.959-12.9-9.685a7.115 7.115 0 0 1 0-10.055c2.787-2.774 7.281-2.774 10.055 0 2.801 2.801 6.087 5.263 9.785 7.325a7.127 7.127 0 0 1 3.271 8.491c1.494-3.028 5.02-4.636 8.391-3.64 3.925 1.165 8.235 2.062 12.8 2.66 3.898.512 6.642 4.095 6.13 7.978a7.123 7.123 0 0 1-7.04 6.184m20.195 22.598a7.15 7.15 0 0 1-3.399-.867 7.105 7.105 0 0 1-2.858-9.629c2.275-4.181 4.678-7.979 7.14-11.306-1.963.085-4.012.114-6.102.114-3.94 0-7.508-3.187-7.508-7.125 0-3.912 2.773-7.112 6.712-7.112.114 0 1.039.014 1.153.03 4.21-.015 8.533-.257 12.401-.627 2.247-.228 4.395.682 5.831 2.219.199-.157.413-.299.611-.442a34.585 34.585 0 0 1 3.997-2.29c.838-.668 1.848-1.123 3.001-1.337.171-.043.341-.071.512-.1 2.66-.881 4.538-.995 5.292-.995 2.261 0 4.366 1.081 5.717 2.901a7.092 7.092 0 0 1 1.066 6.315c-1.166 3.783-3.755 4.636-8.333 5.546-.839.328-2.005.897-3.385 1.807-2.674 1.763-6.144 1.493-8.519-.484 1.949 2.517 2.034 6.13-.029 8.746-2.404 3.073-4.779 6.741-7.054 10.909a7.097 7.097 0 0 1-6.246 3.727M216.817 246.699c-6.058 0-13.895-2.346-18.645-7.95-7.267-8.605-11.562-19.613-10.893-28.06.171-2.248-2.034-4.068-4.195-4.636-1.238-.328-3.428-.54-4.438 1.663a3.566 3.566 0 0 1-4.721 1.735 3.558 3.558 0 0 1-1.735-4.721c2.219-4.821 7.196-6.969 12.672-5.561 5.092 1.322 9.984 5.902 9.5 12.075-.512 6.571 3.2 15.772 9.245 22.912 3.172 3.755 8.704 5.263 12.46 5.419 3.057.156 4.607-.54 4.934-.854-.811-1.891-11.335-7.423-15.829-9.785-3.826-2.02-4.963-4.765-5.247-6.712-.968-6.471 5.689-13.028 12.117-19.343 2.262-2.232 4.41-4.337 5.562-5.902 1.322-1.749 1.108-2.915.853-3.641-.995-2.66-5.233-5.292-10.353-6.43-4.737-1.052-7.937-3.342-9.5-6.798-2.048-4.565-.968-10.539 3.327-18.275a3.56 3.56 0 0 1 4.85-1.38 3.564 3.564 0 0 1 1.38 4.835c-4.054 7.281-3.655 10.581-3.072 11.904.597 1.309 2.118 2.232 4.565 2.774 6.016 1.337 13.241 4.906 15.46 10.908 1.28 3.428.64 7.111-1.807 10.368-1.493 1.977-3.826 4.266-6.272 6.699-3.684 3.612-10.51 10.34-10.084 13.24.085.583.881 1.11 1.521 1.452 10.682 5.617 17.778 9.658 19.23 14.62.512 1.749.298 3.513-.598 5.106-1.38 2.404-4.253 3.883-8.32 4.253-.629.056-1.284.085-1.967.085"/></g><g fill="#ffcc4d"><path d="M284.445 256c0 7.865-3.186 14.223-7.111 14.223s-7.111-6.358-7.111-14.223c0-7.851 3.186-14.223 7.11-14.223 3.926 0 7.112 6.372 7.112 14.223M245.916 244.438c0 4.096-4.906 7.41-10.965 7.41-6.045 0-10.965-3.314-10.965-7.41 0-4.097 4.921-7.41 10.965-7.41 6.059 0 10.965 3.313 10.965 7.41M229.12 178.645c.711 3.015-3.229 6.542-8.804 7.865-5.561 1.323-10.666-.057-11.377-3.073-.725-3.028 3.214-6.556 8.789-7.878 5.576-1.323 10.667.057 11.392 3.086"/></g><path d="M320.469 255.431c1.28.995 3.456-10.367 3.129-13.909 0-.24-.427-7.764 1.18-13.14.98-1.82 1.038-15.418-.47-18.973 1.196-.114 2.618-.484 2.802-1.949-5.519 2.048-6.813-11.62-12.118-19.456-5.148-7.865-11.533-12.445-18.205-17.223.498-1.337 1.294-2.588 2.304-3.84-8.177 4.097-20.921-10.737-39.751-9.628-4.224.412-6.215.668-7.31 3.257-3.512.285-7.082 1.081-7.082 5.703 0 1.108 1.01 3.128 3.257 3.142 3.073.896 5.575.199 7.666 4.494l.555 4.437s-2.759-3.498-4.266-4.067l.925-1.891c-1.408-.812-3.94-.157-3.94-.157s-5.461-2.56-9.856-1.877l-.854-3.555c-.767 2.176-2.489 2.062-2.731 4.139-.484-1.494-1.124-3.328-1.593-4.793-1.55 2.105-1.081 4.366-1.65 6.571-.597.498-1.82.527-2.134-.881-.156-1.735-.37-1.891-.37-3.954-1.108 1.934-2.446 2.888-2.887 6.244l-1.18-3.712c.043 4.366-3.712 6.982-7.281 10.055-.995 1.848.171 1.862.241 2.816l1.878.939 3.37-.242c.54.698.1.754 1.55 1.209 3.926 1.081 8.833-3.612 12.658 3.783-1.748 1.478-3.527 4.935-2.972 5.588.697 0-1.423.995 1.451.085-3.001 2.902-5.02 6.728-5.02 6.94-.341.825 1.209-.1.881 1.38l.712-.085c-6.827 7.368-.228 15.289-.953 19.542 1.138 1.848 1.266-.03 2.688-.228 1.195 5.234 4.636 8.405 6.74 12.544l-4.422.057c.1 1.963 1.878 3.827 3.285 5.547l-2.972.938c-2.119 1.095-3.528 2.248-5.02 3.898-.981 2.404 4.736 2.972 7.495 3.385l-.1 2.887c4.309.413 9.287-.867 9.287-1.108l1.082-.825 2.432 1.337c.811 0 2.076-3.242 1.494-5.746 1.565 1.862 3.057 4.864 4.622 6.741l1.465-.199c1.338 2.119 3.172 4.224 4.523 6.343l1.479.569c.867-.285 1.607-.4 2.076-2.092l.682 1.195 2.362-1.621 1.663-.327 1.238 2.02c.711-.285 1.436-1.863 1.465-3.528.74 1.465.939 1.351 1.494 1.721l1.094-2.29 5.903 5.519 4.466.256c1.608 1.082 5.959 1.749 6.699.014 3.584 1.536 7.808-.199 7.595-1.906 3.3 1.309 8.377.426 8.377.214.612-.085 2.177-1.622.698-2.774-10.909-7.595-27.094-20.168-33.323-23.196 0-2.248-1.692-10.34-3.512-12.56l1.465-2.474c4.253 3.967 5.803 3.57 8.064 4.21 2.417 1.92 3.257 4.835 5.675 7.495l2.176.399c-1.507-3.798-3.371-7.467-7.879-12.417 2.333 1.167 6.186 4.282 8.789 6.528 1.706 2.859 2.205 5.149 3.769 8.732 1.137.725 2.303 3.372 2.147 1.167-.27-4.14-3.186-10.695-3.186-11.165 4.651 3.668 4.594 9.386 5.987 12.87 1.18 1.765 1.778 4.126 2.29 3.57l-1.35-10.752-.797-3.94c3.428 1.978 4.651 9.515 6.258 18.56 0 1.437.582 3.015.497 3.94.725.91 1.579 3.428 1.565 1.934 0 0 0-14.706-1.01-18.062-.256-1.807.426-4.75.426-4.75 1.251 6.1 2.589 12.715 3.869 18.8v4.48l1.863 1.878c.37-3.683.782-7.367 1.152-11.036l-1.394-13.155v-3.755c-.029-1.322 1.209-1.081 1.978.426.185 3.214.185 5.747.327 8.96.555 3.669.925 6.358 1.209 11.037.152 3.826.309 12.9 1.119 12.743" fill="#c1694f"/></svg>