<svg xmlns="http://www.w3.org/2000/svg" viewBox="0 0 512 512"><path d="M511.971 126.824c-.01-.521-.015-1.043-.04-1.559a55.27 55.27 0 0 0-.181-2.507c-.004-.042-.005-.083-.01-.124a53.459 53.459 0 0 0-.271-2.3c-3.746-27.79-27.544-49.223-56.359-49.223H56.889C25.472 71.111 0 96.584 0 128v256c0 28.302 20.675 51.77 47.741 56.146l.051.01c.817.134 1.642.239 2.47.336.202.024.402.055.605.077.643.069 1.293.111 1.942.157.368.027.733.065 1.105.084.445.023.895.023 1.342.035.543.016 1.084.043 1.63.043H455.11c22.581 0 42.091-13.158 51.28-32.225a56.45 56.45 0 0 0 4.71-14.58c-.083.46-.183.913-.275 1.37A57.033 57.033 0 0 0 512 384V127.997c0-.39-.021-.78-.029-1.173zM15.174 422.416L497.52 90.414 15.174 422.416zm495.998-28.695c.045-.26.072-.527.113-.789-.041.262-.068.528-.113.79z" fill="#009543"/><g fill="#003580"><path d="M512 128.004v256c0 8.835-2.015 17.201-5.61 24.662 3.596-7.461 5.61-15.828 5.61-24.665v-256c0-.393-.021-.783-.029-1.176.008.391.029.781.029 1.179zM15.174 422.416L497.52 90.414c7.788 8.784 13.029 19.885 14.22 32.22-2.706-28.899-27.024-51.523-56.63-51.523H56.889C25.473 71.111 0 96.584 0 128v256c0 28.302 20.675 51.77 47.741 56.146-12.813-2.107-24.128-8.564-32.567-17.73zM50.264 440.493zM52.81 440.726c-.649-.047-1.299-.088-1.941-.157.641.068 1.291.112 1.941.157zM55.258 440.847c-.448-.012-.9-.013-1.343-.036.444.024.895.024 1.343.036zM511.75 122.756z"/></g><path d="M512 128c0-31.416-25.473-56.889-56.889-56.889h-9.44L0 383.171V384c0 31.416 25.473 56.889 56.889 56.889h9.446L512 128.835V128z" fill="#eee"/><path d="M469.315 72.899L2.275 399.92c5.686 19.536 21.561 34.723 41.495 39.429l466.191-326.44c-5.376-19.58-20.94-34.945-40.646-40.011z" fill="#d20f34"/><g fill="#ffce00"><path d="M78.222 246.471l23.357-18.109a45.096 45.096 0 0 1-19.35-11.183l-4.007 29.292zM70.015 173.72l-27.349 11.169 27.349 11.168a45.191 45.191 0 0 1-1.396-11.168c0-3.855.486-7.597 1.396-11.169zM52.195 149.334l18.108 23.355a45.104 45.104 0 0 1 11.183-19.349l-29.291-4.006zM78.222 123.306l4.008 29.292a45.101 45.101 0 0 1 19.35-11.184l-23.358-18.108zM149.334 123.306l-23.356 18.109a45.074 45.074 0 0 1 19.35 11.184l4.006-29.293zM175.36 149.334l-29.291 4.007a45.107 45.107 0 0 1 11.182 19.353l18.109-23.36zM102.608 228.65l11.17 27.35 11.17-27.35a45.22 45.22 0 0 1-11.173 1.395c-3.854 0-7.595-.486-11.167-1.395zM124.947 141.129l-11.17-27.35-11.17 27.35a45.178 45.178 0 0 1 11.167-1.395c3.857 0 7.6.486 11.174 1.395zM149.334 246.471l-4.008-29.291a45.086 45.086 0 0 1-19.35 11.184l23.358 18.107zM157.535 196.06l27.354-11.171-27.354-11.171a45.21 45.21 0 0 1 1.395 11.17 45.21 45.21 0 0 1-1.395 11.172zM175.36 220.445l-18.11-23.36a45.102 45.102 0 0 1-11.182 19.352l29.292 4.008zM52.195 220.445l29.291-4.008a45.09 45.09 0 0 1-11.184-19.348l-18.107 23.356z"/></g><path d="M158.93 184.889a45.27 45.27 0 0 0-1.395-11.171c-.088-.345-.189-.684-.285-1.027a45.102 45.102 0 0 0-11.924-20.093 45.086 45.086 0 0 0-19.35-11.184c-.342-.096-.682-.198-1.029-.286a45.22 45.22 0 0 0-11.172-1.395c-3.855 0-7.595.486-11.166 1.395-.347.087-.687.19-1.029.286a45.096 45.096 0 0 0-20.093 11.925 45.09 45.09 0 0 0-11.183 19.349c-.097.343-.199.685-.288 1.032a45.191 45.191 0 0 0-1.396 11.169c0 3.855.486 7.596 1.396 11.169.088.347.19.687.288 1.032a45.104 45.104 0 0 0 11.926 20.09 45.101 45.101 0 0 0 19.35 11.184c.342.096.682.197 1.029.286a45.178 45.178 0 0 0 11.166 1.395c3.856 0 7.6-.486 11.172-1.395.347-.088.687-.19 1.03-.286a45.074 45.074 0 0 0 20.09-11.925 45.107 45.107 0 0 0 11.183-19.353c.095-.342.198-.681.285-1.026a45.21 45.21 0 0 0 1.395-11.171zm-45.155 35.086c-19.37 0-35.086-15.715-35.086-35.086s15.715-35.087 35.086-35.087c19.385 0 35.086 15.716 35.086 35.087s-15.701 35.086-35.086 35.086z" fill="#004a77"/><path d="M113.775 149.803c-19.37 0-35.086 15.715-35.086 35.086s15.715 35.086 35.086 35.086c19.385 0 35.086-15.715 35.086-35.086s-15.701-35.087-35.086-35.087z" fill="#ffce00"/></svg>