<svg xmlns="http://www.w3.org/2000/svg" viewBox="0 0 511.999 511.999"><path d="M455.111 71.112H56.894c-31.417 0-56.889 25.473-56.889 56.89v255.997c0 31.416 25.472 56.888 56.889 56.888H455.11C486.527 440.887 512 415.416 512 384V128c-.001-31.417-25.471-56.889-56.889-56.889z" fill="#00247d"/><path d="M270.224 256v-28.856l-100.977-70.699H94.882L237.06 256h33.165z" fill="#eee"/><path d="M270.224 235.832L156.86 156.445h-24.789l138.153 96.739v-17.352z" fill="#cf1b2b"/><path d="M115.199 156.445L0 238.449v17.55h47.387l142.193-99.555-74.381.001z" fill="#eee"/><path d="M152.38 156.445L10.444 256h24.561l142.178-99.555H152.38z" fill="#cf1b2b"/><path d="M237.072 71.112L94.895 170.668h74.366l100.963-70.7V71.114h-33.151z" fill="#eee"/><path d="M249.447 71.112l-142.163 99.556h24.788l138.153-96.74v-2.815h-20.778z" fill="#cf1b2b"/><path d="M9.431 96.647l132.794 92.95v-18.93h47.331L48.314 71.757c-16.227 2.455-30.197 11.77-38.883 24.89z" fill="#eee"/><path d="M13.785 90.905l128.441 90.03v-10.268h10.154L24.589 81.184a57.243 57.243 0 0 0-10.804 9.721z" fill="#cf1b2b"/><path d="M270.224 128.001h-99.555V71.112H99.56v56.89H.005v71.11H99.56V256h71.11v-56.889h99.555v-71.11z" fill="#eee"/><g fill="#cf1b2b"><path d="M156.447 256h-42.666V71.112h42.666V256z"/><path d="M270.224 184.889H.005v-42.666h270.219v42.666z"/></g><path d="M464.489 198.291l-6.713 5.561 2.83 8.335 3.784 11.137-9.315-7.168-7.069-5.447-7.082 5.447-9.315 7.168 3.784-11.137 2.83-8.335-6.713-5.56-7.609-6.3h17.963l2.774-8.235 3.37-10.055 3.37 10.055 2.758 8.234H472.1l-7.61 6.3zM407.6 141.404l-6.712 5.561 2.83 8.335 3.784 11.136-9.315-7.167-7.07-5.448-7.082 5.448-9.315 7.167 3.784-11.136 2.83-8.335-6.713-5.561-7.608-6.3h17.962l2.774-8.234 3.37-10.055 3.37 10.055 2.759 8.234h17.962l-7.61 6.3zm0 231.108l-6.712 5.562 2.83 8.335 3.784 11.136-9.315-7.168-7.07-5.447-7.082 5.447-9.315 7.168 3.784-11.136 2.83-8.335-6.713-5.562-7.608-6.3h17.962l2.774-8.233 3.37-10.055 3.37 10.055 2.759 8.234h17.962l-7.61 6.3zm-56.889-145.776L344 232.298l2.83 8.335 3.784 11.136-9.315-7.168-7.069-5.447-7.083 5.447-9.315 7.168 3.784-11.136 2.83-8.335-6.712-5.562-7.609-6.3h17.963l2.773-8.234 3.37-10.055 3.37 10.055 2.759 8.234h17.963l-7.61 6.3z" fill="#263778"/><path d="M391.111 128.001l-3.57 10.666H376.89l8.604 7.127-3.627 10.652 9.244-7.111 9.244 7.111-3.626-10.652 8.603-7.127H394.68l-3.568-10.666z" fill="#cf1b2b"/><path d="M396.733 145.789l3.626 10.652-9.244-7.111-9.244 7.111 3.627-10.652-8.604-7.126h10.639l3.583-10.667 3.57 10.666h10.653l-8.607 7.127zm.512-10.681l-2.759-8.234-3.37-10.055-3.37 10.055-2.774 8.234h-17.948l7.593 6.3 6.728 5.56-2.845 8.336-3.784 11.136 9.33-7.182 7.069-5.433 7.069 5.433 9.316 7.182-3.784-11.136-2.83-8.335 6.713-5.561 7.609-6.3h-9.87-8.093z" fill="#eeeded"/><path d="M391.111 359.11l-3.57 10.666H376.89l8.604 7.126-3.627 10.653 9.244-7.111 9.244 7.111-3.626-10.652 8.603-7.127H394.68l-3.568-10.666z" fill="#cf1b2b"/><path d="M396.733 376.897l3.626 10.653-9.244-7.111-9.244 7.111 3.627-10.653-8.604-7.126h10.639l3.583-10.666 3.57 10.666h10.653l-8.607 7.126zm.512-10.68l-2.759-8.234-3.37-10.055-3.37 10.055-2.774 8.233h-17.948l7.593 6.3 6.728 5.562-2.845 8.335-3.784 11.136 9.33-7.183 7.069-5.432 7.069 5.432 9.315 7.183-3.784-11.136-2.83-8.335 6.713-5.562 7.608-6.3h-9.87-8.091z" fill="#eeeded"/><path d="M448 184.889l-3.57 10.666h-10.652l8.603 7.126-3.626 10.653 9.244-7.111 9.243 7.11-3.626-10.652 8.604-7.126h-10.653L448 184.889z" fill="#cf1b2b"/><path d="M453.621 202.678l3.626 10.652-9.243-7.111-9.244 7.111 3.626-10.652-8.603-7.127h10.638l3.584-10.666 3.57 10.666h10.653l-8.607 7.127zm.513-10.682l-2.759-8.234-3.37-10.055-3.37 10.055-2.774 8.234H423.912l7.594 6.3 6.728 5.561-2.845 8.335-3.784 11.137 9.33-7.183 7.069-5.432 7.068 5.432 9.315 7.183-3.783-11.137-2.83-8.335 6.712-5.56 7.609-6.3h-9.87-8.091z" fill="#eeeded"/><path d="M334.224 213.334L330.654 224H320l8.604 7.126-3.626 10.653 9.244-7.111 9.243 7.11-3.626-10.652 8.604-7.126H337.79l-3.567-10.666z" fill="#cf1b2b"/><path d="M339.845 231.121l3.626 10.653-9.244-7.112-9.243 7.112 3.626-10.653-8.604-7.126h10.639l3.584-10.666 3.57 10.666h10.652l-8.606 7.126zm.512-10.681l-2.758-8.234-3.37-10.055-3.37 10.055-2.774 8.234H310.136l7.594 6.3 6.727 5.561-2.845 8.335-3.783 11.137 9.33-7.183 7.068-5.433 7.07 5.433 9.314 7.183-3.784-11.137-2.83-8.335 6.713-5.561 7.609-6.3h-9.87-8.091z" fill="#eeeded"/></svg>