<svg xmlns="http://www.w3.org/2000/svg" viewBox="0 0 512 512"><path d="M512 384c0 31.418-25.473 56.889-56.889 56.889H56.89C25.472 440.889 0 415.417 0 384V128c0-31.418 25.472-56.889 56.889-56.889H455.11C486.53 71.111 512 96.584 512 128v256z" fill="#ce1126"/><path d="M455.111 71.111H56.89C25.472 71.111 0 96.582 0 128v128h512V128c0-31.418-25.473-56.889-56.889-56.889" fill="#0038a8"/><path d="M18.674 425.955l251.989-168.974L18.915 85.988C7.381 96.398 0 111.304 0 128.07v256c0 16.654 7.281 31.488 18.674 41.884" fill="#eee"/><g fill="#fcd116"><path d="M228.551 234.951l.612 16.399 15.857 4.181-15.418 5.633.94 16.384-10.127-12.914-15.289 5.931 9.145-13.611-10.382-12.7 15.786 4.494 8.876-13.797zM22.799 113.494l12.316 10.851 13.938-8.633-6.514 15.062 12.515 10.595-16.328-1.536-6.213 15.16-3.57-16-16.37-1.208 14.122-8.349-3.896-15.942zM28.927 358.329l8.164 14.222 15.987-3.668-11.008 12.16 8.447 14.066-14.976-6.728L24.79 400.77l1.748-16.313-15.09-6.4 16.043-3.398 1.437-16.33zM142.222 256c0 23.566-19.1 42.681-42.666 42.681S56.89 279.566 56.89 256s19.1-42.666 42.666-42.666 42.667 19.1 42.667 42.666"/><path d="M108.017 179.157l-2.247 37.66-3.456-.512 1.209-43.719-3.968-2.589-3.983 2.59 1.21 43.718-3.457.512-2.233-37.66-5.02 3.115 4.68 38.343h17.607l4.678-38.343-5.02-3.115zM91.094 332.842l2.247-37.66 3.457.513-1.223 43.719 3.982 2.589 3.983-2.59-1.209-43.718 3.457-.512 2.232 37.66 5.02-3.116-4.679-38.357H90.754l-4.679 38.357 5.019 3.115zM39.225 304.341l28.218-25.031 2.09 2.788-31.772 30.066.981 4.651 4.637.968L73.43 286.01l2.816 2.076L51.2 316.331l5.746 1.338 23.823-30.421-6.229-6.244-6.244-6.215-30.421 23.822 1.35 5.73zM159.886 207.645L131.67 232.69l-2.091-2.801 31.772-30.052-.981-4.65-4.636-.982-30.052 31.772-2.816-2.076 25.045-28.231-5.746-1.337-23.823 30.42 6.229 6.23 6.244 6.228 30.421-23.822-1.349-5.744zM22.713 247.537l37.674 2.248-.526 3.456-43.718-1.222-2.59 3.982 2.59 3.968 43.718-1.195.527 3.456-37.675 2.232 3.115 5.02 38.357-4.678v-17.608l-38.358-4.678-3.114 5.02zM176.399 264.462l-37.675-2.247.526-3.456 43.719 1.208 2.589-3.967-2.59-3.983-43.718 1.21-.526-3.457 37.675-2.233-3.115-5.02-38.358 4.665v17.622l38.358 4.679 3.115-5.02zM51.2 195.698l25.045 28.217-2.816 2.076-30.038-31.759-4.651.968-.967 4.651 31.758 30.052-2.076 2.816-28.23-25.046-1.351 5.746 30.435 23.822 6.228-6.229 6.23-6.243-23.823-30.421-5.744 1.35zM147.911 316.331L122.866 288.1l2.817-2.091 30.037 31.772 4.651-.967.968-4.651-31.759-30.052 2.076-2.801 28.231 25.031 1.338-5.731-30.421-23.822-6.229 6.228-6.229 6.229 23.823 30.421 5.742-1.335z"/></g></svg>