<svg xmlns="http://www.w3.org/2000/svg" viewBox="0 0 512 512"><path d="M392.675 214.016l-17.251 28.758-2.959-33.408-32.683-7.509 30.863-13.14-2.944-33.408 22.016 25.301 30.863-13.141-17.238 28.771 22.017 25.301-32.684-7.525zM320 362.27c-58.909 0-106.666-47.759-106.666-106.667 0-52.906 38.556-96.682 89.074-105.087-31.588 14.706-53.52 46.635-53.52 83.755 0 51.057 41.387 92.445 92.446 92.445 37.12 0 69.049-21.931 83.755-53.519-8.407 50.516-52.183 89.073-105.089 89.073M455.111 71.11H128V440.89h327.111C486.53 440.889 512 415.416 512 384V128c0-31.417-25.473-56.889-56.889-56.889" fill="#004600"/><path d="M56.889 71.111C25.472 71.111 0 96.582 0 128v256c0 31.418 25.473 56.889 56.889 56.889H128V71.11H56.889z" fill="#eee"/><g fill="#fff"><path d="M420.58 167.537l-30.863 13.142-22.016-25.302 2.944 33.408-30.863 13.127 32.683 7.51 2.959 33.422 17.251-28.758 32.682 7.524-22.016-25.301 17.239-28.772z"/><path d="M341.334 326.685c-51.058 0-92.445-41.386-92.445-92.445 0-37.134 21.945-69.063 53.519-83.769-50.518 8.405-89.074 52.195-89.074 105.103 0 58.908 47.759 106.666 106.666 106.666 52.906 0 96.698-38.556 105.102-89.074-14.706 31.574-46.635 53.519-83.768 53.519"/></g></svg>