<svg xmlns="http://www.w3.org/2000/svg" viewBox="0 0 512 512"><path d="M0 384c0 31.418 25.473 56.889 56.889 56.889H455.11C486.53 440.889 512 415.416 512 384v-56.889H0V384z" fill="#0038a8"/><path d="M0 327.111h512V184.89H0V327.11z" fill="#eee"/><path d="M455.111 71.111H56.89C25.472 71.111 0 96.582 0 128v56.889h512V128c0-31.417-25.473-56.889-56.889-56.889" fill="#d52b1e"/><path d="M312.889 256c0 31.418-25.473 56.889-56.889 56.889S199.111 287.416 199.111 256s25.473-56.889 56.889-56.889 56.889 25.471 56.889 56.889"/><path d="M309.334 256c0 29.454-23.894 53.334-53.334 53.334-29.454 0-53.334-23.879-53.334-53.334s23.879-53.334 53.334-53.334c29.44 0 53.334 23.88 53.334 53.334" fill="#eee"/><path d="M302.222 256c0 25.529-20.693 46.223-46.222 46.223S209.777 281.529 209.777 256s20.694-46.223 46.223-46.223 46.222 20.694 46.222 46.223"/><path d="M300.515 256c0 24.548-19.911 44.459-44.445 44.459-24.548 0-44.445-19.911-44.445-44.459 0-24.534 19.898-44.43 44.445-44.43 24.535 0 44.445 19.896 44.445 44.43" fill="#eee"/><path d="M300.515 255.715c0-24.605-19.94-44.544-44.544-44.544-24.619 0-44.559 19.94-44.559 44.544 0 8.164 2.19 15.801 6.017 22.371L256 256.881l38.5 21.205c3.825-6.57 6.015-14.207 6.015-22.371" fill="#99aab5"/><path d="M291.555 256c0 19.641-15.915 35.555-35.555 35.555-19.626 0-35.555-15.915-35.555-35.555s15.929-35.555 35.555-35.555c19.641 0 35.555 15.914 35.555 35.555"/><path d="M290.134 256c0-18.859-15.275-34.134-34.134-34.134S221.866 237.141 221.866 256s15.275 34.134 34.134 34.134 34.134-15.275 34.134-34.134" fill="#eee"/><path d="M256 244.366l2.617 8.035h8.448l-6.841 4.978 2.602 8.035L256 260.45l-6.826 4.964 2.602-8.035-6.841-4.978h8.447l2.618-8.035z" fill="#ffac33"/><g fill="#007127"><path d="M263.069 234.909s4.266-.995 6.77-1.251 4.765 5.503 7.751 6.513c3.044 1.01 3.015 4.011 4.266 7.509 1.252 3.512.498 4.266.498 8.262 0 4.012 2.261 6.017 1.764 9.032-.513 3.001-3.015 3.755-4.51 5.76-1.493 2.005-.255 4.509-1.763 6.001-1.494 1.507-6.514 1.251-8.263 2.774-1.748 1.494-5.006 3.74-7.267 2.489-2.247-1.238-7.011-1.75-7.011-1.75s1.251-4.508 4.765-6c3.512-1.508 5.006-1.252 8.262-2.262 3.272-1.01 3.002-2.504 5.263-4.509 2.247-2.005 2.502-4.765 3.755-6.77 1.266-2.005 1.507-3.498 1.01-6.257-.513-2.759-1.508-5.76-2.518-8.277-.995-2.49-3.242-5.504-4.765-7.254-1.493-1.749-8.007-4.01-8.007-4.01"/><path d="M247.537 236.401s2.49-5.447 0-5.76c-10.026-1.251-12.032 7.765-15.032 8.762-3.044 1.023-3.513 6.016-4.765 9.528-1.251 3.499-.74 4.253-.74 8.263 0 4.011.071 4.765.569 7.765.497 3.015 1.18 5.262 2.687 7.281 1.494 1.991 2.076 2.986 3.584 4.494 1.494 1.494 4.422 3.015 6.186 4.509 1.749 1.507 7.083 2.005 9.344.753 2.248-1.251 6.172-1.748 6.172-1.748s-1.663-3.015-5.177-4.51c-3.499-1.507-3.755-2.758-7.011-3.754-3.258-1.01-3.001-2.518-5.263-4.523-2.247-2.005-2.502-4.75-3.755-6.755-1.251-2.005-.582-2.502-.085-5.262.513-2.759 1.508-5.006 2.518-7.509.995-2.517 3.499-5.774 5.006-7.524 1.51-1.748 5.763-4.01 5.763-4.01"/><path d="M247.794 282.454l3.257 2.247 4.253-3.001 4.011 2.759 5.263-2.005-5.263 3.769-3.755-3.015-4.011 2.758-4.011-2.261.256-1.251z"/></g></svg>