<svg xmlns="http://www.w3.org/2000/svg" viewBox="0 0 512 512"><path d="M455.111 71.111H156.444l75.307 20.915-74.53 20.293-.774-.215 75.304-20.078h-.003l-75.304-20.915H56.832C25.442 71.111 0 96.602 0 128v256c0 31.417 25.472 56.889 56.889 56.889H455.112C486.528 440.889 512 415.417 512 384V128c0-31.417-25.472-56.889-56.889-56.889zm-298.6 164.357l-.043-.012 14.681-4.006 53.045-14.43-67.683 18.448zm.082-.058l-.148.041.148-.041zm75.142 184.938l-.008-.002.019-.005.004.003-.015.004zm-.007-.02l.013.008-67.739-18.426-7.445-1.984-.11-.03.422-.117 7.133 2.014 67.749 18.512-.023.023zm-75.281-61.426l.774-.215 74.53 20.293-75.304-20.078zm0-40.993l.773-.215 74.531 20.293-75.304-20.078zm0-40.994l.773-.215 74.531 20.293-75.304-20.078zm.774-82.608l-.774-.215 75.304-20.078-74.53 20.293zm0-40.994l-.774-.215 75.304-20.078-74.53 20.293z" fill="#eee"/><path d="M455.111 71.111H156.444l75.307 20.915h-.003.003l-75.304 20.503 75.304 20.49h-.003.003l-75.304 20.504 75.304 20.489h-.003.003l-75.304 20.503 75.304 20.49h-.003.003l-7.558 2.015-67.725 18.459 67.725 18.47 7.558 2.05h-.003.003l-75.304 20.49 75.304 20.503h-.003.003l-75.304 20.49 75.304 20.503h-.003.003l-75.304 20.489 75.304 20.504h-.003.003l-75.304 20.679 7.555 2.133 67.749 18.512-.023.024.023.015-67.749 18.481-7.553 2.065h298.662C486.528 440.889 512 415.417 512 384V128c0-31.417-25.472-56.889-56.889-56.889z" fill="#8d1b3d"/></svg>