<svg xmlns="http://www.w3.org/2000/svg" viewBox="0 0 512 512"><path d="M502.797 96.941v-.001c-5.856-9.447-15.243-16.954-25.756-21.385-.003.002-.178.003-.178.003v-.003c-6.693-2.86-13.924-4.442-21.752-4.442H56.889C25.472 71.111 0 96.583 0 128v256a56.607 56.607 0 0 0 9.234 31.055l.008-.006-.006.008c6.172 9.45 15.067 16.959 25.584 21.39a56.688 56.688 0 0 0 22.069 4.442h398.222C486.528 440.889 512 415.417 512 384V128c0-11.463-3.346-22.126-9.203-31.059z" fill="#215b33"/><path d="M455.111 71.111H56.889C25.472 71.111 0 96.583 0 128v256a56.607 56.607 0 0 0 9.234 31.055L477.182 75.553a56.716 56.716 0 0 0-22.071-4.442z" fill="#0051ba"/><path d="M502.762 96.94c-6.171-9.447-15.063-16.954-25.577-21.385L9.236 415.057c6.172 9.45 15.067 16.959 25.584 21.39l378.439-274.569 89.503-64.938z" fill="#fcd116"/><g fill="#fff"><path d="M119.282 157.545l-7.111-21.874-7.097 21.874H82.076l18.603 13.511-7.111 21.874 18.603-13.511 18.603 13.511-7.097-21.874 18.603-13.511h-22.998zM49.694 82.126L42.583 104H19.586l18.617 13.511-7.111 21.874 18.603-13.511 18.603 13.511-7.111-21.874L79.788 104H56.805l-7.111-21.874zM181.764 211.101l-7.111-21.874-7.097 21.874h-22.997l18.603 13.511-7.111 21.874 18.603-13.511 18.603 13.511-7.097-21.874 18.603-13.511h-22.999zM56.799 211.101l-7.111-21.874-7.097 21.874H19.594l18.603 13.511-7.111 21.874 18.603-13.511 18.603 13.511-7.097-21.874 18.603-13.511H56.799zM156.054 139.378l18.603-13.511 18.603 13.511-7.097-21.874 18.603-13.511h-22.997l-7.111-21.874-7.111 21.874h-22.983l18.603 13.511-7.113 21.874z"/></g></svg>