<svg xmlns="http://www.w3.org/2000/svg" viewBox="0 0 512 512"><path d="M455.111 71.111H56.889C25.491 71.111 0 96.553 0 127.943v256.113c0 31.353 25.43 56.833 56.776 56.833h398.448c31.365 0 56.776-25.51 56.776-56.889V128c0-31.417-25.472-56.889-56.889-56.889zM308.325 328.019l-52.324-38.016-52.324 38.016 19.982-61.56-52.324-38.066h64.683L256 166.882l19.982 61.511h64.683l-52.324 38.065 19.984 61.561z" fill="#4189dd"/><path d="M275.986 228.491l-19.982-61.511-19.996 61.511H171.34l52.324 38.016-19.982 61.511 52.324-38.016 52.324 38.016-19.982-61.511 52.324-38.016h-64.686z" fill="#fff"/></svg>