<svg xmlns="http://www.w3.org/2000/svg" viewBox="0 0 512.014 512.014"><path d="M.014 384.008c0 31.417 25.472 56.888 56.889 56.888h398.222c31.416 0 56.889-25.472 56.889-56.888v-14.223h-512v14.222z" fill="#377e3f"/><path d="M.014 369.785h512v-42.666h-512v42.666z" fill="#eee"/><path d="M455.125 71.119H56.902C25.485 71.119.014 96.59.014 128.008v14.222h512v-14.223c0-31.417-25.472-56.888-56.889-56.888" fill="#377e3f"/><path d="M.014 184.896h512V142.23h-512v42.666z" fill="#eee"/><path d="M239.402 240.22L256 189.12l16.611 51.1h53.731l-43.477 31.587 16.611 51.1L256 291.32l-43.463 31.587 16.611-51.1-43.477-31.587h53.733zM0 327.119h512V184.896H0V327.12z" fill="#b40a2d"/><path d="M212.551 322.894l43.463-31.588 43.477 31.588-16.611-51.1 43.477-31.588h-53.73l-16.612-51.1-16.598 51.1h-53.73l43.462 31.588-16.598 51.1z" fill="#ecc81d"/></svg>