<svg xmlns="http://www.w3.org/2000/svg" viewBox="0 0 512 512"><path d="M0 327.111h512V184.875H0v142.236z" fill="#eee"/><path d="M455.111 71.111H56.89C25.472 71.111 0 96.582 0 128v56.889h512V128c0-31.417-25.473-56.889-56.889-56.889" fill="#ce1126"/><path d="M455.111 440.889H56.89C25.472 440.889 0 415.417 0 384v-56.889h512V384c0 31.418-25.473 56.889-56.889 56.889" fill="#141414"/><path d="M130.518 260.721l-8.99 27.676 23.538-17.108 23.553 17.109-9.003-27.677 23.553-17.109H154.07l-9.002-27.676-8.99 27.677h-29.112l23.552 17.108zM371.884 260.721l-8.989 27.676 23.537-17.108 23.553 17.109-9.002-27.677 23.552-17.109h-29.099l-9.002-27.676-8.989 27.677h-29.112l23.55 17.108z" fill="#007a3d"/></svg>