<svg xmlns="http://www.w3.org/2000/svg" viewBox="0 0 512 512"><path d="M512 384c0 31.418-25.473 56.889-56.889 56.889H56.89C25.472 440.889 0 415.417 0 384V128c0-31.418 25.472-56.889 56.889-56.889H455.11C486.53 71.111 512 96.584 512 128v256z" fill="#3e5eb9"/><path d="M512 369.778H0V142.223h512v227.555z" fill="#ffd900"/><path d="M512 355.555H0V156.444h512v199.111z" fill="#b10d0d"/><path d="M391.296 238.635l22.215 8.447 21.789-8.447-21.789-7.111-22.215 7.111z" fill="#fff"/><path d="M405.774 238.934a4 4 0 0 1-3.996 3.996H82.218a4 4 0 0 1-3.995-3.996 4 4 0 0 1 3.996-3.997h319.559a3.999 3.999 0 0 1 3.996 3.997" fill="#ffd900"/><path d="M406.769 223.162l22.215 8.448 21.789-8.448-21.79-7.11-22.214 7.11z" fill="#fff"/><path d="M421.246 223.461a4 4 0 0 1-3.996 3.996H97.691a4 4 0 0 1-3.996-3.996 4 4 0 0 1 3.996-3.996H417.25a3.999 3.999 0 0 1 3.996 3.996M479.673 255.858a6.002 6.002 0 0 1-6.002 6H44.786a6.002 6.002 0 0 1 0-12.002h428.885a6.002 6.002 0 0 1 6.001 6.002" fill="#ffd900"/><path d="M387.271 256.441s-57.714 78.08-128.896 78.08c-71.167 0-128.881-78.08-128.881-78.08s57.714-78.08 128.881-78.08c71.183 0 128.896 78.08 128.896 78.08" fill="#fff"/><path d="M269.938 317.924c-6.215-2.959-16.882-6.514-16.598-9.174.299-2.674 8.291-3.555 15.715-4.451 7.395-.881 7.098-4.438 5.035-6.215-2.076-1.778-10.681-4.153-15.701-7.111-5.049-2.96-.313-5.647 4.21-9.202 4.522-3.555 4.679-7.694 4.679-10.666 0-2.973 3.54-9.188 9.472-13.027 5.931-3.854.299-4.452-4.438-6.813-4.736-2.375-4.45-10.382-3.57-16.299.897-5.931.598-9.187-1.465-9.486-2.076-.285-3.27-2.076-4.45-3.712-1.18-1.622 0-4.58-4.438-5.178-4.451-.582-4.168-2.076-5.334-4.736-1.195-2.674-5.049-6.813-6.826-11.861-1.508-4.24 2.119-12.274 11.776-21.604-71.011.285-128.512 78.051-128.512 78.051s57.713 78.08 128.896 78.08c9.102 0 17.991-1.309 26.567-3.541-2.018-8.361-10.012-10.666-15.018-13.055"/><g fill="#fff"><path d="M183.709 249.188h-6.215v-21.035h6.215v21.035zM183.709 284.146h-6.215v-21.035h6.215v21.035zM195.854 249.188h-6.215v-21.035h6.215v21.035zM195.854 284.146h-6.215v-21.035h6.215v21.035zM208 249.188h-6.215v-21.035H208v21.035zM208 284.146h-6.215v-21.035H208v21.035zM220.146 249.188h-6.215v-21.035h6.215v21.035zM220.146 284.146h-6.215v-21.035h6.215v21.035zM232.291 249.188h-6.215v-21.035h6.215v21.035zM232.291 284.146h-6.215v-21.035h6.215v21.035zM244.438 249.188h-6.215v-21.035h6.214v21.035zM244.438 284.146h-6.215v-21.035h6.214v21.035z"/></g><path d="M279.709 249.188h-6.215v-21.035h6.215v21.035zM279.709 284.146h-6.215v-21.035h6.215v21.035zM291.854 249.188h-6.215v-21.035h6.215v21.035zM291.854 284.146h-6.215v-21.035h6.215v21.035zM304 249.188h-6.215v-21.035H304v21.035zM304 284.146h-6.215v-21.035H304v21.035zM316.146 249.188h-6.215v-21.035h6.215v21.035zM316.146 284.146h-6.215v-21.035h6.215v21.035zM328.291 249.188h-6.215v-21.035h6.215v21.035zM328.291 284.146h-6.215v-21.035h6.215v21.035zM340.438 249.188h-6.215v-21.035h6.215v21.035zM340.438 284.146h-6.215v-21.035h6.215v21.035z"/><g fill="#3d5da7"><path d="M215.609 193.338c-5.689 3.768-17.338 15.33-18.005 23.78 2.446-2.22 5.333-2.674 5.333-2.674s-3.327 4.665-2.887 10.454c2.005-2.22 4.011-3.116 4.011-3.116s1.18 5.334 5.546 10.894c2.22-1.337 2.888-3.555 2.888-3.555s1.338 4.665 6.001 8.22c1.706-.441 1.706-2.446 1.706-2.446s2.746 5.774 14.067 8.22c-1.991-3.783 4.451-9.031 2.005-14.961 1.991 1.18 3.996 4.067 3.996 4.067s1.991-2.887-2.005-8.22c2.46 2.233 3.783 4.153 3.783 4.153s1.55-9.259-3.783-15.033c3.343 1.323 6.229 2.888 6.229 2.888s-.555-11.193-8.889-16.228c-10.666-6.444-19.996-1.78-19.996-6.444M59.108 254.72s5.106 4.665-2.005 5.334c-7.112.669-12.886 9.116-12.658 17.55l3.769-1.778s-1.109 5.789.668 9.558c1.566-3.769 3.783-3.555 3.783-3.555s.441 5.561 1.338 9.785c1.777-2.219 1.55-4.665 1.55-4.665s2.673.881 3.996 4.665c1.337 3.769 2.005 6.67 5.12 8.447 1.322-.668 1.991-2.446 1.991-2.446s2.674 2.219 6.897 3.996c-.896-6.001 4.88-5.333 7.325-9.557.897 1.109 1.11 3.327 1.11 3.327s1.777-3.327 1.777-6.656c0-3.342 2.005-6.001 2.005-6.001s.227 1.55 0 3.996c2.005-1.109 2.446-13.781 1.55-17.778 1.337 1.11 2.446 3.555 2.446 3.555s1.565-6.442 0-10.552c-1.55-4.11-6.001-7.452-11.549-5.447-5.561 2.005-13.781-3.328-13.781-3.328s1.338 3.328-.441 4.438-.226-1.78-4.891-2.888M448.669 252.445s-4.438 1.55-11.549 8.22c-7.111 6.67-9.344 18.005-9.344 18.005s4.011-3.343 5.561-3.783c-3.782 8.675 3.555 12.673 2.447 19.555 2.887-.44 5.546-5.546 5.546-5.546s5.334 9.543 12.9 14.876c1.777-5.106 6.884-9.33 6.884-9.33l1.109 2.888 3.114-7.78 2.22 3.782s2.004-4.366 0-9.187c.298.867 3.327 3.186 3.327 3.186v-10.666s1.777 3.327 3.115 4.224c0-4.665-2.66-8.008-1.55-9.999.881 1.55 1.55 2.745 1.55 2.745s1.336-7.41-6.443-13.199c-7.78-5.774-15.032-5.334-16.626-4.551-1.593.784-2.261-3.44-2.261-3.44"/></g><g fill="#a70000"><path d="M211.328 207.331c4.125-1.251 2.66 12.004-2.22 17.338 2.66-9.117-2.885-15.788 2.22-17.338M220.999 203.549c.981-3.414 8.092 5.561 17.209 6.001-7.993 1.337-18.432-1.778-17.21-6.001M218.226 217.33c2.418-1.124 3.115 12.217 0 16 .44-6.67-3.328-14.45 0-16M227.115 214.001c-3.086.839 5.987 8.22 11.107 7.78-4.807-.91-6.215-9.116-11.107-7.78M225.338 228.152c-3.214 0 0 8.52 5.773 10.51-1.991-3.1-.583-10.51-5.773-10.51M60.218 264.661c2.93 0-.882 9.999-7.112 13.995 3.328-4.879 2.886-13.995 7.112-13.995M69.774 263.111c-2.375 1.82 4.224 9.942 11.776 10.525-4.892-3.428-8.889-12.743-11.776-10.525M62.663 275.996c1.763-.298 2.105 9.288-2.888 11.777 2.66-6.215.229-11.335 2.888-11.777M71.111 275.996c2.944-1.806 4.409 5.718 8.661 8.149-7.11-1.706-11.548-6.371-8.66-8.149M67.456 283.165c2.944-1.294 4.538 9.373 0 12.445 1.664-6.885-2.546-11.336 0-12.445M443.165 273.635c3.072-.085-2.446 9.031-7.111 11.478 4.451-6.67 3.782-11.392 7.111-11.478M454.229 268.942c-2.29 1.58 4.224 6.002 7.339 6.002-3.854-1.195-4.452-8.006-7.34-6.001M446.223 284.16c2.346-1.793 3.327 4.067 0 8.291 2.033-4.309-3.116-5.916 0-8.291M455.822 278.115c-2.432.981 2.22 7.894 5.774 8.334-3.882-2.389-2.219-9.784-5.774-8.334M452.451 285.113c2.02-1.522 6.144 8.447 1.294 13.553 2.305-7.395-5.119-10.666-1.294-13.553"/></g></svg>