<svg xmlns="http://www.w3.org/2000/svg" viewBox="0 0 512 512"><path d="M1.811 397.594c.37 1.436.84 2.83 1.309 4.21 1.266 3.684 2.802 7.241 4.736 10.569.015.028.015.072.03.072h.007c9.856 16.939 27.989 28.444 48.996 28.444h398.222c21.006 0 39.14-11.506 48.996-28.444h.007c.014 0 .014-.044.028-.059 1.92-3.314 3.456-6.87 4.722-10.54.484-1.408.953-2.816 1.323-4.267.341-1.294.597-2.602.839-3.91.556-3.068.955-6.173.975-9.431V128c0-3.314-.398-6.528-.981-9.671a51.543 51.543 0 0 0-.825-3.897c-.384-1.465-.853-2.887-1.337-4.295-1.266-3.669-2.788-7.211-4.722-10.524a.109.109 0 0 0-.028-.057h.002c-9.856-16.939-27.989-28.444-48.996-28.444H256V270.22H0V384c0 3.313.402 6.512.97 9.654.242 1.323.514 2.646.841 3.94z" fill="#eee"/><g fill="#b22334"><path d="M504.108 99.556c-9.856-16.939-27.989-28.444-48.996-28.444H256v28.444h248.108zM0 384h512v-28.444H0V384zM256 241.778h256v28.444H256zM256 184.889h256v28.444H256zM0 298.667h512v28.444H0zM455.111 440.889c21.006 0 39.14-11.506 48.996-28.444H7.893c9.856 16.939 27.989 28.444 48.996 28.444h398.222zM256 128h256v28.444H256z"/></g><g fill="#eee"><path d="M0 128c0-3.314.427-6.5.967-9.657C.398 121.486 0 124.686 0 128M7.889 99.556c-.014.028-.028.043-.028.071.014-.029.014-.043.028-.071zM1.816 114.409c.356-1.451.853-2.83 1.308-4.224-.469 1.394-.938 2.788-1.308 4.224"/></g><path d="M256 71.111H56.889C25.472 71.111 0 96.583 0 128v142.222h256V71.111z" fill="#3c3b6e"/><g fill="#fff"><path d="M28.465 109.872l8.789 6.386-3.356 10.325 8.775-6.386 8.789 6.386-3.371-10.325 8.804-6.386H46.029l-3.356-10.325-3.342 10.325H28.465zM56.909 138.316l8.789 6.386-3.371 10.325 8.789-6.386 8.789 6.386-3.371-10.325 8.804-6.386H74.473l-3.356-10.325-3.342 10.325H56.909zM113.798 138.316l8.789 6.386-3.371 10.325 8.789-6.386 8.789 6.386-3.371-10.325 8.804-6.386h-10.866l-3.356-10.325-3.342 10.325h-10.865zM170.687 138.316l8.789 6.386-3.371 10.325 8.789-6.386 8.789 6.386-3.371-10.325 8.804-6.386H188.25l-3.356-10.325-3.342 10.325h-10.865zM56.909 195.208l8.789 6.386-3.371 10.325 8.789-6.386 8.789 6.386-3.371-10.325 8.804-6.386H74.473l-3.356-10.325-3.342 10.325H56.909zM113.798 195.208l8.789 6.386-3.371 10.325 8.789-6.386 8.789 6.386-3.371-10.325 8.804-6.386h-10.866l-3.356-10.325-3.342 10.325h-10.865zM170.687 195.208l8.789 6.386-3.371 10.325 8.789-6.386 8.789 6.386-3.371-10.325 8.804-6.386H188.25l-3.356-10.325-3.342 10.325h-10.865zM85.353 109.872l8.789 6.386-3.371 10.325 8.789-6.386 8.789 6.386-3.371-10.325 8.804-6.386h-10.866L99.56 99.547l-3.342 10.325H85.353zM142.242 109.872l8.789 6.386-3.371 10.325 8.789-6.386 8.789 6.386-3.371-10.325 8.804-6.386h-10.866l-3.356-10.325-3.342 10.325h-10.865zM199.131 109.872l8.789 6.386-3.371 10.325 8.789-6.386 8.789 6.386-3.371-10.325 8.804-6.386h-10.866l-3.356-10.325-3.342 10.325h-10.865zM28.465 166.764l8.789 6.386-3.356 10.325 8.775-6.386 8.789 6.386-3.371-10.325 8.804-6.386H46.029l-3.356-10.325-3.342 10.325H28.465zM90.778 183.473l8.789-6.386 8.775 6.386-3.356-10.325 8.789-6.386h-10.852l-3.356-10.311-3.356 10.311H85.359l8.775 6.386-3.356 10.325zM142.242 166.764l8.789 6.386-3.371 10.325 8.789-6.386 8.789 6.386-3.371-10.325 8.804-6.386h-10.866l-3.356-10.325-3.342 10.325h-10.865zM199.131 166.764l8.789 6.386-3.371 10.325 8.789-6.386 8.789 6.386-3.371-10.325 8.804-6.386h-10.866l-3.356-10.325-3.342 10.325h-10.865zM28.465 223.653l8.789 6.386-3.356 10.325 8.775-6.386 8.789 6.386-3.371-10.325 8.804-6.386H46.029l-3.356-10.325-3.342 10.325H28.465zM90.778 240.361l8.789-6.386 8.775 6.386-3.356-10.325 8.789-6.386h-10.852l-3.356-10.311-3.356 10.311H85.359l8.775 6.386-3.356 10.325zM142.242 223.653l8.789 6.386-3.371 10.325 8.789-6.386 8.789 6.386-3.371-10.325 8.804-6.386h-10.866l-3.356-10.325-3.342 10.325h-10.865zM199.131 223.653l8.789 6.386-3.371 10.325 8.789-6.386 8.789 6.386-3.371-10.325 8.804-6.386h-10.866l-3.356-10.325-3.342 10.325h-10.865z"/></g></svg>