<svg xmlns="http://www.w3.org/2000/svg" viewBox="0 0 512 512"><g fill="#0038a8"><path d="M0 384c0 31.418 25.473 56.889 56.889 56.889H455.11C486.53 440.889 512 415.416 512 384v-14.223H0V384zM0 327.111h512v-56.889H0v56.89z"/></g><path d="M0 369.778h512V327.11H0v42.667z" fill="#eee"/><g fill="#0038a8"><path d="M512 128c0-31.418-25.473-56.889-56.889-56.889H227.555V128H512zM227.555 227.555H512v-56.889H227.555v56.889z"/></g><path d="M227.555 128V71.111H56.889C25.472 71.111 0 96.582 0 128v142.221h512v-42.666H227.555v-56.889H512V128H227.555z" fill="#eee"/><path d="M184.889 170.666c0-39.281-31.829-71.111-71.111-71.111s-71.125 31.829-71.125 71.111c0 39.268 31.843 71.111 71.125 71.111s71.11-31.843 71.11-71.11" fill="#ffd983"/><path d="M170.666 170.666c0-31.417-25.457-56.889-56.889-56.889s-56.902 25.473-56.902 56.89c0 31.402 25.473 56.888 56.902 56.888s56.89-25.486 56.89-56.889" fill="#ffcc4d"/><path d="M113.778 79.601l9.002 57.473 36.538-45.269-20.95 54.272 54.273-20.935-45.268 36.538 57.472 8.989-57.473 9.002 45.27 36.538-54.273-20.935 20.949 54.272-36.538-45.269-9.002 57.473-9.003-57.473-36.538 45.27 20.95-54.273-54.273 20.935 45.269-36.538-57.473-9.002 57.473-8.989-45.27-36.538 54.275 20.934-20.95-54.271 36.538 45.269 9.002-57.473z" fill="#ffac33"/><path d="M156.445 170.666c0-23.566-19.1-42.666-42.666-42.666-23.58 0-42.682 19.1-42.682 42.666 0 23.553 19.1 42.666 42.682 42.666 23.565.002 42.666-19.113 42.666-42.666" fill="#c1694f"/><path d="M82.972 170.724c0-16.925 13.71-30.635 30.62-30.635 16.925 0 30.636 13.71 30.636 30.635 0 16.896-13.71 30.606-30.636 30.606-16.91 0-30.62-13.71-30.62-30.606" fill="#ffac33"/></svg>