<svg xmlns="http://www.w3.org/2000/svg" width="364.928" height="371.601" version="1.0"><g fill="#3a76bc"><path d="M49.908 186c0 73.53 59.62 133.549 133.55 133.549 73.531 0 133.549-60.018 133.549-133.55 0-73.532-60.018-133.55-133.55-133.55-73.929 0-133.549 60.018-133.549 133.55zm3.577 0c0-71.545 58.03-129.973 129.973-129.973 71.544 0 129.574 58.428 129.574 129.972 0 71.544-58.03 129.972-129.574 129.972-71.942 0-129.973-58.428-129.973-129.972z"/><path d="M69.782 77.093V203.09c0 9.142 1.192 17.886 3.577 26.63 4.372 16.297 13.911 31.4 26.233 43.325 11.129 11.129 24.245 19.873 38.157 27.028 10.731 5.564 21.463 9.936 32.99 13.514 2.782 1.192 5.962 1.987 8.744 2.782.795 0 1.59.397 2.385.397a167.296 167.296 0 0 0 19.078-4.77c11.924-3.577 23.848-8.346 34.977-14.706 13.912-7.154 26.233-17.09 36.568-29.015 11.526-13.514 19.078-30.207 22.258-47.696 2.385-11.924 1.987-23.848 2.385-36.17 0-15.898 0-32.195.397-48.49 0-15.105 0-30.209.398-45.71V77.093H69.782zm153.025 208.67c-.397 0-.795.398-1.59.398h-1.987c-1.988.795-3.577 1.59-5.167 2.385-1.59.398-2.783 1.59-3.975 1.987l-4.77 1.193c-2.782.795-5.167 1.59-7.949 1.59s-6.36-.398-8.744-1.59c-1.193-.398-2.385-1.193-3.975-1.59-2.782-1.59-5.962-3.18-8.744-4.77a9.384 9.384 0 0 1-3.18-3.577c-.795-.397-1.192-1.192-1.987-1.987-.795-.398-1.59-1.59-2.385-1.59h-3.577c-.398 0-.795-.795-.795-1.193-.398-.397-.795-.397-1.193-.794-.397-.398-.795-.795-1.192-.795-.795-.398-.795-.795-1.193-.398.795 1.193 1.59 1.987 2.385 3.18.398.795 0 1.59.795 1.59s1.988-.398 2.782-.398c3.18.398 4.77 3.577 5.962 6.36.398 1.192.795 3.18.795 4.372v1.987c-.397.795-.795 1.59-.795 1.988 0 .397-.397 1.59-.794 1.59-.795.397-1.59.794-2.385.794-1.193.398-2.783 0-3.975-.397-1.59-.398-2.782-1.192-3.975-2.385-.397 0-1.59-.795-1.987-1.192-.397-.795-.795-1.59-1.192-2.783v-1.59c0-.794-.398-1.987-.398-2.384.795-1.988 1.193-3.18 2.385-4.372l1.192 2.384c.398.795.795 1.193 1.59.398s-.397-1.59-.795-1.987c-.397-.398-.397-.795-.397-1.193 0-.397 0-.795-.398-1.192l-1.987-1.988c-.397-.397-1.59-1.192-1.59-1.59 0-.397-.397-2.384-1.192-1.192-.795.795 0 1.193.397 2.385-1.59 0-2.782-.795-4.372-1.192-1.192-.398-2.385-.795-3.975-1.193-2.384-.795-4.77-1.987-7.154-2.782-2.782-1.193-5.565-1.988-8.347-2.782-.397-.398-.795-.398-1.59-.398-.397 0-1.59-.397-2.385 0-.397 0-1.192.398-1.59.398-.794 0-1.59 0-1.987-.795-2.385-1.59-2.385-4.373-3.974-6.757-1.59-1.988-3.578-4.373-5.963-5.565-.794-.397-2.384-1.59-2.782-2.385 0-.795-.397-1.59.398-1.59 1.192 0 1.192 0 1.987 1.193.795.397 2.385.397 3.18.795 1.192.795 2.782 1.59 3.974 2.385 2.385 1.192 4.373 3.18 6.757 4.77 1.988 1.59 4.373 2.781 7.155 3.974 2.385.795 4.372 2.782 7.154 3.18 1.193 0 2.783.397 3.975 1.192.795.397 1.192.397 1.59 0 .397-.795.795-1.192.795-1.987.397 0 .397-.398.795-.795l-.398-.398c-.397-.397-.795-1.59-.795-1.987.398-.795.795-1.192 1.193-1.987.397-.398.795-.795 1.192-1.59.795-.795 1.987-1.59 3.18-1.988 1.192-.397 2.385-.795 3.577-.795 1.192 0 3.18-.397 3.975 0 .795.398 1.192.795 1.987.795h1.987c.795 1.193 1.193 2.385.795 3.578-.397 1.59-.795 2.782-1.987 3.974-.397.795-.397 1.59-.795 1.988l-2.385 1.192c-1.59.795-3.18 1.192-4.77 1.192h-2.384c-.398-.397-1.987-.397-1.987-.795-.398-.794.794-1.192 1.192-1.987.397-.397-.398-1.59-.795-1.987l-.397.397v.795c-.398.795-1.193 1.193-1.59 1.59l-.398.398c0 .397.398.794 0 1.192 0 .397-.795.795-.795 1.192 1.193.795 2.385 0 3.577.398.398 0 1.193.397 1.59.397 1.193 0 1.988.398 2.783.398h2.384c.398 0 .795-.795 1.59-.795 1.193 0 2.385-.795 3.578-1.193.397-.397 1.192-.397 1.59-.795.397-.794.794-1.192 1.192-1.59 1.192-1.192 1.987-2.384 2.782-3.18 1.987-1.589 4.372-3.179 6.36-4.769 2.782-1.59 5.167-2.782 7.949-3.974 1.192-.398 2.782-.398 3.975-.398 1.192 0 2.782 0 3.974-.397 2.783 0 5.167-.398 7.95 0 1.59.397 3.18.397 4.77.795 1.192.397 2.384.397 3.974.397h3.975c1.59 0 2.782-.397 3.974-.397 1.193 0 2.783 0 3.975.397.398.397 3.577 1.192 1.987 1.987-1.192.795-2.384 1.193-3.974 1.59-1.193 0-2.385.795-3.577 1.59-1.193.795-1.988 1.59-3.18 1.987-1.193.795-2.385 1.193-3.975 1.59-2.385.795-4.77 1.988-7.552 2.385-1.192.398-2.782.795-3.975 1.193-.794.397-1.59 0-1.987 0-.795 0-1.192.397-1.987.794h-1.988c-.794.398-1.59.398-1.987.795-1.59 0-2.782.398-4.372.398-2.385.795-5.167.795-7.95 1.192h-7.551c-1.59-.397-2.385.398-3.578.795-.794.398-1.192.795-1.59.795-.794.398 1.193 1.193 1.193 1.193 1.192.397 2.782.397 4.372.397.398 0 .795 0 1.59-.397.397-.398.795-.398 1.987-.795 2.385-.398 5.167 0 7.552 0 1.59.397 2.783.397 4.372.795 1.193.795 2.385 1.192 3.975 1.59 2.385.794 4.372 1.987 6.757 3.18 1.59.397 2.782.794 4.372.794 1.193.398 1.988.795 3.18 1.193 2.385.794 5.167 1.59 7.95 1.59h2.782c1.192 0 1.987-.796 2.782-.398h2.385c.795 0 1.192.397 1.59.795 1.192.397 1.59.397 1.192 1.59zm20.668-21.065c-.397.397-.397.795-.795.795h-1.59s-.794.795-1.192.795l-3.577 3.577c-1.987 1.192-3.577 3.18-5.565 4.372-1.192.795-2.384 1.59-3.18 2.385-1.192.397-2.782 1.59-3.974 1.987-2.782.795-5.565 1.59-8.347 1.988-2.385 0-5.167 0-7.95-.398-1.987 0-3.974-.795-5.961-1.192-1.988-.795-3.975-1.193-5.962-1.988-2.385-.794-4.372-1.987-6.36-2.782 2.782.398 5.167.795 7.95.795h8.744c1.192 0 2.782-.397 3.975-.397 1.192 0 2.384-.398 3.974-.795 2.385-.795 5.565-.795 7.552-2.385-1.192 0-1.987 0-3.18.397-.397.398-.795 0-1.59 0-.397 0-.794.398-1.59.398-.794 0-1.192-.398-1.987-.398-.397 0-.795.398-1.59.398-1.192.397-2.782.397-3.974.795-2.385.397-4.372.397-6.36.397h-3.577c-.795 0-2.385.398-3.18-.397 1.193-.398 1.988-.795 3.18-.795 1.59-.398 2.782-.398 3.975-.795 2.782-.795 5.564-1.59 7.95-2.782 2.384-.795 5.166-1.988 7.948-2.783h9.142c2.782 0 5.167-1.59 7.95-2.384 1.987-.398 3.18-.795 5.167-.795h2.384c.398 0 .398 0 .795.397.398 0 1.193 1.192.795 1.59zm-15.5-24.643c-13.515 0-27.029-4.372-38.158-11.924-1.192-.795-2.385-1.988-3.577-2.782-.795-.398-1.193-1.193-1.987-1.59-.398-.398-.398-.795-.795-.398l-1.193 1.193c-2.385 1.987-5.167 3.974-7.95 5.564-5.564 3.577-11.923 5.962-18.283 7.95-23.053 5.564-47.696-1.59-64.39-18.284-15.898-16.694-22.258-40.144-17.09-62.403 5.166-21.463 21.463-39.746 42.528-47.298 11.13-3.975 23.848-5.167 35.773-2.783 6.359 1.59 12.719 3.975 18.68 7.155 2.783 1.192 5.565 3.18 8.347 5.167 1.193.795 2.385 1.987 3.578 2.782.397.398.397.398.795 0 .397-.397.794-.795 1.192-.795.397-.795 1.192-1.192 1.987-1.59 20.271-15.5 48.094-18.283 70.75-6.757 19.873 9.937 33.785 29.81 36.17 52.069 2.384 22.655-6.758 45.311-24.246 59.62-11.924 9.54-27.028 15.104-42.132 15.104z" fill-rule="evenodd"/><path d="M204.126 286.956c-1.987 0-3.577-.397-5.167-.795-1.987-.397-3.577-1.192-5.565-1.59-3.18-.795-6.36-2.384-9.539-3.577-2.385-1.192-5.167-1.192-7.95-1.192.398.795 3.18 1.192 3.975 1.192.795.398 1.988 1.193 3.18 1.59 2.385 1.192 4.77 2.782 7.155 3.975 1.192.397 2.782 1.192 3.974 1.59 1.59 0 2.783.397 3.975.397 1.59 0 3.975.398 5.565 0 1.192-.795 2.782-.795 3.974-.795.398 0 .398-.795.398-.795h-3.975zM123.837 259.928c-.795-.397-1.59-1.59-2.384-1.987-.398.795 1.59 1.987 1.987 2.385.397.397 2.385 2.385 1.987 3.577-.397-.397-.795-.397-.795 0s.398 1.192.398 1.59c0 .397.397.795.397 1.192.795.795 1.59.398 1.988-.397 0-1.193-.398-2.782-1.193-3.975-.397-.795-1.59-1.59-2.385-2.385zM171.931 269.865c2.782-.795 5.167-1.59 7.552-2.385 2.782-.795 5.564-1.192 7.95-1.59a30.257 30.257 0 0 1 8.346-1.192c1.193 0 2.782-.398 3.975-.398 1.192-.397 2.385-1.192 3.18-1.59 1.59-.794 2.782-.794 4.372-1.192 1.192-.397 2.782 0 3.577-.397.397 0 .795 0 .795-.398 0-.397 0-.397-.398-.397h-2.384c-1.193 0-2.385.397-3.578.397-2.782.398-5.564.398-8.346.795-2.385.398-5.168.398-7.552 1.193-2.783.795-6.36 1.59-9.142 2.782-3.18 1.192-5.962 2.782-9.142 3.975.398.397.795.397.795.397z" fill-rule="evenodd"/><path d="M71.371 172.883c0 37.76 30.606 68.364 68.365 68.364 16.694 0 32.592-5.962 44.914-17.09 14.706-12.72 23.45-31.4 23.45-51.274 0-19.476-8.744-38.157-23.45-51.274-12.322-10.731-28.22-16.693-44.914-16.693-37.76 0-68.365 30.605-68.365 67.967zm2.783 0c0-35.772 29.412-65.185 65.582-65.185 15.899 0 31.4 5.564 43.324 16.296 13.912 12.322 22.258 30.208 22.258 48.889 0 19.078-8.346 36.964-22.258 49.286-11.924 10.731-27.425 16.296-43.324 16.296-36.17 0-65.582-29.413-65.582-65.582z"/><path d="M108.336 127.174c.795-.795 1.192-1.193 2.385-1.59.397 0 .795.397.795.397-.398.795-.795.795-.795 1.193-.398 1.192-.795 1.987-1.59 3.18-.397.397.397.397-.397.794-.398 0-.795.398-1.193.398-.397.397-.795.397-1.192.397-.398 0-.795-.397-1.193-.397-.397 0-1.192.397-1.192-.398 0-.397.397-.794.795-1.192.795-.795 1.59 0 2.782-.397.795-.398.398-1.59.795-2.385zM102.771 131.546c.398-.398.795 0 .398.397-.398 0-.795-.397-.398-.397z"/><path d="M183.855 125.186c-1.192-.794-1.987-1.59-3.18-1.987-1.192-.795-1.987-1.987-3.18-2.782-.397-.398-.794-.795-1.59-1.193-.397-.397-.794-.397-1.59-.794-1.192-1.193-1.987-1.59-3.576-1.988h-1.59c-.795 0-1.193 0-1.988.795h-.795c-.397 0-.397.795-.397.795-.397.398-.397 1.192-.795 1.59-.397.795-.795 1.192-1.192 1.192h-2.385c-.398.398-1.193.398-1.988.398-.397 0-1.192.397-1.59.397-.794.398-1.59.398-2.384.398-.398 0-1.193 0-1.988-.398-.794 0-1.192 0-1.59.795-.397.398-.794.795-1.59 1.193-1.192.795-2.384 1.59-3.974 1.987-.397.397-1.192.795-1.59 1.192-1.192.398 0 .398-.397 1.59-.398-.397-.795-.397-1.193-1.192 0 0-.397-1.193-.795-.795-.397 0-.795 0-1.192.397-.398.795-.398.795-1.192.398-1.193 0-1.988.397-3.18.397-.795 0-1.988-.795-2.385-.397-.795.397-.795.397-1.59.397 0-.397 0-1.192-.397-1.59-.398-.397-.795-.795-.795-1.59-.795-1.192-1.59-1.59-3.18-1.59-.795 0-1.192 0-1.59-.397-.397-.397-1.59-.795-1.987-.397l-1.193 1.192c-.397 0-.397.398-.795.398 0 .397-.397.397-.795.397-.794 0-.794.795-1.59.795-.794 0-1.192 0-1.987.397h-1.987c-.795 0-.795.795-1.59 1.193-.397.397-.397.795-.397 1.59s1.192.397 1.59.397c.397 0 .397 0 .397.398v.795c0 .795-.795 1.192-.795 1.59 0 1.192 3.18.397 3.577 0 0 0 0-.398.398-.795 0-.398.397-.398.795-.398.397-.397.795-1.192 1.192-1.59.397-.795 1.987-1.987 2.782-2.385.398 0 1.59 0 1.59.398 0 .397 0 1.192-.795 1.59-.397.397-1.192-.398-1.59 0-.397.397-1.192.397-1.59 1.192 0 .398-.397.398 0 .795l.398.398c.397 0 1.192.397 1.59 0 .795 0 1.59-.398 1.987-.398.795 0 1.59 0 .795.795-.397 1.192-2.385.397-3.18.795-.795.397-1.59.397-2.384.795-.398 0-1.193-.398-1.59.397-.398.398-1.193.795-1.59 1.193-.398.397-1.59-.398-1.59-.398-1.59-.795 0-2.782-1.193-3.577 0-.397-1.192 0-1.59 0-.794 0-1.192 0-1.987.398-.795.794-1.987 1.59-3.18 1.987-.794 0-1.192.397-1.987.397 0 .398-1.192 0-1.59 0h-1.987c-.795 0-.795.398-1.192 1.193-.398.397-.795 1.192-1.193 1.59-.397.397-.397 1.192-1.192 1.59-.398.397-.795-.795-1.193-.795-.397-.398-1.59.397-1.987-.398-.397-.397-.795-.795-1.192 0-.795.398-1.193.795-1.193 1.59s-.397.795-.795 1.192c-.397.398-1.192.795-.795 1.59.398.795.398 1.193.398 1.988 0 .795 1.192.397 1.59.397.795 0 1.987.398 2.782.398 1.192 0 .795 0 1.59-.795 0-.398.397-.398.397-.795.398-.398 0-.398.398-.795.397 0 1.59 0 1.987.397 0 .398 1.192.398 1.59.398.397-.398 1.192-.398 1.59 0 .795.397.795.795 1.192 1.59.398.397 0 1.192 0 1.59.398.794.398.794.795 1.192 0 .397.398.795.398 1.192 0 .795 0 .795-.795 1.193v1.192c1.192 0 1.59-.397 2.385-1.192v1.192c1.192-1.192 1.192-1.987 1.192-3.577 0-.398-.795-.795-.795-1.193v-1.192c0-.397 0-.397.397-.397 1.59 0 1.193 1.59 1.193 2.782v3.577c.795 0 2.385 0 2.782-.795 0-.397-.397-1.192-.397-1.59 0-.397.795-.397 1.192-.397-.397.795-.397 1.192-.397 1.987 0 .398-.398.398 0 .795v.795c.397.397 1.192.397 1.59.795.397.397.397.397.397.795 0 .795.397.397.795.397.397 0 1.192 1.193.795 1.193 0 .795-.398 1.59-.795 1.59-.398 0-1.59 0-1.987-.398-.398 0-1.193-.397-1.988-.795-.397-.397-.397-.795-1.192-1.192h-1.988-1.59c-.397-.795-.397-1.193-1.192-1.59-.397-.795-2.782-.795-2.782-1.987v-1.193h.795c.397.795.397 1.193.795 1.59.795-.397.397-.795.397-1.192l-.795-.795c-.397-.398 0-.398-.795-.398-.397 0 0 .398-.397 0-.398 0-.398-.397-.795-.397 0-.795 0-.398-.398-.795-.397 0-.397-.398-.794-.398-.398-.397-1.193-.397-1.59-.397h-4.373c-.794-.398-1.192-.795-1.987-1.193-.397 0-1.192-.794-1.192-.794-.398.397-.795.794-1.193.794-1.192 1.193-2.782 2.385-4.372 3.18-1.987 1.59-4.372 2.782-5.962 4.77-1.192 1.192-2.385 2.782-3.18 3.975-.795.794-.795 2.384-.795 3.18-.397 1.59-.397 2.782-.794 4.371 0 .795-.398 1.193-.398 1.988-.397.397 0 1.192.398 1.59.397 1.192.794 2.782 1.192 3.974l1.192 2.385v1.59c0 1.192 0 1.192.795 1.59.398.795.795.397 1.59.397 1.193-.397 1.193-.397 1.988.398.397.397.794.397 1.59.397.794 0 3.577-.397 3.974 0 .398.398.795 1.193 1.192 1.59.795 0 1.988.398 1.988.795.397.398 0 1.987 0 2.385 0 .795 0 .795.397 1.59.795 1.192 1.193 2.782 1.59 3.974.398 1.193 1.59 2.385 1.59 3.578v1.987c0 .795-.397 1.59-.795 1.987 0 .795 0 .795.398 1.59.397.795.795 1.59 1.59 2.385.397.795.794 1.987 1.192 2.782 1.192 2.783 1.987 5.565 3.577 8.347.398 1.193 1.192 2.385 1.59 3.577.397.398 1.192.795 1.59.795.397 0 1.192-.795 1.59-1.192 1.192-.795 2.782-1.192 3.974-1.987 1.193-.398 1.193-2.385 1.59-3.578 0-.397.398-.397.795-.795 1.193-.397 1.988-1.59 1.193-2.782 0 0-.398-.397-.398-.795v-1.59c0-1.59.795-1.59 1.59-2.384 1.192-1.193 1.192-1.988 1.192-3.18v-5.167c0-.398-1.987-2.385-1.59-2.783l2.783-2.782c1.987-1.987 3.975-3.975 5.962-6.36.795-.794 1.192-2.384 1.59-3.577 0-.795.397-1.192.795-1.987 0 0 1.192-1.192.397-1.59-1.192-.397-3.18.795-4.372 1.59-.397 0-1.59-.397-1.987-.397-1.193-.795-1.193-2.385-1.988-3.18-.397-.398-.795-1.193-1.192-1.59-.398 0-.795.397-.795 0-.398 0 0-.795 0-1.192 0-1.193-.795-2.385-1.192-3.578-.398-.795-.398-1.192-.795-1.59-.398-.794-.398-1.59-.398-1.987v-1.987c0-.398 1.193-1.193 1.193-.795.794.795.794 2.782 1.192 3.577.397 1.59.795 2.782 1.59 3.975 0 .795.795.795 1.192 1.192.795.398.398 1.193.795 1.59 0 1.192 0 1.987.398 2.782.397 1.193.795 1.193 1.59 1.193.794 0 1.59-.398 1.987-.398.795-.397 1.192-.397 1.987-.795 1.193-.397 2.385-1.192 3.18-1.987.795-.397 1.192-.397 1.987-.397.398 0 1.193-1.193 1.193-1.59l1.192-1.193c0-.397.398-1.59 0-1.59h-.795c0-.795-.397-1.192-.795-1.59-.397-.397-1.987-.397-2.782-.397-1.192 0-1.192 0-1.59-.795-.397-.397-.795-1.192-.795-1.987-.397-.398-.397-.398-.397-1.193.397.398 1.192.398 1.192.795.398.795.398 1.193.398 1.988.397 0 1.192-.398 1.59-.398.794 0 .794.398 1.59.795.397.398.794 1.192 1.192 1.192.795 0 1.59 0 1.987.398 1.192 0 2.385-.398 3.18-.398.795 0 1.192 0 1.59.795.397.398.795.795 1.192 1.59.398.795.398.795 1.192.795.795 0 .795 0 .795.795 0 1.193 0 2.782.795 3.975.795 1.192 1.193 1.987 2.385 3.18.398.795.795 1.987 1.988 2.782.397-.795 1.192-1.987 1.192-2.782 0-.795.397-.795.795-1.193.397-.397.397-.795.397-1.59 0-1.59.398-1.987 1.193-2.782.795-.795 1.987-1.59 2.782-2.385.795-.795 1.59-1.192 2.782-1.192.398 0 .795.397 1.193.795.397.397 0 1.192.397 1.59 0 0 0 .397.398.397 0 .398.397.398.795.398 0 .397.397 1.192.397 1.59.795 1.59 1.59 1.59 2.385.397.397.795.397 2.385 1.192 3.18.398.795.398 1.987.795 3.18.398 1.192.795 2.384 1.193 3.18.795 1.192 1.59 2.384 2.782 2.781.397 0 .795 0 .397-.794 0 0-.397 0-.397-.398v-1.192c-.398-1.193-.795-2.385-1.193-3.18-.397-.398-1.192-.795-1.59-1.193-.397 0-.397-.794-.794-1.192-.398-1.192 0-1.987 1.192-2.782.795.795 1.59 2.385 2.782 2.782.795 0 1.193-.795 1.59-1.192.398-.398.398-.398.795-.398.398-.397.398-.397.795-1.192.398-1.193-.397-2.782-.795-4.372-.397-.795-.397-1.193-.397-2.385 0-.398 1.192-1.193 1.192-1.59.398.397.795.795.398 1.192-.398.398 0 .398 0 .795.397.398 1.192 0 1.192-.397.397 0 0-.795 0-1.193 0-.794.795-1.59 1.59-1.59.795-.397 1.59-1.59 1.987-1.987.398-.397.795-1.59.795-2.385 0-.795.398-1.987 0-2.782-.397-1.987-.397-3.975-1.987-5.167.397-.397 1.192-.795.795-1.192-.795-.795-1.193 0-1.59.397 0 0-.795-1.192-.398-1.59.398 0 .398-.397.795-.397.398-.398.398-.398.795 0l1.193 1.192c.795.398.397 1.193.795 1.987 0 .398 0 .398.397.795.398 0 .398 0 .795-.397 0-.398.795-.795.795-1.192 0-.795.397-1.59 0-1.988-.795-.795-1.192-.795-1.192-1.987 0-1.193 0-2.782.794-3.577.795-.398.795-.398.398-1.59-.398 0-.795 0-.398-.398v-.795c0-1.59.795-2.384.398-3.974-.398-.795-1.192-2.385-1.987-3.18-.398-.795-.795-1.192-1.193-1.59-.397-.397-1.59-.795-1.59-1.192-.397-.398 0-.795 0-.795 0-.398-.397-.795-.795-.795-.397-.398-1.192.397-1.59.397-.397 0 0-1.59.398-1.987 0-.398.397-.795 1.192-.795.795-.397 1.193-.397 1.59-.795.398-.397.398-1.192 1.193-1.59l1.192 2.385c.398.397.398.795.795.795 0 .397.397 0 .397 0 .795.397.398.795 1.193.795 1.192 0 1.987.795 3.18.795.795 0 .795.397.795-.398s-.398-.795-.398-1.59zm-63.197 8.347c.397 0 .397.398 0 .795-.398 0-.795-.397 0-.795zm2.782 15.104c-.398.795-2.385-.795-3.18-.397-.397 0-1.59-.398-1.192-.795 0-.398.397-1.59.795-1.59.397-.398 1.192-.795 1.59-.398l.397.398c0 .397.397.397.795.397.795 0 .795 0 1.192.795 0 .795 0 .795-.397 1.59zm6.757-.397c-.398.397-.795.795-.398 1.59 0 .794.398.794-.397 1.987 0 .397 0 1.192-1.193 1.192-.397 0-.794.398-1.192-.397-.397-.398 0-.795.398-.795.794 0 .397-1.193.397-1.59v-1.59c0-.795.397-1.192 1.192-1.192.398-.398 1.59-.398 1.193.795zM104.361 126.379c.398 0 .795-.398.795-.398.398.398.795.398 1.193.398.397 0 .795.397.795 1.192 0 .398.397.795-.398 1.193-.397 0-.795.397-1.192.397h-1.59c-.795.398-1.193.795-1.59 0-.397-1.192.397-1.192 1.192-1.59.398 0 .795-.795.795-1.192z"/><path d="M122.247 194.346c0-.795 0-.795.795-1.192.398 0 1.193.795 1.193 1.192.795 1.192.397 2.385.397 3.975 0 .397-.795 1.192-.795 1.59-.397.397-.795.794-.795 1.59 0 .397-.397 1.192-.397 1.987 0 .397.795 1.192.397 1.59 0 0-.795.795-1.192.795-.397-.398-1.192-.795-1.59-1.59-.795-.795-.397-2.385-.397-3.18v-1.987c-.398-.795 0-1.193 0-1.988.397-.397.397-1.192.795-1.59.795 0 .795-.795 1.59-1.192zM147.685 176.46c0-.398 1.193-1.59 1.193-1.59.795.397.397 1.59.397 1.987 0 .398-.397 1.59-1.192 1.59-.795-.397-.398-1.59-.398-1.987zM159.212 178.447c1.192 0 1.987 0 3.18.795.795.398 1.59 1.193 2.385 1.988.795.794 1.59 1.59 1.987 2.384.795.398 0 2.385 0 3.18-.398.795-1.59-1.987-1.987-1.987-.398-1.193-1.193-1.988-1.59-2.783-.398-.397-1.988-1.987-2.385-1.987-.398 0-1.192 0-1.59-.397 0 0-.397-.795 0-1.193zM167.956 185.204c.398.398.398 1.193.795 1.988 0 .397 1.59.397 1.988.397.397 0 1.59 0 1.59.397.794.795.397 1.59-.398 1.59-.397-.397-.795-.795-1.59-.795s-1.192-.397-1.987-.397c-.398-.398-1.193-.795-.795-1.59.397-.397 0-1.192.397-1.59zM173.52 189.576c.796 0 .796 0 1.59.398h1.193c.795 0 1.193 0 1.59.397.795 0 1.192.398.398.795-.398.398-2.385-.397-2.783-.397-.795 0-.795-.398-1.59-.398-.397 0-1.192-.397-.397-.795zM180.278 191.166h1.192c.398.795.398 1.193-.397 1.193h-1.193c-.397-.398-.397 0-.795 0-.397.397-1.192.397-1.192 0-.397 0-.795-.795-.397-.795.795 0 2.384 0 2.782-.398zM169.546 179.242c1.193 0 1.988-.397 2.782-1.192.398-.398 1.193-.795 1.59-1.193.398-.397.795-1.192 1.193-.795.397 0 1.59.398 1.59.795-.398.795-.398.398-1.193 1.193-.397 0-.397.795 0 1.192.795.795.398.795 0 1.59-.397.398-1.192 1.192-1.192 1.59 0 .795-.398.795-.398 1.59-.397.397-.795.397-1.192 0-.398-.398-.795-.398-1.59-.398-.397 0-1.192.398-1.59 0 0 0-.397-1.192-.397-1.59-.398-.397-.795-.794-.398-1.59 0-.794 0-.794.795-1.192zM180.675 181.23c-1.192 0-2.384 0-3.577.794-.795.398-1.192 1.59-1.192 2.783v1.59c.397.397 1.192 1.192 1.59 1.192 1.192-.397-.795-1.987-.398-2.782.398 0 .398.397.795.795 0 .397.398.795.795.795s1.192-.398.795-.398c0-.397-.398-.795-.795-.795-1.192-.795.795-.795 1.192-.795 1.193-1.192-1.192-.795-1.59-.795 0-.795.795-1.192 1.59-1.192.398 0 1.59-.398.795-1.192zM181.47 178.447c.398 0 1.59 0 1.59.398 0 .397-.397.795-.397 1.192 0 .398.397 0 .795.398.397.397-.398 1.192-.398 1.192-.397.397-1.987-.397-1.987-.795-.398-1.192.397-1.59.397-2.385zM179.085 173.28c0-.397.795-1.192 1.193-1.192.397 0 .795 1.192.397 1.59-.397.795.398.795.398 1.59 0 .794.795 1.59 0 1.987-1.193 0-1.193-.398-1.59-.795-.398-.398-.795-.398-1.192-.398 0 0 0 .398-.398.398-.795 0-.795-.795-.397-1.193.795 0 1.192-.397 1.987 0 0-.397.397-.794.397-1.192 0-.397-.397-.397-.795-.795zM177.893 170.895c.398 0 1.59 1.193.795 1.193s-1.59-.795-.795-1.193zM179.483 169.703s.397.795.397 1.192c0 .398-.397 0-.795 0-.794 0-.397-1.987.398-1.192zM177.098 164.933c.398 0 .795 0 1.193.795.397.398 0 .795-.398 1.193-.397 0 .398 1.192.398 1.59.397 0 .397 1.192 0 1.192-.398 0-1.193-.398-1.59-.795-.398-.397-.398-.795 0-1.192 0-.795-1.193-2.783.397-2.783zM177.893 158.971c0-.397 0-.795.398-1.192.397-.398.794.397.794.397 0 .795.398 1.988.398 2.385-.398 1.193-1.192 1.193-1.987.795 0-.397 0-1.987.397-2.385zM184.65 180.832c-1.192-1.59.397-1.59 1.987-1.192.398 0 .398.397.795.795 0 .397 0 .397-.397.795 0 .397.397.794.795.794.795.795 1.987-1.192 3.18-.397 1.192.795 1.59 2.385 2.782 3.18.397 0 1.192.397 1.59.795.397.397.397.397.397.795.398 0 .795 0 .795.397.795 1.192 1.59 2.385 1.987 3.577.398.795 1.988 3.18.795 3.578-.795.397-1.192-1.193-1.192-1.59-.398-.795-1.192 0-1.59-.398-.795-.397-1.192-1.59-1.987-1.59-.795-.397-1.193 1.193-1.988.398-1.192-.398-1.192-1.193-2.384-1.59-.795-.398-1.988-.795-1.59-1.59.397-.397.397-.795.397-1.192 0-.795 0-.795-.397-1.193-.795-.795-1.59-1.192-2.385-1.192-.398 0-1.193 0-1.59-.398 0 0-.397-.795-.795-1.192-.397 0-.795-.398 0-.795.398 0 .795-.397 1.192-.397l-.397-.398zM199.356 182.82v-.398c1.193 0 2.783 1.192 2.385 1.987 0 .398-.397.795-.795.795-.397-.397-.397-.397-.397-.795-.398-.397-.398-.795-.398-1.192-.397 0-.795 0-.795-.398zM198.959 185.204l.397-.397c.398 0 .398.397.398.795v.795c-.398.397-.398.397-.795.397-.398.795-1.193.398-.795-.397.397-.398 1.192-.398.795-1.193zM201.741 185.204c1.193-.397 1.193 2.385.398 2.782-.795.398-1.193-2.384-.398-2.782zM202.139 188.781c.397-.397.795-.397 1.192-.795v1.59c-.397.398-.397 1.59-.795 1.59-.795.398-.397-.795-.795-1.192 0-.398-.397 0 0-.795l.398-.398zM182.663 192.756h3.974c.795 0 .398.398.398 1.193 0 .794-.398.794-.795 1.59-1.193.794.397 1.987 1.192 2.782.398.795.795.795 1.193 0 .397-.795.795-.795.795-1.59.397-.795.795-1.193.795-1.59.397-.795.397-1.59.795-1.987 1.59-1.193 1.192 2.384 1.192 3.18 0 .794 0 1.192.397 1.987.398.795.398 1.192.398 1.987-.398 1.192 0 2.782.397 3.975v3.577c0 .795 0 1.59-.397 1.987 0 .795-.795 1.193-.795 1.59-.398.795-.795 1.193-1.192 1.987 0 .398-.795.795-1.193 1.193 0 .795-.397 1.192-.795 1.59-.397.795-.795 1.192-1.192 1.59-1.193.795-1.988 1.59-3.18 2.384h-1.59c-.795 0-1.59.398-1.987.398-.795 0-1.193 0-1.59-.398-.398-.397-.398-1.192-.795-1.987 0-1.192 0-2.385.397-3.975-.794.398-1.192 1.193-1.59.795-.794-.397-.397-.795-.794-1.59-.795-1.192-1.193-2.384-2.783-2.782-2.782-.397-5.167.398-7.552.795-.397 0-1.192-.795-1.59-.795-.397-.397-.794-1.192-.397-1.59.398-.397.795-1.192.795-1.59.398-.794.398-1.59.398-1.987 0-.795.397-1.192.794-1.59.398-.795.398-1.192.795-1.987.398-.795 1.193-1.987 2.385-2.385 1.193-.397 2.385-.795 3.577-1.59h.795c.398 0 .398-.397.795-.397.398-.795.795-.795 1.193-1.193 1.192-1.192 2.385-1.59 3.577-1.59 1.192-.397 1.987-1.59 3.18-1.987zM178.29 222.169c.398 0 .795 0 1.193.397v.398h.795c.397-.398.795-.795 1.192-.795.795.397.795.795.398 1.192l-1.193 1.193c-.397 0-.397.795-.795 1.192-.795.397-1.59.397-1.59-.795-.794.398-1.59-.397-1.59-1.192 0-.398.796-1.193 1.193-1.59h.398zM112.708 116.045c.398 0 .795 0 1.59.397.795 0 .795 0 1.192-.397.795.397.398 1.192 0 1.59-.794.397-1.192.795-2.384.795-.795 0-1.59 0-1.59-.795s.795-1.193 1.192-1.59zM175.508 127.571c1.59.795 3.18 2.385 4.372 3.18.398.795.398.795.795 1.192 0 .795 0 .795.398 1.193.397.397 2.385 1.59 1.59 1.987-.398.398-2.385-.397-2.783-.795-.397-.397-.397-1.987-.795-2.385-1.192-1.59-3.18-2.384-3.974-3.974.397 0 .397-.398.397-.398zM184.65 127.969s1.987.795.795 1.192c-.398 0-1.192.398-1.987-.397.397 0 .795-.398 1.192-.795zM185.445 129.956c.397.398.397.398 0 .795-.398.397-.795 0-1.192 0-.398 0-.398-.795 0-.795h1.192zM182.265 135.52c.398.398 1.193.796 1.193.796.397 0 1.987-.398 1.987 0 .397.795 1.192.795.397 1.192-.397.397-1.59.795-1.59 1.192 0 0-.397 1.193-.794 1.193-.795-.398-.398-1.59-.795-1.988 0-.397-1.988-1.987-.398-2.384zM185.445 138.7c.397.398 0 1.193 0 1.59.397.398.795.398 1.192.795 0 .795-.397 1.59-.397 1.988.397.397.397 1.59.397 1.987l-.397.397c0 .398.397.795 0 .795 0 .398-.398.398-.398.398 0 .397 0 .795-.397 1.192 0 .398-.398.398-.795.398-.795.397-1.59 1.192-2.385 1.192 0 .398-.397 1.59-1.192 1.192-.398-.397 0-1.59.397-1.59.398-.794.795-1.192 1.193-1.987.397-.397.795-.397 1.59-.397-.398-.795-1.193-1.193-1.193-1.59 0-.398 1.193-1.193 1.193-1.987.397-.398-.398-1.59 0-2.385.397-.398.397-1.988 1.192-1.988z"/><path d="M184.253 149.83c-.795-.398-2.783.794-1.988 1.192.795 0 1.988-.398 1.988-1.192zM181.868 151.42c0-.398-.398-.398-.398-.796-.397.398-1.59 1.988-.795 2.385.398.398.398-.397.795-.795 0 0 .795-.397.398-.795zM192.202 118.43c1.59 0 2.385-.398 3.18-1.59.397-.398.795-.795 1.192-.795.795 0 1.192-.398 1.987-.795.398 0 1.193-.398 1.59-.398.795-.397.795-.795 1.59-1.192 1.193 0 2.385.397 3.577.795.795.397 2.783.397 2.783 1.59.397.397 0 .795.397 1.59.398.397.795 1.192.795 1.59 0 .397-.397.397-.397.794v.795c-.398.795-.795 1.193-1.193 1.59-.397.398-.795.795-1.59.795-.397 0-.397-1.987-.397-2.385-.398 0-.795 0-.795.398-.398 0-.795-.398-.795-.795-.397.397-.795.795-1.59 1.192-.795 0-1.192 0-1.987-.397h-3.975c-.397 0-1.192 0-1.59-.398-.397 0-.795-.397-.795 0 0 .398-.397.398-.795.795h-4.769c.795-1.59 2.782-1.59 3.577-3.18zM200.151 131.546c.398 0 1.193.397 1.193.795 0 .795-1.193.397-1.59.397-.398 0-1.193-.397-1.193-.795.398-.397 1.193-.397 1.59-.397zM197.369 132.738c.397.398.795.398 1.192.795.398.398-.397.795-.795.795-.397-.397-1.192 0-1.59-.795-.397-.795.398-.397 1.193-.795zM216.448 141.483c.794.397.794.397 1.192.795.397.397.795 1.192.397 1.59-.795.397-1.192-.795-1.192-1.193-.397-.397-.795-.795-.397-1.192zM223.204 121.212c.398-.398.398-.795.795-.398.398 0 .398 0 .795.398.398.397.795 1.192.398 1.987-.398.795-.795.795-1.59 0-.795-.397-.398-1.59-.398-1.987zM229.166 113.66c.398-.795.795-1.59 1.59-1.987.398-.398 2.385-.795 1.988.397h-1.193c-.397.397-.795.795-.795 1.192-.397 0-.795.398-.795.795-.397 0-1.192.398-.795-.397zM231.949 113.262c.795-.397 1.192-.397 1.987-.397.398 0 .398-1.192.398-1.192.397-.795.794-1.193 1.192-1.59.795-.398 1.192-.398 1.987-.398 1.59 0 2.783-.397 3.975.398.397.397.397.397 1.192 0 .795 0 1.193 0 1.988.397.795.398 1.192.795 1.987 1.193.398.397.795.794 1.59 1.192.397.397.795 0 1.59.397.795 0 1.192.398 1.987.795.398.398.398.398.398 1.59 0 .795.397 1.193.795 1.988.397.397 0 .795.397 1.59.398.397.795 1.192.795 1.987.397.397.397.795.795 1.192.795.398 1.192 1.193 1.192 1.59 0 1.59-1.192 1.987-2.384 1.987-1.193 0-2.385-.397-3.578-.795-1.59-.794-2.385-1.192-3.577-2.384-.397-.398-.795-1.193-1.192-1.193-.795-.397-1.193-.795-1.193-1.192 0-.398.398-1.59-.397-1.59s-1.193-.397-1.988-.397c-1.192 0-2.384-.398-3.577-.398-.397 0-1.192 0-1.987.398 0 0 .397.397 0 .794h-.795c0 1.988 1.987.795 3.18 1.59 1.59.398 2.782.398 3.974.795.795.398.795.398 1.193 1.193.397.397.795.795 1.59 1.192.795.398 1.192.398 1.987.795.795 0 .795.795 0 1.192-.397 0-1.192 0-1.192.398-.398.795 0 1.192 0 1.987 0 .398 0 1.193-.795 1.193-.398-.398-1.193-.398-1.988-.795-.795-.398-3.577.795-3.577-.795 0-.795.795-1.193.795-1.59.398-.795-.397-.795-.795-1.193-.795-.397-1.192-.397-1.987-.794-.795 0-1.59-.398-1.988-1.193-.397 0-.795 0-.795-.397-.397-.398-.397-.795-.794-1.193-.398-.795-.795-1.192-1.59-1.192-1.193 0-1.193-.795-1.59-1.59v-1.192c-.398-.795-.398-.398-.795-.398-.398-.397-.398-.397-.398-.795 0-.397-.795-.795-.795-1.192.398-.795 1.59 0 1.59.397.398 0 .795-.795.795-1.192 0-.398 0-.795.398-1.193zM257.784 116.84c.795-.795 1.193-.795 1.988-.398.794.795 1.59.795 1.987 1.193.795.795 1.192 1.192 1.987 1.59 0 .397.398.794 0 1.192h-1.192c-.795 0-1.193-.398-1.988-.795-.397-.398-.397-.795-.794-.795-.398-.397-.795 0-1.193 0-.795.397-1.192.397-1.59-.397-.397-.398-.397-1.193 0-1.193.398 0 .795 0 .795-.397zM227.974 117.237c0-.397.398-1.192 1.192-.795.398.398 0 1.193 0 1.988-.794-.398-1.192-.398-1.192-1.193zM225.987 119.622c0-.398.397-.795.795-1.192.397-.398 1.59-.398 1.192.397 0 .397-.397 1.192-.795 1.59-.397.795-1.192 0-1.192-.795zM229.166 119.224c.795-.397 1.193.398 1.193 1.193.397.795 0 1.192-.398 1.987-.397 0-1.192-.795-1.59-1.192-.397-.398.398-.795.398-.795.397 0 0-.795 0-1.193h.397zM226.782 121.61c.397-.398.795-.398 1.59 0 .397.397.397.397.397 1.192-.397 0 0 .795 0 .795 0 .397.397.397.795.397.397 0 .397.398.795.795 0 .397.397.397.795.795 0 .397-.398.397-.398.795-.795.397-1.59 0-2.384-.398-.398 0-1.193 0-1.988-.795 0 0 .398-1.192.398-1.59 0-.794-.795-1.59 0-1.987z"/><path d="M286.402 189.974c-.795-.795-1.192-1.988-1.59-2.782 0-.398-1.192-.795-1.192-1.193-.795-.397-1.193-.397-1.59-.397-1.193-.398-1.988-.795-3.18-1.193-.397 0-.795-.397-1.192-.397h-1.988c.398-1.193.398-1.988 0-2.782-.795-.795-1.192-1.59-1.987-1.988-1.192 0-1.987-.397-2.782-.795-.398-.397-.795-.795-.795-1.192l-1.193-1.193c-.795-.397-1.59-1.192-2.384-1.59-.795-.397-1.59-1.59-2.385-1.987-.398 0-.795 0-1.193-.397-.795 0-1.192-.795-1.59 0-.397.397-1.192 1.192-2.384 1.192l1.192-1.192c.398-.398.398-.398.398-.795-.398 0-.398-.398-.795-.398-1.193.795-2.783.795-3.975 1.193-.398 0-.795.795-1.193 1.192 0 0 0-.397-.397 0h-.397c0 .398-.398.795-.795.795-.398-.397-1.193-.397-1.59-.397-.398 0-1.193.795-1.59.795-.795-.398-1.193-.398-1.59-.795-.397-.398-.397-1.59 0-1.988 0-1.192.397-2.782-1.192-2.782-1.193 0-2.783 1.192-3.578 0-.397-1.192 1.988-2.385.398-3.18-1.193-.795-2.385.398-3.577.795-.398.398-1.193.398-1.59 0-.398-.397-.795-1.192-1.193-1.59-.397-.795-.397-.795-.795-1.987 0-.795.398-.795.795-1.59 0-.397 0-1.192.795-1.987.398-.398.795 0 1.59 0 .398 0 1.193-.398 1.59-.398.795-.397 1.192-.397 1.987-.795.795 0 1.193-.397 1.988-.397.795.397 1.192.795 1.59 1.59.397.397 0 .795 0 1.59 0 .397.795 1.59 1.192.795 1.192-1.193 1.192-2.385.397-3.578 0-.397-.397-.795-.397-1.192 0-.795 0-1.192.397-1.59.795-1.192 1.59-1.987 2.385-2.782.398-.795.398-2.385.398-3.18.397-.795.397-2.385 1.59-2.782 1.192-.795.397-1.988 1.192-2.783.397-.794 1.192-1.59 1.987-2.782.398-.397.398-.397.398-1.192 0-.398-1.193-.398-.795-1.193h.795c.397-.397 0-.397-.398-.795-.397 0-1.192.398-1.59.398.398.397.795.397.795 1.192-.397.398-.795.795-1.192.398-.397-.795 0-.795-.795-.795-.397-.398-1.192 0-1.59 0 .398-.398.795-1.193 1.193-1.193.795 0 1.192-.397 1.987-.397 1.192 0 2.782-.397 2.782-1.59.398-.795-.397-1.192-.795-1.59 0-.397-.397-.795-.397-.795-.398 0-.795.398-1.193.398-.795 0-2.384-.795-3.577-1.193-1.59-.397-1.987-.795-3.18-1.987 0-.397-.397-1.192-1.192-.795-.397.398-.795.398-1.59 0-1.192-.397-2.385-.795-3.577-.397-.795 0-1.192 0-1.192.795-.398 1.192 0 1.192.794 1.59.398.397 0 .794.398 1.192.397.397 1.192.795 1.192 1.192 0 1.193.398 2.385.398 3.577-.795-.397-1.193-1.192-1.988-1.192-1.192-.397-1.59 0-2.384-.795-.795-.397-1.59-.795-2.385-.795 0-.397-.795 0-.795-.397l-.795-.795c-.795-.795-.795-1.193 0-1.59.397-.795 1.192-1.193 1.59-1.987 0-.398-.795-1.988-.398-1.988.398-.397 1.193-.795 1.988-1.192-.398-.795-1.988-1.59-2.783-1.988-.794-.397-1.192-.794-1.59-1.192-.794-.397-.794-1.192-1.59-1.192-.397-.398-.794-.398-1.192.397 0 .398.398 1.193.398 1.59.397.795 1.192 1.192.795 1.987-.795.795-1.193.398-1.988.795-1.59 0-2.384 0-3.577-.397-.795-.398-1.192-.795-1.987-1.193-.398-.397-.795-.795-1.59-.795-1.192-.397-2.385 0-3.577-.794-1.193-.398-2.385-1.193-3.577-1.59-.398-.398-.795-.795-1.193-.795 0-.398-.397-.795-.795-.795-.795-.398-1.987.397-3.18.795-.795.397-1.987.397-2.384.795-.398.397-.795 1.192-.795 1.59 0 .397-.398.397-.795.397-1.193.397-.795 0-.795.795l-.795.795c-.795.795-.795 1.987-.398 2.782.398.795.398.795 0 1.193-.397.794-.397.794-1.192.397-.795 0-1.987-.397-2.782.397l.795.795h.795c.397.398 1.192.398 1.987.398.795-.398.795-.795 1.59-.398.397.398 1.192 0 1.59 0 1.59-.397 2.782-.397 4.372 0 1.192 0 1.987 1.59 2.385 2.385 1.192 2.385 1.987 4.77 3.18 7.155 0 .397.397.397.397.397 0 .398.397.795.397 1.193v1.987c-.397 1.59-.397 2.782-.397 4.372 0 .398 0 1.192.397 1.59 0 .397.795 1.192.795 1.59.398.795.795 1.59 1.193 1.987.397.795.795 1.193 1.192 1.59.398 1.59.795 2.385 1.59 3.577.795 1.193 1.192 2.385 2.385 3.18.795.397 0-1.192 0-1.59-.398-.397-.795-.795-.795-1.59.397-.795 0-.795-.398-1.59-.397-.397-1.192-.795-1.59-1.59-.397-.794 0-1.192.795-.794.398 0 .795.794.795 1.192.398.795.795 1.192.795 1.59.398.795.795 1.192 1.193 1.987.397.398.795.398 1.192 1.193 0 .397.398 1.192.795 1.59.397.397 1.192 0 1.59.794.397.398.397 1.193.795 1.59 1.192 2.385 3.18 4.77 5.564 4.77.795 0 1.59-.398 1.988 0 .795 0 1.192.397 1.987.795.795.795 1.987 1.59 3.18 1.987.397 0 1.192-.397 1.59 0 .795.398.795 1.193 1.192 1.59.398.397 1.193.795 1.59.795h.795c.397.397.397.795.795 1.192.397.398.397-.795.795-1.192.397-.795.795-.795 1.59-.398.795.795 1.59 2.385 1.192 3.578-.397.397-.795.795-1.192 1.59-.398.397-.398 1.192-.795 1.987-.398.795 0 2.782 0 3.577.397.398.397 1.193.397 1.987 0 .795.398 1.193.398 1.988.795 1.192.397 2.385.795 3.577 0 .795-.398 1.59-.398 1.987.398.398.795 1.193 1.193 1.59.397.795.794 1.193 1.59 1.59v1.987c0 .398 0 .795-.398 1.193 0 .397-.398.795-.398 1.192 0 1.193-.397 1.988-.794 2.783 0 .397-.398.795-.398 1.192l-.795.397c0 .795-.397 1.193-.397 1.59-.398.398-.795.795-.795 1.193v1.192c0 .795 0 .398-.398.795l-1.192 2.385c-.795.795-1.193 1.59-1.59 2.385 0 .795-.795 1.59-1.192 2.384.397 0 .795.398.397.795 0 .398-.795.398-1.192.795-.398.398-1.59.795-1.59 1.59-.398.795.397 2.385-.398 2.783-.397.397-1.192 1.59 0 1.987-.795.795-1.59 1.59-.397 2.782 0 0 .795.398.795.795.397.398 0 1.192 0 1.59.795 0 .795-.397 1.192-.397.398.397.398.397.795.397 0 .397.795.397.795.397.398-.397.398-.397 0-.794v-.795-.795c-.397-1.193-.795.397-1.192-.398 0-.397 0-.397.397-.795.398-.397.398 0 .795-.397.795 0 .795-.398 1.192-1.193.795-1.192 1.193-2.384 1.988-3.18.795-1.59 1.59-2.384 2.782-3.577 1.192-.795 1.987-1.59 2.782-1.987 1.193-.397 2.783-.795 3.975-1.59l2.782-2.782c.795-.795 2.385-1.193 3.18-1.987.795-.398 1.192-.398 1.987-.795.795 0 1.193-.398 1.59-.795 1.193-.795 1.988-1.193 3.18-1.988.795-.795 1.59-1.987 2.385-2.384 1.192-.398 1.987-.795 2.782-1.59.795-.795 1.987-1.59 2.385-2.783.397-.795.397-1.192 1.192-1.59 0-.397 0-1.192.398-1.59.397-1.192 1.192-1.987 1.987-3.18.795-.794 1.193-1.589 1.987-2.781 0-.398.398-1.193.795-1.59.398-.398 0-.795-.397-1.59zm-37.76-46.504c.398-.397.795 0 1.193-.397.397-.398.795 0 .795.397.397.397-1.988.397-2.385.397l.397-.397zm-3.974-.397c.795 0 .795 0 1.59.397.397.397 1.59.795.795 1.192-.398 0-1.193-.397-1.59-.397-.398-.398-1.988-1.192-.795-1.192zm-.795.397c-.398.397-1.59 2.782-2.385 2.385 0-.398.397-.398.397-.795 0-.398.398-.795.398-1.193 0-.794 1.192-1.192 1.59-.397zm-3.975-1.987c.398 0 1.193 0 1.987-.398.398-.397-1.192-.795-.794-1.59.397-.397 1.59.795 1.987.795.397.398.397 1.193.795 1.988h-2.385c-.397 0-1.987 0-1.59-.795z"/><path d="M257.784 141.085c0 .398-.397.795-.795 1.193-.795 0-.397-.795-.397-1.193.397-.397.795-1.192 1.192-1.192.795 0 .795.795 0 1.192zM258.182 135.918c.397 0 .795-.795 1.192-.397.398.397-.397.795-.397 1.192.397.398 1.987 0 1.987.795.397.397 0 1.192-.398 1.192-.397 0-.794-.397-.794-.795-.398-.397-1.988 1.193-2.385.398-.398-.795.397-1.987.795-2.385zM249.04 164.138c1.192.398 2.385 1.193 3.577 1.193.398 0 .795.397.795.795 0 .397-1.192.397-1.59.397-1.192-.397-1.987-.795-3.18-1.59-.397 0-.794-.397-.794-1.192 0-.398 1.192.397 1.192.397zM257.387 166.126c.795 0 1.987-.398 2.385.795 0 .795-.795 0-.795 0h-1.59c-.398 0-.795 0-1.193-.398-.397 0-.397-.397-.795-.795-.397-.397.795-.397.795-.397.795 0 .795 0 1.193.795zM260.964 167.318c.397-.397.397-.397 1.192 0 0 0 .398.398.398.795 0 .398-1.193-.397-1.59-.397v-.398zM238.308 128.366c.795.398 1.193.398 1.59.795 0 .795 0 1.193-.795.795-.795 0-1.192-.397-1.59-.795v-.795h.795zM286.402 77.093l.397.397-2.782.398.398-.795h1.987zM15.328 133.533l1.988.398-.795 3.18 23.848 5.962 1.192-3.18 1.988.795-4.372 18.283-2.385-.397.795-3.577-23.848-6.36-.795 3.577-2.385-.397 4.77-18.284zM22.88 113.262l-5.564 13.514 1.987 1.193 1.59-3.577 23.053 9.141-1.192 3.18 1.987.795 3.577-9.142-1.987-1.192-1.59 3.18-15.501-5.962 21.86-2.783 5.168-9.539L32.42 98.954l1.987-3.18-1.987-1.193-5.168 9.142 1.988 1.193 1.987-3.18 14.706 8.347-23.053 3.18zM34.407 91.402c.795-2.385 19.078-25.836 21.463-27.426l5.167 4.77-1.987 1.987-1.987-1.59s-3.975 1.988-6.757 5.167l17.886 14.31v5.564l-5.962 8.347-1.988-1.193 1.988-2.782L43.15 83.452s-2.782 4.77-3.577 7.95l1.987 1.987-1.192 1.59-5.962-3.577zM58.255 61.591c.397-1.192 21.86-20.27 24.246-21.065l3.974 5.564-1.59 1.59-1.987-2.385s-5.565 1.59-11.527 7.155l7.155 7.95s3.975-1.988 3.577-3.18l-1.59-1.59 1.59-1.59 5.167 6.36-1.59 1.191-1.987-1.987-3.18 2.782v.795c.398 0 7.155 7.552 7.155 7.552l.397-.397c.795-.398 6.36-5.962 6.757-7.95 0 0-.397-.795-1.192-1.59-.795-.794-.398-.794-.398-.794l1.988-1.59 4.372 6.36L85.68 75.9h-9.539L62.23 60.4l-2.385 2.781-1.59-1.59zM132.184 19.062l-.795-2.384 13.117-3.578 16.693 15.502-1.59-15.9-3.577.398-.397-1.987 10.334-1.59.397 2.385-3.577.795 3.18 26.63-9.142 1.193-16.296-15.502 4.372 15.9 2.782-.796.398 2.385-8.744 2.385-.795-1.988 3.18-.794-6.758-23.849-2.782.795zM205.318 37.346L194.19 9.126l-9.539-.398-12.322 27.426-2.782.397.398 2.385c1.192-.398 9.141-.398 9.141-.398l-.397-2.782h-2.385l2.385-5.962 11.13-.397 2.781 6.359-3.18.398.398 2.384c2.385-.397 18.284 1.59 18.284 1.59v-2.385l-2.783-.397zm-25.438-9.937l5.167-10.731 3.975 10.731h-9.142zM210.088 17.87s1.192-5.962 1.59-6.757c0-.397 20.27 3.18 32.195 8.347l-1.988 6.757-2.782-.795.795-2.782s-5.962-3.578-6.757-3.578c0 0-5.962 22.656-5.962 23.054l3.18 1.192-.398 2.385s-16.693-5.167-18.68-5.167l.397-1.988 3.577.398 5.962-22.656-7.95-.397-.794 2.384-2.385-.397zM248.245 21.05s17.091 7.552 17.091 7.95c.398.397-.795 2.384-.795 2.384l-3.18-1.59-10.334 21.86 3.18 1.988-1.192 1.987s-15.502-7.949-17.092-7.949l.398-1.987 3.577 1.192 10.334-22.258-3.18-1.987 1.193-1.59zM291.967 46.488l-12.322-8.745c-13.514-4.77-19.079 3.18-20.668 9.54-1.988 8.744 3.974 13.116 3.974 13.116s8.347 7.552 10.334 8.347c7.155 3.975 16.297 1.987 20.271-4.372 5.962-9.937-1.59-17.886-1.59-17.886zm-5.168 1.987c-.795 2.782-1.59 5.167-8.744 13.911 0 0-2.782 3.975-6.36 2.385 0 0-2.384-1.59-2.782-1.987-.795-.795-1.59-1.59-1.59-3.18.398-1.59 0-2.782 1.59-4.77 1.193-1.987 6.36-9.539 6.36-9.539s2.385-3.18 3.975-3.18c1.192 0 2.384 0 3.18.398.794 0 1.987 1.192 1.987 1.192s3.18 1.59 2.384 4.77zM288.787 77.49l.397-.397h4.372l-.795.397h-3.974zm1.59-1.59l14.706-14.706-2.385-2.782 1.59-1.59 9.937 10.334-2.385 20.27 9.937-7.551-1.988-2.782 1.988-1.59 6.36 8.744-1.988 1.59-1.988-2.782-21.86 15.501-3.18-3.975V91.8l2.385-22.656-6.757 6.757h-4.372zM342.048 108.89l-5.168-9.539-29.015 3.577-1.987-2.782-1.59 1.192 5.167 7.95 1.59-1.193-1.192-2.782 6.36-.795 5.564 10.334-4.372 4.77-2.783-5.167-1.987.795 8.744 20.27 1.988-.794-.398-2.783 19.079-23.053zm-23.054-4.77v.398l12.72-1.59-8.347 9.54-4.373-8.347zM349.997 135.52l-.795-3.974 1.987-.398 5.167 19.079-2.384.795-1.193-3.975-23.45 5.962s1.192 8.347 3.18 9.142h3.577v2.782l-7.155 1.193s-4.372-25.836-5.962-27.426l1.59-.795 1.59 3.578 23.848-5.962zM57.858 263.903L51.1 251.581c-10.335-8.744-18.681-3.18-22.259 1.59-5.167 7.155-1.987 13.117-1.987 13.117s4.77 9.539 5.962 11.129c4.77 6.36 14.309 6.36 19.873 2.385 7.552-5.962 5.168-15.899 5.168-15.899zm-4.77.795c-.398.397-5.565 4.372-13.911 8.744 0 0-3.578 1.988-5.963-.397 0 0-1.987-1.988-1.987-2.783-.397-.794-.795-1.59 0-3.18.795-1.192.795-2.384 2.782-3.576l9.937-5.963s3.577-1.987 4.77-1.192c1.59.398 2.385.795 2.782 1.192.795.795 1.192 1.988 1.192 1.988s2.385 2.782.398 5.167z"/><path d="M35.6 208.257l-.398-3.974 2.385-.398s1.987 14.31 2.384 15.104c.795.397-12.719 9.142-12.719 9.142l15.502 1.987 5.167 13.117-1.988 1.192-1.987-3.975-23.053 8.347 1.192 3.577-1.987.795-6.36-18.283 1.988-.795 1.59 3.577 15.501-5.962-20.27-1.987-1.59-5.962 17.488-11.13-16.694 2.783.795 3.18-1.987.794-1.988-10.334 1.988-.397.795 3.577 24.245-3.975zM44.741 291.726l-2.385-3.18-1.987 1.192 6.757 8.745 1.59-1.193-2.385-3.18 13.514-10.334-5.167 23.451 7.552 7.552 18.68-19.476 1.988 1.987 1.192-1.987-5.962-5.962-1.59 1.59 1.988 2.385-11.924 11.924 5.167-23.45-7.552-9.143-1.987 1.59 1.987 1.988-19.476 15.5zM88.463 319.151l-7.552 8.347s5.167 4.372 9.936 5.565l1.988-3.18 2.385 1.59-3.975 5.962s-20.668-14.707-23.053-17.489l1.192-1.59 2.385 1.988 15.501-19.476-1.987-1.988 1.192-1.987s11.527 10.334 21.066 15.899l-3.975 6.36-1.987-1.193 1.59-3.18s-3.577-5.565-6.757-6.757l-6.757 8.744 3.18 2.385 1.59-1.59 1.987 1.193-3.975 6.36-1.987-.796 1.59-2.782-3.577-2.385zM106.746 320.344l3.18-6.36s18.283 9.937 28.22 12.719l-1.987 6.757-2.782-.795.794-2.782s-5.564-3.975-5.962-4.372l-9.936 22.655 3.18 1.193-.795 1.987-17.489-7.552.795-1.987 3.577 1.59 9.54-22.656s-5.168-1.59-6.758-.795l-1.59 1.59-1.987-1.192zM142.916 358.103c1.59.398 19.873 3.577 19.873 3.577v-2.385h-1.987l-5.565-28.22-10.731-2.782-17.489 22.656-2.782-.398-.795 1.59 8.347 3.18 1.192-1.59-2.782-1.193 3.975-5.167 12.719 3.18.794 6.36-4.77-.398v1.59zm-7.155-13.116l7.95-9.142 2.782 12.321-10.732-3.18zM134.966 43.705l-.397.398s-1.192.397-1.987.397c-.398 0-1.59-.795-1.988-1.192 0-.398-1.59-3.577-1.987-3.975-.398 0-2.385-2.385-4.372-1.987-1.988.397-3.18 0-3.18 0 7.552-6.36.795-15.501-5.565-14.706-5.564.795-27.822 14.706-27.822 14.706l1.59 1.59 2.782-1.59 11.924 21.463-2.782 1.988 1.59 1.59 15.5-8.745-1.192-2.385s-1.192 1.193-1.987 1.193c-.795.397-.795 0-.795 0l-5.167-9.54 4.372-1.987s1.59-.397 2.385-.795c.397 0 1.192.795 1.192.795s3.578 6.757 4.373 7.95c.397.794 1.987.794 2.384.794.398.398 4.372-.795 4.372-.795l7.552-2.782-.795-2.385zm-21.463-5.962c-.397.795-5.564 3.18-5.564 3.18l-5.565-9.937 5.962-2.782s1.59-.397 2.385.398c.795.795 3.975 7.154 3.975 7.154s-.398 1.59-1.193 1.987zM203.729 359.295l-.398.398s-2.385 0-3.18-.795c0-.397 0-.397-.397-.397.397 0 .397-.398 0-1.988 0-3.975-4.372-7.154-4.372-7.154s5.962-3.18 5.962-7.95-4.372-7.552-5.565-7.552c-1.192-.397-3.577-.397-3.577-.397-7.155.795-25.438-.795-25.438-.795l.397 2.385 2.783.397-1.193 24.246h-2.782s-.397 2.385 0 2.385 17.489.795 17.489.795l-.398-2.385h-2.385l.398-11.13h5.564c.398-.397 1.59 1.988 1.59 1.988s.398 8.347.398 8.744c0 .398 1.987 1.988 2.782 2.385.795 0 13.116-.795 13.116-.795l-.794-2.385zm-15.104-13.911s0 1.192-.795 1.59h-6.36l.795-11.13h5.565l1.192 1.193c0 .795-.397 8.347-.397 8.347zM201.741 332.268l19.079-3.18s.795 1.59.795 1.987c0 .398-2.783 0-2.385.795 0 .398 9.142 7.155 9.142 7.155s5.564-10.335 5.167-11.925l-2.385.795-.795-1.987 8.744-3.18 1.193 1.59-2.783 1.59-6.757 16.296 2.783 10.732 3.18-.398.794 1.988-18.283 4.372-.795-1.59 3.577-1.192-2.782-10.732-14.707-11.13-2.384.398-.398-2.384zM254.604 315.176s19.476-11.129 23.054-16.296l4.77 5.962-1.988 1.988-2.385-2.385s-6.36 1.59-9.142 4.372l5.962 9.54 3.578-2.783-1.193-2.385 2.385-1.59 4.77 5.962-2.385 1.988-1.59-1.988-3.975 2.783 5.565 9.141 2.782-1.987 1.59 1.987-15.899 10.732-1.59-1.987 2.783-1.988-12.72-21.066-3.577 1.59-.795-1.59zM280.44 297.29l11.924-12.719 1.987 1.988-1.987 1.987 13.116 13.514s3.18 1.987 5.962 0c2.783-1.59 4.77-3.18 3.975-6.757-.795-3.18-1.59-3.18-2.385-3.975-1.192-.795-13.116-11.526-13.116-11.526l-1.987 2.782-1.988-1.987 5.565-7.155 1.987 1.59-1.59 2.385 13.514 11.527s3.18 4.77 3.18 7.551c-.398 2.783-.795 4.373-1.192 4.77-.795.795-8.745 9.142-8.745 9.142s-3.974 2.385-5.962 2.385c-1.59 0-4.77-1.193-5.564-2.385-1.193-.795-13.514-13.514-13.514-13.514l-1.988 1.987-1.192-1.59zM305.083 272.25l-1.59-1.193 5.565-9.539 23.848-4.77-14.31-7.154-1.589 2.782-1.987-1.192 3.974-7.95 1.988.796-1.193 2.782 24.246 11.526-4.372 9.54-23.45 3.974 12.718 9.54 1.987-3.578 1.988 1.193-5.962 8.744-1.59-1.192 1.987-3.18-20.27-13.514-1.988 2.385zM342.445 210.642c-10.732-2.385-15.501 7.552-15.501 7.552l-6.757 22.258 1.987.795 1.193-3.18 23.053 7.95-1.193 3.975 2.385.795s7.155-20.669 7.155-25.438c.397-4.77-3.18-12.72-12.322-14.707zm9.54 18.284l-1.59 5.962s-23.451-7.552-23.451-7.95c0 0 .397-2.782.795-4.77.795-1.987 2.782-1.192 2.782-1.192s17.489 4.77 19.873 5.565c2.385.397 1.59 2.385 1.59 2.385zM19.303 180.832l3.18-8.744 2.385 8.744h9.141l-7.551 5.565 2.782 8.744-7.155-5.565-7.949 5.962 3.18-9.141-7.155-5.565h9.142zM341.65 183.217l3.18-8.744 2.385 8.744h9.141l-7.551 5.564 3.18 8.745-7.553-5.565-7.949 5.962 3.18-9.142-7.155-5.564h9.142z"/></g></svg>