<svg xmlns="http://www.w3.org/2000/svg" width="24" height="24"><path d="M12.236 8.433c-1.084-.563-.955-1.54.665-1.634 1.732-.102 3.512.594 5.148 1.171l1.104-5.021A23.382 23.382 0 0 0 15 2.068V0h-5v2.364c-3.326.969-4.792 3.47-4.792 5.816 0 5.245 5.964 6.138 7.513 6.858 1.38.618 1.215 1.526-.022 1.805-1.969.449-4.807-.743-6.357-1.345L5 20.355a16.02 16.02 0 0 0 5 1.618V24h5v-2.236c2.932-.784 5.005-2.806 5-5.944 0-4.631-4.717-5.96-7.764-7.387zM13 20.121V22h-1v-1.826c-1.581.012-3.234-.294-4.64-.88l.321-1.162c2.26.77 4.036.978 5.458.655 3.025-.685 3.608-4.13.41-5.562C11.74 12.382 7.2 11.835 7.2 8.18c0-2.103 1.692-3.89 4.799-4.254V2h1v1.863c1.123-.02 2.391.121 3.808.479l-.225 1.022c-1.176-.358-2.503-.632-3.799-.555-3.716.218-4.297 3.924-1.43 5.411 3.179 1.497 6.655 2.423 6.655 5.602.005 2.699-2.277 4.027-5.008 4.299z"/></svg>