<svg xmlns="http://www.w3.org/2000/svg" width="24" height="24" viewBox="0 0 24 24">
    <path d="M18.516 18.448c1.648 1.946-1.365 3.802-2.292 1.451a447.196 447.196 0 0 1-1.69-4.434c-.313-.833.499-1.25 1.012-.557.34.459 2.263 2.706 2.97 3.54zM22 0v24H2V0h20zm-2 2H4v20h1v-1.5a.5.5 0 0 1 1 0V22h1v-1.5a.5.5 0 0 1 1 0V22h1v-1.5a.5.5 0 0 1 1 0V22h10V2zm-8 7c-.551 0-1 .449-1 1s.449 1 1 1 1-.449 1-1-.449-1-1-1zm0-6a7 7 0 0 1 7 7 6.974 6.974 0 0 1-2.098 4.993 21.34 21.34 0 0 1-.554-.682c-.354-.478-.861-.753-1.391-.753-.485 0-.939.237-1.215.635-.311.449-.364 1.041-.145 1.623l.341.906A7.004 7.004 0 0 1 12 17a7 7 0 1 1 0-14zM9.5 5.836a4.59 4.59 0 0 1 2.091-.65l.12-.777a5.349 5.349 0 0 0-2.609.771 5.355 5.355 0 0 0-1.897 1.947l.744.257A4.602 4.602 0 0 1 9.5 5.836zm.794 1.318a3.04 3.04 0 0 1 1.056-.387l.121-.792c-.54.057-1.077.22-1.575.521-.496.3-.89.698-1.193 1.149l.756.264c.226-.293.501-.553.835-.755zM14 10a2 2 0 1 0-3.999-.001A2 2 0 0 0 14 10z"/>
</svg>
