<svg xmlns="http://www.w3.org/2000/svg" width="24" height="24"><path d="M15.82 10.736l-5.451 6.717c-.561.691-1.214 1.042-1.94 1.042-1.144 0-2.327-.899-2.753-2.091-.214-.6-.386-1.76.865-2.784 3.417-2.794 6.716-5.446 6.716-5.446L9.894 4S5.362 7.657 3.123 9.487C.542 11.595 0 13.955 0 15.562 0 19.978 4.014 24 8.42 24c1.604 0 3.963-.543 6.084-3.128C16.339 18.635 20 14.099 20 14.099l-4.18-3.363zm-2.604 9.079c-1.353 1.647-3.01 2.519-4.796 2.519-3.471 0-6.753-3.291-6.753-6.771 0-1.789.867-3.443 2.51-4.785 1.206-.986 2.885-2.348 4.18-3.398l1.247 1.599c-1.074.87-2.507 2.033-4.118 3.352-1.471 1.202-1.987 2.935-1.38 4.634.661 1.853 2.479 3.197 4.322 3.197h.001c.86 0 2.122-.288 3.233-1.658l3.355-4.134 1.572 1.294a917.962 917.962 0 0 1-3.373 4.151zm6.152-7.934l4.318-2.88-1.575-.638L24 5.949l-4.421 2.788 1.716.695-1.927 2.449zm-7.292-7.186l4.916-1.667-1.356-1.022L18.084 0l-4.991 1.712 1.478 1.114-2.495 1.869z"/></svg>