<svg xmlns="http://www.w3.org/2000/svg" width="24" height="24" viewBox="0 0 24 24">
    <path d="M8 1a1 1 0 0 1 1-1h6a1 1 0 0 1 0 2H9a1 1 0 0 1-1-1zm12.759 19.498l-3.743-7.856C15.975 10.456 15 8.061 15 5.635V4h-2v2c.09 2.711 1.164 5.305 2.21 7.502l3.743 7.854c.143.302-.068.644-.376.644H17.08l-4.377-9H9.021c.882-1.908 1.886-4.377 1.973-7L11 4H9v1.635c0 2.426-.975 4.82-2.016 7.006l-3.743 7.856A2.462 2.462 0 0 0 3 21.555C3 22.838 4.023 24 5.423 24h13.154c1.4 0 2.423-1.162 2.423-2.446 0-.35-.076-.709-.241-1.056z"/>
</svg>
