<svg xmlns="http://www.w3.org/2000/svg" width="24" height="24" viewBox="0 0 24 24">
    <path d="M14 19h-4a.5.5 0 0 0 0 1h4a.5.5 0 0 0 0-1zm0 2h-4a.5.5 0 0 0 0 1h4a.5.5 0 0 0 0-1zm.25 2h-4.5l1.188.782c.154.138.38.218.615.218h.895c.234 0 .461-.08.615-.218L14.25 23zM18 9.201c0 3.569-3.214 5.983-3.214 8.799h-1.989c-.003-1.858.87-3.389 1.721-4.867C15.279 11.808 16 10.556 16 9.201c0-2.592-2.075-3.772-4.003-3.772C10.072 5.429 8 6.609 8 9.201c0 1.355.721 2.607 1.482 3.932.851 1.478 1.725 3.009 1.72 4.867H9.214C9.214 15.184 6 12.77 6 9.201c0-3.723 2.998-5.772 5.997-5.772C14.998 3.429 18 5.48 18 9.201zm4-.691v1.372h-2.538c.02-.223.038-.448.038-.681 0-.237-.017-.464-.035-.69H22zM11.352 1.957V0h1.371v1.964a7.73 7.73 0 0 0-1.371-.007zM7.609 3.251l-1.04-1.94L7.777.663l1.037 1.933a7.77 7.77 0 0 0-1.205.655zm10.586 1.735l1.942-1.394.799 1.115-2.054 1.473a6.697 6.697 0 0 0-.687-1.194zm-3.01-2.389L16.223.663l1.208.648-1.041 1.941a7.763 7.763 0 0 0-1.205-.655zM5.117 6.18L3.063 4.708l.799-1.115 1.942 1.393a6.688 6.688 0 0 0-.687 1.194zm13.707 6.223l2.354.954-.514 1.271-2.425-.982c.21-.397.408-.812.585-1.243zM5.716 13.558l-2.356 1.06-.562-1.251 2.34-1.052c.173.433.371.845.578 1.243zM4.538 9.882H2V8.51h2.535a8.612 8.612 0 0 0-.035.691c0 .233.018.458.038.681z"/>
</svg>
