<svg xmlns="http://www.w3.org/2000/svg" viewBox="0 0 224.726 224.726">
    <path d="M223.612 109.586L190.5 35.752l-.003-.006-.043-.096a4.954 4.954 0 0 0-.389-.7c-.039-.06-.086-.114-.127-.171a5.011 5.011 0 0 0-1.141-1.139c-.049-.036-.094-.076-.145-.11a5.067 5.067 0 0 0-.746-.405c-.074-.033-.151-.057-.227-.086a4.97 4.97 0 0 0-.625-.194c-.088-.021-.175-.042-.264-.058a4.931 4.931 0 0 0-.896-.09h-58.428a15.87 15.87 0 0 0-5.485-7.737v-7.262a5 5 0 0 0-5-5h-9.334a5 5 0 0 0-5 5v7.381a15.866 15.866 0 0 0-5.326 7.619H38.734c-.305 0-.602.037-.896.09-.09.016-.176.037-.264.058a4.92 4.92 0 0 0-.625.194c-.076.029-.153.053-.227.086-.26.115-.51.248-.746.405-.051.034-.096.074-.145.11-.188.134-.365.28-.533.44-.064.06-.124.122-.185.185a4.989 4.989 0 0 0-.424.514c-.042.058-.088.112-.127.171a4.954 4.954 0 0 0-.389.7l-.043.096-.003.006-33.23 74.095A4.974 4.974 0 0 0 0 112.696c0 21.358 17.376 38.734 38.734 38.734s38.734-17.376 38.734-38.734c0-1.06-.334-2.038-.897-2.847L46.456 42.696h50.986a15.878 15.878 0 0 0 5.204 7.286v125.381H58.308a5.001 5.001 0 0 0-4.444 2.708L40.11 204.738a5 5 0 0 0 4.444 7.292h135.539a5 5 0 0 0 4.231-7.665l-13.563-26.294a5.001 5.001 0 0 0-4.444-2.708H121.98V50.101a15.878 15.878 0 0 0 5.363-7.405h50.828l-30.475 67.954c-.008.018-.012.036-.02.054-.023.054-.04.11-.062.165-.09.229-.162.463-.217.699-.014.062-.032.122-.044.184a4.956 4.956 0 0 0-.087.866c0 .027-.008.051-.008.078 0 21.358 17.376 38.734 38.734 38.734s38.734-17.376 38.734-38.734a4.954 4.954 0 0 0-1.114-3.11zm-158.966-1.89H12.822l25.912-57.781 25.912 57.781zm53.58-70.166a5.84 5.84 0 0 1-5.833 5.833 5.84 5.84 0 0 1-5.834-5.833 5.84 5.84 0 0 1 5.834-5.833 5.839 5.839 0 0 1 5.833 5.833zm41.754 70.166l25.913-57.781 25.912 57.781H159.98z"/>
</svg>
