<svg xmlns="http://www.w3.org/2000/svg" width="24" height="24"><path d="M12 2c5.514 0 10 4.486 10 10s-4.486 10-10 10S2 17.514 2 12 6.486 2 12 2zm0-2C5.383 0 0 5.383 0 12s5.383 12 12 12 12-5.383 12-12S18.617 0 12 0zm8.021 9.593a8.95 8.95 0 0 0-.516-1.242l-2.454 1.106c.217.393.39.81.517 1.242l2.453-1.106zM7.448 8.689c.271-.354.58-.674.919-.957l-1.89-1.968a8.743 8.743 0 0 0-.918.957l1.889 1.968zm1.715-1.514a5.639 5.639 0 0 1 1.198-.523L9.327 4.083c-.41.142-.812.318-1.198.524l1.034 2.568zm-2.759 3.616c.121-.435.288-.854.498-1.25l-2.47-1.067a8.965 8.965 0 0 0-.498 1.25l2.47 1.067zm9.434-6.2a8.296 8.296 0 0 0-1.2-.519l-1.024 2.573c.417.125.82.299 1.2.519l1.024-2.573zm2.601 2.13a8.746 8.746 0 0 0-.918-.957l-1.89 1.968c.339.283.647.604.918.957l1.89-1.968zm-5.791-3.059a8.42 8.42 0 0 0-1.299 0v2.784a5.667 5.667 0 0 1 1.299 0V3.662zM12 17.444a2.343 2.343 0 0 1-1.133-4.394L12 7.74l1.133 5.309A2.343 2.343 0 0 1 12 17.444z"/></svg>