<svg xmlns="http://www.w3.org/2000/svg" viewBox="0 0 512 512"><path d="M512 384c0 31.418-25.473 56.889-56.889 56.889H56.89C25.472 440.889 0 415.417 0 384V128c0-31.418 25.472-56.889 56.889-56.889H455.11C486.53 71.111 512 96.584 512 128v256z" fill="#141414"/><path d="M455.111 71.111C486.53 71.111 512 96.584 512 128v256c0 31.418-25.473 56.889-56.889 56.889H341.334V71.11H455.11z" fill="#019900"/><path d="M341.334 440.889H170.666V71.11h170.666V440.89z" fill="#bf1700"/><path d="M309.575 199.537l-16.341 19.073c9.629 9.571 15.601 22.812 15.601 37.461 0 29.184-23.651 52.835-52.835 52.835-29.17 0-52.821-23.651-52.821-52.835 0-14.649 5.973-27.89 15.601-37.461l-16.355-19.073c-14.976 14.208-24.377 34.248-24.377 56.534 0 43.051 34.9 77.953 77.952 77.953 43.065 0 77.966-34.902 77.966-77.953 0-22.286-9.401-42.325-24.391-56.534" fill="#ff8b88"/><path d="M255.616 176.355c27.108 0 49.621 16.725 49.621 16.725l-11.007 11.989s-18.233-11.321-38.229-11.321-38.229 13.823-38.229 13.823l-9.713-12.387c-.002.002 19.738-18.829 47.557-18.829" fill="#ff5b57"/><g fill="#fff"><path d="M267.946 225.706c0 6.599-5.347 11.947-11.946 11.947-6.614 0-11.961-5.348-11.961-11.947 0-6.598 5.347-11.946 11.961-11.946 6.599 0 11.946 5.348 11.946 11.946"/><path d="M271.502 237.667l-6-6.457h-19.043l-6.002 6.457-13.17 1.635 4.097 6.13h49.206l4.096-6.13-13.184-1.635z"/><path d="M238.208 236.559c0 1.65-1.338 2.986-2.987 2.986s-2.972-1.337-2.972-2.986v-20.395c0-1.635 1.322-2.973 2.972-2.973s2.986 1.338 2.986 2.973v20.395zM237.81 253.938h-6.342v-9.36h6.342v9.36zM237.81 268.16h-6.342v-9.359h6.342v9.359zM237.81 285.284h-6.342v-12.245h6.342v12.245z"/><path d="M228.125 285.454h18.446v-4.835h-13.966l-4.48 4.835zM274.076 236.559a2.986 2.986 0 0 0 2.986 2.986 2.984 2.984 0 0 0 2.973-2.986v-20.395a2.981 2.981 0 0 0-2.973-2.973 2.983 2.983 0 0 0-2.986 2.973v20.395zM274.489 253.938h6.342v-9.36h-6.342v9.36zM274.489 268.16h6.342v-9.359h-6.342v9.359zM274.489 285.284h6.342v-12.245h-6.342v12.245z"/><path d="M284.103 285.454h-18.447v-4.835h13.98l4.467 4.835z"/><path d="M242.205 257.28l12.488.669 16.455 22.799-5.462-.128-7.708-3.84-16.413-.171.64-19.329zM176.399 259.271c-.214-.91 6.841 6.4 12.445 6.628 5.604.214 16.384.441 17.877 4.892 1.494 4.438 2.731 8.989 2.731 8.989s-3.3-2.716-8.05-3.527c-4.736-.797-14.635-2.888-18.36-4.835-3.715-1.964-5.79-8.55-6.643-12.147M189.582 300.146s6.458.953 12.544-1.877c6.101-2.83 18.446-7.865 26.055 2.432 0 0-6.13-2.062-11.491 1.109-5.348 3.186-13.411 6.627-19.485 5.134-6.086-1.508-7.623-6.798-7.623-6.798M186.595 239.929c.754-1.65 3.84.37 5.078-.754s-.172-5.106 1.65-5.561c1.806-.455 6.5 8.846 8.817 14.749 2.319 5.916.725 13.268-1.365 14.82-2.091 1.536-.526 0-.526 0s-.583-6.045-3.854-9.7c-3.271-3.655-9.8-13.554-9.8-13.554M335.545 259.271c.214-.91-6.855 6.4-12.445 6.628-5.604.214-16.384.441-17.878 4.892-1.493 4.438-2.73 8.989-2.73 8.989s3.3-2.716 8.034-3.527c4.75-.797 14.649-2.888 18.361-4.835 3.728-1.964 5.804-8.55 6.658-12.147M322.702 300.146s-6.442.953-12.543-1.877c-6.101-2.83-18.446-7.865-26.041 2.432 0 0 6.13-2.062 11.477 1.109 5.361 3.186 13.411 6.627 19.499 5.134 6.086-1.508 7.609-6.798 7.609-6.798M325.361 239.929c-.754-1.65-3.84.37-5.062-.754-1.238-1.124.156-5.106-1.664-5.561-1.806-.455-6.5 8.846-8.818 14.749-2.318 5.916-.725 13.268 1.38 14.82 2.077 1.536.527 0 .527 0s.569-6.045 3.84-9.7 9.797-13.554 9.797-13.554M225.55 293.604l-.071-5.49h58.965l.227 5.617-59.121-.127zM211.755 250.78l6.841-6.869 15.033 21.974-1.323.754-11.15-14.009-2.816 3.869-6.585-5.719zM300.374 250.78l-6.855-6.869-15.033 21.974 1.338.754 11.15-14.009 2.801 3.869 6.599-5.719zM298.539 325.262c.767-2.417-10.909-10.866-14.82-12.643s-10.994 2.702-15.786 3.57c-4.808.881-11.933.441-11.933.441s-5.12.441-9.912-.441c-4.793-.868-9.87-5.348-13.782-3.57-3.925 1.777-15.645 10.226-14.876 12.643.767 2.418 11.264 5.86 11.264 5.86l-.513 4.097 17.081.484 2.518-3.187 8.22-1.664 10.269 1.664 3.527 3.186 17.608-.483-.256-4.096c-.002-.002 10.623-3.443 11.39-5.86"/></g></svg>