<svg xmlns="http://www.w3.org/2000/svg" viewBox="0 0 512 512">
    <path d="M512 384c0 31.418-25.473 56.889-56.889 56.889H56.89C25.472 440.889 0 415.417 0 384V128c0-31.418 25.472-56.889 56.889-56.889H455.11C486.53 71.111 512 96.584 512 128v256z" fill="#e41e20"/>
    <path d="M512 384c0 31.418-25.473 56.889-56.889 56.889H56.89C25.472 440.889 0 415.417 0 384V128c0-31.418 25.472-56.889 56.889-56.889H455.11C486.53 71.111 512 96.584 512 128v256z" fill="#e41e20"/>
    <path d="M292.808 150.173c-1.394 0-2.76.085-3.983.838-1.323.797-1.365 1.978-.1 2.83 1.835 1.238 6.144 1.195 7.894-.071 1.293-.925 1.266-2.047-.1-2.816-1.152-.668-2.432-.781-3.712-.781m-75.59 0c-.783-.014-2.02.113-3.158.682-.598.299-1.166.711-1.195 1.465-.014.754.497 1.251 1.109 1.55 2.502 1.223 5.062 1.251 7.552.043 1.507-.74 1.465-2.105.014-2.96-1.194-.695-2.503-.78-4.323-.78m-40.79 155.235c-4.551-.313-8.846-.555-13.127-.84-.37-.028-.683.043-.982.286-2.502 2.02-5.22 1.949-8.035.796-.156-.071-.327-.114-.468-.214-2.219-1.38-4.451-2.56-7.111-.767.74-2.034 2.09-3.029 3.996-3.285.526-.071 1.01-.114 1.422-.569 3.314-3.641 6.728-3.129 9.984-.085 1.109 1.024 2.176 1.451 3.641 1.407 3.499-.057 7.012-.013 10.525-.013.029.127.043-.043-.028-.1-1.778-1.664-3.6-3.3-5.348-5.006-.582-.57-1.137-.698-1.891-.47-1.166.384-2.361.413-3.57.286-1.991-.199-3.599-1.166-4.451-2.959-1.195-2.546-3.272-3.499-5.845-3.726-.157-.014-.313-.058-.654-.128 1.65-1.664 3.512-2.176 5.546-1.55 1.679.513 3.171.754 4.949.185 2.275-.754 3.769.114 4.607 2.404.569 1.579 1.55 2.574 2.901 3.428 2.96 1.877 5.86 3.853 8.762 5.817.64.441 1.195.512 1.962.328 7.154-1.934 14.321-3.798 21.49-5.69a7.802 7.802 0 0 0 1.124-.34c.043-.527-.37-.698-.64-.968-1.322-1.365-2.702-2.702-4.025-4.081-1.222-1.238-.867-2.631.796-3.129 1.408-.399 2.83-.725 4.267-1.066 11.676-2.759 19.057-10.055 22.613-21.39.399-1.252.612-2.518.228-3.812-.256-.81-.74-1.45-1.621-1.607-.882-.171-1.58.285-2.02.995-.442.697-.783 1.479-1.11 2.247-2.104 5.063-4.878 9.572-9.5 12.73-1.634 1.108-3.37 1.08-5.09.398-1.267-.498-1.465-1.465-.698-2.589.399-.597.939-1.081 1.521-1.451 3.869-2.716 5.575-6.699 6.543-11.108.412-1.835-.783-3.755-2.46-4.152-1.579-.413-3.314.754-3.911 2.631-.812 2.589-1.494 5.205-2.418 7.751-2.176 5.96-6.229 10.254-11.961 12.943-2.219 1.039-4.295.469-6.045-1.124-1.479-1.337-1.436-3.015 0-4.409.682-.653 1.507-1.066 2.361-1.436 4.081-1.792 7.694-4.139 9.629-8.362 1.166-2.589 1.494-5.305.981-8.064-.355-1.849-1.451-2.304-3.142-1.465-.84.412-1.508 1.066-2.134 1.777-6.998 7.68-13.924 15.432-21.419 22.657-4.864 4.707-13.127 6.613-20.096 1.266-1.095-.839-1.82-1.934-2.261-3.229-.854-2.502.412-4.352 3.057-4.466.968-.057 1.934.128 2.915.185 7.524.355 13.895-2.319 19.371-7.367 4.282-3.94 7.694-8.606 10.767-13.498.925-1.479 1.52-3.115 1.478-4.906-.013-1.294-.64-1.664-1.806-1.067-.939.455-1.607 1.238-2.261 2.034-4.864 5.945-10.639 10.709-17.863 13.498-3.811 1.493-7.765 2.232-11.861 1.222-3.157-.767-5.49-4.949-4.565-8.079.399-1.407 1.635-2.047 3.3-1.607 1.92.512 3.854 1.024 5.86 1.137 6.001.328 11.25-1.706 16-5.177 3.94-2.873 7.281-6.386 10.269-10.211 1.081-1.352 1.479-3.029 1.451-4.75-.042-1.707-1.066-2.389-2.702-1.92-.825.241-1.494.74-2.162 1.28-5.603 4.408-11.477 8.362-18.388 10.496-2.347.711-4.75 1.124-7.225.697-3.314-.568-5.974-3.27-6.244-6.386-.27-3.1 1.55-4.906 4.651-4.636 1.195.085 2.389.227 3.584.341 6.627.626 12.416-1.436 17.635-5.419 2.631-2.02 5.22-4.125 7.737-6.315.839-.725 1.437-1.578 1.608-2.673.114-.627.142-1.28-.413-1.735-.568-.455-1.18-.257-1.763-.029a4.767 4.767 0 0 0-.825.469c-6.088 3.826-12.7 6.257-19.883 7.053-2.489.285-4.977.228-7.41-.426-2.859-.754-4.58-2.617-5.049-5.546-.441-2.816 1.437-4.921 4.153-4.736.967.071 1.962.198 2.816.711 5.49 3.3 11.023 2.674 16.583.256 3.982-1.706 7.622-4.011 11.165-6.457a4.356 4.356 0 0 0 1.678-2.034c.427-1.081.355-2.105-.512-2.944-.854-.811-1.849-.811-2.845-.327-2.076 1.038-4.125 2.091-6.286 2.915-4.494 1.663-9.088 2.687-13.924 2.46-6.713-.299-11.904-4.538-13.028-10.682-.142-.796-.142-1.578.072-2.375.468-1.635 1.706-2.375 3.356-2.005 1.166.257 2.161.84 3.029 1.608 6.57 5.702 13.838 6.257 21.632 3.015 2.233-.91 4.195-2.304 6.273-3.499.156-.085.285-.214.412-.341 1.095-1.081 1.764-3.001 1.209-3.854-.896-1.365-2.319-.925-3.528-.682-5.162 1.066-10.353 1.55-15.63.952-3.853-.426-7.566-1.422-10.893-3.57-3.03-1.962-4.88-4.721-5.732-8.192-.298-1.18-.213-2.375.37-3.513.868-1.735 2.489-2.404 4.324-1.721.981.37 1.82.967 2.546 1.679 4.907 4.821 10.952 6.727 17.65 7.011 2.119.085 4.253.071 6.4.057 1.352-.013 2.489-.597 3.343-1.65.839-1.01 1.052-2.16.54-3.37s-1.521-1.92-2.801-1.935c-8.378-.113-15.744-3.3-22.713-7.537-4.721-2.859-8.42-6.67-10.14-12.089-.811-2.531-.399-4.921 1.039-7.125 2.005-3.029 4.736-2.986 6.614.128 1.65 2.702 3.512 5.233 5.773 7.452 6.13 6.001 13.34 9.928 21.86 11.335.74.128 1.153.014 1.522-.654.355-.653.867-1.208 1.465-1.692.753-.611 1.578-.783 2.488-.426 8.619 3.356 16.953 7.281 25.074 11.705.698.383.968.967.981 1.748 0 1.452-.412 2.817-.867 4.153-.896 2.589-.74 5.177.042 7.722 1.267 4.24 4.182 6.144 8.903 6.017 3.57-.085 6.485-3.328 7.082-7.368.712-4.821-.626-9.031-3.555-12.842-4.48-5.789-10.325-9.359-17.451-10.923-3.527-.754-7.011-1.592-10.525-2.389-1.777-.412-3.512-.952-4.992-2.076-.67-.526-1.294-1.066-1.38-2.161 1.407.256 2.66.796 3.925 1.266 3.072 1.124 5.817.64 8.377-1.55-.697-.412-1.365-.285-1.991-.241-4.409.285-8.789.185-13.113-.825-2.247-.526-4.323-1.323-5.931-3.058-.583-.626-1.124-1.28-1.38-2.105-.299-1.01-.413-2.105.54-2.8.981-.726 1.849-.058 2.645.54.441.354.881.753 1.209 1.222 2.674 3.697 6.585 4.765 10.809 5.106 1.82.142 3.655.214 5.432-.313-.981-2.205-5.205-4.707-7.509-4.437-1.436.156-2.275 1.222-3.242 2.176-.783-2.759.441-5.077 3.086-5.916 2.176-.683 4.395-.484 6.599-.185.626.085.91.057 1.152-.626.455-1.223 1.608-1.722 2.732-2.148 4.395-1.607 8.746-1.407 13.013.313 5.903 2.388 12.047 3.668 18.574 4.266-2.091 2.134-4.594 3.441-6.955 5.262 4.181 1.793 7.638 4.31 10.595 8.207h-6.755l-.085.468c4.054 1.408 8.306 2.418 11.406 5.932-1.066.241-1.991.441-2.915.682-.867.214-1.209.626-.412 1.338 2.759 2.403 5.035 5.262 7.552 7.878.498.513.825.812 1.479.128 2.56-2.703 4.906-5.618 7.723-8.093.64-.555.468-.995-.313-1.195-.981-.256-1.963-.483-3.073-.74 1.537-1.763 3.343-2.943 5.362-3.768 1.962-.797 3.982-1.465 5.987-2.177 0-.127.029-.24.029-.37h-6.458l-.084-.455c2.673-3.512 6.1-6.045 10.34-7.836-2.362-1.806-4.822-3.142-6.94-5.177 2.432-.355 4.736-.612 7.026-1.024a56.026 56.026 0 0 0 11.235-3.229c4.11-1.679 8.362-2.034 12.644-.64 1.45.484 2.986 1.01 3.527 2.731.185.64.64.3.968.257 1.862-.199 3.712-.399 5.588-.072 3.243.555 4.808 2.76 4.224 6.017-.413.142-.512-.257-.698-.442-1.692-1.735-3.057-2.033-5.29-1.108-1.963.825-3.513 2.19-5.092 3.826.767.355 1.436.455 2.134.497 2.631.172 5.234-.1 7.78-.753 2.247-.555 4.21-1.608 5.702-3.442.783-.967 1.565-1.948 2.674-2.588 1.55-.91 2.745-.199 2.759 1.578.014.783-.285 1.465-.696 2.12-1.95 2.93-4.964 3.768-8.164 4.437-3.883.796-7.765.725-11.663.526-.64-.029-1.28 0-1.949.171 1.892 1.693 3.968 2.688 6.514 2.048 1.878-.469 3.698-1.109 5.689-1.707-.128 1.124-.74 1.693-1.451 2.22-2.205 1.62-4.793 1.99-7.368 2.573-4.75 1.081-9.586 1.92-14.109 3.811-6 2.489-10.496 6.741-13.567 12.43-1.792 3.328-2.076 6.955-1.153 10.624.91 3.541 3.783 6.03 7.012 6.172 3.996.172 7.111-1.748 8.447-5.36 1.024-2.746 1.251-5.52.313-8.363-.441-1.294-.839-2.603-.881-4.012-.03-.925.285-1.578 1.152-2.047 7.992-4.338 16.227-8.22 24.704-11.534 1.507-.582 2.602-.199 3.784 1.579.653.995 1.266 1.28 2.46 1.039 11.25-2.248 20.053-8.093 26.367-17.635.426-.64.782-1.309 1.251-1.892 1.479-1.89 3.441-2.062 5.134-.355 2.02 2.034 2.774 4.552 2.147 7.34-.782 3.527-2.602 6.57-5.276 8.93-7.68 6.77-16.597 10.78-26.909 11.492-2.303.142-3.697 1.066-3.897 2.801-.199 1.92 1.222 3.982 3.385 4.081 8.277.399 16.413.128 23.239-5.575.796-.682 1.579-1.436 2.404-2.091 1.792-1.38 3.47-1.608 4.778-.698 1.451.968 2.091 3.2 1.565 5.163-1.55 5.845-5.731 8.875-11.192 10.481-6.869 2.005-13.781 1.565-20.694.199-.669-.128-1.323-.228-1.978-.228-1.748-.013-2.446.94-1.933 2.603.483 1.536 1.621 2.404 2.972 3.229 2.674 1.65 5.376 3.086 8.42 3.897 6.571 1.778 12.488.526 17.706-3.826 1.04-.868 2.092-1.65 3.428-1.978 1.721-.398 2.973.355 3.441 2.063.214.74.214 1.479.058 2.247-.939 5.448-5.134 9.515-10.838 10.468-5.432.896-10.595-.214-15.672-2.048-2.134-.753-4.168-1.748-6.173-2.787-1.663-.839-2.83-.725-3.626.299-.839 1.081-.711 2.617.469 3.868 1.465 1.522 3.327 2.503 5.106 3.6 3.513 2.19 7.14 4.124 11.179 5.162 4.11 1.066 8.021.711 11.734-1.365.896-.513 1.863-.797 2.887-.968 3.157-.484 5.291 1.693 4.707 4.85-.526 2.888-2.26 4.665-5.09 5.376-4.126 1.053-8.193.513-12.26-.412-5.292-1.195-10.212-3.243-14.806-6.13-.839-.54-1.735-1.266-2.774-.484-.697.484-.54 2.048.214 3.2.199.341.469.654.768.91 3.385 2.959 6.841 5.818 10.581 8.306 5.035 3.328 10.552 4.195 16.426 3.542 1.166-.128 2.29-.342 3.47-.199 2.02.256 3.243 1.565 3.371 3.612.27 3.528-2.546 6.813-6.3 7.395-4.053.64-7.722-.668-11.335-2.26-5.205-2.276-9.87-5.42-14.265-8.974-.81-.654-1.635-1.223-2.702-1.338-1.18-.143-1.906.37-2.063 1.55-.213 1.835.185 3.626 1.294 5.049 3.798 4.892 8.079 9.33 13.554 12.43 5.675 3.186 11.647 4.096 17.949 2.176 2.986-.91 4.565.341 4.096 3.485-.696 4.608-2.418 5.831-6.13 6.286-5.063.627-9.671-.825-14.066-3.157-5.589-2.944-10.254-6.983-14.194-11.89-.611-.783-1.266-1.479-2.161-1.934-1.238-.654-1.863-.312-1.907 1.081-.013 1.65.513 3.187 1.365 4.552 3.528 5.746 7.495 11.12 12.8 15.388 5.618 4.523 12.047 6.443 19.258 5.604 1.521-.171 3.001-.042 3.967 1.338.982 1.38.527 2.83-.227 4.138-1.793 3.1-4.821 4.423-8.106 5.063-5.334 1.052-10.113-.526-13.924-4.266-7.439-7.212-14.35-14.92-21.319-22.572-.611-.668-1.251-1.293-2.062-1.692-1.735-.896-2.859-.455-3.172 1.507-.626 3.783.1 7.31 2.433 10.439 2.119 2.816 5.049 4.58 8.22 5.945.939.399 1.849.881 2.531 1.65 1.153 1.251 1.153 2.703.014 3.954-1.451 1.692-4.054 2.332-6.186 1.351-5.789-2.631-9.842-6.955-12.033-12.9-.925-2.489-1.607-5.062-2.389-7.609-.64-2.076-2.36-3.271-4.025-2.816-1.82.498-2.8 2.546-2.303 4.608 1.039 4.466 3.015 8.333 6.884 11.007.896.611 1.835 1.423 1.436 2.631-.413 1.224-1.664 1.338-2.774 1.437-1.323.127-2.502-.157-3.626-.968-4.451-3.171-7.154-7.566-9.23-12.501-.313-.768-.654-1.55-1.095-2.261-.413-.698-1.095-1.195-1.992-1.053-.938.143-1.422.811-1.692 1.693-.37 1.308-.128 2.546.27 3.782 3.527 11.235 10.851 18.518 22.386 21.305 1.479.384 2.944.669 4.395 1.095 1.764.498 2.119 1.906.825 3.2-1.579 1.579-3.2 3.143-5.006 4.935 3.285.896 6.215 1.693 9.159 2.46 4.622 1.224 9.287 2.389 13.908 3.641.712.199 1.267.114 1.85-.298a975.86 975.86 0 0 1 10.197-6.8c.653-.412.91-1.052 1.152-1.692 1.338-3.398 2.915-4.138 6.343-2.83.767.299 1.38.157 2.118-.142 2.46-.981 4.808-.995 6.998 1.109-.91.185-1.679.256-2.433.455-1.678.455-3 1.35-3.84 3.028-1.45 2.902-4.167 4.054-7.793 3.172-1.195-.285-1.978-.058-2.788.767-1.635 1.608-3.356 3.171-5.02 4.765.199.399.555.241.839.228 3.684-.1 7.381-.228 11.051-.313.683-.014 1.166-.214 1.635-.711a11.07 11.07 0 0 1 2.46-2.005c2.703-1.635 5.149-1.494 7.439.669.825.767 1.664 1.322 2.83 1.493 1.679.242 2.716 1.365 3.441 2.83-.142.072-.214.172-.27.143-2.19-.995-4.125-.725-6.244.555-2.986 1.792-6.2 2.176-9.187-.27-.37-.256-.725-.241-1.124-.228-4.21.285-8.42.555-12.814.839.498.811 1.28 1.039 1.907 1.451 2.161 1.452 4.281 2.304 7.182 1.835 4.253-.725 7.026 1.437 8.334 5.562.654 2.105 1.55 4.167 1.55 6.442 0 .626 0 1.223-.143 1.863-.753-1.508-1.45-3.015-2.758-4.153-.612-.555-1.195-.881-2.134-.626-1.053.285-2.176.399-3.3.227-2.703-.37-4.181-1.635-4.679-4.295-.156-.896-.597-1.322-1.266-1.735-1.608-.981-3.343-1.607-5.063-2.361-1.123-.497-2.332-.91-3.327-1.621-1.109-.811-2.034-.74-3.2-.285-2.02.754-4.096 1.394-6.173 2.047-.626.228-1.038.513-1.322 1.153-1.394 3.1-3.854 4.409-7.211 3.925-.455-.058-.882-.185-1.323-.171-3.001.1-4.765.142-5.234 3.768-1.35-1.592-1.293-3.925.342-5.588 1.039-1.067 1.934-2.134 2.745-3.385 1.237-1.95 3.342-2.532 5.617-1.608.925.399 1.65.328 2.531-.029 2.048-.838 3.854-2.161 6.273-2.872-3.1-1.081-6.001-1.806-8.918-2.46-4.58-1.066-9.173-2.048-13.667-3.47-.711-.228-1.223-.058-1.764.469a166.257 166.257 0 0 1-4.807 4.195c-1.749 1.507-2.845 1.365-4.125-.54-3.073-4.58-5.462-9.543-8.448-14.18-2.034-3.143-4.58-5.874-7.267-8.463a9.472 9.472 0 0 0-2.603-1.835c-2.774-1.365-5.276-.399-6.315 2.531-.967 2.717-.597 5.475.256 8.122 2.304 6.982 6.472 12.686 12.332 17.123 1.65 1.267 3.47 2.319 5.205 3.457 2.318 1.478 4.85 1.92 7.537 1.422 1.849-.312 3.698-.412 5.504.37 2.047.868 2.475 2.304 1.124 4.096-.725.925-1.55 1.679-2.645 2.148-2.759 1.18-5.575 1.764-8.577 1.337-1.565-.198-2.83-.995-3.996-1.962-1.38-1.124-2.687-2.333-4.011-3.499-1.166-1.01-2.389-1.109-3.371-.256a2.407 2.407 0 0 0-.299 3.385c4.054 5.035 8.447 9.515 15.545 9.756.796.014 1.607.27 2.346.54 2.092.839 2.375 2.518.583 3.968-2.304 1.848-4.978 2.432-7.879 2.02-3.882-.57-6.897-2.688-9.658-5.292-1.08-1.01-2.076-2.062-3.17-3.057-.47-.455-1.096-.854-1.793-.469-.612.328-.64 1.01-.698 1.621-.171 1.722.611 3.2 1.238 4.708 2.147 5.191 5.731 8.306 11.647 8.22 2.346-.029 3.171 1.764 1.878 3.769-2.29 3.485-7.239 4.337-10.709 1.792-3.343-2.432-5.234-5.945-6.969-9.571-.285-.598-.555-1.209-1.01-1.721-.896-.982-1.906-.953-2.687.1-.812 1.066-1.124 2.303-1.124 3.64-.043 4.068 1.607 7.496 4.195 10.497 1.195 1.394 2.46 2.716 3.869 3.869.753.611.796 1.039.256 1.835-4.025 5.987-7.965 11.989-11.946 17.991a174.885 174.885 0 0 0-2.802 4.366c-.34.569-.582.683-1.01.029a4329.08 4329.08 0 0 0-14.89-22.556c-.427-.683-.342-1.039.24-1.522 2.048-1.777 3.983-3.712 5.504-5.973 1.693-2.489 2.631-5.192 2.716-8.235.014-.712-.057-1.423-.285-2.105-.355-1.138-.697-2.447-2.133-2.574-1.408-.128-1.849 1.166-2.347 2.19-1.72 3.626-3.626 7.14-6.912 9.642-3.258 2.49-7.58 2.034-10.311-1.038a4.93 4.93 0 0 1-.698-.982c-1.01-1.806-.227-3.3 1.849-3.44 1.238-.086 2.489-.086 3.698-.385 2.46-.61 4.45-1.948 5.973-3.982 1.508-2.005 2.518-4.266 3.214-6.685.355-1.166.682-2.703-.498-3.428-1.208-.753-2.09.555-2.858 1.352-1.907 1.92-3.812 3.853-6.159 5.262-3.74 2.233-7.622 3.115-11.79 1.209-.854-.399-1.65-.868-2.248-1.621-1.023-1.224-.782-2.418.627-3.187a5.736 5.736 0 0 1 2.787-.796c4.168-.071 7.623-1.792 10.695-4.48 1.693-1.451 3.186-3.1 4.623-4.807.426-.513.725-1.095.782-1.793.085-1.024-.299-1.835-1.195-2.346-.91-.484-1.835-.413-2.617.241-.995.825-1.992 1.635-2.873 2.589-3.641 3.84-7.965 3.982-12.644 2.404-1.678-.583-3.157-1.38-4.18-2.888-1.125-1.679-.768-3.044 1.08-3.854 1.778-.81 3.627-.81 5.475-.455 2.902.555 5.49-.1 8.035-1.578 7.31-4.21 12.858-9.984 16.257-17.749 1.393-3.158 2.19-6.4 1.478-9.841-.81-3.94-3.94-5.277-7.325-3.029-3.683 2.489-6.428 5.959-8.93 9.6-2.56 3.782-4.552 7.921-6.956 11.805-.597.925-1.195 1.891-1.806 2.816-1.081 1.621-2.233 1.82-3.755.583-1.735-1.479-3.414-2.987-5.091-4.48-.469-.427-.882-.654-1.537-.469-6.272 2.005-12.757 3.115-19.086 4.835-1.152.312-2.29.682-3.726 1.137 2.19.698 3.882 1.75 5.66 2.618 1.152.555 2.219.767 3.541.214 2.19-.868 4.281-.085 5.49 1.977.64 1.081 1.408 1.978 2.304 2.859 1.792 1.721 1.977 3.996.526 5.945-.27-1.209-.199-2.503-1.407-3.158-1.38-.753-2.873-.867-4.409-.668-4.324.568-6.016-.27-8.064-4.11-.241-.455-.582-.627-1.01-.754-2.432-.825-4.879-1.65-7.31-2.475-.426-.143-.825-.285-1.251.014-2.048 1.493-4.438 2.218-6.713 3.228-.725.328-1.422.725-2.147 1.067-.995.468-1.635 1.108-1.878 2.332-.555 2.688-2.403 4.011-5.318 4.039-.484 0-1.01.042-1.452-.128-2.446-.853-3.712.57-4.792 2.375-.426.725-.74 1.494-1.137 2.248-.285-.228-.185-.513-.2-.754-.127-3.57.996-6.841 2.66-9.899 1.622-2.972 4.595-3.882 7.695-3.213 2.318.468 4.08-.029 5.845-1.338.86-.63 1.927-.957 2.893-1.953"/>
    <path d="M217.216 150.173c1.82 0 3.143.085 4.338.782 1.436.854 1.494 2.219-.014 2.959-2.502 1.209-5.062 1.18-7.566-.043-.598-.298-1.109-.796-1.095-1.55.014-.753.582-1.166 1.195-1.465 1.137-.57 2.36-.697 3.142-.683m75.592 0c1.28 0 2.56.113 3.712.782 1.365.767 1.394 1.891.1 2.816-1.749 1.267-6.059 1.309-7.894.072-1.266-.854-1.224-2.034.1-2.83 1.221-.756 2.588-.84 3.981-.84" fill="#dd2e44"/>
</svg>
