<svg xmlns="http://www.w3.org/2000/svg" viewBox="0 0 512 512">
    <path d="M0 256v128c0 31.418 25.473 56.889 56.889 56.889H455.11c31.42 0 56.89-25.473 56.89-56.889V256H0z" fill="#141414"/>
    <path d="M512 256V128c0-31.418-25.473-56.889-56.889-56.889H56.89C25.472 71.111 0 96.582 0 128v128h512z" fill="#ce1b26"/>
    <path d="M248.206 194.063l8.562 17.38 19.186 2.787-13.881 13.511 3.285 19.1-17.153-9.017-17.152 9.017 3.27-19.1-13.865-13.511 19.17-2.788 8.578-17.38zm-32.597 50.375c4.892 7.992 45.112 50.005 84.223 74.438 5.107 3.343 19.115 14.009 24.448 17.778-2.232 2.887-5.334 7.111-8.675 10.666-5.546-4.438-56.434-35.769-73.103-44.218-16.668-8.447-31.786-23.11-31.786-37.106 0-14.007 4.893-21.558 4.893-21.558m111.275 94.008c-2.446 3.555-6.215 8.448-8.448 11.108 4.452.669 15.787 6.229 21.562 18.232 5.773 11.989 16.227 5.774 15.33-.668-.895-6.457-13.554-20.452-28.444-28.672" fill="#f9d616"/>
    <path d="M333.34 348.331a2.549 2.549 0 0 1-2.56 2.56c-1.407 0-2.546-1.137-2.546-2.56s1.137-2.56 2.546-2.56a2.549 2.549 0 0 1 2.56 2.56m15.473 15.472a2.549 2.549 0 0 1-2.56 2.56c-1.408 0-2.547-1.138-2.547-2.56s1.138-2.56 2.546-2.56a2.55 2.55 0 0 1 2.56 2.56" fill="#292f33"/>
    <path d="M254.45 294.67l66.219 45.112" fill="none" stroke="#292f33" stroke-width=".375" stroke-linecap="round" stroke-miterlimit="10"/>
    <path d="M353.081 265.216l.114-18.417-15.431.1c-.583-5.931-1.793-11.663-3.47-17.195l13.81-5.533-6.215-17.337-14.877 5.902a88.72 88.72 0 0 0-8.732-12.927l9.941-11.349-14.137-11.832-8.889 10.097c-4.409-3.555-9.116-6.713-14.138-9.386l6.457-13.753-17.252-6.5-6.286 13.298a88.563 88.563 0 0 0-15.715-3.044l-1.962 19.158c35.485 3.655 63.26 33.293 63.26 69.73 0 21.448-9.785 40.42-24.903 53.348l7.851 5.433 19.414 14.435 7.566-8.22-11.847-8.789c3.584-4.309 6.77-8.918 9.5-13.853l14.307 5.803 7.112-16.995-14.237-5.774c1.593-5.247 2.788-10.681 3.385-16.299l15.374-.1zm-70.116 72.818l-5.86-11.364-7.254-3.456c-6.599 2.047-13.482 3.456-20.75 3.456-17.039 0-32.455-6.286-44.644-16.355l-11.832 13.909c4.38 3.626 9.174 6.727 14.207 9.457l-6.342 13.639 16.995 7.154 6.4-13.81c4.906 1.465 9.97 2.489 15.204 3.1l-.114 14.365 18.433-.199.1-13.654a89.976 89.976 0 0 0 16.71-3.214l4.893 14.138 9.771-2.888-6.13-14.207c.07-.029.142-.042.213-.071" fill="#f9d616"/>
</svg>
