<svg xmlns="http://www.w3.org/2000/svg" viewBox="0 0 511.999 511.999"><path d="M455.111 71.112H56.894c-31.417 0-56.889 25.473-56.889 56.89v255.997c0 31.416 25.472 56.888 56.889 56.888H455.11C486.527 440.887 512 415.416 512 384V128c-.001-31.417-25.471-56.889-56.889-56.889z" fill="#00247d"/><path d="M270.224 256v-28.856l-100.977-70.699H94.882L237.06 256h33.165z" fill="#eee"/><path d="M270.224 235.832L156.86 156.445h-24.789l138.153 96.739v-17.352z" fill="#cf1b2b"/><path d="M115.199 156.445L0 238.449v17.55h47.387l142.193-99.555-74.381.001z" fill="#eee"/><path d="M152.38 156.445L10.444 256h24.561l142.178-99.555H152.38z" fill="#cf1b2b"/><path d="M237.072 71.112L94.895 170.668h74.366l100.963-70.7V71.114h-33.151z" fill="#eee"/><path d="M249.447 71.112l-142.163 99.556h24.788l138.153-96.74v-2.815h-20.778z" fill="#cf1b2b"/><path d="M9.431 96.647l132.794 92.95v-18.93h47.331L48.314 71.757c-16.227 2.455-30.197 11.77-38.883 24.89z" fill="#eee"/><path d="M13.785 90.905l128.441 90.03v-10.268h10.154L24.589 81.184a57.243 57.243 0 0 0-10.804 9.721z" fill="#cf1b2b"/><path d="M270.224 128.001h-99.555V71.112H99.56v56.89H.005v71.11H99.56V256h71.11v-56.889h99.555v-71.11z" fill="#eee"/><g fill="#cf1b2b"><path d="M156.447 256h-42.666V71.112h42.666V256z"/><path d="M270.224 184.889H.005v-42.666h270.219v42.666z"/></g><g fill="#fff"><path d="M128.011 370.109l-17.378 16.056 1.72-23.609-23.41-3.57 19.528-13.384-11.776-20.507 22.628 6.926 8.69-22.03 8.69 22.03 22.64-6.926-11.803 20.507 19.541 13.384-23.41 3.57 1.735 23.609-17.395-16.056zM397.515 135.994l-11.363 10.496 1.123-15.445-15.317-2.332 12.784-8.747-7.708-13.425 14.791 4.537 5.689-14.408 5.689 14.407 14.805-4.536-7.723 13.425 12.785 8.747-15.304 2.332 1.123 15.445-11.374-10.496zM340.626 221.333l-11.362 10.496 1.122-15.445-15.317-2.333 12.785-8.746-7.709-13.425 14.791 4.536 5.689-14.421 5.689 14.421 14.805-4.536-7.723 13.425 12.785 8.746-15.303 2.333L352 231.829l-11.374-10.496zM468.625 192.889l-11.363 10.496 1.123-15.445-15.317-2.332 12.785-8.747-7.71-13.425 14.792 4.536 5.689-14.42 5.689 14.42 14.805-4.536-7.723 13.425 12.785 8.746-15.304 2.333L480 203.385l-11.374-10.496zM397.515 391.998l-11.363 10.496 1.123-15.445-15.317-2.333 12.784-8.746-7.708-13.425 14.791 4.536 5.689-14.421 5.689 14.421 14.805-4.536-7.723 13.425 12.785 8.746-15.304 2.333 1.123 15.445-11.374-10.497zM440.889 227.555l4.181 8.476 9.344 1.351-6.755 6.585 1.592 9.315-8.362-4.393-8.363 4.393 1.593-9.315-6.755-6.585 9.343-1.35 4.182-8.477z"/></g></svg>