<svg xmlns="http://www.w3.org/2000/svg" viewBox="0 0 512 512">
    <path d="M89.259 160.37l-13.412 43.477-13.412-43.477-43.476-13.411 43.477-13.412L75.847 90.07l13.412 43.477 43.477 13.412L89.26 160.37zM455.11 71.111H56.89C25.473 71.111 0 96.582 0 128v185.671h512V128c0-31.418-25.473-56.889-56.889-56.889M56.889 440.889H455.11c26.624 0 48.796-18.361 54.998-43.065H1.89c6.201 24.703 28.374 43.065 54.998 43.065M0 369.778h512V341.73H0v28.047z" fill="#4189dd"/>
    <path d="M86.186 157.297l-10.325 33.494-10.34-33.494-33.494-10.325 33.494-10.34 10.34-33.493 10.325 33.493 33.494 10.34-33.494 10.325zM75.861 90.084L62.45 133.56l-43.477 13.411L62.45 160.37l13.411 43.491L89.26 160.37l43.491-13.397-43.491-13.412-13.4-43.477z" fill="#fff"/>
    <path d="M75.847 103.14l-10.324 33.494-33.494 10.325 33.493 10.34 10.325 33.494 10.326-33.494 33.507-10.34-33.508-10.325-10.324-33.494z" fill="#d21034"/>
    <path d="M0 341.731h512v-28.046H0v28.046zM0 384c0 4.793.767 9.373 1.891 13.824H510.11c1.123-4.451 1.89-9.031 1.89-13.824v-14.223H0V384z" fill="#f9d616"/>
</svg>
