<svg xmlns="http://www.w3.org/2000/svg" viewBox="0 0 512 512"><path d="M0 327.111h512V184.875H0v142.236z" fill="#e00034"/><path d="M455.111 71.111H56.89C25.472 71.111 0 96.582 0 128v56.889h512V128c0-31.417-25.473-56.889-56.889-56.889" fill="#0098c3"/><g fill="#fff"><path d="M253.795 303.403c-26.182 0-47.402-21.22-47.402-47.403s21.22-47.417 47.402-47.417c13.966 0 26.525 6.045 35.2 15.658-10.211-15.161-27.549-25.131-47.204-25.131-31.431 0-56.889 25.473-56.889 56.889s25.458 56.889 56.89 56.889c19.654 0 36.992-9.984 47.203-25.145-8.675 9.616-21.234 15.66-35.2 15.66"/><path d="M336.598 256l-17.01-6.03 7.737-16.313-16.299 7.765-6.058-17.01-6.03 17.01-.043-.013-16.27-7.723 7.765 16.299-16.995 6.059 17.01 6.03-7.737 16.312 16.213-7.722.072-.043 6.058 17.01 6.045-17.01 16.299 7.738-7.751-16.299 16.994-6.06z"/></g><path d="M56.889 440.889H455.11C486.53 440.889 512 415.416 512 384v-56.889H0V384c0 31.418 25.473 56.889 56.889 56.889" fill="#00ae65"/></svg>