<svg xmlns="http://www.w3.org/2000/svg" viewBox="0 0 512 512">
    <g fill="#00267f">
        <path d="M512 384c0 31.418-25.473 56.889-56.889 56.889H56.89C25.472 440.889 0 415.417 0 384V128c0-31.418 25.472-56.889 56.889-56.889H455.11C486.53 71.111 512 96.584 512 128v256z"/>
        <path d="M56.889 71.111C25.472 71.111 0 96.582 0 128v256c0 31.418 25.473 56.889 56.889 56.889h113.777V71.11H56.89z"/>
    </g>
    <path d="M341.334 440.889H170.666V71.11h170.666v369.78z" fill="#ffc726"/>
    <path d="M324.694 192.227c-19.996 0-35.555 14.663-40.661 20.438 5.987-1.323 7.325 3.342 6.442 6.229-6.315 21.006-11.647 45.725-13.241 59.022H264.39v-73.742l15.503-3.214-19.428-3.898-4.025-19.583-4.025 19.583-19.456 3.898 15.645 3.242v73.714H235.15c-1.592-13.297-6.926-38.016-13.255-59.022-.881-2.888.455-7.553 6.456-6.229-5.12-5.774-20.678-20.438-40.675-20.438 8.733 12.885 31.929 48.812 34.959 91.065v8.847h25.97v34.332h15.786V292.14h24.974v-3.285c1.209-44.673 26.226-83.187 35.329-96.627"/>
</svg>
