<svg xmlns="http://www.w3.org/2000/svg" viewBox="0 0 512 512">
    <path d="M455.111 71.111H56.889C25.472 71.111 0 96.583 0 128v256c0 31.398 25.443 56.889 56.835 56.889h56.943l86.484-36.81h.002l-86.485 36.81h341.333C486.528 440.889 512 415.417 512 384V128c0-31.417-25.472-56.889-56.889-56.889zM199.778 182.169l.484.21-86.484 36.81 86-37.02zm.483 147.452l-.484.21-86-37.02 86.484 36.81z" fill="#ce1126"/>
    <path d="M113.779 367.268h-.002l86.484-37.229-86.484-37.229h.002-.002L200.261 256l-86.484-36.81h.002-.002l86.484-37.229-86.484-37.229h.002-.002l86.484-36.81-86.484-36.81H56.889C25.472 71.111 0 96.583 0 128v256c0 31.398 25.443 56.889 56.835 56.889h56.943l86.484-36.81-86.484-36.81h.001z" fill="#eee"/>
</svg>
