<svg xmlns="http://www.w3.org/2000/svg" viewBox="0 0 512 512">
    <g fill="#eee">
        <path d="M340.803 291.819c4.978-11.364 7.794-23.893 7.794-37.092a92.45 92.45 0 0 0-6.728-34.518l126.587-91.781 37.033-26.847c-7.037-13.391-19.25-23.631-33.985-28.06L317.177 185.414c-16.284-14.35-37.604-23.125-61.028-23.125-19 0-36.612 5.786-51.285 15.633 14.668-9.853 32.288-15.639 51.287-15.639 23.41 0 44.729 8.775 61.028 23.125L471.502 73.52a56.864 56.864 0 0 0-16.391-2.409H56.889c-5.909 0-11.608.903-16.966 2.575l82.563 59.861-82.569-59.86C25.282 78.257 13.2 88.585 6.29 102.012A56.604 56.604 0 0 0 0 128v256a56.613 56.613 0 0 0 6.59 26.575c7.086 13.382 19.351 23.591 34.127 27.967l87.15-63.187-87.15 63.191c5.042 1.493 10.371 2.342 15.891 2.342h398.784c5.312 0 10.446-.793 15.319-2.18l-116.887-84.739-38.698-28.053 38.698 28.051 116.886 84.738c14.873-4.234 27.266-14.354 34.478-27.697l-71.233-51.645-93.152-67.544z"/>
        <path d="M505.492 101.58l-37.035 26.847-126.587 91.782a92.486 92.486 0 0 1 5.809 21.609c.6 4.216.919 8.524.919 12.909 0 13.198-2.816 25.728-7.794 37.092l93.152 67.545 71.235 51.645c4.319-7.99 6.809-17.129 6.809-26.841V127.833c0-9.477-2.383-18.403-6.508-26.253z"/>
    </g>
    <path d="M204.865 177.922c14.668-9.854 32.288-15.639 51.287-15.639 23.41 0 44.729 8.775 61.028 23.125L471.502 73.52a56.864 56.864 0 0 0-16.391-2.409H56.889c-5.909 0-11.608.903-16.966 2.575l82.563 59.861 72.153 52.307a93.863 93.863 0 0 1 10.226-7.932z" fill="#ce1126"/>
    <path d="M512 127.833c0-9.476-2.383-18.402-6.508-26.252l-37.035 26.847-126.587 91.781a92.436 92.436 0 0 1 6.727 34.518c0 13.198-2.816 25.728-7.794 37.092l93.152 67.545 71.235 51.645c4.319-7.99 6.809-17.129 6.809-26.841L512 127.833zM171.213 291.224a95.236 95.236 0 0 1-1.418-3.517 91.83 91.83 0 0 1-5.443-22.104 92.449 92.449 0 0 1-.648-10.871c0-3.394.196-6.741.562-10.038a92.441 92.441 0 0 1 5.577-22.909c.12-.315.237-.632.361-.945L6.289 102.013A56.609 56.609 0 0 0 0 128v256a56.613 56.613 0 0 0 6.59 26.575l121.091-87.788 43.532-31.563z" fill="#1eb53a"/>
    <path d="M315.128 325.916c-16.014 13.268-36.55 21.261-58.978 21.261a92.067 92.067 0 0 1-26.796-3.965 92.384 92.384 0 0 1-32.664-17.743l-68.821 49.887-87.151 63.19c5.042 1.493 10.371 2.342 15.891 2.342h398.784c5.312 0 10.446-.793 15.319-2.18l-116.886-84.739-38.698-28.053zm-47.916-108.793l5.532-9.572H261.68l-5.532-9.586-5.518 9.586h-11.065l5.532 9.572-5.532 9.572h11.065l5.518 9.586 5.532-9.586h11.065l-5.533-9.572z" fill="#ce1126"/>
    <path d="M256.151 236.28l-5.532-9.572h-11.051l5.518-9.586-5.518-9.572h11.051l5.532-9.586 5.532 9.586h11.051l-5.518 9.572 5.518 9.586h-11.051l-5.532 9.572zm19.67-11.35l-4.508-7.808 4.508-7.794 3.072-5.333h-15.161l-4.508-7.808-3.072-5.333-3.072 5.333-4.508 7.808h-15.161l3.072 5.333 4.508 7.794-4.508 7.808-3.072 5.333h15.161l4.508 7.794 3.072 5.333 3.086-5.333 4.494-7.794h15.161l-3.072-5.333z" fill="#1eb53a"/>
    <path d="M313.295 291.241l-5.532-9.572 5.532-9.586H302.23l-5.518-9.572-5.532 9.572h-11.065l5.532 9.586-5.532 9.572h11.065l5.532 9.586 5.518-9.586h11.065z" fill="#ce1126"/>
    <path d="M291.174 291.241h-11.065l5.532-9.572-5.532-9.586h11.065l5.532-9.572 5.532 9.572h11.051l-5.532 9.586 5.532 9.572h-11.051l-5.532 9.586-5.532-9.586zm25.202-1.778l-4.508-7.794 4.508-7.808 3.072-5.333h-15.161l-4.508-7.794-3.072-5.333-3.086 5.333-4.494 7.794h-15.175l3.086 5.333 4.508 7.808-4.508 7.794-3.086 5.333h15.175l4.494 7.808 3.086 5.333 3.072-5.333 4.508-7.808h15.161l-3.072-5.333z" fill="#1eb53a"/>
    <path d="M226.66 281.665l5.532-9.572h-11.065l-5.532-9.586-5.518 9.586h-11.065l5.532 9.572-5.532 9.572h11.065l5.518 9.586 5.532-9.586h11.065l-5.532-9.572z" fill="#ce1126"/>
    <path d="M215.601 300.821l-5.532-9.586h-11.051l5.518-9.572-5.518-9.572h11.051l5.532-9.586 5.532 9.586h11.051l-5.518 9.572 5.518 9.572h-11.051l-5.532 9.586zm15.16-19.157l4.508-7.794 3.072-5.333H223.18l-4.508-7.808-3.072-5.333-3.072 5.333-4.508 7.808h-15.161l3.072 5.333 4.508 7.794-4.508 7.794-3.072 5.333h15.161l4.494 7.808 3.086 5.333 3.086-5.333 4.494-7.808h15.175l-3.086-5.333-4.508-7.794z" fill="#1eb53a"/>
</svg>
