<svg xmlns="http://www.w3.org/2000/svg" viewBox="0 0 512 512">
    <path d="M455.112 71.113H56.894C25.477 71.113.006 96.585.006 128.001v255.997c0 31.417 25.472 56.888 56.888 56.888h398.218c31.417 0 56.888-25.472 56.888-56.888V128.001c0-31.416-25.472-56.888-56.888-56.888z" fill="#cf1b2b"/>
    <path d="M269.881 254.821V71.113H56.894C25.477 71.113.006 96.585.006 128.001v126.82h269.875z" fill="#00247d"/>
    <path d="M270.225 256v-28.857l-100.977-70.698H94.881L237.059 256h33.166z" fill="#eee"/>
    <path d="M270.225 235.833l-113.364-79.388h-24.789l138.153 96.738v-17.35z" fill="#cf1b2b"/>
    <path d="M115.199 156.446L0 238.45V256h47.388l142.192-99.554h-74.381z" fill="#eee"/>
    <path d="M152.379 156.446L10.443 256h24.561l142.178-99.554h-24.803z" fill="#cf1b2b"/>
    <path d="M237.072 71.113L94.894 170.668h74.367L270.223 99.97V71.113h-33.151z" fill="#eee"/>
    <path d="M249.447 71.113l-142.164 99.554h24.789l138.153-96.738v-2.816h-20.778z" fill="#cf1b2b"/>
    <path d="M9.432 96.649l132.795 92.949v-18.93h47.331L48.315 71.758c-16.227 2.456-30.198 11.77-38.883 24.891z" fill="#eee"/>
    <path d="M13.785 90.906l128.441 90.031v-10.268h10.155L24.589 81.185a57.209 57.209 0 0 0-10.804 9.721z" fill="#cf1b2b"/>
    <path d="M270.225 128.001h-99.554V71.113H99.56v56.888H.006v71.11H99.56V256h71.11v-56.888h99.554v-71.111z" fill="#eee"/>
    <g fill="#cf1b2b">
        <path d="M156.449 256h-42.666V71.113h42.666V256z"/>
        <path d="M270.225 184.89H.006v-42.666h270.219v42.666z"/>
    </g>
    <path d="M321.183 178.994v128.951c0 9.087 2.062 21.546 18.659 29.255 14.136 6.557 35.171 14.123 44.757 20.167 5.348 3.37 13.625 9.074 13.625 9.074s8.277-5.703 13.625-9.074c9.585-6.044 29.141-13.61 43.263-20.167 16.597-7.708 18.659-20.167 18.659-29.255V178.994H321.183z"/>
    <path d="M328.655 186.403v119.466c0 8.519 1.963 20.181 17.478 27.406 13.212 6.144 30.364 13.212 39.339 18.887 5.006 3.157 12.757 8.49 12.757 8.49s7.751-5.333 12.743-8.49c8.975-5.674 26.183-12.743 39.41-18.887 15.502-7.225 17.465-18.887 17.465-27.406V186.403H328.655z" fill="#fff"/>
    <path d="M328.655 306.43c.099 8.447 2.276 19.797 17.465 26.851 13.212 6.13 30.379 13.198 39.352 18.887 5.006 3.157 12.757 8.49 12.757 8.49s7.751-5.333 12.743-8.49c8.975-5.689 26.197-12.757 39.423-18.887 15.175-7.055 17.351-18.403 17.45-26.851h-139.19z" fill="#2e8f22"/>
    <path d="M453.153 289.792c-.996-5.547 0-14.123-1.508-16.654-1.522-2.517-15.63-7.552-25.727-6.557-10.069 1.01-3.03-12.601 4.039-16.127 7.068-3.541 13.625-6.57 14.62-10.595 1.024-4.039-2.517-7.055-8.561-6.059-6.059 1.024-9.585 1.024-13.127 4.551-3.527 3.527-4.025-.498-5.547-4.551-1.493-4.025 1.01-5.532 1.522-9.572.498-4.039-.512-15.132-3.541-19.669-3.015-4.536-1.465-7.552-6.499-10.083-5.063-2.532-10.553-4.551-10.553-4.551s-5.547 2.019-10.61 4.551c-5.034 2.532-3.527 5.547-6.528 10.083-3.03 4.536-4.053 15.63-3.556 19.669.526 4.039 3.015 5.547 1.522 9.572-1.522 4.053-2.019 8.078-5.547 4.551-3.541-3.527-7.068-3.527-13.127-4.551-6.03-.996-9.572 2.019-8.561 6.059.996 4.025 7.552 7.055 14.62 10.595 7.068 3.527 14.108 17.138 4.039 16.127-10.098-.996-24.206 4.039-25.714 6.557-1.522 2.532-.512 11.108-1.522 16.654-1.01 5.547-3.527 10.083-1.01 9.074 2.532-1.01 14.123-5.034 19.683-9.074 5.532-4.039 12.089 16.142 9.585 21.176-2.545 5.049-3.03 8.576-7.068 6.557-4.053-2.006-10.083 1.01-12.103 5.063-2.019 4.025 2.517 6.542 7.566 10.069 5.034 3.541 11.093-3.527 13.61-7.055 2.517-3.556 24.718-14.634 24.718-14.634s22.144 11.079 24.661 14.634c2.532 3.527 8.561 10.595 13.61 7.055 5.034-3.527 9.572-6.044 7.538-10.069-2.006-4.053-8.064-7.068-12.089-5.063-4.053 2.019-4.551-1.508-7.083-6.557-2.504-5.034 4.039-25.216 9.585-21.176 5.547 4.039 17.152 8.064 19.669 9.074 2.521 1.01.004-3.528-1.006-9.074" fill="#cf1b2b"/>
    <path d="M438.987 261.549s1.522 3.527 3.527 3.527c2.019 0 5.561-4.536 2.532-8.064-3.015-3.541-5.561-5.049-4.025-8.064 1.493-3.03-2.532-8.078-2.532-8.078-2.019 3.015-7.566 7.566-17.152 1.508-9.585-6.044-17.152-7.055-18.659-3.527h-8.917c-1.493-3.527-9.059-2.517-18.646 3.527-9.585 6.059-15.146 1.508-17.152-1.508 0 0-4.025 5.049-2.532 8.078 1.522 3.015-1.01 4.523-4.025 8.064-3.03 3.527.512 8.064 2.532 8.064 2.006 0 3.527-3.527 3.527-3.527s6.542 5.547 6.044 13.113c-.512 7.566-10.595 14.621-10.595 14.621 3.03 3.527 3.03 8.576 6.059 17.65 3.015 9.087 13.61 6.557 13.61 6.557.512 5.547 10.098 11.108 13.61 11.108 3.541 0 4.536 3.015 4.536 3.015s-4.025 2.532-2.006 4.551c1.892 1.877 8.661-.668 9.501-.981.825.313 7.609 2.859 9.501.981 2.006-2.019-2.019-4.551-2.019-4.551s.996-3.015 4.551-3.015c3.513 0 13.084-5.561 13.61-11.108 0 0 10.595 2.532 13.61-6.557 3.03-9.074 3.03-14.123 6.044-17.65 0 0-10.083-7.055-10.595-14.621-.481-7.567 6.061-13.113 6.061-13.113" fill="#ffe000"/>
    <path d="M445.124 257.513c-3.03-3.541-5.547-5.049-4.039-8.064 1.522-3.03-2.019-5.049-2.019-5.049-2.006 3.03-10.439 7.339-17.635 3.03-7.566-4.551-9.585-3.541-11.606-4.551 0 0 1.224 3.513-1.522 4.551-4.025 1.522-5.547-2.034-5.547-2.034h-9.059s-1.536 3.556-5.561 2.034c-2.745-1.038-1.508-4.551-1.508-4.551-2.034 1.01-4.039 0-11.619 4.551-7.197 4.309-15.616 0-17.635-3.03 0 0-3.541 2.019-2.019 5.049 1.508 3.015-1.01 4.523-4.039 8.064-3.03 3.527 1.522.498 3.527.498 2.019 0 7.068 3.541 7.068 3.541s5.547 4.025 5.049 13.61c-.398 7.566-11.606 15.118-11.606 15.118 3.015 3.556 3.726 9.686 5.547 15.146.128.384.299.711.498.996 3.03 6.57 8.576 4.039 8.576 4.039s-.996-3.527 2.006-4.039c3.03-.498 4.053 2.532 4.053 2.532s3.527-1.01 4.536 2.019c.996 3.03-3.527 4.039-3.527 4.039-.498.996 2.517 5.547 13.013 7.893 2.019 1.437 3.114 4.21 3.114 4.21v4.523h10.112v-4.523s1.095-2.773 3.101-4.21c10.51-2.347 13.526-6.898 13.013-7.893 0 0-4.523-1.01-3.527-4.039 1.024-3.03 4.551-2.019 4.551-2.019s1.01-3.03 4.039-2.532c3.015.512 2.006 4.039 2.006 4.039s5.547 2.532 8.576-4.039c.213-.284.37-.612.498-.996 1.821-5.461 2.532-11.591 5.547-15.146 0 0-11.193-7.552-11.606-15.118-.498-9.585 5.049-13.61 5.049-13.61s5.049-3.541 7.068-3.541c2.019 0 6.557 3.029 3.527-.498" fill="#64b4d1"/>
    <path d="M429.487 275.164a21.698 21.698 0 0 1 .114-3.669c-4.793.284-9.486-2.247-11.207-4.409-2.019-2.517-4.536-2.517-9.074 0-4.536 2.532-4.536 9.572-4.536 9.572v1.038l27.733 18.133 7.993-4.779c.185-.27.37-.526.584-.782-.003-.001-11.209-7.538-11.607-15.104" fill="#ccc"/>
    <path d="M364.951 254.487l3.527 37.318 16.127 12.103 16.654-13.625-3.527-10.595-2.019-13.61-6.059-4.025-5.049-10.083-6.542-.512-3.527 2.517s-3.03-2.006-3.03-1.508c0 .498-2.532 3.03-2.532 3.03l-4.023-1.01z" fill="#e4cb5e"/>
    <path d="M393.168 256.001l6.073-1.508 8.561 15.132 8.576-1.01 1.508 4.025-23.197 7.566v-6.059l1.024-2.006-2.545-16.14z"/>
    <path d="M377.044 261.042l2.517 36.323 2.532-1.536s-3.527-29.739-3.03-29.241 7.566 25.714 7.566 25.714l3.03 1.024-8.576-31.274 13.61 23.694 2.517-6.044-14.108-19.157-4.039-5.049-2.019 5.546z"/>
    <path d="M394.182 276.666l22.712-5.034 10.083 15.132-4.053 11.591s-17.152 8.576-17.635 9.087c-.512.498-16.654-1.508-16.654-1.508l5.547-29.268z" fill="#9f5a2b"/>
    <path d="M420.417 308.954s1.01-3.03 4.039-2.532c3.015.498 2.019 4.025 2.019 4.025s5.547 2.545 8.561-4.025c.213-.284.384-.625.512-.996 1.806-5.461 2.517-11.591 5.532-15.146 0 0-.27-.17-.754-.541-2.659 1.095-4.779 2.56-4.779 2.56s0-4.523-5.049-5.547c-5.034-1.01-10.083 6.557-10.083 6.557-2.034-6.03-10.098 0-13.625 5.547-3.513 5.561-12.103 4.039-12.103 4.039l-1.522-3.03s.526-5.034-3.513-7.566c-4.039-2.517-10.098 3.527-10.098 3.527 1.522-6.557-5.547-5.547-7.04-4.523-1.522.996-4.039-2.532-7.566-3.527-2.646-.754-5.006 4.963-6.243 9.799.726 2.532 1.336 5.262 2.204 7.85.114.37.284.711.498.996 3.03 6.57 8.561 4.025 8.561 4.025s-.996-3.527 2.019-4.025c3.03-.498 4.039 2.532 4.039 2.532s3.527-1.01 4.536 2.019c1.01 3.015-3.527 4.039-3.527 4.039-.498.996 2.517 5.532 13.013 7.879 2.019 1.45 3.114 4.21 3.114 4.21v4.536h10.113V327.1s1.095-2.759 3.114-4.21c10.496-2.347 13.511-6.883 13.013-7.879 0 0-4.536-1.024-3.527-4.039 1.015-3.028 4.542-2.018 4.542-2.018" fill="#ccc"/>
    <path d="M404.778 200.022l-5.049 2.517 1.01 2.019 5.034-1.024-.995-3.512zm-13.624 0l5.049 2.517-1.01 2.019-5.034-1.024.995-3.512z" fill="#fff"/>
    <path d="M408.82 206.574l.996-3.527-4.523 4.536-2.019 2.532-2.532-2.532-2.517 2.532-2.517-2.532-2.545 2.532-2.006-2.532-4.536-4.536 1.01 3.527-5.049 3.541 4.551-2.019 2.517 1.01 2.517 2.517 3.541-1.01 2.517 3.03 2.517-3.03 3.541 1.01 2.504-2.517 2.532-1.01 4.536 2.019-5.035-3.541z"/>
</svg>
