<svg xmlns="http://www.w3.org/2000/svg" viewBox="0 0 512 512"><path d="M512 384c0 31.418-25.473 56.889-56.889 56.889H56.89C25.472 440.889 0 415.417 0 384V128c0-31.418 25.472-56.889 56.889-56.889H455.11C486.53 71.111 512 96.584 512 128v256z" fill="#f7e017"/><path d="M512 384L0 270.223V199.11L512 312.89V384z" fill="#141414"/><path d="M512 312.889L0 199.11V128l512 113.778v71.11z" fill="#eee"/><g fill="#cf1b26"><path d="M307.144 212.48c6.3 9.785 9.941 21.433 9.941 33.934 0 34.716-28.117 62.847-62.834 62.847-34.702 0-62.833-28.131-62.833-62.847a62.685 62.685 0 0 1 9.927-33.934c-11.919 12.871-19.214 30.094-19.214 49.024 0 39.822 32.285 72.121 72.122 72.121s72.12-32.299 72.12-72.121c-.002-18.93-7.298-36.153-19.23-49.024M139.108 220.53c7.637 1.679 9.33 4.594 8.946 10.78 0 0 3.882.754 6.585 4.622 2.716 3.854 5.22 7.723 9.87 9.26 4.636 1.55 8.306 4.635 8.306 13.908v34.417s-.854 3.5 1.081 8.122c1.934 4.651.825 11.221-13.468 11.221-14.322 0-14.408-6.201-12.473-10.822a82.532 82.532 0 0 1 4.181-8.52v-29.582s-2.801-4.053-6.656-6.755c-3.869-2.716-12.032-12.373-13.184-21.66-1.181-9.289-3.343-17.21 6.812-14.991M369.209 220.53c-7.638 1.679-9.33 4.594-8.946 10.78 0 0-3.883.754-6.6 4.622-2.702 3.854-3.797 7.723-8.447 9.26-4.636 1.55-6.897 4.635-6.897 13.908v34.417s-.555 3.5-2.503 8.122c-1.92 4.651-1.521 11.221 12.787 11.221s15.46-6.201 13.525-10.822c-1.934-4.637-3.115-8.52-3.115-8.52v-29.582s1.38-4.053 5.233-6.755c3.883-2.716 11.321-12.373 12.488-21.66s2.615-17.21-7.525-14.991"/><path d="M333.313 351.829s4.622-9.273-.4-11.208c-5.034-1.933-15.09 0-15.09 0s8.378-10.623.385-15.09c-7.993-4.451-13.483 6.572-20.48 11.605-6.983 5.02-14.023 7.808-22.557 10.639-8.505 2.83-19.598 4.054-19.598 4.054s-12.445-1.223-20.95-4.054c-8.518-2.83-16.91-5.617-23.907-10.639-6.982-5.035-12.472-16.057-20.466-11.605-7.979 4.467.399 15.09.399 15.09s-10.041-1.933-15.061 0c-5.035 1.934-.384 11.208-.384 11.208-11.208 1.55-7.296 8.519-7.296 8.519s2.787-3.6 14.392-3.6 16.399 11.336 24.135 11.336c7.736 0 7.68-7.353 7.68-7.353 14.321 11.989 41.458 11.989 41.458 11.989s25.798 0 40.106-11.989c0 0-.725 7.353 7.011 7.353 7.738 0 12.189-11.335 23.808-11.335 11.59 0 14.222 3.599 14.222 3.599s3.814-6.968-7.407-8.52M302.577 201.486c-8.505-2.319-17.607-13.141-29.596-13.141s-17.422 9.287-17.422 9.287-6.642-9.287-18.632-9.287c-11.988 0-22.328 10.822-30.833 13.141-8.505 2.333-16.627 0-16.627 0 1.95 8.903 11.875 10.923 11.875 10.923 1.053 5.519 9.373 5.704 9.373 5.704 1.124 6.585 13.184 2.047 13.184 2.047s-.754 6.471 5.447 5.689c6.186-.768 16.654-11.591 16.654-11.591s-3.001 3.086-2.618 5.902c.4 2.816 5.192 2.603 5.192 2.603-4.253 4.252 3.427 9.272 3.427 9.272l3.555-2.702 2.346 2.702s7.054-5.02 2.802-9.272c0 0 4.493.213 4.892-2.603.384-2.816-2.774-5.902-2.774-5.902s10.397 10.822 16.583 11.59c6.201.783 5.405-5.688 5.405-5.688s12.046 4.538 13.184-2.047c0 0 8.306-.185 9.343-5.704 0 0 9.942-2.02 11.875-10.923.005 0-8.115 2.333-16.635 0M242.063 166.685c0-1.721 5.447-3.1 12.173-3.1 6.728 0 12.189 1.38 12.189 3.1 0 1.706-5.461 3.086-12.189 3.086-6.727 0-12.173-1.38-12.173-3.086M268.544 172.871c-.384-2.716-2.02-3.1-2.02-3.1s-6.386 1.65-12.274 1.65c-5.903 0-12.189-1.65-12.189-1.65s-1.55.384-1.934 3.1c-.383 2.703-3.086 11.023-3.086 11.023l5.02-5.519 4.253 5.519 4.252-5.519 3.684 5.519 3.769-5.519 4.309 5.519 4.266-5.519 5.035 5.519c.001 0-2.701-8.32-3.085-11.023M255.559 139.805v15.075l10.367 4.451-4.011-6.186 8.149-3.869-14.505-9.471z"/><path d="M257.153 200.135h-6.387v-16.241h6.387v16.241zM262.13 298.752s4.181-5.788 3.314-10.155c-.868-4.352-4.921-11.22-6.073-15.616-1.166-4.395 2.802-8.462 2.802-8.462l-3.087-.569s4.153-3.769 3.086-7.836c-1.052-4.068-3.086-9.273-3.655-13.924-.582-4.636 3.656-10.155 3.656-10.155l-5.504 3.2-2.986-3.2-2.916 3.2-5.405-3.2s4.253 5.519 3.67 10.155c-.57 4.651-2.603 9.856-3.67 13.924s3.1 7.836 3.1 7.836l-3.1.569s3.968 4.067 2.802 8.462c-1.153 4.395-5.22 11.264-6.088 15.616-.867 4.367 3.285 10.155 3.285 10.155l-8.32-1.735c4.551 9.273 9.856 10.425 16.64 10.425 6.77 0 12.174-1.152 16.711-10.425l-8.262 1.735z"/></g></svg>