<svg xmlns="http://www.w3.org/2000/svg" viewBox="0 0 512 512">
    <path d="M512 384c0 31.418-25.473 56.889-56.889 56.889H56.89C25.472 440.889 0 415.417 0 384V128c0-31.418 25.472-56.889 56.889-56.889H455.11C486.53 71.111 512 96.584 512 128v256z" fill="#009b3a"/>
    <path d="M465.451 256L255.986 414.207 46.521 256 255.986 97.778 465.451 256z" fill="#fedf01"/>
    <path d="M347.506 254.862c0-50.73-41.131-91.847-91.847-91.847-50.731 0-91.848 41.116-91.848 91.847 0 50.717 41.117 91.848 91.848 91.848 50.716-.001 91.847-41.131 91.847-91.848" fill="#002776"/>
    <path d="M174.606 211.769c-4.721 8.832-7.936 18.531-9.557 28.771 56.803-4.125 133.931 26.909 167.026 65.365 5.717-8.59 9.955-18.219 12.544-28.501-40.833-39.95-112.584-65.863-170.013-65.635" fill="#cbe9d4"/>
    <path d="M184.889 273.536h-14.223v-14.222h14.223v14.222zm14.222 28.444H184.89v-14.223h14.222v14.223z" fill="#88c9f9"/>
    <path d="M227.555 273.536h-14.223v-14.222h14.223v14.222zM256 287.759h-14.223v-14.223H256v14.223zm56.889 28.443h-14.223V301.98h14.223v14.222zm-42.667 14.223H256v-14.223h14.223v14.223zm42.667-85.334h-14.223V230.87h14.223v14.222z" fill="#55acee"/>
    <path d="M284.445 301.98h-14.223v-14.223h14.223v14.223z" fill="#3b88c3"/>
</svg>
