<svg xmlns="http://www.w3.org/2000/svg" viewBox="0 0 512 512">
    <path d="M19.399 426.504c10.026 8.86 23.053 14.407 37.49 14.407H455.11c31.418 0 56.889-25.472 56.889-56.889v-64H162.745L19.399 426.505z" fill="#00abc9"/>
    <path d="M248.889 255.979l-86.159 64H512v-128H162.731l86.158 64z" fill="#fae042"/>
    <path d="M455.111 71.09H56.89c-14.435 0-27.463 5.546-37.49 14.407L162.73 191.98H512v-64c0-31.418-25.473-56.889-56.889-56.889" fill="#00abc9"/>
    <path d="M248.889 255.979l-86.159-64L19.399 85.498C7.595 95.92 0 110.998 0 127.978v256c0 16.982 7.595 32.058 19.399 42.482L162.73 319.979l86.159-64z" fill="#141414"/>
</svg>
