<svg xmlns="http://www.w3.org/2000/svg" viewBox="0 0 291.764 291.764">
    <path d="M145.882 0c80.573 0 145.882 65.319 145.882 145.882s-65.31 145.882-145.882 145.882S0 226.446 0 145.882 65.31 0 145.882 0z" fill="#f4b459"/>
    <path d="M145.882 27.399c-65.465 0-118.529 53.065-118.529 118.529s53.065 118.529 118.529 118.529 118.529-53.065 118.529-118.529S211.347 27.399 145.882 27.399zm0 218.832c-55.39 0-100.294-44.914-100.294-100.294 0-55.39 44.904-100.294 100.294-100.294s100.294 44.904 100.294 100.294c0 55.381-44.904 100.294-100.294 100.294zm28.748-105.044c6.738-3.483 10.969-9.601 9.984-19.804-1.331-13.941-14.369-18.618-29.395-19.949l-.009-19.329h-9.355v18.828l-9.3.128V82.104h-9.063v19.329c-2.516.055-8.698.109-11.124.109v-.064l-16.056-.009v12.573s12.008-.164 11.88 0c4.714 0 6.255 2.772 6.683 5.161l.009 22.028 1.231.082h-1.231v30.863c-.201 1.504-1.076 3.902-4.367 3.911.146.137-11.889 0-11.889 0l-2.316 14.05h15.144l12.017.073.009 19.566h8.78l-.009-19.357c3.209.073 6.282.109 9.309.1v19.256h10.212v-19.53c19.566-1.131 33.836-6.118 35.541-24.709 1.386-14.976-5.579-21.65-16.685-24.349zm-38.932-26.296c6.574 0 27.216-2.115 27.216 11.762 0 13.294-20.642 11.753-27.216 11.753v-23.515zm0 61.271V150.25c7.896 0 32.632-2.289 32.632 12.956 0 14.625-24.736 12.956-32.632 12.956z" fill="#d07c40"/>
</svg>
