<svg xmlns="http://www.w3.org/2000/svg" viewBox="0 0 511.998 511.998">
    <path d="M511.933 125.313c-.014-.283-.035-.563-.053-.844a59.186 59.186 0 0 0-.139-1.835 57.57 57.57 0 0 0-.321-2.706c-.041-.298-.081-.594-.129-.89a57.05 57.05 0 0 0-.37-2.074c-.032-.166-.06-.336-.092-.503a57.189 57.189 0 0 0-.578-2.501c-.065-.257-.139-.51-.209-.765a56.52 56.52 0 0 0-.488-1.721c-.094-.31-.193-.618-.291-.925a57.668 57.668 0 0 0-.524-1.548c-.109-.306-.216-.612-.33-.917a59.971 59.971 0 0 0-.644-1.635c-.101-.246-.196-.496-.3-.74a58.69 58.69 0 0 0-1.015-2.248c-.112-.233-.234-.463-.349-.695a54.997 54.997 0 0 0-.796-1.552 40.804 40.804 0 0 0-.49-.886 57.615 57.615 0 0 0-.761-1.324c-.178-.298-.355-.596-.539-.891-.276-.445-.56-.887-.848-1.323-.173-.265-.343-.531-.52-.792a58.9 58.9 0 0 0-1.4-1.968l-.26.177c.03-.13.065-.26.095-.393C490.2 80.03 473.7 71.115 455.114 71.115H56.889C25.472 71.11 0 96.583 0 128v256c0 15.848 6.486 30.176 16.942 40.491l.003-.166.286-.031-.286.195-.003.001c.002.001.003.001.003.003a57.165 57.165 0 0 0 10.679 8.29c.775.467 1.562.916 2.361 1.346.022.012.046.022.069.035.777.416 1.563.816 2.361 1.199.054.025.109.047.162.073.77.364 1.545.715 2.333 1.047.095.04.194.073.29.113.75.31 1.505.609 2.269.887.143.052.29.096.432.146a55.97 55.97 0 0 0 2.185.732c.205.063.415.115.621.177a58.71 58.71 0 0 0 2.057.578c.265.068.535.122.801.185.641.154 1.281.31 1.93.442.336.067.679.118 1.017.182.585.108 1.17.221 1.763.313.425.065.856.107 1.285.163.515.067 1.026.143 1.544.195.547.055 1.103.087 1.655.125.406.029.808.072 1.216.093a57.74 57.74 0 0 0 2.914.074H455.11c31.416 0 56.889-25.473 56.889-56.89v-256c0-.9-.026-1.796-.068-2.686z" fill="#ffd521"/>
    <path d="M511.88 124.468a59.186 59.186 0 0 0-.139-1.836 57.57 57.57 0 0 0-.321-2.706c-.041-.297-.081-.593-.129-.89a57.05 57.05 0 0 0-.37-2.073c-.032-.167-.06-.337-.092-.503a57.189 57.189 0 0 0-.578-2.501c-.065-.258-.139-.51-.209-.765a56.52 56.52 0 0 0-.488-1.721c-.094-.31-.193-.618-.291-.925a57.668 57.668 0 0 0-.524-1.548c-.109-.306-.216-.612-.33-.917a59.971 59.971 0 0 0-.644-1.635c-.101-.247-.196-.497-.3-.74a58.69 58.69 0 0 0-1.015-2.248c-.112-.234-.234-.464-.349-.695a54.997 54.997 0 0 0-.796-1.552 40.804 40.804 0 0 0-.49-.887 57.615 57.615 0 0 0-.761-1.323c-.178-.298-.355-.597-.539-.892-.276-.445-.56-.886-.848-1.322-.173-.265-.343-.531-.52-.793a58.9 58.9 0 0 0-1.4-1.967L16.944 424.49l-.003.001c.001.001.003.001.003.003a57.165 57.165 0 0 0 10.678 8.291c.775.466 1.563.915 2.362 1.345.022.013.046.022.068.035.778.416 1.564.816 2.362 1.199.053.025.108.047.162.074.769.363 1.545.715 2.333 1.046.095.04.193.074.29.114.75.31 1.505.608 2.268.886.144.052.29.096.433.146.722.256 1.449.505 2.185.733.205.062.415.115.621.176a58.71 58.71 0 0 0 2.056.579c.265.067.535.12.802.185.641.153 1.281.31 1.93.44.336.068.678.12 1.017.183.585.108 1.17.222 1.763.313.425.065.856.107 1.285.164.515.066 1.026.142 1.543.195.548.055 1.104.086 1.655.125.407.028.81.07 1.217.092a57.74 57.74 0 0 0 2.913.074H455.11c31.416 0 56.889-25.473 56.889-56.889V128c0-.901-.027-1.796-.068-2.687-.012-.283-.034-.564-.051-.846z" fill="#ff4e11"/>
    <g fill="#fff">
        <path d="M115.508 383.067s.442-.662 1.165-1.597a5.465 5.465 0 0 0-1.165 1.597z"/>
        <path d="M454.039 149.007c-5.135.342-7.879 4.09-10.951 4.09h-5.49s4.45-6.152 6.854-7.858c2.39-1.706 11.293-2.379 13.37-4.1 2.033-1.706 2.39-4.106 2.39-4.106-4.466 3.086-14.736 1.367-19.172 2.406-4.438 1.024-8.234 5.819-8.234 5.819s5.135-10.282 6.514-14.734c1.366-4.451 1.366-11.989 6.841-16.099 5.475-4.11 2.063-9.257 2.063-9.257s-1.379 3.427-5.135 6.513c-3.769 3.087-7.553 2.745-7.196 8.577.34 5.816.682 5.816-2.063 8.56-2.73 2.73-2.73 2.048-7.197 9.586-4.452 7.537-6.514-.341-16.1 3.086-9.6 3.428-14.064-6.172-21.59-5.135-7.522 1.024-25.358-2.404-32.54-4.807-7.21-2.39-3.428-5.475-20.922-13.697-17.45-8.233-28.445-.341-21.575-.696 3.317-.165 8.404 1.12 12.77 2.488-5.398-.32-9.683 1.978-9.683 1.978s9.585 2.73 17.465 9.585c7.878 6.855 0 6.173-10.283 0-10.269-6.172-21.234-7.537-30.492-6.498-9.26 1.023-6.855 4.11-1.707 3.753 5.135-.341 16.783 3.087 26.055 6.514 9.23 3.428-.696 4.125-.696 4.125-20.224-12.004-29.127-2.404-23.651-4.465 5.503-2.062 11.647 2.745 21.247 7.879 9.6 5.149-13.696 2.062-13.696 2.062s-10.624-4.451-20.921-5.475c-10.269-1.038-18.148 8.904-14.735 13.697 3.427 4.792 9.941 2.047 9.941 2.047-7.381-2.134-5.149-7.537-.341-8.904 4.792-1.366 23.31 3.428 28.445 5.49 5.135 2.048 7.196 9.942-6.842 3.414-14.065-6.499-8.917 1.039-8.917 1.039-13.71-1.039 6.159 7.879-2.404 5.49-8.576-2.418-18.504 1.01-26.724 1.01s-11.306 8.917-11.306 8.917 4.793-2.73 10.794-4.807c5.987-2.048 22.77 2.076 22.77 2.076-6.841 6.841-6.514 19.527-6.514 19.527-7.182 1.707-14.037 14.735-14.037 14.735 2.745-4.465 12.33-5.83 12.33-5.83s1.706 3.768-2.73 9.258c-4.465 5.475-3.087 12.33-3.087 12.33s2.048-5.475 4.808-8.221c2.716-2.745 9.585-2.404 9.585-2.404-3.086 7.196 8.561 11.647 8.561 11.647-3.427 6.16 3.101 13.028 2.063 12.687-1.024-.342-12.004 3.413-12.004 3.413s15.104.355 7.196 2.418c-7.879 2.047-22.272-6.173-22.272-6.173l-16.783-7.552s7.196 6.87-1.024 5.831c-8.233-1.024-16.455 3.086-23.65-1.706-7.197-4.808-19.186-7.553-16.783-3.086 2.39 4.451 5.816 8.903 5.816 8.903-13.014-2.745-6.514 8.904-16.099 7.894-9.6-1.039-1.721 8.206-10.966 5.461-9.245-2.73-18.161 7.553-18.161 7.553 3.086-1.721 13.013 1.024 13.013 1.024-3.753 1.366-2.047 8.547-2.047 8.547-8.904 2.375-6.514 15.786-6.514 15.786-7.537 0-8.904 5.12-11.99 8.548-3.072 3.441-10.282 3.441-10.282 3.441 4.9 3.805 14.543 1.347 18.313.17-3.073 2.313-2.542 11.479-2.542 11.479-6.173 1.024-.696 10.283-2.063 9.245-1.378-1.024-4.792 1.379-8.22 4.11-3.428 2.759-7.88 3.441-7.88 3.441 2.39 3.073 7.88 3.428 7.88 3.428s-4.126 7.879-9.26 9.6c-5.135 1.692-19.527 5.12-23.296 5.461-3.769.355-11.99 0-19.527-2.047-7.538-2.063-15.432 0-21.59-.697-6.173-.682-9.942 5.49-9.942 5.49s5.135-1.706 9.585-.682c4.465 1.024 5.832 5.135 10.624 3.086 4.808-2.062 14.749 2.745 14.749 2.745s-3.428 2.048-8.234 3.769c-4.779 1.706-11.306 3.741-16.782 4.792-5.475 1.024-11.99 8.918-7.538 5.135 4.451-3.768 7.183-.682 13.354-1.721 5.214-.862 10.152-1.24 11.58-1.337-1.125.112-4.281.698-6.773 3.74-3.086 3.785-11.647 7.21-16.455 7.21-4.792 0-12.672 2.405-17.123 8.222-4.465 5.831-9.942 6.855-9.942 6.855s3.428 3.769 8.562 0c5.148-3.769 6.172-5.475 13.71-6.855 7.537-1.379 15.416-4.11 15.416-4.11-4.11 3.428-6.499 7.538-13.354 8.548-6.855 1.052-17.479 9.258-21.59 13.368-4.11 4.11-11.306 7.21-11.306 7.21 6.841 4.11 10.269-1.038 17.465-5.148 7.21-4.11 10.979-1.367 19.541-3.77 8.561-2.403 7.538-9.584 10.269-9.94 2.745-.328 9.941 0 12.004-3.428 2.047-3.414.682-6.144 5.816-6.144 5.135 0 7.196-2.404 7.196-2.404-2.062 4.438-7.196 8.222-7.196 8.222 6.172 1.706 10.966-4.11 17.137-7.894 6.173-3.769 10.283-3.769 10.283-3.769s-3.769 6.514-7.879 7.196c-2.88.477-6.08 4.13-7.752 6.295 4.187-4.072 15.09-3.633 19.401-7.318 4.792-4.11 11.306-10.966 15.416-13.369 4.11-2.404 8.221-7.538 15.416-14.051 7.137-6.459 19.648-5.158 19.86-6.135-.056.98-.332 9.561-.332 9.561l-11.99 1.039 7.537 5.475c-4.807-2.063-11.647 7.537-11.647 7.537l11.861-1.378 2.531 6.883c3.77-7.907 6.514-6.186 6.514-6.186 4.11 4.793 4.451 15.759 4.451 15.759s-5.49-1.366-11.647 5.831c-6.173 7.196 5.135 20.893 5.135 20.893s-2.048 3.086 0 8.917c2.062 5.816 12.672 11.99 23.296 8.561 10.624-3.427 9.6-17.806 9.6-17.806s3.769-3.784 3.086-11.321c-.682-7.538-4.11-11.634-4.11-11.634s6.5-2.404 10.624 2.048c4.096 4.45 5.135 14.72 5.135 14.72s4.11-19.172-2.062-23.965c-6.159-4.793-21.234-4.465-21.234-4.465-.341-7.88-7.21-12.345-8.918-17.48-1.706-5.148 1.024-17.82 1.024-17.82l8.576.696s-.682 3.072 5.475 7.537c6.173 4.438 16.1 1.367 16.1 1.367s11.32 1.023 16.795-8.904c5.475-9.941-4.792-17.821-4.792-17.821-1.706-15.773-25.016-6.855-25.016-6.855 2.403-10.624 12.686-10.624 12.686-10.624s-12.004-6.173-18.845-3.769c-6.855 2.404-4.465 19.541-9.941 18.859-5.49-.683-6.173-17.494-1.722-30.521 4.452-13.014 27.065-13.697 48.67-5.12 21.574 8.547 52.08 10.268 52.08 10.268-1.023 4.11-6.498 10.283-6.498 10.283l-9.6-3.769 5.816 7.196c-2.063 5.149-7.538 8.904-7.538 8.904 5.817 4.11 12.33-4.11 12.33-4.11l2.404 9.955 5.831-8.234s11.975 8.562 21.918 12.33c9.927 3.769 29.141 7.197 29.141 7.197s-6.514 3.086.328 14.05c6.87 10.952 22.613 14.038 22.613 14.038s12.004 5.49 22.942-4.11c10.993-9.6 2.076-27.065 2.076-27.065 0-20.195-21.59-13.866-21.59-13.866 4.451-8.732 14.905-14.577 14.905-14.577-16.968-9.942-24.15 9.615-36.835 13.725-12.673 4.11-34.959-7.894-35.968-7.894-1.038 0 .67-2.063 1.01-6.514.355-4.451 10.624-13.014 15.773-23.637s3.769-28.104 3.769-28.104c6.855-6.841 16.113-1.706 16.113-1.706-.34 7.196-4.807 10.282-4.807 10.282 5.149.341 7.537-4.465 7.537-4.465-2.39 7.553 5.49 16.455 5.49 16.455l2.39-11.647 7.198 8.22-4.438-15.074c13.682 0 28.074-9.941 28.074-9.941s6.87 9.94 20.566 9.94c13.697 0 27.407-14.72 27.407-21.247 0-6.513-12.33-15.758-12.33-15.758s4.792-10.967-13.354-10.967c-18.161 0-23.637 22.115-23.637 22.115s-7.567-3.271-17.834-.541c-10.269 2.745-27.065-5.816-37.334-10.951-10.296-5.135-24.69-19.185-24.69-19.185 0-4.808 2.688-12.345 2.688-12.345s14.79 1.039 10.338 2.745c-4.451 1.706-16.098 5.149-6.841 5.816 9.23.683 18.148-3.072 15.402 0-2.745 3.086-13.013 10.296-8.903 10.296 4.11 0 9.6-5.148 12.345-5.831 2.73-.682 7.522 1.024 14.392 1.024 1.846 0 3.793-1.053 5.651-2.584 7.057 3.415 17.447 13.359 22.424 18.348 6.173 6.158 9.941-2.063 12.686-5.817 1.582-2.171-2.75-6.275-7.428-9.956a101.73 101.73 0 0 1 2.295-2.735c.363-.419.838-.782 1.37-1.11 2.74.984 5.44 1.975 8.021 2.901.035 5.937-.148 13.982-.148 13.982 3.762-2.683 3.953-8.087 4.022-12.615 5.437 1.877 10.102 3.258 13.137 3.363 9.928.342 16.426-3.086 25.671-4.125 9.26-1.023 9.928 7.553 9.928 7.553s3.784-2.745-1.706-8.221c-5.462-5.49-12.673-5.15-12.673-5.15 0-7.878-9.514-7.537-9.514-7.537 7.95 4.452-.07 9.245-.07 9.245 1.023-4.451-8.918-7.167-8.918-7.167s6.513 3.057 2.417 6.826c-2.585 2.371-6.055 2.429-10.512 1.728.512-2.36 1.468-6.07 2.952-9.26 2.418-5.134-1.706-10.282-1.706-10.282l4.451-8.221s14.749-2.404 18.845-4.451c4.125-2.063 8.221-3.784 18.489-3.428 10.296.342 12.701-5.485 12.701-5.485-4.446 2.729-17.473-1.05-22.622-.708zM385.857 171.3c3.442-2.39 5.49-.342 5.49-.342l2.703 6.173 3.456-7.538 4.793 3.754-2.73 4.808 10.282-1.366-1.024 3.413s-3.662 3.306-7.255 6.201c-7.073-2.202-15.388-5.345-21.276-8.516 1.17-1.904 3.288-4.992 5.562-6.587zm11.65 18.161c-1.047.699-1.78 1.619-2.296 2.601-2.616-1.957-5.041-3.654-6.267-4.657-1.178-.964-2.692-1.874-4.405-2.718 4.355 1.114 9.034 2.65 13.679 4.283-.246.172-.486.34-.712.491zm9.735-1.421c1.123-.206 1.91-.285 1.91-.285.02.226.035.49.05.777a86.768 86.768 0 0 1-1.96-.492zm6.258 1.379c.922-3.914 4.244-6.13 4.244-6.13-.138 2.663.245 5.115.762 7.123-1.562-.298-3.227-.646-5.006-.993z"/>
    </g>
</svg>
