<svg xmlns="http://www.w3.org/2000/svg" viewBox="0 0 512 512"><path d="M455.111 71.111H56.889C25.472 71.111 0 96.583 0 128v256c0 31.417 25.472 56.889 56.889 56.889h398.222C486.528 440.889 512 415.417 512 384V128c0-31.417-25.472-56.889-56.889-56.889z" fill="#4aa657"/><g fill="#c8313e"><path d="M455.111 71.111H56.889C25.472 71.111 0 96.583 0 128V327.111h512V128c0-31.417-25.472-56.889-56.889-56.889zM63.78 382.22l-21.358 30.886L60.7 440.889h9.198l15.161-27.066L63.78 382.22zm-8.273 32.886l8.889-15.772 9.116 16.228-9.116 14.663-8.889-15.119z"/><path d="M85.333 260.729v-12.714l-4.451 6.201zM40.173 99.915L27.365 79.364c-11.027 6.709-19.587 17.065-24.019 29.39l18.433 24.579 18.394-33.418zm-29.285 2.302l8.889-15.772 9.116 16.228-9.116 14.663-8.889-15.119z"/><path d="M41.334 187.108l-21.333-34.219L0 183.805v9.233l12.223 20.296 8.661-12.672L14.669 192l4.665-6.215 13.554 17.55-19.996 32.882L0 218.463v22.111l.827-1.101 13.554 17.55L0 280.679v16.746l12.891-17.754 19.996 32.882-13.554 17.55-4.665-6.215 6.215-8.661-8.661-12.672L0 322.851v8.184l20.445 31.187L41.11 325.77l23.783 38.457 20.441-36.223v85.343-90.924l-1.778.796-12.444-20.665-8.676 12.672 6.229 8.661L64 330.118l-13.568-17.564 20.011-32.882 14.891 20.508v-16.24l-16.455-27.051 13.554-17.55 2.901 3.854v-28.402l-15.559 21.433-19.996-32.896 13.554-17.55 4.665 6.215-6.229 8.676 8.676 12.658 12.444-20.665 2.446 1.095v-8.875L65.343 153.77l-24.009 33.338zm19.616 55.111l-.057 13.715.057 13.715-19.84 31.317-18.689-31.46L22.224 256h-.002.001-.001.002l.197-13.559L41.11 210.92l19.84 31.299z"/><path d="M0 251.037v6.788l2.377-3.476zM65.668 135.552l19.392-34.619-20.08-29.822h-2.432l-20.126 29.105 23.246 35.336zm7.844-32.88l-9.116 14.663-8.889-15.118 8.889-15.772 9.116 16.227zM20.004 380.442l-15.95 24.643a56.924 56.924 0 0 0 11.534 18.013l-4.699-7.992 8.889-15.772 9.116 16.228-7.841 12.612a56.926 56.926 0 0 0 7.749 5.291l11.371-20.658-20.169-32.365zM85.333 71.111v29.346-.012z"/></g><g fill="#fff"><path d="M85.333 328.005l-20.441 36.224-23.781-38.457-20.666 36.452L0 331.036V384a56.693 56.693 0 0 0 4.054 21.085l15.95-24.644 20.169 32.364-11.371 20.658a56.593 56.593 0 0 0 28.087 7.426H60.7l-18.278-27.783L63.78 382.22l21.28 31.603-15.161 27.066h15.434v-27.563l.002.008-.002.013v-85.342zM9.257 387.557L.368 372.439l8.889-15.772 9.116 16.228-9.116 14.662zm21.556 0l-8.889-15.118 8.889-15.772 9.116 16.228-9.116 14.662zm21.111 0l-8.889-15.118 8.889-15.772 9.116 16.228-9.116 14.662zm22.639 0l-8.889-15.118 8.889-15.772 9.116 16.228-9.116 14.662z"/><path d="M19.777 399.333l-8.889 15.772 4.699 7.992a57.285 57.285 0 0 0 5.465 5.075l7.841-12.612-9.116-16.227zM64.396 399.333l-8.889 15.773 8.889 15.118 9.116-14.663z"/></g><g fill="#c8313e"><path d="M.368 372.439l8.889 15.118 9.116-14.663-9.116-16.227zM21.924 372.439l8.889 15.118 9.115-14.663-9.115-16.227zM43.035 372.439l8.889 15.118 9.116-14.663-9.116-16.227zM65.674 372.439l8.889 15.118 9.116-14.663-9.116-16.227z"/></g><g fill="#fff"><path d="M85.333 71.111H64.98l20.08 29.822-19.392 34.619-23.247-35.336 20.127-29.105h-5.659c-10.811 0-20.917 3.017-29.524 8.253l12.808 20.551-18.394 33.418-18.433-24.579A56.783 56.783 0 0 0 0 128v55.805l20.001-30.916 21.333 34.219 24.007-33.337 19.99 31.112.003.007v-84.452l.002.008-.002.013V71.111zM9.257 159.112L.368 143.994l8.889-15.772 9.116 16.228-9.116 14.662zm21.556 0l-8.889-15.118 8.889-15.772 9.116 16.228-9.116 14.662zm21.111 0l-8.889-15.118 8.889-15.772 9.116 16.228-9.116 14.662zm22.639 0l-8.889-15.118 8.889-15.772 9.116 16.228-9.116 14.662z"/><path d="M19.777 86.444l-8.889 15.773 8.889 15.118 9.117-14.663zM64.396 117.335l9.116-14.663-9.116-16.228-8.889 15.773z"/></g><g fill="#c8313e"><path d="M.368 143.994l8.889 15.118 9.116-14.663-9.116-16.227zM21.924 143.994l8.889 15.118 9.115-14.663-9.115-16.227zM43.035 143.994l8.889 15.118 9.116-14.663-9.116-16.227zM65.674 143.994l8.889 15.118 9.116-14.663-9.116-16.227z"/></g><g fill="#fff"><path d="M32.888 203.335l-13.554-17.55L14.669 192l6.215 8.661-8.661 12.672L0 193.037v25.426l12.891 17.754zM20.884 315.227l-6.215 8.662 4.665 6.215 13.554-17.551-19.997-32.881L0 297.425v25.426l12.223-20.296zM.827 239.472L0 240.573v10.464l2.377 3.312L0 257.825v22.854l14.38-23.657zM22.421 242.441L22.224 256h-.002.001-.001.002l.197 13.507 18.688 31.46 19.84-31.317-.057-13.715.057-13.715-19.84-31.298-18.688 31.519zm32.135-2.875l-8.342 15.214 8.34 15.211-7.336 4.023-5.775-10.533-5.775 10.533-7.336-4.023 8.34-15.211-8.342-15.214 7.336-4.022 5.777 10.534 5.777-10.534 7.336 4.022z"/></g><path fill="#c8313e" d="M35.668 235.544l-7.336 4.022 8.341 15.213-8.34 15.211 7.336 4.023 5.775-10.533 5.775 10.533 7.336-4.023-8.34-15.211 8.341-15.213-7.336-4.022-5.776 10.535z"/><g fill="#fff"><path d="M70.443 213.327l-8.676-12.658 6.229-8.676-4.664-6.215-13.554 17.55 19.996 32.896 15.559-21.433v-21.034l-2.446-1.095zM68.878 256.889l16.455 27.05v-23.21l-4.451-6.513 4.451-6.201v-4.822l-2.901-3.854zM50.432 312.553L64 330.118l4.665-6.229-6.229-8.662 8.675-12.672 12.445 20.665 1.777-.796V300.18l-14.89-20.508z"/></g></svg>