<svg xmlns="http://www.w3.org/2000/svg" viewBox="0 0 512 512">
    <path d="M512 384c0 31.418-25.473 56.889-56.889 56.889H56.89C25.472 440.889 0 415.417 0 384V128c0-31.418 25.472-56.889 56.889-56.889H455.11C486.53 71.111 512 96.584 512 128v256z" fill="#ce1b26"/>
    <path d="M7.894 99.555C3.015 107.946 0 117.589 0 128v256c0 10.411 3.015 20.039 7.894 28.445H504.12C509 404.04 512 394.411 512 384V128c0-10.411-3.001-20.054-7.879-28.445H7.894z" fill="#003e87"/>
    <path d="M113.778 256c0-78.549 63.672-142.222 142.222-142.222S398.222 177.45 398.222 256 334.55 398.236 256 398.236 113.778 334.55 113.778 256" fill="#fff"/>
    <path d="M128 256c0-70.699 57.301-128 128-128s128 57.301 128 128c0 70.685-57.301 128.014-128 128.014S128 326.685 128 256" fill="#730900"/>
    <path d="M131.655 256c0-68.679 55.666-124.345 124.345-124.345 68.665 0 124.345 55.666 124.345 124.345S324.665 380.359 256 380.359c-68.679 0-124.345-55.68-124.345-124.359" fill="#fff"/>
    <path d="M256 374.67c-4.011 0-7.254 4.167-7.254 9.33 0 5.177 3.243 9.33 7.254 9.33 4.011 0 7.254-4.153 7.254-9.33 0-5.163-3.243-9.33-7.254-9.33M263.254 128c0 5.162-3.243 9.33-7.254 9.33-4.011 0-7.254-4.168-7.254-9.33s3.243-9.344 7.254-9.344c4.011 0 7.254 4.181 7.254 9.344m23.466 13.369c3.869 1.039 8.079-2.134 9.415-7.125 1.338-4.993-.711-9.856-4.58-10.909-3.882-1.024-8.092 2.176-9.415 7.14-1.336 5.006.698 9.87 4.58 10.894M215.865 377.77c1.338-4.992 5.561-8.177 9.429-7.154 3.869 1.04 5.931 5.917 4.58 10.91-1.323 4.977-5.546 8.177-9.415 7.153-3.869-1.054-5.916-5.917-4.594-10.909m99.441-224.596c3.47 2.005 8.363.013 10.951-4.452 2.574-4.48 1.85-9.713-1.62-11.718-3.47-1.991-8.363-.014-10.938 4.466-2.588 4.464-1.863 9.697 1.607 11.704M185.7 363.179c2.574-4.48 7.481-6.471 10.951-4.48 3.457 2.02 4.182 7.254 1.608 11.719-2.589 4.48-7.481 6.485-10.951 4.48-3.472-2.02-4.197-7.253-1.608-11.72m154.211-191.089c2.83 2.83 8.064 2.161 11.719-1.479 3.655-3.655 4.309-8.889 1.479-11.734-2.83-2.83-8.079-2.176-11.719 1.494-3.655 3.641-4.309 8.889-1.479 11.719M160.355 341.376c3.655-3.655 8.903-4.308 11.734-1.478 2.83 2.83 2.161 8.078-1.479 11.733-3.655 3.655-8.889 4.324-11.734 1.494-2.83-2.846-2.161-8.094 1.479-11.749m198.471-144.682c2.005 3.456 7.225 4.195 11.691 1.607 4.48-2.574 6.472-7.481 4.48-10.937-2.02-3.47-7.253-4.21-11.733-1.622-4.465 2.574-6.456 7.48-4.438 10.952M141.568 313.742c4.466-2.573 9.713-1.848 11.718 1.622 1.992 3.456 0 8.362-4.466 10.937-4.48 2.589-9.714 1.863-11.719-1.607-2.003-3.472.002-8.378 4.467-10.952m229.063-88.462c1.024 3.882 5.888 5.931 10.894 4.594 4.978-1.338 8.164-5.547 7.14-9.429-1.052-3.854-5.916-5.916-10.894-4.58-5.006 1.336-8.179 5.561-7.14 9.415m-240.156 56.846c4.993-1.337 9.87.711 10.894 4.58 1.039 3.883-2.148 8.093-7.14 9.429-4.993 1.337-9.856-.711-10.894-4.594-1.037-3.869 2.163-8.079 7.14-9.415M374.67 256c0 4.011 4.167 7.254 9.33 7.254 5.177 0 9.33-3.243 9.33-7.254 0-4.011-4.153-7.254-9.33-7.254-5.163 0-9.33 3.243-9.33 7.254M128 248.746c5.162 0 9.344 3.243 9.344 7.254 0 4.011-4.182 7.254-9.344 7.254-5.163 0-9.344-3.243-9.344-7.254 0-4.011 4.181-7.254 9.344-7.254m242.631 37.974c-1.038 3.869 2.134 8.079 7.125 9.415 4.993 1.338 9.857-.711 10.909-4.58 1.024-3.882-2.176-8.092-7.14-9.415-5.006-1.336-9.87.698-10.894 4.58M134.23 215.865c4.992 1.338 8.177 5.561 7.154 9.429-1.04 3.869-5.917 5.931-10.91 4.58-4.977-1.323-8.177-5.546-7.153-9.415 1.054-3.869 5.918-5.916 10.909-4.594m224.596 99.47c-2.005 3.456-.014 8.363 4.451 10.951 4.48 2.574 9.714 1.835 11.72-1.621 1.99-3.47.013-8.377-4.467-10.951-4.464-2.589-9.697-1.849-11.704 1.621M148.821 185.714c4.48 2.573 6.472 7.481 4.48 10.951-2.02 3.456-7.253 4.181-11.718 1.592-4.48-2.573-6.485-7.466-4.48-10.937 2.018-3.469 7.252-4.195 11.718-1.606m191.09 154.197c-2.83 2.83-2.161 8.05 1.479 11.719 3.655 3.641 8.889 4.309 11.734 1.479 2.83-2.83 2.176-8.093-1.494-11.719-3.641-3.669-8.889-4.309-11.719-1.479M170.624 160.355c3.655 3.641 4.309 8.889 1.479 11.734-2.83 2.83-8.08 2.161-11.734-1.479-3.655-3.655-4.324-8.902-1.494-11.734 2.846-2.83 8.094-2.176 11.749 1.479M315.306 358.77c-3.456 2.005-4.195 7.239-1.607 11.705 2.573 4.48 7.481 6.457 10.937 4.466 3.47-2.005 4.21-7.239 1.621-11.719-2.573-4.467-7.48-6.457-10.95-4.452m-117.05-217.245c2.574 4.466 1.85 9.7-1.62 11.705-3.457 2.005-8.363 0-10.938-4.466-2.589-4.467-1.863-9.7 1.607-11.705 3.471-2.005 8.378-.014 10.951 4.466m88.463 229.106c-3.882 1.039-5.931 5.903-4.594 10.909 1.338 4.964 5.547 8.164 9.429 7.125 3.854-1.052 5.916-5.916 4.58-10.894-1.336-4.992-5.561-8.179-9.415-7.14M229.874 130.49c1.337 4.977-.711 9.856-4.58 10.894-3.883 1.038-8.093-2.162-9.429-7.154-1.338-4.978.711-9.856 4.594-10.894 3.868-1.024 8.078 2.163 9.415 7.154" fill="#007f00"/>
    <path d="M212.765 173.483l14.109 24.078h15.46l6.926 5.562 4.266 14.733-15.302-6.712 14.279 11.691-3.442 11.719h11.761v-20.808l19.2-11.761-3.17-2.361-15.93 8.889-1.848-13-2.873-3.085 9.785-12.075-5.062-2.048-7.381 10.951-1.04-8.902 1.04-10.994s-4.922-3.911-4.48-2.618c.468 1.28 0 9.672 0 9.672l-9.245-9.941-4.282 1.706 9.288 8.235-10.795 8.05-13.099-3.599 2.518-13.355h-2.688l-2.319 12.586-2.318-10.737-3.357 5.931m52.692-3.159h-3.087V160.57h3.087v11.562zm16.953-3.086h-3.854v-6.159h3.854v6.159z" fill="#b34b00"/>
    <path d="M229.831 187.15c.469 1.153 2.547 6.826 2.547 6.826l14.862 1.536 6.3 6.472-2.475-7.424-3.826-8.59-17.408 1.18z" fill="#fff"/>
    <g fill="#289400">
        <path d="M213.063 160.825c8.946-5.376 14.777 3.599 14.777 3.599s3.698-11.307 14.749-12.075c11.036-.768 10.937 4.11 10.937 4.11s2.46-7.098 17.209-4.195c14.763 2.901 14.307 7.794 11.832 9.841-2.475 2.063-24.817.783-24.817.783s2.304 4.366 2.56 6.158c.256 1.807 8.22-3.342 20.793 0 0 0 6.186-10.795 15.687-5.133 9.515 5.646 15.73 16.44 13.383 19.512-2.333 3.086-19.285 1.039-21.22-1.024 0 0-3.442 5.66-11.42 4.623-7.98-1.024-21.334-9.5-21.334-9.5l-2.674-4.11s-6.186-4.893-13.71-5.149c-7.509-.241-12.729 0-12.729 0s-5.062 5.916-10.965 6.685c-5.916.782-12.06.512-12.06.512s-1.252-8.465 9.001-14.637"/>
        <path d="M223.445 177.266c14.777-2.318 24.534 0 25.558 7.197 1.023 7.196-11.023 5.902-13.47 6.158-2.46.27-16.582 5.149-21.204 4.893-4.623-.256-14.138-4.893-7.196-11.563 6.94-6.685 16.312-6.685 16.312-6.685m56.576 13.099c14.535 3.385 21.39 11.306 18.048 14.649-3.343 3.327-11.904 2.83-19.698 0-7.793-2.83-18.602-.783-21.02-6.173-2.432-5.39 6.187-12.331 22.67-8.476m-4.935 18.503c11.036 1.82 11.435 11.548 9.643 13.355-1.806 1.792-18.759-.513-22.614-5.134-3.854-4.623 2.049-10.014 12.971-8.221m-41.045-4.893c13.768-5.205 19.669.783 19.499 6.173-.156 5.39-11.705 5.133-16.214 7.182-4.494 2.076-12.715 4.636-15.531 1.55-2.844-3.086 1.38-10.795 12.246-14.905"/>
    </g>
    <path d="M224.597 346.112c-3.84 3.783-9.628 11.663 2.802 14.08 12.445 2.418 7.595-9.798 4.977-11.832-2.63-2.049-7.779-2.248-7.779-2.248" fill="#adadad"/>
    <path d="M230.784 349.639c.256.754 1.792 4.366 0 6.414-1.806 2.062-4.879 3.612-7.709 3.342 0 0 12.075 2.047 14.635 3.356 2.574 1.251 4.879-2.589 3.599-7.979s-10.525-5.133-10.525-5.133" fill="#69f"/>
    <path d="M256.142 343.965v13.113s-10.538.24-22.598-4.367c-12.075-4.636-14.393-6.94-14.393-6.94s-10.282 3.086-15.161 3.086-6.414-1.806-8.22-4.892c-1.792-3.086-4.879-9.216-5.134-11.022s5.66-8.235 12.332-8.235 15.672 5.39 15.672 5.39 4.11-4.11 10.795-.527c6.67 3.613 10.525 4.636 10.013 11.306 0 0 3.64 1.863 7.196 2.83 5.644 1.565 9.498.258 9.498.258" fill="#eee"/>
    <path d="M219.847 330.951c4.922 3.328 15.19 8.021 19.67 9.941 0 0 1.592-4.323-2.39-6.826-3.967-2.531-9.727-4.807-12.53-5.916-2.816-1.11-4.75 2.801-4.75 2.801m1.934 15.161c-6.926-6.215-11.292-8.56-16.441-9.586-5.134-1.024-11.15.868-10.965 4.808.171 3.94 5.106 8.05 9.685 7.523 4.566-.498 17.721-2.745 17.721-2.745" fill="#adadad"/>
    <path d="M221.781 332.416s.256-4.864 3.599-2.83c3.342 2.076 2.319 5.774 2.319 5.774l-5.918-2.944zm-4.607 12.089s-8.733-6.414-12.586-6.414c-3.87 0-7.71.241-7.467 3.186.27 2.973 5.405 4.253 8.235 4.75 2.815.54 11.818-1.522 11.818-1.522" fill="#69f"/>
    <path d="M287.801 346.112c3.854 3.783 9.643 11.663-2.787 14.08-12.459 2.418-7.595-9.798-4.993-11.832 2.645-2.049 7.78-2.248 7.78-2.248" fill="#adadad"/>
    <path d="M281.642 349.639c-.27.754-1.806 4.366 0 6.414 1.793 2.062 4.88 3.612 7.694 3.342 0 0-12.075 2.047-14.635 3.356-2.574 1.251-4.879-2.589-3.584-7.979 1.282-5.39 10.525-5.133 10.525-5.133" fill="#69f"/>
    <path d="M256.142 343.965v13.113s10.525.24 22.6-4.367c12.074-4.636 14.392-6.94 14.392-6.94s10.268 3.086 15.146 3.086c4.879 0 6.414-1.806 8.22-4.892 1.792-3.086 4.893-9.216 5.134-11.022.256-1.807-5.646-8.235-12.331-8.235-6.67 0-15.66 5.39-15.66 5.39s-4.11-4.11-10.794-.527c-6.685 3.613-10.525 4.636-10.013 11.306 0 0-3.641 1.863-7.196 2.83-5.644 1.565-9.498.258-9.498.258" fill="#eee"/>
    <path d="M292.565 330.951c-4.949 3.328-15.189 8.021-19.669 9.941 0 0-1.592-4.323 2.375-6.826 3.968-2.531 9.743-4.807 12.53-5.916 2.815-1.11 4.764 2.801 4.764 2.801m-1.934 15.161c6.927-6.215 11.293-8.56 16.442-9.586 5.133-1.024 11.136.868 10.965 4.808-.185 3.94-5.107 8.05-9.685 7.523-4.58-.498-17.722-2.745-17.722-2.745" fill="#adadad"/>
    <path d="M290.631 332.416s-.256-4.864-3.583-2.83c-3.357 2.076-2.32 5.774-2.32 5.774l5.903-2.944zm4.623 12.089s8.732-6.414 12.586-6.414c3.854 0 7.709.241 7.453 3.186-.257 2.973-5.405 4.253-8.22 4.75-2.832.54-11.82-1.522-11.82-1.522" fill="#69f"/>
    <path d="M213.618 330.894c6 2.332 15.672 12.829 0 6.172-15.687-6.698-9.26-9.785 0-6.172m20.764 12.331c6.813 1.863 18.233 3.84 24.662 3.84 6.414 0 10.525 6.685 2.56 5.916-7.965-.782-24.405-2.502-30.051-4.835-5.647-2.361-2.774-6.471 2.83-4.921m40.576.74c7.182-3.84 20.807-12.303 25.429-13.355 4.622-1.039 10.282-.513 9.77 1.806-.526 2.333-3.356 3.57-7.708 4.11-4.38.526-18.502 12.331-27.491 13.611-8.975 1.294 0-6.172 0-6.172" fill="#d3d3d3"/>
    <path d="M185.6 302.606c14.18-2.83 78.094-4.607 96.328-2.304 18.247 2.304 58.068 13.355 52.92 19.783-5.133 6.414-27.22 5.916-39.807 3.854-12.586-2.063-17.479 9.002-38.799 9.245-21.318.256-32.113-6.685-41.102-10.026-8.989-3.328-21.831-1.522-29.54.782-7.709 2.304-33.137-14.635 0-21.334" fill="#289400"/>
    <path d="M256.142 328.59v-97.109h-37.76v48.555c0 17.722 13.355 32.114 18.873 37.248 5.533 5.106 18.887 12.586 18.887 12.586m0-1.28v-97.109h37.747v48.555c0 17.722-13.34 32.114-18.873 37.248-5.519 5.106-18.872 12.586-18.872 12.586"/>
    <path d="M256.142 234.553h-33.906v45.525c0 15.915 11.989 30.392 16.953 35 4.963 4.608 16.952 11.307 16.952 11.307s11.989-6.699 16.939-11.306c4.964-4.608 16.967-19.086 16.967-35.001v-45.525h-33.905z" fill="#9ed7ff"/>
    <path d="M234.041 309.305h44.345a65.112 65.112 0 0 0 5.248-7.694h-54.841a63.495 63.495 0 0 0 5.248 7.694" fill="#006ac8"/>
    <path d="M234.041 309.305c2.005 2.531 3.869 4.522 5.22 5.774.91.867 2.063 1.749 3.343 2.702h27.221c1.28-.952 2.433-1.835 3.342-2.702 1.338-1.251 3.214-3.243 5.22-5.774h-44.346z" fill="#5ac800"/>
    <path d="M256.142 326.4s7.98-4.466 13.612-8.605h-27.235c5.63 4.139 13.623 8.605 13.623 8.605" fill="#ffd801"/>
    <path d="M225.066 293.888l31.146-27.748v-31.587h-33.906v45.525c.001 4.807 1.096 9.5 2.76 13.81" fill="#fff"/>
    <path d="M287.289 293.888c1.679-4.31 2.774-9.003 2.774-13.81v-45.525H256.17v31.587l31.118 27.748z" fill="#ffd83c"/>
    <path d="M251.776 260.651l-.156-.142a1.15 1.15 0 0 0-1.635 0l-.968.967-6.712-6.727c.782-1.066.881-2.375.143-3.1l-13.625-13.383c-.825-.825-2.39-.568-3.485.555-1.095 1.109-1.323 2.674-.498 3.485l13.625 13.398c.569.555 1.479.611 2.346.227l6.869 6.884-1.407 1.408a1.168 1.168 0 0 0 0 1.65l.156.142c.441.441 1.18.441 1.635 0l3.712-3.726a1.153 1.153 0 0 0 0-1.638" fill="#b34b00"/>
    <path d="M229.974 267.663c-.526.697-1.521.838-2.219.298s-.811-1.521-.285-2.219l14.578-19.043a1.569 1.569 0 0 1 2.205-.299c.697.54.825 1.521.298 2.219l-14.577 19.044z" fill="#782121"/>
    <path d="M247.979 249.472l-8.534-5.418 4.068-6.4 8.533 5.419-4.067 6.4z" fill="#d3d3d3"/>
    <path d="M284.445 265.33c.583.64 1.593.698 2.232.1a1.56 1.56 0 0 0 .1-2.219l-16.17-17.721a1.564 1.564 0 0 0-2.233-.1 1.56 1.56 0 0 0-.1 2.219l16.171 17.721z" fill="#782121"/>
    <path d="M264.306 252.117l7.325-6.955-5.22-5.49-7.325 6.94 5.22 5.505zm21.703-7.481l-19.143 18.362-4.792-5.02 19.128-18.362 4.807 5.02z" fill="#fff"/>
    <path d="M237.313 292.949s10.382 4.779 19.27 5.006c8.876.214 11.108-1.251 11.108-1.251l-2.546 4.906h-21.646l-6.186-8.661z" fill="#b34b00"/>
    <path d="M240.74 292.281l5.447 3.911h20.154l-2.745-13.326-17.407.825-5.449 8.59z" fill="#fff"/>
    <path d="M202.254 195.441c5.974-2.887 17.337-9.245 19.072-10.211 1.735-.953 4.623 2.502 1.934 3.669-2.702 1.152-16.953 9.628-21.006 11.548-4.039 1.935 0-5.006 0-5.006" fill="#892614"/>
    <path d="M181.447 308.025c-.767 5.633-4.11 11.306 2.32 13.085 6.413 1.806 7.622-4.168 5.873-9.529-1.765-5.362-8.193-3.556-8.193-3.556m22.358-.299c-1.024 2.361-4.11 7.524 2.063 6.855 6.158-.654 10.012-.611 13.866 0 3.854.64 6.172-3.555 2.047-3.385-4.096.171-7.196-1.337-8.746-5.162-1.536-3.812-9.23 1.692-9.23 1.692m-15.09-70.997l-1.835-9.955s-5.191 5.319-6.982 7.879c-1.793 2.573-5.362-1.153-7.44-2.83-2.047-1.664-4.365-6.8-4.878-11.15-.512-4.367-5.66-6.94-3.854-10.013 1.793-3.086 3.343-4.636 6.429-4.636 3.073 0 3.84 4.11 3.84 4.11s5.945.767 3.599 3.599c-5.774 7.01-1.195 8.206-1.195 8.206l3.499-4.353s-1.294-8.206 0-9.756c1.293-1.55 9.002-4.366 11.562-4.622 2.589-.257 5.66-2.574 4.509-4.11s-3.726-4.367-3.726-7.71-1.167-10.538 6.342-9.5c7.524 1.025 10.098 5.903 8.035 10.013-2.047 4.11-3.072 5.39-2.304 7.709.768 2.319.995 5.149 6.017 5.405 5.02.241 5.987 1.849 6.755 6.229.767 4.366.838 6.599.582 10.197-.256 3.599.029 4.879.029 4.879s4.594-.896 7.936-.384c3.343.513 10.269 4.765 10.269 4.765H219.22l-1.293 5.405s-1.807 2.063-2.574 1.793c-.768-.27-5.02-6.94-5.02-6.94l-1.906 6.94-19.713-1.17z" fill="#fbd44d"/>
    <path d="M187.349 236.103c-2.816 6.158-5.39 19.512-4.879 26.695.512 7.196 1.934 14.648-.071 21.305-1.978 6.698-4.808 25.7-4.808 25.7l7.196 4.892 7.965-5.149 1.28-30.051 4.552-14.876 4.437 10.766-1.792 33.394 13.099-.256s-1.04-30.834-1.294-35.698c-.241-4.879-2.076-19.782-2.703-24.405-.626-4.622-1.906-10.525-1.906-10.525l-21.076-1.793z" fill="#d3d3d3"/>
    <path d="M187.875 234.809s5.291 1.451 10.724 1.294c5.675-.172 11.491-1.95 11.62-1.294.27 1.294 0 5.66 0 5.66s-4.75-1.039-11.108 0c-6.342 1.024-8.917.767-11.235 0-2.305-.768-.001-5.66-.001-5.66" fill="#9b5f00"/>
    <path d="M200.391 177.778c5.66 0 8.121 4.366 7.865 8.988-.241 4.623-1.65 5.917-1.65 5.917s.925-5.007-2.034-2.574v-4.879s-6.428.513-8.605 0c-2.19-.512-3.47-1.024-3.47-1.024l-.896 3.47s-2.959-3.47-.127-6.812c2.816-3.343 7.595-3.086 7.595-3.086"/>
    <path d="M157.014 219.719c2.617-3.854 7.325-6.741 7.325-6.741s.767.967 3.47 0c2.702-.968 2.502-1.736 4.054-2.304 1.536-.583 1.337-2.319 1.337-2.319s9.06-3.669 12.914-5.405c3.84-1.721 8.277-4.422 8.277-4.422l1.735 1.35s0 2.888-1.536 3.854c-1.55.953-13.099 6.742-14.066 7.51-.968.767-3.086 1.55-3.086 1.55s-.953-1.935-1.92-1.153c-.968.753-1.55 2.872-1.55 2.872s-3.854 1.735-6.16 3.285c-2.318 1.536-5.005 6.94-7.523 8.093-2.49 1.155-4.239-4.705-3.271-6.17" fill="#892614"/>
    <path d="M212.409 188.9c1.407-1.351 6.599-4.993 7.865-3.073 1.251 1.92 3.171 12.516 9.344 11.55 0 0-3.655 3.27-6.742 4.807-3.086 1.55-8.547 1.934-8.547 1.934s-.071-5.007 0-7.894c.071-2.901-1.92-7.324-1.92-7.324" fill="#d3d3d3"/>
    <path d="M272.214 175.218c2.119-.968 23.026 10.21 26.539 11.747 3.512 1.55 5.646 7.709 9.116 9.06 3.456 1.351.568 3.655-1.55 2.502-2.119-1.152-6.742-.767-10.795-2.118-4.054-1.351-25.685-12.885-26.269-14.62-.569-1.722 2.959-6.572 2.959-6.572" fill="#b34b00"/>
    <path d="M330.382 308.025c.768 5.633 4.11 11.306-2.318 13.085-6.414 1.806-7.609-4.168-5.845-9.529 1.735-5.362 8.163-3.556 8.163-3.556m-22.415-.299c1.024 2.361 4.097 7.524-2.062 6.855-6.159-.654-10.012-.611-13.866 0-3.854.64-6.159-3.555-2.048-3.385 4.096.171 7.211-1.337 8.746-5.162 1.537-3.812 9.23 1.692 9.23 1.692m15.091-70.997l1.835-9.955s4.125 4.139 5.93 6.712c1.793 2.56 5.988 2.845 8.022 1.167 2.076-1.664 4.835-9.63 5.347-13.98.498-4.367 5.377-3.6 3.57-6.685-1.792-3.087-3.697-5.063-6.783-5.063-3.086 0-3.2 1.209-3.2 1.209s-3.925 1.039-2.389 4.38c1.536 3.327-.455 7.807-.455 7.807l-3.058-2.617s-.967-9.828-2.26-11.364c-1.31-1.536-6.742-4.879-9.302-5.134-2.574-.256-5.66-2.573-4.509-4.11 1.166-1.536 3.726-4.366 3.726-7.709s1.18-10.538-6.342-9.5c-7.538 1.024-10.098 5.903-8.035 10.013 2.047 4.11 1.721 5.66.968 7.965-.783 2.304.34 4.892-4.68 5.149-5.02.241-6.698 2.887-7.48 7.253-.768 4.367-.114 5.575.142 9.174.256 3.599-.029 4.879-.029 4.879s-4.594-.896-7.936-.384c-3.342.513-10.269 4.765-10.269 4.765h16.683l1.294 5.405s1.792 2.063 2.573 1.793c.783-.27 5.02-6.94 5.02-6.94l1.906 6.94 19.71-1.17z" fill="#892614"/>
    <path d="M324.424 236.103c2.816 6.158 5.39 19.512 4.879 26.695-.513 7.196-1.934 14.648.07 21.305 1.977 6.698 4.808 25.7 4.808 25.7L327 314.695l-7.979-5.149-1.28-30.051-4.551-14.876-4.438 10.766 1.807 33.394-13.113-.256s1.024-30.834 1.28-35.698c.27-4.879 2.091-19.782 2.716-24.405.64-4.622 1.92-10.525 1.92-10.525l21.063-1.793z" fill="#d3d3d3"/>
    <path d="M323.882 234.809s-5.276 1.451-10.708 1.294c-5.66-.172-11.506-1.95-11.634-1.294-.256 1.294 0 5.66 0 5.66s4.779-1.039 11.121 0c6.343 1.024 8.918.767 11.221 0 2.32-.768 0-5.66 0-5.66" fill="#9b5f00"/>
    <path d="M311.381 177.778c-5.632 0-8.121 4.366-7.865 8.988.256 4.623 1.593 5.917 1.593 5.917s-1.124-5.007 1.962-2.574v-4.879s6.485.513 8.675 0 3.513-1.024 3.513-1.024l.896 3.47s2.959-3.47.142-6.812c-2.83-3.343-7.58-3.086-7.58-3.086"/>
    <path d="M315.875 198.543l21.106 11.335s-2.801-.014-2.745 2.417c.071 2.433-17.28-8.164-17.28-8.164l-1.081-5.588zm29.526 16.938l6.556 2.119s.783-2.119 2.688-1.066c1.934 1.066-.953 9.642-2.304 9.5-1.337-.156-2.887-2.261-3.086-3.996-.185-1.736-5.959-4.054-5.959-4.054l2.105-2.503z" fill="#b34b00"/>
</svg>
