<svg xmlns="http://www.w3.org/2000/svg" viewBox="0 0 512 512">
    <path d="M56.889 71.111C25.472 71.111 0 96.582 0 128v256c0 31.418 25.473 56.889 56.889 56.889h85.333V71.11H56.89zm398.222 0h-85.334V440.89h85.334C486.53 440.889 512 415.416 512 384V128c0-31.417-25.473-56.889-56.889-56.889" fill="#d52b1e"/>
    <path d="M142.222 440.889h227.555V71.11H142.224v369.78z" fill="#eee"/>
    <path d="M264.746 314.496c17.039 1.978 32.313 3.755 49.338 5.703l-4.338-14.251c-.697-2.49.313-5.234 2.261-6.755l49.48-40.307-10.24-4.821c-4.51-1.607-3.257-4.152-1.636-10.269l7.553-27.533-28.743 6.072c-2.816.413-4.679-1.365-5.106-3.073l-3.698-12.956-22.727 25.515c-3.229 4.082-9.771 4.082-7.736-5.347l9.714-51.698-13.028 6.755c-3.655 2.048-7.31 2.389-9.359-1.266l-17.977-33.65-.014.839v-.839l-17.991 33.65c-2.048 3.655-5.689 3.314-9.344 1.266l-13.027-6.755 9.7 51.698c2.047 9.429-4.51 9.429-7.738 5.347l-22.728-25.515-3.697 12.957c-.426 1.706-2.304 3.485-5.106 3.072l-28.729-6.072 7.553 27.533c1.607 6.115 2.858 8.662-1.65 10.269l-10.24 4.821 49.478 40.307c1.963 1.52 2.944 4.266 2.248 6.755l-4.338 14.25c17.053-1.948 32.328-3.725 49.365-5.702 1.508 0 2.489.839 2.489 2.574l-3.044 52.679h13.611l-3.043-52.679c-.002-1.735.98-2.574 2.487-2.574" fill="#d52b1e"/>
</svg>
