<svg xmlns="http://www.w3.org/2000/svg" viewBox="0 0 512.043 512.043">
    <path d="M56.889 440.91H455.11c31.418 0 56.889-25.473 56.889-56.889v-224L45.725 439.786c3.612.712 7.337 1.124 11.164 1.124m80.071-213.049l-43.52-33.28-43.52 33.28 16.64-53.76-43.52-33.28H76.8l16.64-53.76 16.64 53.76h53.76l-43.52 33.28 16.64 53.76zM455.111 71.133H56.89C25.473 71.132 0 96.605 0 128.02v224L466.275 72.256c-3.611-.711-7.337-1.123-11.164-1.123" fill="#007fff"/>
    <path d="M110.08 140.821l-16.64-53.76-16.64 53.76H23.04l43.52 33.28-16.64 53.76 43.52-33.28 43.52 33.28-16.64-53.76 43.52-33.28h-53.76zM45.725 439.786L512 160.021v-19.2L26.639 432.035c5.76 3.641 12.16 6.373 19.086 7.751m420.55-367.53L0 352.021v19.2L485.361 80.008c-5.76-3.642-12.16-6.373-19.086-7.752" fill="#f7d618"/>
    <path d="M485.405 80.007L.043 371.221v12.8c0 20.266 10.68 37.945 26.638 48.014l485.362-291.214v-12.8c0-20.266-10.682-37.945-26.638-48.014" fill="#ce1021"/>
</svg>
