<svg xmlns="http://www.w3.org/2000/svg" viewBox="0 0 512 512">
    <path d="M118.571 203.264l-26.766-19.441-26.766 19.44 10.226-31.46-26.768-19.454H81.58l10.226-31.46 10.226 31.46h33.081l-26.766 19.456 10.225 31.459zM184.89 71.11h-128C25.472 71.111 0 96.583 0 128v128h184.889V71.111z" fill="#1f429b"/>
    <path d="M455.111 71.111H184.89V256H512V128c0-31.418-25.473-56.889-56.889-56.889" fill="#eee"/>
    <path d="M0 256v128c0 31.418 25.473 56.889 56.889 56.889H455.11c31.42 0 56.89-25.473 56.89-56.889V256H0z" fill="#d42d27"/>
    <path d="M102.03 152.349l-10.226-31.46-10.211 31.46H48.497l26.767 19.441-10.226 31.474 26.766-19.457 26.766 19.457-10.226-31.474 26.766-19.441h-33.08z" fill="#fff"/>
</svg>
