<svg xmlns="http://www.w3.org/2000/svg" viewBox="0 0 512 512">
    <path d="M512 384c0 31.418-25.473 56.889-56.889 56.889H56.89C25.472 440.889 0 415.417 0 384V128c0-31.418 25.472-56.889 56.889-56.889H455.11C486.53 71.111 512 96.584 512 128v256z" fill="#002b7f"/>
    <path d="M512 384H0V128h512v256z" fill="#eee"/>
    <path d="M512 327.111H0V184.89h512v142.22z" fill="#ce1225"/>
    <path d="M170.666 256c0 31.418-22.286 56.889-49.777 56.889S71.11 287.417 71.11 256s22.287-56.889 49.778-56.889 49.777 25.471 49.777 56.889" fill="#eee"/>
    <path d="M146.047 277.334c0 11.776-11.263 29.567-25.158 29.567s-25.145-17.792-25.145-29.567c0-11.79 11.25-21.334 25.145-21.334s25.158 9.543 25.158 21.334" fill="#f4cb58"/>
    <path d="M156.445 277.334c0 11.776-15.915 21.334-35.555 21.334s-35.555-9.558-35.555-21.334c0-11.79 15.915-21.334 35.555-21.334s35.555 9.543 35.555 21.334" fill="#dca841"/>
    <path d="M142.222 227.555c0 7.851-9.542 14.223-21.333 14.223s-21.334-6.372-21.334-14.223 9.542-14.223 21.334-14.223 21.333 6.373 21.333 14.223" fill="#89c5e4"/>
    <path d="M142.222 263.111c0 19.642-9.542 35.555-21.333 35.555s-21.334-15.915-21.334-35.555 9.542-35.555 21.334-35.555 21.333 15.914 21.333 35.555" fill="#088930"/>
    <path d="M142.222 234.666c0 3.925-9.542 7.111-21.333 7.111s-21.334-3.186-21.334-7.11c0-3.926 9.542-7.112 21.334-7.112s21.333 3.186 21.333 7.111" fill="#dca841"/>
    <path d="M142.222 256c0 15.701-9.542 28.445-21.333 28.445S99.555 271.701 99.555 256c0-15.715 9.542-21.305 21.334-21.305s21.333 5.59 21.333 21.305" fill="#89c5e4"/>
    <path d="M142.222 265.611c0 3.925-9.542 7.112-21.333 7.112s-21.334-3.187-21.334-7.112c0-3.925 9.542-7.111 21.334-7.111s21.333 3.186 21.333 7.111" fill="#dca841"/>
</svg>
