<svg xmlns="http://www.w3.org/2000/svg" viewBox="0 0 512 512">
    <path d="M455.111 71.111H56.889c-14.332 0-27.416 5.312-37.42 14.06l-.001-.001C7.569 95.576 0 110.847 0 127.887v256.226c0 17.04 7.569 32.311 19.469 42.716l.001-.001c10.003 8.748 23.088 14.061 37.42 14.061h398.222C486.528 440.889 512 415.417 512 384V128c0-31.417-25.472-56.889-56.889-56.889zM196.923 213.333l-98.46-71.111 98.46 71.111z" fill="#002a8f"/>
    <path d="M512 142.222H98.463l98.46 71.111H512zM196.923 298.667l-98.461 71.111H512v-71.111z" fill="#eee"/>
    <path d="M98.463 142.222L19.468 85.171C7.569 95.576 0 110.847 0 127.887v256.226c0 17.04 7.569 32.311 19.469 42.716l78.994-57.051 98.46-71.111L256.003 256l-59.079-42.667-98.461-71.111z" fill="#cf142b"/>
    <path d="M106.602 264.554l28.516-20.651H99.875L88.924 210.31l-10.965 33.593H42.673l28.53 20.665-10.965 33.579 28.658-20.764 28.644 20.764-10.938-33.593z" fill="#fff"/>
</svg>
