<svg xmlns="http://www.w3.org/2000/svg" viewBox="0 0 512 512"><path d="M455.111 71.111H56.89c-14.45 0-27.591 5.433-37.633 14.308L248.89 256H512V128c0-31.418-25.473-56.889-56.889-56.889" fill="#6ab2e7"/><path d="M455.111 440.889H56.89c-14.45 0-27.591-5.433-37.633-14.308L248.89 256H512v128c0 31.418-25.473 56.889-56.889 56.889" fill="#12ad2b"/><path d="M19.669 426.24l229.22-170.282L19.258 85.376C7.48 95.801 0 110.99 0 127.957v248.89c0 21.048 7.651 38.158 19.669 49.393" fill="#eee"/><path d="M92.445 206.223l11.748 36.167h38.03l-30.763 22.343 11.748 36.167-30.763-22.342L61.683 300.9l11.747-36.167-30.762-22.343h38.03l11.747-36.167z" fill="#d7141a"/></svg>