<svg xmlns="http://www.w3.org/2000/svg" viewBox="0 0 512 512">
    <path d="M455.111 71.111H213.334v156.445H512V128c0-31.418-25.473-56.889-56.889-56.889M213.334 440.889H455.11c31.418 0 56.889-25.473 56.889-64v-92.445H213.334v156.445zM0 284.445v92.445c0 38.528 25.473 64 56.889 64h99.555V284.445H0zM156.445 71.111H56.889C25.472 71.111 0 96.582 0 128v99.555h156.445V71.111z" fill="#c60c30"/>
    <path d="M213.334 71.111h-56.889v156.445H0v56.889h156.445V440.89h56.889V284.445H512v-56.889H213.334V71.111z" fill="#eee"/>
</svg>
