<svg xmlns="http://www.w3.org/2000/svg" viewBox="0 0 512 512"><path d="M512 384c0 31.418-25.473 56.889-56.889 56.889H56.89C25.472 440.889 0 415.417 0 384V128c0-31.418 25.472-56.889 56.889-56.889H455.11C486.53 71.111 512 96.584 512 128v256z" fill="#002d62"/><path d="M455.111 71.111H284.445v156.445H512V128c0-31.418-25.473-56.889-56.889-56.889" fill="#dd2e44"/><path d="M56.889 440.889h170.666V284.444H0V384c0 31.418 25.473 56.889 56.889 56.889" fill="#ce1225"/><path d="M512 213.334H298.666V71.11h-85.334v142.223H0v85.334h213.334V440.89h85.334V298.668H512v-85.334z" fill="#eee"/><g fill="#002d62"><path d="M256.285 226.702h-27.264l4.765 4.594v23.538h22.5v-28.132zM256.285 282.738c3.626-3.954 6.101-3.798 16.355-3.798 5.475 0 6.115-3.713 6.115-10.965V254.89h-22.471v27.848z"/></g><g fill="#ce1225"><path d="M256.285 282.738c-3.626-3.954-6.101-3.798-16.37-3.798-5.49 0-6.13-3.713-6.13-10.965V254.89h22.5v27.848zM256.285 226.702h27.235l-4.765 4.594v23.538h-22.471v-28.132z"/></g><g fill="#fff"><path d="M260.195 279.851v-53.077h-7.78v53.12c1.323.455 2.731 1.521 3.897 2.859.997-1.21 2.647-2.447 3.883-2.902"/><path d="M233.814 258.716h44.956v-7.78h-44.956v7.78z"/></g><path d="M256.285 249.685l14.762-15.744v4.765l2.745-2.304v26.325c0 9.772-15.402 8.804-17.507 4.295-2.119 4.51-17.521 5.475-17.521-4.295v-26.325l2.745 2.304v-4.765l14.776 15.744z" fill="#002d62"/><path d="M256.285 266.567c-7.083 3.812-11.676.812-11.676-2.816v-4.522c-2.745 0-5.845-1.408-5.845-2.304v-3.882c0 1.137 4.607 2.205 5.845 2.205v-13.625l2.56 2.047v-3.555l3.897 3.983v2.8l-2.574-2.19v11.52c2.66 0 4.737 1.593 7.794 1.593 3.044 0 5.12-1.592 7.78-1.592v-11.52l-2.56 2.19v-2.801l3.883-3.983v3.555l2.573-2.047v13.625c1.238 0 5.832-1.067 5.832-2.205v3.882c0 .896-3.1 2.304-5.831 2.304v4.522c-.002 3.627-4.61 6.628-11.678 2.817V262.6c3.797 2.205 7.78 2.731 7.78.355v-2.845c-2.66 0-4.736 1.593-7.78 1.593-3.058 0-5.134-1.593-7.794-1.593v2.845c0 2.375 3.996 1.849 7.794-.355v3.968z" fill="#fff"/><g fill="#ce1225"><path d="M261.533 244.11v2.788l2.56-2.177v11.52c-2.66 0-4.722 1.579-7.78 1.579s-5.134-1.579-7.794-1.579v-11.52l2.589 2.176v-2.787l5.205 5.589 5.22-5.589z"/><path d="M238.791 256.939v5.788c0 9.772 15.403 8.79 17.521 4.282 2.105 4.508 17.508 5.49 17.508-4.282v-5.788c0 .867-3.1 2.29-5.831 2.29v4.522c0 3.613-4.608 6.614-11.676 2.816-7.083 3.798-11.677.797-11.677-2.816v-4.522c-2.745 0-5.845-1.423-5.845-2.29"/></g><path d="M262.244 217.344c.256-.711.54-1.735.796-2.66a55.711 55.711 0 0 0-6.728-.426c-2.26 0-4.707.17-6.727.426.256.925.526 1.949.796 2.66.171.54-.881 1.862-4.679 1.635-3.242-.185-8.007.127-12.146.838.698 1.067.953 1.28.868 2.105-.085.925-2.262 1.793-6.073 2.333-3.797.526-5.262 4.451-6.571 10.113-1.494-.627-3.869-1.238-5.334-1.452.854-3.668 3.798-11.988 7.481-12.842-.896-1.991-.682-2.986 2.745-4.58 3.713-1.735 10-2.788 16.925-3.044-.426-1.679 0-2.361 2.19-3.285 1.863-.796 4.822-1.407 10.525-1.407s8.675.61 10.525 1.407c2.19.925 2.618 1.608 2.19 3.285 6.913.256 13.2 1.309 16.91 3.044 3.428 1.592 3.642 2.589 2.745 4.58 3.67.854 6.628 9.174 7.482 12.842-1.452.214-3.84.825-5.305 1.452-1.309-5.66-2.802-9.587-6.599-10.113-3.798-.54-5.988-1.407-6.073-2.333-.1-.825.185-1.038.882-2.105-4.125-.71-8.903-1.023-12.132-.838-3.812.229-4.865-1.094-4.693-1.635" fill="#002d62"/><g fill="#996b38"><path d="M256.285 251.023l18.105-15.488.399.455-18.503 15.829v-.796zM256.285 249.288l15.289-16.598.441.441-15.73 17.067v-.91zM256.285 247.011l12.146-16.767.484.355-12.629 17.465v-1.053zM256.285 251.023l-18.105-15.488-.399.455 18.503 15.829v-.796z"/><path d="M256.285 249.288l-15.289-16.598-.455.441 15.744 17.067v-.91zM256.285 247.011l-12.16-16.767-.498.355 12.658 17.465v-1.053z"/></g><g fill="#ffce46"><path d="M274.119 235.293l2.602-1.365-1.735 2.375c-.141.113-.995-.91-.867-1.01M271.217 232.519l2.447-1.664-1.465 2.546c-.128.156-1.095-.769-.981-.882M268.131 230.072l2.233-1.948-1.166 2.731c-.113.156-1.165-.64-1.067-.783M238.493 235.293l-2.618-1.365 1.749 2.375c.157.113.996-.91.868-1.01M241.322 232.519l-2.417-1.664 1.451 2.546c.128.156 1.08-.769.966-.882M244.48 230.072l-2.219-1.948 1.138 2.731c.129.156 1.181-.64 1.081-.783"/></g><path d="M251.919 247.069c.711-.583 2.716-1.55 3.897-.925.91-1.053 3.073-1.963 4.253-1.352l2.502 7.737c-.697.484-2.105.241-2.972.782-.256.143-.925.526-1.053.811-.426-.185-1.394-.085-2.062.143-.626.185-1.066.839-1.806.939l-2.76-8.135" fill="#fff"/><path d="M251.919 247.069c.711-.583 2.716-1.55 3.897-.925.91-1.053 3.073-1.963 4.253-1.352l2.502 7.737c-.697.484-2.105.241-2.972.782-.256.143-.925.526-1.053.811-.426-.185-1.394-.085-2.062.143-.626.185-1.066.839-1.806.939l-2.76-8.135" fill="none" stroke="#000" stroke-width=".00875" stroke-linecap="round" stroke-linejoin="round"/><g fill="#549334"><path d="M280.278 288.426c2.318-.014 5.39.611 6.357.968-.981-.783-2.46-1.537-4.054-2.119 2.134.341 2.66.698 4.082 1.052.995.285 1.137.384 1.18 1.807.013.952.013 2.19.597.198.54-1.792.74-2.047-.199-2.645-1.023-.697-2.303-1.337-3.712-1.92 2.731.712 4.935 1.608 6.272 2.46a10.54 10.54 0 0 0-3.356-3.257c1.593.37 3.726 1.237 5.22 2.034-.711-.953-1.962-2.532-3.47-3.243 2.418.513 5.006 1.309 6.386 2.091-1.337-1.777-2.887-3.342-4.892-3.953 2.687.327 5.234 1.137 6.386 1.835-1.579-1.508-3.2-3.073-4.807-3.613 2.205.285 4.252.868 5.447 1.408-1.507-1.508-4.025-2.774-6.4-3.129 1.679.029 3.798.185 5.604.555-1.508-.968-4.096-1.621-5.234-1.536 2.745-.627 5.831-.54 9.201.568-1.407-.896-3.882-1.89-6.3-2.432 1.338-.071 3.285-.399 4.538-.214-1.351-.455-4.679-1.124-6.173-1.039 2.703-.796 5.39-1.308 7.012-1.62-2.83-.172-6.017 0-8.847.468 3.129-2.66 5.405-2.66 7.439-3.001 2.02-.355 3.541-.797 1.436-1.01-1.365-.128-2.475-.242-3.427-.27 2.205-.654 4.992-2.077 5.916-2.56.925-.484 3.171-2.134.74-1.024s-5.916 1.28-9.06 1.635c-1.351.156-2.332.412-3.271.925a96.176 96.176 0 0 1 5.632-3.001c1.992-.968 1.565-1.294 3.314.711.839.967.783 0-.312-2.531-.882-1.963-1.65-1.053-3.555-.299-.712.285-1.635.682-2.674 1.251 1.109-1.322 4.949-5.76 5.589-6.514.668-.753 1.692.128 3 .968 1.252.854.812.042-.383-1.338-1.209-1.35-1.777-1.578-2.56-.91-.782.67-4.636 3.1-6.77 5.134 3.925-3.726 8.476-7.907 9.515-9.087a44.261 44.261 0 0 0-6.072 3.953c.626-.896 1.763-2.53 2.36-3.228-.895.611-2.16 1.266-2.872 1.933 1.053-1.877 2.162-3.598 2.319-3.897.241-.484.498-.598.868-.64.355-.029.838-.071 1.977-.171 1.138-.085.698-.328.199-.455-3.158-.825-3.029-.469-3.74.198a24.194 24.194 0 0 0-1.92 2.29c.782-2.475 3.171-4.75 3.555-5.46-2.46 1.364-3.769 2.445-4.665 3.554 1.137-1.82 4.665-4.607 5.746-5.731-1.095.455-3.414 1.607-4.025 2.319a43.337 43.337 0 0 0 1.664-3.243c-1.934 1.238-3.343 2.873-4.451 4.75.113-.455.298-1.137.483-1.692.627-1.209 2.333-2.873 3.214-3.854.896-.968 1.095-1.238 3.613.355a10.136 10.136 0 0 0-1.294-2.475c-.725-1.095-1.066-.626-2.063.214-.555.441-1.081 1.066-2.062 1.933 1.081-2.787 2.346-5.773 3.015-7.722-1.806 1.764-3.214 4.195-4.353 6.897.085-1.948 1.153-5.916.982-7.965-.868 1.067-1.764 2.888-2.205 5.007-.058-2.148-.072-4.808-.612-6.329.157 1.322-1.208 4.352-1.565 6.471-.853-2.02-1.792-3.967-2.332-5.319.042 1.067.327 3.485.796 6.372-.711-2.219-3.3-4.509-3.385-6.287-.071 2.56 1.778 6.913 1.978 8.15.028.398.185.994.327 1.678-.881-1.422-2.986-3.982-3.541-5.66 0 1.052.412 2.888.597 4.054-1.108-1.024-1.877-.426-3.755 3.115.612-.199 1.309-.981 1.849-1.338.526-.355 1.024-.74 1.593.185.71 1.167 2.617 3.827 3.668 7.254-.312-.995-2.076-3.285-2.716-4.295.143.484.469 2.076.669 3.001-.839-2.318-1.735-3.967-2.375-4.906-.058 1.153.796 4.395.939 5.774-.513-1.195-1.067-2.233-1.508-3.115.341.925.811 4.167.754 5.817-.725-1.308-1.465-2.375-2.02-3.171.455 1.338.854 3.996.925 5.504a11.31 11.31 0 0 0-.64-1.153c-.896-1.436-1.465 1.138-1.991 2.46-.54 1.323-.242 1.153.37.228.91-1.408.796-1.223 1.337.312.355.91 1.294 3.087 2.076 5.917-.767-1.238-1.835-2.915-2.403-4.14-.583-1.25-.627-1.18 0 1.295.398 1.607 1.393 4.593.995 7.78-.57-2.005-1.31-4.438-2.12-6.614.115 1.365.27 3.996.27 5.106-.34-.654-.724-1.166-1.18-1.565.583 1.863.726 5.091.726 7.111-.313-1.28-.754-2.475-1.195-3.256-.043 1.451.37 4.906.725 6.485-.313-1.222-.768-2.417-1.28-3.371.285 1.65.399 4.352-.085 6.115-.085-.896-.355-1.735-.683-2.674-.142.811-.327 3.214-.925 4.266.328-1.536.355-2.943.228-3.811-.455 1.664-1.039 3.2-1.706 4.466.213-.767.512-2.275.597-3.74-.185.925-.811 1.679-1.166 2.475.171-1.308.214-2.403.156-2.93-.669 2.233-1.621 3.812-2.901 5.562.682-1.793.854-3.698.854-4.85-1.138 2.005-1.223 2.872-3.044 5.262.952-1.991.782-3.669.582-4.622-.142.512-.767 1.99-1.678 3.583-.172-1.123.085-3.953.44-4.75-.782.527-1.848 2.048-1.848 3.187-.285-1.153-.74-2.177-1.422-2.915.61 3.953.398 7.38-1.992 8.973-5.291 3.47-9.756 11.165-16.241 14.023.455.27 1.508 1.152 2.048 1.777 6.186-2.731 10.353-8.889 15.146-12.331 2.275-1.224 7.495 1.521 13.255.029 2.219-.569 6.542.711 8.462 1.493-.87-1.217-2.618-2.198-5.733-2.81"/><path d="M235.734 284.445c1.066-.185 3.982-.156 6.3.228-1.536-.583-.555-4.24-2.418-5.604 1.906.881 2.716.569 3.726.74.1.029.214.057.355.1-.085-.469.058-1.55.442-2.119.256.981 1.337 1.18 2.247 1.891.143.1.299.242.469.399.029-1.152 1.693-2.645 1.891-3.414.341 1.024 1.294 1.749 1.621 3.2.882 3.713-2.033 4.509-.967 7.168 5.291 3.47 9.999 10.396 16.455 13.255-.455.27-1.507 1.152-2.034 1.777-8.576-3.782-14.109-14.791-21.959-15.331-.184.085-.398.156-.597.241-1.949.939-3.755 1.65-5.49 1.28-1.721-.341-3.271.185-4.694.839 2.192-3.327 3.315-4.295 4.653-4.65-1.124.441-3.328.783-4.949.1-.967 2.346-3.229 3.015-5.262 3.271-2.034.285-3.542 1.109-4.168 2.233-.214-1.039-.127-2.83.143-3.343a10.97 10.97 0 0 0-3.243.072c1.209-.47 2.304-3.898 5.263-4.31-.54-.37-1.04-.795-1.437-1.38.698.4 1.323-.042 2.603-.398a9.302 9.302 0 0 1 2.602-.27c-1.01-.697-1.763-1.977-1.948-2.901-.91 2.759-3.925 3.499-5.704 3.626-2.119.128-3.143.825-3.541 1.408 0-1.31.426-2.375.925-3.087-.897.085-1.693.114-2.162.299.384-2.047 1.38-3.257 2.433-3.925-1.294-.312-3.086-2.574-3.171-4.195 1.01 1.18 5.22-.042 7.267 2.248-1.294-1.11-1.977-2.503-2.105-4.082.484.627 1.479.654 2.475 1.209-1.38-5.006-4.85-3.897-6.897-5.475-2.603-2.047-1.55-5.589-3.627-7.267.925 0 1.664.057 2.29.213-.455-1.081-.426-3.228-.398-4.508.497 1.592 2.26 1.38 3.37 2.93.186-.442.286-.882.215-1.294.796.967 1.55 1.777 2.005 2.66-.128-1.664.54-2.66 1.052-3.115-.042.597.143 2.062.811 3.385.654 1.322.925 2.83.427 5.262-.455 2.304.483 4.082 1.663 5.774.128-1.01-.013-3.967-.327-4.892-.313-.925-.455-2.475-.143-4.195.185.697 1.024 1.72 1.92 2.602.214.228.384.526.484.881.285-.626.484-1.123.698-1.65.27-.796-3.414-2.133-3.2-6.286-2.475-1.38-4.708-3.214-5.334-6.527.285.27.767.483 1.365.71-1.365-2.02-1.721-4.593-1.238-5.873.313 1.053 1.394 1.338 2.56 2.161.299-2.205-2.047-3.811-1.977-5.931.085-3.356 1.849-3.399 2.46-5.49.484.783.839 1.494 1.095 2.233.399-1.408 2.105-2.447 2.134-3.513.896 1.28 1.536 2.716 1.052 4.168 1.153-.328 2.475-.085 3.214.44-2.176.4-2.034 3.002-3.456 3.656-1.423.669-4.082 2.546-3.414 5.361.896.968 1.706 2.518 2.176 5.178.426.426.811.925 1.081 1.52.37-.597.683-1.308.953-2.09-.128-1.11-1.608-2.347-1.991-3.414-.54-1.436.74-3.626.227-5.575.698.27 1.891.711 2.731 1.764.654-1.522 1.92-2.49 1.963-5.078.526 1.01.952 2.119 1.251 3.214.783-1.066 2.19-2.29 3.826-2.774-1.023 1.764-.668 3.499-.711 4.964-.042 1.436-.085 3.882-2.205 5.519-2.119 1.65-2.674 2.105-3.129 6.228.897-1.948 3.058-3.456 3.129-4.508.441 1.862.796 3.285.74 4.537.711-.839 1.991-1.309 3.499-1.38-1.053 1.223-1.863 6.045-4.694 6.614-2.816.582-3.954 3.441-4.721 4.607-.981 1.452-1.209 2.589-.241 4.523-.043-1.55.285-3.229.767-4.21.939-1.891 2.959-2.66 3.1-3.983.256 1.394.399 2.503.355 3.428 1.423-2.873 4.423-2.048 5.263-2.888-.583.74-1.195 1.807-1.465 3.357-.27 1.536-1.452 3-3.143 3.797-1.309.626-2.446.725-3.129 2.076-.171.783.513 1.465.513 2.66.071-.441.199-.838.399-1.137.81-1.166 1.337-2.048 1.337-2.703 1.764 1.764 2.161 3.499 1.593 5.348-.57 1.862-.995 3.385.156 4.85.682.582 1.479 1.024 2.219 1.237.925-.938-.172-2.076-1.224-3.171-1.066-1.095-.981-3.697-.1-4.765.896-1.109 1.65-2.232 1.607-3.186.654.569 1.365 1.607 1.579 2.176.341-.854.839-1.607 1.508-2.005.142 1.55 1.152 2.261 1.152 3.94.455-1.01 1.195-1.891 2.219-2.219-.228.839.54 2.148.669 2.959.085.64 0 1.365-.313 2.161-.312.839-.867 1.693-2.176 2.347-.399.198-1.039.412-1.693.697 1.522-.199 4.267.313 4.879 1.423-1.155-.413-3.587.483-4.781.967"/></g><g fill="#ce1225"><path d="M250.624 294.101c-1.166.143-2.489.341-3.385.783.142.582.441 2.716.441 3.186.654-.441 2.063-.91 2.944-.995v-2.974z"/><path d="M255.146 294.229c-2.93-1.081-4.807-.611-4.807.285v2.674c0 .455 1.023 1.023 4.807.113v-3.072zM262.072 294.101c1.167.143 2.504.341 3.385.783-.127.582-.426 2.716-.426 3.186-.654-.441-2.076-.91-2.959-.995v-2.974z"/><path d="M257.565 294.229c2.944-1.081 4.808-.611 4.808.285v2.674c0 .455-1.024 1.023-4.808.113v-3.072z"/><path d="M256.285 293.831c1.479 0 1.849.426 1.849 1.878 0 1.479-.37 1.92-1.849 1.92-1.494 0-1.863-.441-1.863-1.92 0-1.451.37-1.878 1.863-1.878"/><path d="M256.285 291.343c8.064 0 14.549.483 19.712 1.592-.626.484-1.18 1.124-1.592 1.451-.469.399-.299 1.494.767 2.46 1.067.91 3.642 1.721 6.215.598.498-.228.995-.455 1.494-.654-.725.611-1.322 1.407-1.01 2.176 1.536 3.399 7.395-1.066 10.88 3.229.939-1.195 3.271-3.684 4.253-4.622-1.992-2.404-4.765-2.005-7.054-1.82.825-1.38.925-2.433-.91-3.74-.74-.54-3.314-.455-5.675.61.426-1.108.355-2.93-3.3-4.537-5.561-2.502-15.019-3.015-23.78-3.015-8.761 0-18.233.513-23.808 3.015-3.655 1.608-3.74 3.428-3.285 4.538-2.375-1.067-4.935-1.153-5.703-.612-1.82 1.31-1.707 2.362-.882 3.74-2.303-.185-5.09-.582-7.068 1.82.967.94 3.327 3.428 4.252 4.623 3.485-4.295 9.359.171 10.866-3.229.342-.767-.256-1.565-.967-2.176.469.199.967.426 1.465.654 2.56 1.124 5.177.312 6.229-.598 1.081-.967 1.251-2.062.767-2.46-.426-.327-.952-.967-1.607-1.451 5.177-1.109 11.662-1.593 19.741-1.593"/></g></svg>