<svg xmlns="http://www.w3.org/2000/svg" viewBox="0 0 512 512"><path d="M56.889 71.111C25.472 71.111 0 96.582 0 128v256c0 31.418 25.473 56.889 56.889 56.889H256V71.11H56.889z" fill="#006233"/><path d="M455.111 71.111H256V440.89h199.111C486.53 440.889 512 415.416 512 384V128c0-31.417-25.473-56.889-56.889-56.889" fill="#eee"/><g fill="#d20f34"><path d="M284.445 341.334c-47.133 0-85.334-38.201-85.334-85.334s38.201-85.334 85.334-85.334c18.645 0 35.84 6.045 49.877 16.185-19.17-21.675-47.103-35.427-78.32-35.427-57.757 0-104.577 46.82-104.577 104.576s46.82 104.59 104.576 104.59c31.218 0 59.165-13.752 78.322-35.456-14.024 10.155-31.22 16.2-49.878 16.2"/><path d="M359.851 259.271l-34.687 7.993-3.143 35.456-18.319-30.521L269 280.178l23.381-26.867-18.304-30.521 32.754 13.938 23.381-26.867-3.128 35.47 32.767 13.94z"/></g></svg>