<svg xmlns="http://www.w3.org/2000/svg" viewBox="0 0 512 512">
    <path d="M512 384c0 31.418-25.473 56.889-56.889 56.889H56.89C25.472 440.889 0 415.417 0 384V128c0-31.418 25.472-56.889 56.889-56.889H455.11C486.53 71.111 512 96.584 512 128v256z" fill="#141414"/>
    <path d="M512 327.111H0V184.89h512v142.22z" fill="#eee"/>
    <path d="M455.111 71.111H56.89C25.472 71.111 0 96.582 0 128v56.889h512V128c0-31.417-25.473-56.889-56.889-56.889" fill="#ce1225"/>
    <path d="M209.778 306.66s.227 3.555 3.327 5.334c0 0-.881 2.66 2.446 4.224 3.343 1.55 15.331 3.996 36.224 3.996s32.669-2.219 35.782-3.783c3.1-1.55 3.328-5.106 3.328-5.106s3.327-1.777 3.115-3.996c-.227-2.219-4.665-4.665-4.665-4.665s-1.109-2.888-4.224-3.996c-3.115-1.124-13.112 4.878-32.227 3.996-19.115-.896-29.995-3.783-33.55-3.555-3.555.214-5.12 3.769-5.12 3.769s-3.995 1.776-4.437 3.782" fill="#bf9300"/>
    <path d="M212.224 306.446c-.185 1.323 2.66 4.224 2.66 4.224s0 3.327 2.901 4.224c2.888.881 14.663 3.1 33.777 2.887 19.1-.227 32.654-1.337 34.22-2.674 1.55-1.322 2.887-4.223 2.887-4.223s3.115-2.219 2.887-3.996c-.227-1.778-4.665-2.888-4.665-2.888s-1.251-2.66-2.731-3.769c-1.494-1.123-11.051 4.438-31.488 4.438-20.025 0-31.558-4.893-33.565-4.665-1.99.227-3.327 3.996-3.327 3.996s-3.329.896-3.556 2.446" fill="#eee"/>
    <path d="M214.898 290.446l2.66-70.215 6.67 7.111-2.22 57.103-7.11 6.001zm73.771 0l-2.66-70.215-6.67 7.111 2.218 57.103 7.112 6.001zm-50.888-36.863l-14.662 42.893s-10.226-.669-7.339 7.553c0 0 1.565-4.665 4.224-3.783 2.674.896 10.439 2.888 10.439 2.888l2.673 4.223 3.328-3.1 10.454-.455s3.327.897 3.1 3.783c2.887-6.67-4.438-8.661-4.438-8.661l-3.343-.669 7.34-28.672c4.764 6.783-11.776-16-11.776-16" fill="#bf9300"/>
    <path d="M247.111 268.657l-7.992 30.45-13.34-2.673 13.781-39.112 7.551 11.335z" fill="#eee"/>
    <path d="M266.382 253.583l14.663 42.893s10.226-.669 7.325 7.553c0 0-1.55-4.665-4.21-3.783-2.674.896-10.439 2.888-10.439 2.888l-2.66 4.223-3.342-3.1-10.454-.455s-3.327.897-3.1 3.783c-2.888-6.67 4.438-8.661 4.438-8.661l3.342-.669-7.339-28.672c-4.75 6.783 11.776-16 11.776-16" fill="#bf9300"/>
    <path d="M256.995 268.657l7.992 30.45 13.355-2.673-13.794-39.112-7.553 11.335z" fill="#eee"/>
    <g fill="#bf9300">
        <path d="M252.473 269.085c-16.014-9.899-17.352-34.887-17.352-34.887s9.913-.513 17.109-5.562c6.471 5.76 17.55 5.12 17.55 5.12s-.739 25.074-17.307 35.329m-.014-44.445c-8.889 6.215-21.12 6.67-21.12 6.67s1.337 30.223 21.12 42.439c20.437-12.658 21.334-42.894 21.334-42.894s-13.342.896-21.334-6.215"/>
        <path d="M238.45 236.672s1.109 12.885 6.884 22.884v-25.771s-3.769 2.219-6.884 2.887m27.776.441s-1.109 12.885-6.884 22.883v-25.771c0 .001 3.77 2.22 6.884 2.888m-59.335-16.895s.442-10.44 9.999-9.117c9.558 1.338 10.226 6.001 20.451 7.111 10.211 1.124 14.663.897 14.663.897l-.228 3.115s-7.95-.768-15.545-1.565c-8.447-.881-11.761-5.291-19.782-6.443-6.229-.881-6.001 5.334-6.001 5.334l-3.557.668z"/>
        <path d="M296.661 220.218s-.441-10.44-9.999-9.117c-9.557 1.338-10.226 6.001-20.45 7.111-10.212 1.124-14.663.897-14.663.897l.227 3.115s7.95-.768 15.545-1.565c8.448-.881 11.761-5.291 19.783-6.443 6.229-.881 6.001 5.334 6.001 5.334l3.556.668z"/>
        <path d="M237.781 221.995s10.439-12.445 8.22-23.339c0 0-4.437-4.437-5.561-2.887-1.109 1.565-2.433-3.555 0-5.546 2.446-2.005 7.78.653 7.78.653s1.338-3.1 8.22.228c6.897 3.342 4.893 6.229 4.893 12.885 0 6.67 2.673 16.669 5.12 18.674 0 0-3.343 0-5.334-1.338l-.455 2.219s-3.1-1.109-4.665-2.219l-3.996 2.005-2.22-3.115s-4.223 3.115-6.442 3.782l.881-3.115c.002.003-4.222 1.113-6.44 1.113"/>
    </g>
    <path d="M241.109 193.109s1.55-1.55 6.001 1.55c2.887 2.02 5.447 3.555 5.447 3.555s1.82-1.92 4.494-1.479c2.66.455 1.166 4.152 1.608 11.932.455 7.78 3.555 11.108 3.555 11.108l-3.769-2.219.214 2.446-4.224-2.005-1.991 2.888-2.005-3.115-3.243 1.991-.981-2.66-3.769 2.005s5.546-6.884 6.001-14.45c.128-2.247-.455-7.325-.455-7.325s-3.555-4.45-6.883-4.222" fill="#eee"/>
    <g fill="#bf9300">
        <path d="M242.489 291.996l2.66 3.997 3.342-2.66 2.66-12.232-1.55 13.34 1.778 4.224 3.115-3.343-.455-15.545 2.446 15.332 3.342 2.219 2.22-4.224-6.002-23.553-7.78.441-5.776 22.004zm-21.377 16c-2.546 1.521-1.55 2.446 0 3.115s10.88 1.793 29.782 2.219c19.327.441 31.331-1.777 32.881-2.674 1.565-.881 1.777-2.432-.881-2.887-2.674-.441-16 1.777-32.228 1.777-19.996 0-28.443-2.218-29.553-1.55m10.226-76.657l-1.891-.754-14.99-13.469-7.567 3.115-3.769 80.669 7.78-6.001.043-.953 16.171-14.379 3.115-3.115 8.889-20.665-4.224-8.007-3.557-16.441zm69.035 69.546l-3.783-80.669-7.552-3.115-13.554 12.9-3.327 1.323-3.555 16.455-2.447 6.656 7.111 22.001 3.115 3.115 16.172 14.379.042.953 7.778 6.002z"/>
        <path d="M242.915 290.446l-3.157 10.439 7.196 2.888 13.852-.953 2.034-4.295-6.784-23.509s-8.889-.825-9.087 0c-.214.824-4.054 15.43-4.054 15.43"/>
    </g>
</svg>
