<svg xmlns="http://www.w3.org/2000/svg" viewBox="0 0 512 512">
    <path d="M455.111 71.111H56.889c-16.878 0-32.033 7.359-42.452 19.034C5.462 100.203 0 113.462 0 128v256c0 14.538 5.462 27.797 14.436 37.855 10.419 11.676 25.574 19.034 42.452 19.034H455.11c31.418 0 56.89-25.472 56.89-56.889V128c0-31.417-25.472-56.889-56.889-56.889z" fill="#eb0438"/>
    <path d="M56.889 440.889h398.222C486.528 440.889 512 415.417 512 384V256L14.436 421.855c10.419 11.675 25.574 19.034 42.453 19.034z" fill="#4289de"/>
    <path d="M455.111 71.111H56.889c-16.878 0-32.033 7.359-42.452 19.034L512 256V128c0-31.417-25.472-56.889-56.889-56.889z" fill="#3e9a00"/>
    <path d="M243.264 266.219s0 14.677-18.816 23.552c16.441-20.878 24.434-36.878 14.35-46.663-1.209 9.785-9.913 13.81-9.913 13.81s5.774-8.917 9.33-28.914c3.556-20.011-10.667-27.122-10.667-27.122s4.011 19.115 0 21.788c-.882-38.229-16.441-39.566-16.441-39.566s8.889 14.677 6.67 23.111c-2.219-7.111-9.33-14.222-13.781-16.882-4.437-2.674-9.33-19.115-27.548-24.448-.896 12.004 13.767 21.774 13.767 21.774s-8.434-4.878-14.222-9.771c-5.774-4.892-7.111-1.778-11.548-.441-4.437 1.323-10.667 0-10.667 0l7.552 4.878s-2.219 1.337-9.771-.882c3.996 5.348 16.882 11.108 27.108 7.993 10.226-3.1 12.885 5.333 12.885 5.333s-1.778 2.233-12.885 1.778c7.993 8.007 19.115 2.674 23.552 1.337 4.452-1.337 12.444 18.674 12.444 18.674s-7.552-.896-13.326-13.781c-3.115 9.33 1.778 17.778 10.226 23.552 8.434 5.774 3.556 6.229 5.333 14.222 1.778 8.007 9.771 14.677 5.333 28.9-5.788-5.788-8.32-22.67-8.32-22.67s-4.124 3.556-3.684 11.136c.441 7.58 5.333 13.753 3.115 16.412-2.233 2.674-3.556 6.229-3.556 12.9 0 6.656-6.67 11.108-6.67 11.108s.441-5.788 0-11.563c-8.889 5.774-9.785 21.774-15.118 27.563-5.333 5.774-12.004.882-20.437 6.215-8.448 5.333-13.781 4.452-13.781 4.452s-.882-5.333 0-12.004c.896-6.67 4.892-4.452 15.559-8.007 10.667-3.556 9.074-15.986 9.074-15.986s-6.855 8.434-9.97 5.319c14.222-8.434 7.552-20.437 7.552-20.437s-4.437 9.785-10.212 10.667c2.219-11.108-3.115-8.889-7.111-1.778s-5.333 16.882-5.333 16.882-4.452-15.986-6.229-24.434c-1.778-8.448 10.226-7.552 15.118-7.552 4.878 0 18.66 2.66 15.801-9.756-8.206 5.362-14.919 0-14.919 0s16.441-20.025 2.674-19.143c3.556 13.34-10.667 12.9-10.667 12.9s-2.219-6.229-1.778-12.9c-3.527 5.006-6.67 16.896-7.111 18.233-.441 1.323 1.337-16.896 2.66-20.892 1.337-4.011 4.892-3.556 11.122-1.337 6.215 2.219 22.215-.441 15.986-10.667-4.878 6.215-10.652 3.996-10.652 3.996s19.996-10.226 9.771-18.66c-.896 4.878-8.889 6.215-8.889 6.215s-2.66-5.774 3.996-12.004c-11.108.896-15.545 14.677-15.545 14.677s0-8.889-1.778-14.677c9.33-11.989-4.452-16.882-4.452-16.882s2.219 5.774-1.337 8.448c-4.878-3.556-14.663 0-14.663 0s2.66 8.889 13.781 5.774c-1.778 6.67-11.122 3.115-11.122 3.115s6.67 9.771 14.236 7.111c1.778 3.556 3.1 15.104-5.333 23.552 1.323-13.781-5.333-19.996-11.563-19.996 0 3.996 3.115 11.108 3.115 11.108s-7.111-3.556-10.226-12.444c-3.996 13.326 5.333 20.452 5.333 20.452s-4.892 2.219-9.33-3.57c2.66 21.788 19.115 14.677 19.115 14.677s.441 8.448.882 12.914c.441 4.466-.441 17.308-.441 17.308s-5.788-15.559-16-17.308c-2.233 8.917 6.656 14.635 6.656 14.635s-7.993 0-13.326-6.656c-.896 14.663 15.559 17.778 15.559 17.778s-8.448 2.66-15.118-4.892c.896 24.889 27.563 11.989 27.563 11.989s-.896 7.111-.896 13.781 2.674 22.229 2.674 22.229-7.552-4.452-13.781-3.996c-6.229.441-19.115-5.788-21.333-12.9s-8.448-19.996-8.448-19.996 0 7.552-2.66 5.333c-.441-8.448-9.785-16.882-9.785-16.882s1.778 13.767-.882 15.545c-3.996-7.111-1.337-19.996 1.337-26.212 2.66-6.229-4.011-20.452-4.892-18.674-.896 1.778-4.892 15.559-4.892 15.559s.441-16 2.674-19.556c2.219-3.556 11.989-9.785 4.437-13.34-.868 6.272-7.993 8.889-7.993 8.889s-.896-11.108 11.989-16.882c12.9-5.788 8.007-18.674 8.007-18.674s-5.333 8.889-12.444 11.108c0-7.552 16-18.219 20.437-18.219 4.452 0 17.778 1.778 20.452-6.67-3.954 3.783-12.9 0-12.9 0s5.788-5.333 12.004-3.996c6.229 1.337 15.118-1.778 16.455-5.774-5.333 3.996-16.896-1.337-16.896-1.337s22.229-2.66 29.34-9.33c-12.005-5.774-38.23 7.552-38.23 7.552s9.771-9.33 8.448-12.444c-10.667 1.337-25.33 20.892-28.444 26.226-3.115 5.333-11.108 11.548-11.108 11.548l3.996-22.215s-9.33 4.437-12.444 16.441c-2.581 9.946-1.803 26.591-1.461 32.007-.409-5.395-1.892-21.503-5.21-24.455-12.004 18.674-1.337 51.57-1.337 51.57s-5.774-8.007-7.993-15.559c-9.33 29.326 18.66 49.323 18.66 49.323s-12.444-3.541-23.552-19.1c1.653 22.312 32.131 38.09 36.394 40.192-3.082-1.47-19.603-8.982-24.831-3.755 8.889 0 17.778 12.004 36.878 18.674 19.115 6.67 35.115 5.774 35.115 5.774s-16 9.785-10.667 14.222c5.333 4.437 27.278 2.66 33.778 0 3.954-1.621 4.437-7.111-7.552-14.222 9.771-1.337 61.781-3.556 64.441-18.674-5.333-1.323-16.441-2.219-16.441-2.219s7.552-1.778 23.993-13.326c16.441-11.563 12.601-31.119 12.601-31.119z" fill="#ffc827"/>
</svg>
