<svg xmlns="http://www.w3.org/2000/svg" viewBox="0 0 395.636 395.636"><path d="M351.676 54.95H43.96C19.684 54.95 0 74.632 0 98.909v197.818c0 24.277 19.684 43.96 43.96 43.96h307.717c24.277 0 43.96-19.683 43.96-43.96V98.91c0-24.277-19.683-43.959-43.96-43.959z" fill="#da121a"/><path d="M351.676 54.95H43.96C19.684 54.95 0 74.632 0 98.909v43.96h395.636v-43.96c0-24.277-19.682-43.959-43.96-43.959z" fill="#088930"/><path d="M395.636 296.728v-43.96H0v43.96c0 24.276 19.684 43.96 43.96 43.96h307.718c24.276-.002 43.958-19.684 43.958-43.96z" fill="#fcdd0a"/><path d="M296.728 197.819c0 54.631-44.278 98.909-98.91 98.909S98.91 252.45 98.91 197.817s44.278-98.908 98.909-98.908 98.909 44.277 98.909 98.909" fill="#0f47af"/><g fill="#fcdd0a"><path d="M182.191 222.048l6.528-4.008-41.509-31.859h-12.715l30.012 21.879-18.89 60.818 10.297-7.534 16.145-48.424z"/><path d="M203.395 226.456l12.385-8.352-1.736-7.43-43.564 31.036-3.912 12.089 29.924-21.65 51.983 36.761-3.989-12.134z"/><path d="M221.664 186.636l-7.616-.647 16.078 50.916 10.275 7.451-11.121-35.42 49.663-37.059-12.275-.352-40.664 29.091z"/><path d="M196.335 171.523l-2.978 7.056 49.983.416 10.264-7.472-36.75-.56-20.442-60.29-3.9 12.165 14.583 48.025zM175.422 177.727l-5.232 15.08 5.781 5.01 16.683-50.653-3.934-12.161-11.683 35.663H112.13l10.729 7.283zM194.02 240h5.656zM243.188 209.584l-1.408 4.341 37.894 12.693 1.406-4.352z"/><path d="M250.676 128.561l-3.703-2.692-23.926 33.211 3.705 2.681zM171.72 159.066l-23.891-33.201-3.704 2.692 23.902 33.2zM151.689 209.579l-37.97 12.692 1.419 4.353 37.97-12.683z"/></g></svg>