<svg xmlns="http://www.w3.org/2000/svg" viewBox="0 0 512 512"><path d="M455.111 71.111H56.889C25.472 71.111 0 96.569 0 128v256c0 31.431 25.472 56.889 56.889 56.889h398.222C486.528 440.889 512 415.431 512 384V128c0-31.431-25.472-56.889-56.889-56.889z" fill="#039"/><g fill="#fc0"><path d="M263.668 138.02l12.075-8.775h-14.919l-4.622-14.194-4.608 14.194h-14.919l12.075 8.775-4.622 14.194 12.075-8.775 12.075 8.775-4.61-14.194zM263.668 384.537l12.075-8.775h-14.919l-4.622-14.194-4.608 14.194h-14.919l12.075 8.775-4.622 14.194 12.075-8.775 12.075 8.775-4.61-14.194zM140.409 261.28l12.075-8.775h-14.919l-4.622-14.194-4.608 14.194h-14.919l12.075 8.775-4.622 14.194 12.075-8.775 12.075 8.775-4.61-14.194zM156.158 200.334l12.075-8.775h-14.919l-4.622-14.194-4.608 14.194h-14.919l12.075 8.775-4.622 14.194 12.075-8.775 12.075 8.775-4.61-14.194zM156.158 322.909l12.075-8.775h-14.919l-4.622-14.194-4.608 14.194h-14.919l12.075 8.775-4.622 14.194 12.075-8.775 12.075 8.775-4.61-14.194zM202.038 154.529l12.075-8.775h-14.919l-4.622-14.194-4.608 14.194h-14.919l12.075 8.775-4.622 14.194 12.075-8.775 12.075 8.775-4.61-14.194zM202.038 368.832l12.075-8.775h-14.919l-4.622-14.194-4.608 14.194h-14.919l12.075 8.775-4.622 14.194 12.075-8.775 12.075 8.775-4.61-14.194zM371.593 261.28l-12.075-8.775h14.919l4.622-14.194 4.608 14.194h14.919l-12.075 8.775 4.622 14.194-12.075-8.775-12.075 8.775 4.61-14.194zM355.842 200.334l-12.075-8.775h14.919l4.622-14.194 4.608 14.194h14.919l-12.075 8.775 4.622 14.194-12.075-8.775-12.075 8.775 4.61-14.194zM355.842 322.909l-12.075-8.775h14.919l4.622-14.194 4.608 14.194h14.919l-12.075 8.775 4.622 14.194-12.075-8.775-12.075 8.775 4.61-14.194zM309.962 154.529l-12.075-8.775h14.919l4.622-14.194 4.608 14.194h14.919l-12.075 8.775 4.622 14.194-12.075-8.775-12.075 8.775 4.61-14.194zM309.962 368.832l-12.075-8.775h14.919l4.622-14.194 4.608 14.194h14.919l-12.075 8.775 4.622 14.194-12.075-8.775-12.075 8.775 4.61-14.194z"/></g></svg>