<svg xmlns="http://www.w3.org/2000/svg" viewBox="0 0 512 512">
    <path d="M455.111 71.111H56.889C25.472 71.111 0 96.569 0 128v256c0 31.431 25.472 56.889 56.889 56.889h398.222C486.528 440.889 512 415.431 512 384V128c0-31.431-25.472-56.889-56.889-56.889z" fill="#039"/>
    <path d="M263.668 138.02l12.075-8.775h-14.919l-4.622-14.194-4.608 14.194h-14.919l12.075 8.775-4.622 14.194 12.075-8.775 12.075 8.775-4.61-14.194zm0 246.517l12.075-8.775h-14.919l-4.622-14.194-4.608 14.194h-14.919l12.075 8.775-4.622 14.194 12.075-8.775 12.075 8.775-4.61-14.194zM140.409 261.28l12.075-8.775h-14.919l-4.622-14.194-4.608 14.194h-14.919l12.075 8.775-4.622 14.194 12.075-8.775 12.075 8.775-4.61-14.194zm15.749-60.946l12.075-8.775h-14.919l-4.622-14.194-4.608 14.194h-14.919l12.075 8.775-4.622 14.194 12.075-8.775 12.075 8.775-4.61-14.194zm0 122.575l12.075-8.775h-14.919l-4.622-14.194-4.608 14.194h-14.919l12.075 8.775-4.622 14.194 12.075-8.775 12.075 8.775-4.61-14.194zm45.88-168.38l12.075-8.775h-14.919l-4.622-14.194-4.608 14.194h-14.919l12.075 8.775-4.622 14.194 12.075-8.775 12.075 8.775-4.61-14.194zm0 214.303l12.075-8.775h-14.919l-4.622-14.194-4.608 14.194h-14.919l12.075 8.775-4.622 14.194 12.075-8.775 12.075 8.775-4.61-14.194zM371.593 261.28l-12.075-8.775h14.919l4.622-14.194 4.608 14.194h14.919l-12.075 8.775 4.622 14.194-12.075-8.775-12.075 8.775 4.61-14.194zm-15.751-60.946l-12.075-8.775h14.919l4.622-14.194 4.608 14.194h14.919l-12.075 8.775 4.622 14.194-12.075-8.775-12.075 8.775 4.61-14.194zm0 122.575l-12.075-8.775h14.919l4.622-14.194 4.608 14.194h14.919l-12.075 8.775 4.622 14.194-12.075-8.775-12.075 8.775 4.61-14.194zm-45.88-168.38l-12.075-8.775h14.919l4.622-14.194 4.608 14.194h14.919l-12.075 8.775 4.622 14.194-12.075-8.775-12.075 8.775 4.61-14.194zm0 214.303l-12.075-8.775h14.919l4.622-14.194 4.608 14.194h14.919l-12.075 8.775 4.622 14.194-12.075-8.775-12.075 8.775 4.61-14.194z" fill="#fc0"/>
</svg>
