<svg xmlns="http://www.w3.org/2000/svg" viewBox="0 0 512 512"><path d="M455.112 71.113H56.894C25.477 71.113.006 96.585.006 128.001v255.997c0 31.417 25.472 56.888 56.888 56.888h398.218c31.417 0 56.888-25.472 56.888-56.888V128.001c0-31.416-25.472-56.888-56.888-56.888z" fill="#68bfe5"/><path d="M270.225 71.113H56.894C25.477 71.113.006 96.585.006 128.001V256h270.219V71.113z" fill="#00247d"/><path d="M270.225 256v-28.857l-100.977-70.698H94.881L237.059 256h33.166z" fill="#eee"/><path d="M270.225 235.833l-113.364-79.388h-24.789l138.153 96.738v-17.35z" fill="#cf1b2b"/><path d="M115.199 156.446L0 238.45V256h47.388l142.192-99.554h-74.381z" fill="#eee"/><path d="M152.379 156.446L10.443 256h24.561l142.178-99.554h-24.803z" fill="#cf1b2b"/><path d="M237.072 71.113L94.894 170.668h74.367L270.223 99.97V71.113h-33.151z" fill="#eee"/><path d="M249.447 71.113l-142.164 99.554h24.789l138.153-96.738v-2.816h-20.778z" fill="#cf1b2b"/><path d="M9.432 96.649l132.795 92.949v-18.93h47.331L48.315 71.758c-16.227 2.456-30.198 11.77-38.883 24.891z" fill="#eee"/><path d="M13.785 90.906l128.441 90.031v-10.268h10.155L24.589 81.185a57.209 57.209 0 0 0-10.804 9.721z" fill="#cf1b2b"/><path d="M270.225 128.001h-99.554V71.113H99.56v56.888H.006v71.11H99.56V256h71.11v-56.888h99.554v-71.111z" fill="#eee"/><g fill="#cf1b2b"><path d="M156.449 256h-42.666V71.113h42.666V256z"/><path d="M270.225 184.89H.006v-42.666h270.219v42.666z"/></g><path d="M393.195 165.335h-69.333v117.332c0 39.694 69.333 61.923 69.333 61.923s69.332-22.229 69.332-61.922V165.335h-69.332z"/><path d="M393.195 341.597c-7.894-2.716-66.489-24.09-66.489-58.936V168.19h132.976V282.66c0 34.845-58.593 56.22-66.487 58.936" fill="#fff"/><g fill="#d21034"><path d="M459.676 168.18H326.7v43.676h132.976V168.18z"/><path d="M383.71 337.959a170.424 170.424 0 0 0 9.486 3.641 172.429 172.429 0 0 0 9.174-3.513V207.715h-18.659l-.001 130.245z"/><path d="M459.676 278.813H326.7v-18.66h132.976v18.66z"/></g><path d="M343.942 194.738c0 3.91-3.655 7.082-8.135 7.082-4.508 0-8.135-3.171-8.135-7.082 0-3.912 3.627-7.083 8.135-7.083 4.48-.001 8.135 3.171 8.135 7.082" fill="#fff"/><path d="M337.336 189.113c-4.636.81-6.882-2.007-6.001-4.665.896-2.674 5.334-5.105 9.558-5.562 4.223-.441 8.22 3.784 11.547 4.01 3.343.214 5.12-1.635 5.789-4.038.669-2.418 5.334-7.922 2.446-9.302 3.769 0 3.769 3.996 3.769 3.996s4.224-4.223 7.339-3.996c1.777 3.114 0 7.553 0 7.553s4.437-1.778 7.552.227c-6.001.881-6.882 4.438-6.882 4.438s1.11 2.901-.442 4.451c-1.565 1.55 12.217 4.438 19.769 2.219 7.553-2.219 22.001-7.324 31.331-7.324 9.33 0 11.335 3.555 13.554.441 2.233-3.114-2.659-6.442-10.666-5.775-7.993.655-21.546 9.928-26.88 3.74-1.336 0-2.006 1.593-2.006 1.593s-3.328-1.123-6.67-2.901c-3.328-1.778-2.66 4.223-.882 5.12-5.561-.228-5.376-3.812-5.376-3.812s-6.841-5.077-2.402-8.86c.327 6.898 6.442 4.893 9.785 3.555 3.327-1.336 7.552-.214 9.543 1.565 2.007 1.778 7.779 3.328 15.119-.896 7.324-4.224 27.108-5.775 27.335 3.114.214 8.889-9.785 9.557-9.785 9.557s1.11 5.334 7.339 4.21c6.215-1.11 10.225-2.887 12.002 2.007 1.778 4.892 5.775 5.105 4.438 9.116-1.337 3.996-5.775 5.859-11.777 4.821-6-1.052-6.67-3.499-1.777-4.38 4.893-.896 5.775-4.665 3.996-5.561-1.777-.881-5.105 2.674-9.557.896-4.438-1.777-10.212-5.334-10.212-5.334s.214 2.446-3.783 3.769c-3.997 1.336-.669 2.901.441 5.334 1.11 2.446-3.996 4.437-9.33 5.561-5.334 1.11-9.33 3.996-14.45-2.219-5.105-6.23 1.336-8.007 4.01-6.001 2.659 2.006 5.334 5.561 7.553 3.784s-1.565-2.901-2.007-6.23c-.441-3.329.228-7.324.228-7.324s-7.111 11.108-22.229 13.326c-15.104 2.219-17.777 2.219-17.777 2.219l-4.438-3.114-5.334 3.555-.227-3.996s-8.448 6.628-12.885 7.651c-4.451 1.024-16.584-1.877-16.854-5.206-.256-3.327 1.081-4.892 5.078-6.215 3.996-1.336 4.665.881 6.67 2.659 1.99 1.777 4.21 4.224 7.11 1.777 2.888-2.446 4.438-3.327 4.438-3.327l.896-4.224-4.223-.227 1.55-4.88s-3.114.656-5.334-1.335c-2.219-2.007-2.446-3.997-4.437-3.343-2.007.668-.455 2.9-5.562 3.783" fill="#ffd101"/><g fill="#964b36"><path d="M348.002 253.558c-3.783 1.55-9.557-10.895-6.215-14.45 3.33-3.555 10 12.9 6.216 14.45M355.335 252.001c-3.541.313-2.219-16.881 0-16.881 2.218-.001 4.893 16.44 0 16.881M361.558 254.716c-4.424-.81 2.218-11.164 3.996-11.164 1.777 0 1.11 12.103-3.996 11.164M431.779 257.556c-8.661.241-3.784-1.521-2.888-3.869.881-2.346.355-19.91.355-19.91h4.978s-1.565 15.13 0 18.232c1.55 3.101 5.547 5.32-2.445 5.547M448.89 288.222c2.063-2.303-3.114-6-6.67-6-3.555 0-7.58 2.005-10.568 10.438-2.986 8.447 3.343 6.001 4.963 1.336 1.607-4.665 2.944-7.324 5.39-7.552 2.447-.227 3.33 5.775 6.885 1.778M414.888 317.779c-4.567-.328-8.448 11.547-8.448 11.547s20.451-10.666 8.448-11.547"/></g><g fill="#00a651"><path d="M343.942 243.556c1.11 3.541-10.168-.569-10.382 5.603-4.679-.711 1.991-9.828 6.215-8.49-.881-4.893-7.196-6.883-7.822 1.11-7.07-6.215 1.935-12.216 5.987-9.558-2.161-7.552-6.3-7.424-6.813-2.887-5.347-4.438.043-11.548 4.68-8.22s4.962 6.882 4.962 6.882 3.228-11.491 11.448-7.751c-9.925 4.211-11.887 11.764-8.275 23.311"/><path d="M355.609 238.611c-2.944-2.83-4.721-5.945-4.721-5.945s3.143 8.448-1.763 12.003c.214-7.779-5.12-10.454-2.232-13.554 2.887-3.114 7.778 0 7.778 0s1.153-1.82-3.855-6.23c-5.007-4.409-8.59-4.224-8.817-7.992 5.006 2.972 12.7 3 13.61 11.335 1.052-10.013 5.561-10.225 7.637-10.454 2.09-.214 6.969.896 8.747-.881 0 3.555-3.997 2.446-6.657 3.555 3.555 2.446 3.769 10.325 3.769 10.325s-5.105-9.003-7.324-8.335c-2.232.668-3.697 7.338-3.697 7.338s8.121-.241 5.162 10.666c-1.251-6-2.588-6.67-4.138-6.67s-3.5 4.84-3.5 4.84"/><path d="M363.251 246.145c.299-4.153 2.304-11.264 4.523-11.819.739-4.551 3.114-10.994 8.007-12.104 4.893-1.11 6.001 3.997 4.893 6.883-2.901-4.224-6.898-5.334-7.779 4.665 4.224-1.11 6.656 2.232 5.546 6.67-3.996-4.665-6.882-5.219-8.661-1.834 4.665 1.834 4.75 5.831 2.375 9.174-1.039-5.789-4.125-5.334-5.76 0-1.65 5.321-3.144-1.635-3.144-1.635M430.856 238.611c-5.077 0-11.747 5.248-12.187 13.398-5.334-8.008 1.194-16.896 8.035-20.01-12.046.227-16.483 5.561-18.048 9.999-1.55-11.777 13.425-16.442 18.048-14.435-2.93-5.12-14.491-4.68-20.266-.455 0-9.77 17.28-12.118 24.418-3.287-.867-7.153 2.034-8.931 2.034-8.931v9.558s16.071-15.12 24.916 3.113c-14.25-7.338-21.205.214-21.205.214s14.776-3.555 12.758 13.554c-4.694-10.439-14.479-9.33-14.479-9.33s11.335 5.135 6.897 17.792c-4.45-12.233-10.92-11.18-10.92-11.18"/></g><path d="M420.001 294.221c-.669-6.67 7.779-10.439 7.779-10.439s14.223 8.662 16.214 10.44c2.006 1.777-1.209 9.216-7.382 11.163-6.172 1.949-16.61-11.164-16.61-11.164" fill="#fff202"/><path d="M416.089 317.944c-3.343-2.105-5.475-13.938 0-15.062-2.076-7.11 2.361-10.666 3.911-11.107 1.565-.441 7.31 2.176 11.662 6.314 4.338 4.139 8.122 5.135 8.448 6.741.341 1.607-2.716 6.499-7.964 6.94 1.635 4.894-10.866 9.445-16.057 6.174" fill="#00a651"/><path d="M342.005 290.235s3.327-1.351 5.334-3.342c2.006-2.007 4.665-2.007 6.882 1.663 2.233 3.67 3.869 8.335 3.869 8.335s-.754-6.67 6.13-10.225c6.897-3.555 7.936-4.437 7.936-4.437l-2.375 9.5s8.22-5.064 9.558-7.95c1.777 11.335-6.67 19.441-12.003 21.617 2.888 4.821 1.565 8.833 1.565 8.833l9.77 7.992-10.666 3.328-4.75-10.211s-12.33.44-14.123-8.89c-1.792-9.343 2.462-14.336 0-14.72-2.462-.397-7.127-1.493-7.127-1.493"/><path d="M364.141 313.874l-.952.042c-2.09 0-11.25-.399-12.658-7.736-.939-4.879-.142-8.49.399-10.88.413-1.834.669-3.043-.015-4.039l-.341-.512-1.224-.426c-.91-.143-2.105-.4-3.271-.64.782-.498 1.592-1.11 2.261-1.793.426-.412 1.081-.925 1.821-.925.925 0 1.935.825 2.845 2.319 2.119 3.512 3.727 8.035 3.74 8.079l2.759-.625c-.029-.242-.512-5.76 5.376-8.803a167.713 167.713 0 0 0 5.049-2.702l-2.375 9.528 2.973-1.833c1.01-.625 4.906-3.058 7.608-5.547-.285 9.074-7.58 15.162-11.335 16.697l-1.536.61.854 1.437c2.489 4.153 1.465 7.51 1.422 7.651l-.285.939 8.463 6.94-6.954 2.176-4.624-9.957z" fill="#fff"/><path d="M344.955 288.695c-1.621-3.811-1.621-3.811-4.181-4.921-.114 2.446 0 4.01 0 4.01s-1.436-4.679-3.67-4.01c-1.323 5.334 3.441 6.456 3.441 6.456s-2.105.683-1.877 4.451c3.768 1.537 3.327-1.792 3.327-1.792s-.782 3.414 1.949 5.376c1.836-2.929 1.011-9.57 1.011-9.57" fill="#00a651"/></svg>