<svg xmlns="http://www.w3.org/2000/svg" viewBox="0 0 512 512"><path d="M455.112 71.113H56.894C25.477 71.113.006 96.585.006 128.001v255.997c0 31.417 25.472 56.888 56.888 56.888h398.218c31.417 0 56.888-25.472 56.888-56.888V128.001c0-31.416-25.472-56.888-56.888-56.888z" fill="#00247d"/><path d="M270.225 256v-28.857l-100.977-70.698H94.881L237.059 256h33.166z" fill="#eee"/><path d="M270.225 235.833l-113.364-79.388h-24.789l138.153 96.738v-17.35z" fill="#cf1b2b"/><path d="M115.199 156.446L0 238.45V256h47.388l142.192-99.554h-74.381z" fill="#eee"/><path d="M152.379 156.446L10.443 256h24.561l142.178-99.554h-24.803z" fill="#cf1b2b"/><path d="M237.072 71.113L94.894 170.668h74.367L270.223 99.97V71.113h-33.151z" fill="#eee"/><path d="M249.447 71.113l-142.164 99.554h24.789l138.153-96.738v-2.816h-20.778z" fill="#cf1b2b"/><path d="M9.432 96.649l132.795 92.949v-18.93h47.331L48.315 71.758c-16.227 2.456-30.198 11.77-38.883 24.891z" fill="#eee"/><path d="M13.785 90.906l128.441 90.031v-10.268h10.155L24.589 81.185a57.209 57.209 0 0 0-10.804 9.721z" fill="#cf1b2b"/><path d="M270.225 128.001h-99.554V71.113H99.56v56.888H.006v71.11H99.56V256h71.11v-56.888h99.554v-71.111z" fill="#eee"/><g fill="#cf1b2b"><path d="M156.449 256h-42.666V71.113h42.666V256z"/><path d="M270.225 184.89H.006v-42.666h270.219v42.666z"/></g><path d="M331.073 322.222c3.926-7.339 6.656-14.663 9.841-16.881 3.2-2.233 21.12-.455 24.604 3.556 3.484 3.997 1.707 24.661-5.176 36.21-6.898 11.563-19.726 16-24.533 15.118-4.807-.896-7.921-9.557-8.803-12.672-.896-3.114 2.048-4.224 8.803-2.219 6.755 2.006 16.754-15.118 16.526-21.333-5.775-4.224-10.837-.896-13.084 4.224-2.248 5.105-8.178-6.003-8.178-6.003" fill="#ba6747"/><path d="M322.112 337.111c.939 4.139 4.807 13.966 8.96 19.428-2.019-12.117 7.04-8.32 6.372-3.428 3.114.882-.825-6.883-1.636-11.335-.81-4.437-.142-13.113-7.481-12.658-7.325.44-6.898 5.019-6.215 7.993" fill="#d7a896"/><path d="M463.819 322.222c-3.926-7.339-6.656-14.663-9.841-16.881-3.2-2.233-21.12-.455-24.604 3.556-3.484 3.997-1.707 24.661 5.176 36.21 6.898 11.563 19.726 16 24.533 15.118 4.807-.896 7.807-9.557 8.69-12.672.896-3.114-2.048-4.224-8.803-2.219-6.741 2.006-16.64-15.118-16.412-21.333 5.775-4.224 10.837-.896 13.084 4.224 2.247 5.105 8.177-6.003 8.177-6.003" fill="#ba6747"/><path d="M468.045 333.558c1.038-4.437-4.224-11.335-7.552-17.963-13.567 25.486-49.351 28.814-63.047 28.856-13.696-.043-49.465-3.37-63.032-28.856-3.342 6.628-8.604 13.526-7.566 17.963 1.052 4.437 33.237 27.548 70.385 27.748v.028c.056 0 .142-.015.213-.015.071 0 .157.015.228.015v-.028c37.134-.2 69.333-23.311 70.371-27.748" fill="#e9cfc6"/><path d="M472.778 337.111c-.939 4.139-4.807 13.966-8.96 19.428 2.019-12.117-7.04-8.32-6.372-3.428-3.114.882.825-6.883 1.636-11.335.81-4.437.142-13.113 7.481-12.658 7.325.44 6.898 5.019 6.215 7.993" fill="#d7a896"/><path d="M397.625 151.411h-66.659v92.443c0 81.18 66.659 98.957 66.659 98.957s66.659-17.778 66.659-98.957v-92.443h-66.659z" fill="#fff"/><path d="M397.612 337.111c-7.353-2.204-61.922-21.063-61.922-93.154v-86.94h123.859v86.94c0 71.422-55.069 90.992-61.937 93.154" fill="#0072c4"/><path d="M371.113 237.333c1.55-6.215 2.659-14.89-1.11-16.228-3.784-1.323-10.468-5.333-12.686-12.444-2.204-7.111-1.095-23.552-3.086-24.661-2.006-1.11-8.007 1.55-11.563-2.887-3.556-4.452-1.336-6.002 1.11-7.552 2.446-1.564 9.33-5.12 8.889-6.443-.441-1.336.441-3.456 4.65-4.892 7.794-2.674 14.023 4.224 16.455 6.883 2.446 2.674 8.889 6.229 11.79 6.443 2.887.228 37.774.668 41.77 1.11 3.997.455 14.222 3.114 13.34 15.332-.896 12.231-2.616 24.007-4.309 26.225-1.692 2.233-2.802 2.887-2.802 2.887s1.778 9.785 1.55 11.563-3.328 2.446-3.556-.668-1.336-10.439-1.336-10.439l-6.001-1.11s.228 10.667-1.778 13.767c-1.991 3.114-7.111 1.11-5.775-1.11 1.336-2.219 2.006-4.224 2.006-6.883 0-2.674-.668-6.67-2.006-7.111-1.336-.441-7.993 2.219-12.886 2.219-4.892 0-15.786-3.114-17.778-1.336-2.006 1.778-4.665 10.895-6.002 16-1.336 5.12-3.556 2.006-3.328-.441.213-2.446 1.11-10.667-.228-9.33s-.896 7.552-1.778 9.557c-.892 1.991-3.552 1.549-3.552 1.549" fill="#fff"/><path d="M355.335 226.224s2.887 16.569 13.781 23.779c10.88 7.197 56.576 5.333 64.441-.228 7.865-5.547 15.104-19.114 15.104-19.114s-6.443 0-8.661-2.432c-6.443 3.556-10.225 1.991-11.548-.228-5.12 5.105-4.679 2.006-5.333.441-4.452 5.12-10.895 2.006-12.899.228-4.437 2.887-11.108 1.11-12.444-.668-5.105 4.437-12.658 3.328-14.222 1.336-3.328 5.547-8.221 3.555-10.88 1.778-3.784 3.555-5.333-.455-6.67-2.887-3.118 5.334-8.223 1.55-10.669-2.005" fill="#015121"/><g fill="#fff"><path d="M333.115 247.112s6.883.882 12.216-3.997c5.333-4.892 14.45-7.339 21.12 0 6.67 7.324 14.222 7.111 19.997 1.11 5.775-6.001 14.45-8.846 22.67-.655 8.221 8.206 15.332 4.693 20.224 0 4.878-4.679 15.104-7.751 21.774 0 6.67 7.766 11.335 3.541 11.335 3.541l-2.887 20.437s-2.006.455-8.221-4.878c-6.229-5.333-14.89-7.339-21.12-.668-6.215 6.67-15.559 6.883-22.215.441-6.67-6.443-14.45-5.775-20.224-.668-5.775 5.12-15.786 7.552-23.779 0-8.007-7.552-14.89-3.769-18.887.228-4.01 3.997-9.415 5.561-9.415 5.561l-2.588-20.452zM339.96 283.597c1.763-.597 3.655-1.564 5.376-3.157 5.333-4.878 14.45-7.324 21.105 0 6.67 7.339 14.222 7.111 20.01 1.123 5.775-6.001 14.435-8.861 22.656-.64 8.221 8.192 15.332 4.679 20.224 0 4.892-4.693 15.118-7.766 21.774 0 1.336 1.536 2.588 2.603 3.741 3.328 1.152 4.423-5.105 14.478-5.959 13.923-5.902-3.868-13.227-4.679-18.659 1.166-6.229 6.656-15.559 6.883-22.229.441-6.67-6.443-14.435-5.775-20.224-.668-5.775 5.105-15.772 7.552-23.779 0-6.912-6.542-13.013-4.579-17.109-1.351-.641.497-10.61-12.9-6.927-14.165M357.321 312.737c3.172.199 6.357 1.55 9.13 4.594 6.656 7.339 14.222 7.111 19.997 1.11s14.435-8.846 22.67-.64c8.221 8.206 15.332 4.693 20.21 0 1.778-1.707 4.267-3.2 7.04-4.039-9.159 13.141-35.256 26.481-38.74 26.468-3.53-.016-31.845-12.446-40.307-27.493"/></g><path d="M351.335 172.005c1.11-2.446 4.864-1.778 5.988 0 1.123 1.778-7.097 2.446-5.988 0"/><g fill="#dd8b59"><path d="M339.14 280.446c-1.351 1.636 17.081 9.699 17.081 9.699s1.636 8.747 3.114 7.637c1.465-1.11 7.779.099 7.779.099s1.508 26.126 30.663 26.126 36.992-27.918 36.992-27.918 10.524.114 11.761.754-2.532-3.456-.981-6.699c1.564-3.256 5.333-7.04 3.114-7.921-2.219-.896-25.77 5.561-25.77 5.561s.441 21.105-25.117 21.105c-25.557 0-22.215-13.781-22.215-13.781s-34.344-17.208-36.421-14.662"/><path d="M376.672 303.251c0 .683-.541 1.224-1.224 1.224a1.215 1.215 0 0 1-1.224-1.224v-56.248c0-.683.541-1.224 1.224-1.224.683 0 1.224.541 1.224 1.224v56.248zM397.779 310.115a.99.99 0 0 1-.996.996c-.554 0-1.01-.441-1.01-.996v-67.113c0-.554.455-.996 1.01-.996s.996.441.996.996v67.113zM419.779 306.445c0 .612-.498 1.11-1.11 1.11s-1.11-.498-1.11-1.11v-59.548c0-.612.498-1.123 1.11-1.123s1.11.512 1.11 1.123v59.548z"/></g><g fill="#fecf3d"><path d="M367.998 256.001s2.006 3.997 8.661 2.219c6.67-1.778 6.898-7.324 6.898-7.324l-15.559 5.105zM404.668 247.112l-15.104 3.783s1.55 4.921 7.21 3.797c5.675-1.137 7.894-7.58 7.894-7.58M411.332 254.223s3.556 4.224 8.447 2.659c4.878-1.55 7.993-7.324 7.993-7.324l-16.44 4.665zM385.778 258.682l-19.058 5.234s-1.834 3.413-1.166 6.969c.668 3.556 2.446 6.898 2.446 6.898s1.778-4.452 6.229-5.333c4.437-.896 7.552 2.674 7.552 2.674s-1.705-8.165 3.997-16.442M389.558 258.682s-3.883 2.204-3.783 8.889c.056 3.655 3.783 8.249 3.783 8.249s2.006-3.598 6.215-4.935c4.224-1.323 8.889 2.446 8.889 2.446s-1.75-5.39-1.11-9.557c.64-4.167 3.556-9.059 3.556-9.059l-17.55 3.967zM410.005 262.003s-1.336 2.901-1.336 6.229 2.674 9.543 2.674 9.543 1.323-4.665 6.215-5.775c4.892-1.11 7.552 2.219 7.552 2.219s-1.636-3.286-.924-8.092c.711-4.793 5.603-8.889 5.603-8.889l-19.784 4.765zM382.445 276.666l-16.654 3.114s1.991 5.333 8.32 4.665c6.328-.668 8.334-7.779 8.334-7.779M405.557 275.818s-16 .868-16 1.963c0 1.081 1.55 5.105 6.883 4.21 5.333-.882 9.117-6.173 9.117-6.173M426.223 276.666l-15.772 3.527s2.219 4.025 7.879 2.916c5.675-1.109 7.893-6.443 7.893-6.443"/></g><g fill="#ff0100"><path d="M374.224 247l-11.776 3.883 11.776 1.265V247zM396.653 243.202l-11.776 3.883 11.776 1.265v-5.148zM418.89 245.779l-11.776 3.883 11.776 1.265v-5.148z"/></g></svg>