<svg xmlns="http://www.w3.org/2000/svg" viewBox="0 0 512 512">
    <path d="M0 184.889h80.043L0 128.854v56.035zm66.333 256h118.556v-83.015L66.333 440.889zm260.778-83.002v83.002h118.543L327.11 357.887zM0 327.111v56.05l80.071-56.05H0zm445.725-256H327.154v83.015l118.571-83.015zm-13.81 256L512 383.175v-56.064h-80.085zm.029-142.222H512v-56.05l-80.056 56.05zM184.889 71.111H66.333l118.556 83.015V71.111z" fill="#00247d"/>
    <path d="M357.546 327.111l138.126 96.725c6.7-6.826 11.492-15.389 14.08-24.875L407.14 327.11h-49.593zm-172.657 0h-30.45L16.326 423.823c7.41 7.537 16.91 12.927 27.563 15.43l140.999-98.73V327.11zm142.222-142.222h30.45l138.113-96.712c-7.41-7.537-16.91-12.927-27.549-15.43l-141.014 98.73v13.412zm-172.672 0L16.327 88.177c-6.698 6.827-11.49 15.39-14.093 24.876l102.613 71.836h49.592z" fill="#cf1b2b"/>
    <path d="M512 298.666H298.666V440.89h28.445v-83.002l118.543 83.002h9.457c15.886 0 30.236-6.557 40.561-17.053l-138.126-96.725h49.593l102.613 71.851c1.323-4.792 2.248-9.756 2.248-14.96v-.826l-80.085-56.064H512v-28.446zm-512 0v28.445h80.071L0 383.161V384c0 15.516 6.244 29.554 16.328 39.822l138.112-96.71h30.45v13.41l-141 98.732c4.181.981 8.505 1.635 12.999 1.635h9.444l118.556-83.015v83.015h28.445V298.666H0zM512 128c0-15.516-6.244-29.554-16.328-39.822l-138.112 96.71h-30.45v-13.41l141.015-98.732c-4.195-.981-8.519-1.635-13.014-1.635h-9.428L327.11 154.126V71.111h-28.445v142.223H512v-28.445h-80.057L512 128.839V128zM184.889 71.111v83.015L66.333 71.111h-9.444c-15.9 0-30.236 6.557-40.561 17.067l138.112 96.71h-49.594L2.232 113.054C.926 117.845 0 122.795 0 128v.839l80.043 56.05H0v28.445h213.334V71.11h-28.445z" fill="#eee"/>
    <path d="M298.666 213.334V71.11h-85.334v142.223H0v85.332h213.334V440.89h85.334V298.666H512v-85.332H298.666z" fill="#cf1b2b"/>
</svg>
