<svg xmlns="http://www.w3.org/2000/svg" viewBox="0 0 512 512">
    <path d="M455.111 71.111H291.555v149.334H512V128c0-31.418-25.473-56.889-56.889-56.889" fill="#eee"/>
    <path d="M291.555 71.111h-71.111v149.334H0v71.111h220.445V440.89h71.111V291.556H512v-71.111H291.555V71.111z" fill="#e8112d"/>
    <path d="M411.235 136.32a193.242 193.242 0 0 1 3.142-26.454 100.856 100.856 0 0 1-25.187 0 193.024 193.024 0 0 1 3.142 26.454 192.987 192.987 0 0 1-26.453-3.142 100.856 100.856 0 0 1 0 25.187 192.747 192.747 0 0 1 26.453-3.143 193.242 193.242 0 0 1-3.142 26.454 100.856 100.856 0 0 1 25.188 0 193.024 193.024 0 0 1-3.143-26.454c8.86.442 17.692 1.48 26.454 3.143a100.856 100.856 0 0 1 0-25.188 193.219 193.219 0 0 1-26.454 3.143" fill="#e8112d"/>
    <path d="M220.445 71.111H56.889C25.472 71.111 0 96.582 0 128v92.445h220.445V71.111z" fill="#eee"/>
    <path d="M94.055 136.32a193.242 193.242 0 0 1 3.142-26.454 100.856 100.856 0 0 1-25.187 0 193.024 193.024 0 0 1 3.142 26.454 192.987 192.987 0 0 1-26.453-3.142 100.856 100.856 0 0 1 0 25.187 192.747 192.747 0 0 1 26.454-3.143 193.242 193.242 0 0 1-3.143 26.454 100.856 100.856 0 0 1 25.188 0 193.024 193.024 0 0 1-3.143-26.454c8.86.442 17.692 1.48 26.454 3.143a100.856 100.856 0 0 1 0-25.188 193.242 193.242 0 0 1-26.454 3.143" fill="#e8112d"/>
    <path d="M512 384v-92.445H291.555v149.334H455.11c31.417 0 56.89-25.471 56.89-56.889" fill="#eee"/>
    <path d="M411.235 375.68a193.242 193.242 0 0 0 3.142 26.454 100.856 100.856 0 0 0-25.187 0 193.024 193.024 0 0 0 3.142-26.454 192.987 192.987 0 0 0-26.453 3.142 100.856 100.856 0 0 0 0-25.187 192.747 192.747 0 0 0 26.453 3.142 193.242 193.242 0 0 0-3.142-26.453 100.856 100.856 0 0 0 25.188 0 193.024 193.024 0 0 0-3.143 26.453 193.242 193.242 0 0 0 26.454-3.142 100.856 100.856 0 0 0 0 25.187 193.219 193.219 0 0 0-26.454-3.142" fill="#e8112d"/>
    <path d="M220.445 291.555H0V384c0 31.418 25.473 56.889 56.889 56.889h163.555V291.555z" fill="#eee"/>
    <path d="M94.055 375.68a193.242 193.242 0 0 0 3.142 26.454 100.856 100.856 0 0 0-25.187 0 193.024 193.024 0 0 0 3.142-26.454 192.987 192.987 0 0 0-26.453 3.142 100.856 100.856 0 0 0 0-25.187 192.747 192.747 0 0 0 26.454 3.142 193.242 193.242 0 0 0-3.143-26.453 100.856 100.856 0 0 0 25.188 0 193.024 193.024 0 0 0-3.143 26.453 193.242 193.242 0 0 0 26.454-3.142 100.856 100.856 0 0 0 0 25.187 193.242 193.242 0 0 0-26.454-3.142" fill="#e8112d"/>
</svg>
