<svg xmlns="http://www.w3.org/2000/svg" viewBox="0 0 512 512">
    <path d="M455.111 71.111H56.889C25.472 71.111 0 96.583 0 128v256c0 31.417 25.472 56.889 56.889 56.889h398.222C486.528 440.889 512 415.417 512 384V128c0-31.417-25.472-56.889-56.889-56.889z" fill="#eee"/>
    <path d="M298.667 440.889h-85.333V298.667H0v-85.333h213.333V71.111h85.333v142.222H512v85.333H298.667v142.223z" fill="#e8112d"/>
    <g fill="#f9dd16">
        <path d="M270.222 135.111l14.222-14.222h-56.888l14.222 14.222v241.778l-14.222 14.222h56.888l-14.222-14.222V135.111z"/>
        <path d="M391.111 241.778H120.889l-14.222-14.222v56.889l14.222-14.222h270.222l14.222 14.222v-56.889l-14.222 14.222z"/>
    </g>
</svg>
