<svg xmlns="http://www.w3.org/2000/svg" viewBox="0 0 512 512">
    <path d="M455.111 71.111H56.89C25.472 71.111 0 96.582 0 128v71.111h512V128c0-31.418-25.473-56.889-56.889-56.889" fill="#cc212d"/>
    <path d="M219.349 312.889h73.756l-36.879-26.795-36.877 26.795zm51.016-70.271h45.725l-36.992 26.88 14.093 43.392H512V199.112H256.227l14.138 43.506zm-37.006 26.893l-37.006-26.88h45.738l14.123-43.491H0v113.778h219.25l14.109-43.407z" fill="#fbd116"/>
    <path d="M293.22 312.974l-.128-.085H219.35l-.128.085.03-.085H0V384c0 31.418 25.473 56.889 56.889 56.889H455.11c31.42 0 56.89-25.473 56.89-56.889v-71.111H293.191l.029.085z" fill="#288541"/>
    <path d="M196.366 242.618l37.006 26.88-14.122 43.39-.029.1.128-.1 36.879-26.78 36.878 26.78.128.1-.043-.1-14.094-43.392 36.993-26.88h-45.725l-14.138-43.506-14.137 43.506h-45.724z"/>
</svg>
