<svg xmlns="http://www.w3.org/2000/svg" viewBox="0 0 512 512"><path d="M512 384c0 31.418-25.473 56.889-56.889 56.889H56.89C25.472 440.889 0 415.417 0 384v-71.111h512V384z" fill="#da1c0b"/><path d="M455.111 71.111H56.89C25.472 71.111 0 96.582 0 128v199.111h512V128c0-31.418-25.473-56.889-56.889-56.889" fill="#eee"/><g fill="#da1c0b"><path d="M205.525 147.385v11.065H194.46v-11.065h-22.144v11.065h-11.079v-11.065h-11.065v22.144h11.065v55.352h44.288V169.53H216.604v-22.144h-11.079z"/><path d="M216.761 202.738v11.065h-11.079v-11.065h-11.064v11.065h-22.144v-11.065h-11.079v11.065H150.33v-11.065h-11.065v22.143-.013.013h11.065v60.502l-11.065 5.916v11.065h88.562v-11.065l-11.065-5.916V224.88h11.065v-22.143h-11.066z"/></g><path d="M194.46 213.803h-22.144v-22.144h22.144v22.144z"/><path d="M194.46 191.672a11.06 11.06 0 0 1-11.065 11.065c-6.115 0-11.079-4.948-11.079-11.065 0-6.115 4.964-11.065 11.079-11.065a11.06 11.06 0 0 1 11.065 11.065M194.46 261.405c0-8.832-2.232-16-11.065-16-8.832 0-11.079 7.167-11.079 16v18.845h22.144v-18.845z"/><g fill="#da1c0b"><path d="M354.275 147.385v11.065H343.21v-11.065h-22.144v11.065h-11.065v-11.065h-11.093v22.144H310v55.352h44.274V169.53h11.079v-22.144h-11.078z"/><path d="M365.355 202.738v11.065h-11.079v-11.065h-11.079v11.065h-22.13v-11.065H309.99v11.065H298.91v-11.065h-11.051v22.143-.013.013h11.051v60.502l-11.051 5.916v11.065h88.548v-11.065l-11.05-5.916V224.88h11.05v-22.143h-11.052z"/></g><path d="M343.211 213.803h-22.144v-22.144h22.144v22.144z"/><path d="M343.183 191.672c0 6.115-4.964 11.065-11.065 11.065-6.115 0-11.08-4.948-11.08-11.065 0-6.115 4.964-11.065 11.08-11.065 6.1 0 11.064 4.95 11.064 11.065M356.285 261.405c0-8.832-2.232-16-11.065-16-8.832 0-11.079 7.167-11.079 16v18.845h22.144v-18.845z"/><g fill="#da1c0b"><path d="M284.445 113.778V128h-14.223v-14.223h-28.445V128h-14.222v-14.223h-14.223v28.446h14.222v71.11h56.888v-71.11h14.222v-28.445h-14.219z"/><path d="M298.666 184.889v14.222h-14.222V184.89H270.22v14.222h-28.445V184.89h-14.222v14.222H213.33V184.89H199.11v128h113.777v-128h-14.22z"/></g><path d="M270.222 199.097h-28.445v-28.445h28.445v28.446z"/><path d="M270.222 170.666c0 7.851-6.37 14.223-14.222 14.223s-14.223-6.372-14.223-14.223c0-7.851 6.372-14.222 14.223-14.222s14.222 6.372 14.222 14.222M276.537 260.239c0-11.349-9.187-20.551-20.537-20.551s-20.551 9.2-20.551 20.55v30.82h41.087v-30.82z"/><path d="M258.275 332.075v1.906l15.346 15.318-15.346 15.331v67.1h-4.949v-7.509h-16.938v-10.055h4.948v5.149h11.989v-14.934h-11.989v5.049h-4.949v-9.984h16.94v-34.845l-15.36-15.302 15.36-15.26v-1.963h4.948z" fill="#fff100"/><path d="M255.829 359.936l10.639-10.638-10.64-10.653-10.638 10.653 10.639 10.638z" fill="#da1c0b"/><g fill="#fff100"><path d="M259.655 332.075c0 2.973-1.579 5.361-3.513 5.361-1.948 0-3.54-2.389-3.54-5.361v-19.186c0-2.944 1.592-5.334 3.54-5.334 1.934 0 3.513 2.389 3.513 5.334v19.186zm-1.564-28.842h-4.181c-3.456 0-6.258 4.252-6.258 9.515v19.028c0 5.248 2.802 9.5 6.258 9.5h4.181c3.456 0 6.273-4.252 6.273-9.5v-19.029c-.002-5.262-2.818-9.515-6.273-9.515"/><path d="M274.859 288.214c-1.521-.854-3.555-.825-4.523.042L256 301.184l-14.336-12.928c-.968-.867-2.986-.896-4.523-.042-1.536.839-1.991 2.219-1.024 3.1l17.522 15.759c.555.483 1.422.64 2.361.582.939.058 1.806-.1 2.361-.582l17.521-15.76c.982-.88.513-2.26-1.023-3.1"/></g></svg>