<svg xmlns="http://www.w3.org/2000/svg" viewBox="0 0 512 512">
    <path d="M455.111 71.111H341.334V440.89H455.11C486.53 440.889 512 415.416 512 384V128c0-31.417-25.473-56.889-56.889-56.889m-398.222 0C25.472 71.111 0 96.582 0 128v256c0 31.418 25.473 56.889 56.889 56.889h113.777V71.11H56.89z" fill="#4997d0"/>
    <path d="M170.666 440.889h170.666V71.11H170.666v369.78z" fill="#eee"/>
    <g fill="#437e24">
        <path d="M243.626 306.19c-7.95-3.271-11.207-11.79-10.438-16.399.327-1.934 1.223-3.129 2.09.1 1.025 3.925 3.955 2.959 6.258 10.425 1.195 3.812 2.248 4.565 7.212 6.827m-6.685-.327c-14.692-2.247-14.28 4.438-21.59 6.599-2.09.626-2.773 1.792.64 2.105 14.948 1.28 17.11-9.642 25.53-6.357m-20.453-7.794c-4.366-2.134-12.018-4.822-16.64-3.372-4.651 1.437-5.461 1.978-1.92 3.727 12.203 6.115 16.995.241 22.258 1.422m-9.117-5.048c-8.69-6.258-7.239-9.97-9.557-13.583-2.333-3.626-2.02-4.522 1.208-2.319 10.91 7.368 6.343 12.928 10.425 15.246"/>
        <path d="M210.674 288.754c-8.05-10.838-1.223-13.469-1.793-16.242-.555-2.716.156-3.186 1.693.172 4.011 8.931-2.973 12.06 2.005 17.108m-13.042-17.195c-1.933-4.408-6.513-5.916-8.518-5.702-2.005.256-4.565.569-6.017.085s-1.45 1.692 2.574 3.385c3.996 1.679 12.999 5.22 15.019 8.661m-7.125-27.705c.227-4.906.968-7.879 4.011-10.61 3.058-2.716 4.594-3.072 3.385-.725-2.589 4.978-1.052 8.349-6.514 15.503m-.071-13.854c-.654-7.466-4.494-7.31-5.702-10.695-1.195-3.371-1.978-.54-1.536 2.645.725 5.234 6.272 8.69 6.272 13.667"/>
        <path d="M196.025 245.305c.256-4.75-.328-8.675-1.92-11.491-1.621-2.816-1.209.725-2.66 3.854-1.635 3.54-1.039 11.164 4.025 17.108"/>
        <path d="M198.371 231.722c.399-9.885-3.626-9.798-4.821-14.066-1.209-4.266-1.451-3.257-2.02.171-2.574 15.574 5.959 13.81 5.134 19.827m5.875-18.375c1.039-6.358-1.338-8.021 1.137-11.975 1.195-1.934 3.044-4.494 2.56-1.294-.497 3.213-.085 8.276-3.697 13.269"/>
        <path d="M198.614 229.39c1.038-7.794-4.48-14.265-.484-20.892 2.076-3.457 3.171-3.77 2.944-.968-.384 4.993 4.537 10.367-1.82 20.253"/>
        <path d="M237.81 303.545c10.78 2.888 19.485 6.997 22.371 10.539-.171 1.451-2.944 1.195-3.271 2.005-8.193-8.69-17.508-6.926-29.384-13.654-39.992-22.685-36.651-57.542-25.23-83.086 1.479-3.343 3.115-6.585 3.441-10.198.355-3.94 3.555-6.201 7.567-7.481 3.427-1.095 2.361.513 1.108 1.849-2.46 2.66-.61 6.115-7.452 10.695-1.693 1.109-2.346 2.687-3.385 5.134-20.08 47.077 5.136 76.374 34.235 84.197"/>
        <path d="M199.395 230.115c1.052-3.044 3.84-9.727 8.035-10.838 4.181-1.123 8.035-3.072 9.97-8.674.654-1.963 2.076-6.287-.654-2.902-2.716 3.385-7.95.555-13.326 11.321-.981 1.934-3.385 6.115-5.234 12.303"/>
        <path d="M197.632 231.965c2.745-9.814 8.292-8.291 10.938-11.819 2.66-3.527 3.698-3.598 2.105.968-3.94 11.094-11.833 10.525-13.113 15.672"/>
        <path d="M197.078 237.895c2.887-10.041 9.785-8.675 12.715-12.942 2.858-4.253 3.982-4.722 3.413.327-1.478 13.525-15.487 8.605-16.37 16.071"/>
        <path d="M195.072 244.977c1.124-10.752 9.885-9.557 12.602-12.373 1.066-1.095 1.635 1.592-.313 4.422-4.736 6.826-10.197 2.248-10.851 9.558m.325 11.976c-1.138-10.851-8.035-14.138-9.643-18.161s-1.322.881-.967 3.3c2.161 14.379 7.794 9.472 9.315 17.507"/>
        <path d="M195.626 262.173c-1.436-7.553 1.209-13.27 5.546-16.313 4.338-3.058 3.243-1.294 2.902 1.365-1.693 12.943-8.05 7.808-6.273 17.053"/>
        <path d="M197.546 264.647c-2.176-7.466-7.622-10.525-11.633-10.766-4.025-.227-1.095 1.309-.498 2.731 3.541 8.363 9.728 4.907 11.989 11.407"/>
        <path d="M205.511 281.614c-3.684-5.376-2.972-9.315-6.741-12.601-3.783-3.314-6.67-3.642-8.605-5.647-1.92-1.991-2.134.399-.328 4.025 4.126 8.193 10.056 7.481 13.412 13.34"/>
        <path d="M203.335 278.315c-1.679-3.441-.469-13.498.74-18.716 1.209-5.234.328-6.059-2.091-3.214-2.973 3.441-7.154 8.349.796 21.931m2.504 3.71c-7.794-9.401-13.269-5.689-17.124-7.95-3.869-2.232-1.764 1.266-.698 2.333 10.994 11.022 12.587 2.404 18.788 8.605"/>
        <path d="M204.544 280.889c-3.854-6.016-3.854-11.734-1.209-17.124 2.432-4.921 3.171-3.527 2.901.241-.256 3.613 2.788 5.063.796 11.961-.64 2.275-1.108 6.927 1.764 9.955m4.964 5.79c-3.142-3.683-5.959-7.196-10.766-7.78-4.821-.555-6.528-1.266-4.025 1.778 8.675 10.525 13.085 5.931 17.436 9.159"/>
        <path d="M219.605 295.439c-3.84-2.361-11.62-4.21-17.138-3.044-3.1.654-2.033 1.223.072 1.849 4.138 1.251 5.376 5.405 14.35 4.75 1.763-.128 3.612-.683 6.783 1.081"/>
        <path d="M223.346 298.666c-4.422-2.816-7.211-9.33-7.865-15.9-.355-3.584.598-5.319 2.161-1.451 1.934 4.75 5.39 4.636 7.553 11.805 1.963 6.442 3.229 7.154 6.599 8.519"/>
        <path d="M234.041 303.275c-5.959-3.2-8.931-8.263-9.642-14.223-.654-5.447.711-4.665 2.546-1.365 1.764 3.158 5.091 2.688 7.211 9.587.698 2.232 2.304 5.773 6.855 7.153m-1.125.795c-9.301-2.887-17.862-2.573-22.955 1.21-2.56 1.89-1.862 2.602.328 2.247 6.243-.995 8.746 2.589 16.285-.796 1.635-.725 4.422-1.55 10.623.796m23.581-2.603c8.05-3.327 11.32-11.919 10.552-16.569-.313-1.962-1.222-3.17-2.119.072-1.052 3.982-3.967 3.015-6.328 10.567-1.195 3.826-2.262 4.623-7.282 6.898m6.727-.328c14.847-2.275 14.435 4.48 21.86 6.67 2.105.64 2.773 1.82-.67 2.134-15.118 1.28-17.308-9.756-25.827-6.442m20.637-7.879c4.395-2.119 12.146-4.864 16.838-3.414 4.694 1.451 5.49 2.005 1.906 3.769-12.33 6.186-17.166.241-22.5 1.436m9.246-5.035c8.803-6.329 7.338-10.069 9.67-13.725 2.362-3.684 2.048-4.58-1.194-2.346-11.036 7.466-6.414 13.07-10.581 15.417"/>
        <path d="M301.085 288.441c8.106-10.951 1.222-13.625 1.777-16.399.583-2.773-.142-3.257-1.692.157-4.054 9.017 3.001 12.188-2.034 17.308m13.213-17.38c1.92-4.466 6.556-6 8.59-5.788 2.047.27 4.636.569 6.072.1 1.508-.484 1.508 1.692-2.574 3.414-4.067 1.706-13.17 5.29-15.175 8.76m7.139-28.003c-.285-4.964-.967-7.965-4.054-10.724-3.086-2.773-4.636-3.115-3.413-.74 2.574 5.035 1.024 8.448 6.556 15.673m.101-13.894c.669-7.553 4.58-7.41 5.774-10.822 1.222-3.4 2.005-.54 1.565 2.687-.754 5.291-6.342 8.789-6.342 13.81"/>
        <path d="M315.875 244.509c-.256-4.793.299-8.775 1.949-11.62 1.635-2.859 1.251.74 2.687 3.911 1.635 3.57 1.053 11.279-4.054 17.294"/>
        <path d="M313.457 230.77c-.412-9.984 3.642-9.899 4.864-14.223 1.223-4.294 1.465-3.3 2.02.186 2.618 15.743-6.001 13.966-5.191 20.053m-5.888-18.603c-1.08-6.414 1.338-8.107-1.137-12.103-1.251-1.949-3.115-4.551-2.645-1.294.511 3.243.085 8.363 3.783 13.397"/>
        <path d="M313.174 228.424c-1.053-7.879 4.522-14.408.469-21.12-2.105-3.499-3.214-3.811-3.002-.981.426 5.048-4.551 10.48 1.863 20.48"/>
        <path d="M273.565 303.403c-10.866 2.915-20.21 7.552-23.154 11.12.156 1.466 3.528.74 3.854 1.566 8.291-8.789 17.664-7.011 29.71-13.795 40.42-22.955 37.035-58.198 25.5-84.039-1.494-3.385-3.158-6.656-3.499-10.297-.327-3.983-3.584-6.258-7.609-7.567-3.47-1.124-2.417.526-1.137 1.878 2.502 2.673.611 6.172 7.553 10.795 1.692 1.137 2.36 2.731 3.398 5.191 20.324 47.601-5.176 77.24-34.616 85.147"/>
        <path d="M312.405 229.149c-1.052-3.087-3.882-9.828-8.135-10.965-4.195-1.138-8.092-3.087-10.055-8.762-.669-1.977-2.119-6.357.669-2.93 2.745 3.414 8.05.555 13.469 11.45.995 1.948 3.413 6.172 5.276 12.43"/>
        <path d="M314.169 231.026c-2.774-9.912-8.391-8.391-11.051-11.946-2.703-3.57-3.755-3.626-2.12.968 3.983 11.207 11.947 10.652 13.227 15.843"/>
        <path d="M314.738 237.028c-2.915-10.155-9.885-8.775-12.83-13.085-2.914-4.31-4.053-4.793-3.498.34 1.521 13.655 15.688 8.676 16.582 16.242"/>
        <path d="M316.786 244.181c-1.109-10.88-9.97-9.671-12.742-12.515-1.095-1.109-1.65 1.608.327 4.48 4.779 6.898 10.311 2.261 10.965 9.658m-.314 12.102c1.11-10.951 8.107-14.294 9.757-18.361 1.607-4.067 1.322.896.967 3.328-2.19 14.535-7.894 9.586-9.415 17.72"/>
        <path d="M316.303 261.575c1.45-7.638-1.223-13.411-5.618-16.498-4.353-3.086-3.271-1.308-2.915 1.38 1.706 13.085 8.121 7.894 6.342 17.238"/>
        <path d="M314.311 264.092c2.19-7.552 7.752-10.652 11.805-10.893 4.054-.242 1.082 1.322.498 2.758-3.584 8.448-9.856 4.95-12.131 11.534"/>
        <path d="M306.261 281.216c3.698-5.447 3.001-9.415 6.813-12.757 3.797-3.328 6.741-3.655 8.69-5.675 1.948-2.034 2.161.384.327 4.054-4.167 8.29-10.169 7.566-13.582 13.497"/>
        <path d="M308.466 277.903c1.664-3.5.469-13.654-.754-18.93-1.223-5.292-.355-6.115 2.12-3.258 3 3.485 7.224 8.448-.812 22.186m-2.531 3.741c7.894-9.515 13.411-5.773 17.309-8.035 3.882-2.29 1.777 1.28.724 2.333-11.15 11.136-12.757 2.432-19.028 8.69"/>
        <path d="M307.214 280.491c3.911-6.087 3.911-11.847 1.251-17.293-2.475-4.993-3.2-3.555-2.972.24.27 3.656-2.802 5.107-.812 12.103.669 2.29 1.138 6.998-1.748 10.069m-4.978 5.831c3.171-3.74 6.001-7.281 10.894-7.879 4.85-.555 6.585-1.293 4.081 1.793-8.804 10.624-13.284 6.016-17.664 9.287"/>
        <path d="M291.983 295.225c3.853-2.404 11.747-4.266 17.308-3.086 3.129.654 2.076 1.224-.057 1.862-4.168 1.28-5.419 5.475-14.535 4.808-1.749-.128-3.599-.683-6.827 1.081"/>
        <path d="M288.241 298.382c4.438-2.83 7.281-9.443 7.95-16.07.355-3.627-.64-5.406-2.205-1.48-1.934 4.808-5.447 4.722-7.666 11.947-1.934 6.5-3.214 7.239-6.67 8.59"/>
        <path d="M277.376 303.146c6.03-3.257 9.032-8.349 9.772-14.392.64-5.519-.712-4.721-2.574-1.38-1.778 3.186-5.163 2.731-7.31 9.7-.698 2.261-2.304 5.845-6.913 7.239m1.151.782c9.415-2.915 18.077-2.589 23.197 1.222 2.602 1.92 1.92 2.632-.313 2.29-6.3-1.01-8.86 2.603-16.469-.838-1.634-.711-4.466-1.536-10.737.839"/>
    </g>
    <path d="M236.017 262.001s-10.85 9.757-12.188 11.079c-1.323 1.323-2.66 7.098-2.66 7.098l3.555 2.218 15.744-16.185-4.45-4.21z" fill="#b1b6ba"/>
    <path d="M220.956 279.965l3.328 2.645s-2.873 2.888-3.328 5.774c-.441 2.887-8.206 11.734-9.756 13.952-1.536 2.233-3.555 1.764-4.438 0-.867-1.764-2.858-3.1-3.086-4.422s4.879-5.988 7.31-8.648c2.433-2.66 5.091-3.755 6.429-5.305 1.323-1.565 3.541-3.996 3.541-3.996m15.744-15.531l-6.727 7.524 1.806 1.792 6.471-7.31-1.55-2.006z" fill="#6c301e"/>
    <path d="M205.654 198.826l21.49 22.387 5.319-2.66-1.65-2.418-3.67.868-21.49-18.177z" fill="#b1b6ba"/>
    <path d="M232.476 291.898l2.66 4.466 2.418-2.248s1.962 3.555 0 4.21c-1.978.683-3.442 0-3.442 0l-6.727 5.504s-2.66-1.607-4.879 0c0 0 .455-3.271 1.778-3.271s6.172-6.429 6.172-6.429-2.56-.711-2.047-2.232c.526-1.523 4.067 0 4.067 0" fill="#fab81b"/>
    <g fill="#b1b6ba">
        <path d="M232.476 293.689s39.424-39.225 55.851-40.704c0 0-12.416 7.553-20.18 13.753-7.766 6.215-33.01 29.61-33.01 29.61l-2.66-2.66z"/>
        <path d="M277.234 262.001s10.866 9.757 12.16 11.079c1.337 1.323 2.674 7.098 2.674 7.098l-3.528 2.218-15.744-16.185 4.438-4.21z"/>
    </g>
    <path d="M292.295 279.965l-3.327 2.645s2.887 2.888 3.327 5.774c.441 2.887 8.22 11.734 9.756 13.952 1.55 2.233 3.555 1.764 4.438 0 .896-1.764 2.859-3.1 3.086-4.422.241-1.323-4.892-5.988-7.31-8.648-2.417-2.66-5.077-3.755-6.414-5.305-1.337-1.565-3.556-3.996-3.556-3.996m-15.758-15.531l6.728 7.524-1.777 1.792-6.472-7.31 1.521-2.006z" fill="#6c301e"/>
    <g fill="#b1b6ba">
        <path d="M267.165 231.31l-2.502 7.069 21.418-21.376-3.3-.598-15.616 14.905z"/>
        <path d="M307.57 198.826l-21.504 22.387-5.305-2.66 5.305-1.55 21.504-18.177z"/>
    </g>
    <path d="M280.761 291.898l-2.645 4.466-2.403-2.248s-1.978 3.555 0 4.21c1.933.683 3.44 0 3.44 0l6.713 5.504s2.674-1.607 4.864 0c0 0-.441-3.271-1.777-3.271s-6.16-6.429-6.16-6.429 2.547-.711 2.02-2.232c-.497-1.523-4.052 0-4.052 0" fill="#fab81b"/>
    <path d="M280.761 293.689s-39.439-39.225-55.836-40.704c0 0 12.43 7.553 20.181 13.753 7.765 6.215 33.01 29.61 33.01 29.61l2.645-2.66z" fill="#b1b6ba"/>
    <path d="M232.775 215.666c6.442-.37 25.031.228 31.915 0 6.855-.214 5.305 3.328 5.746 5.334.441 1.978-3.74 4.195-3.74 4.195s4.409 2.66 10.183 18.176c5.746 15.516 4.422 22.599-3.328 23.054-7.751.441-27.691 1.764-34.361 1.764-6.641 0-7.751-2.433-7.751-5.988 0-3.541 5.319-8.86 10.639-5.845 0 0 0-2.361-3.087-11.221-3.1-8.86-9.756-18.389-10.425-22.599-.669-4.211.881-6.671 4.209-6.87" fill="#f9f0aa"/>
    <path d="M252.274 200.377c-2.66-2.446 1.038-5.106 3.74-4.878 2.673.227 4.011 1.764 1.137 4.879 0 0 7.765 4.21 13.953 9.97 6.186 5.76 18.943 21.304 20.167 38.114 1.55 21.718-10.425 33.024-14.862 40.762-4.423 7.765-14.393 27.279-14.393 27.279s-.214-9.984 12.858-28.16c0 0-10.183 18.176-25.913 21.503 0 0 19.684-13.881 25.216-24.974 5.533-11.065 13.625-27.718 12.317-39.238-1.338-11.534-3.428-21.319-18.703-28.871 0 0-9.685-.54-13.966-3.983-6.87-5.547-1.551-12.402-1.551-12.402" fill="#437e24"/>
    <path d="M266.695 225.138c0 .668 2.873 4.266 2.489 4.266H235.32c-.37 0-2.275-2.333-2.275-3.015l-2.574-3.015c2.005.782 4.48 0 4.85 0h33.85c.382 0-2.477 1.095-2.477 1.764m-24.631 39.296c0 .669-1.423 2.859-1.04 2.859h33.863c.355 0 3.485-2.347 3.485-3.015l1.365-3.015c-2.02.782-4.493 0-4.85 0h-33.862c-.37 0 1.038 2.502 1.038 3.17" fill="#e2cf81"/>
</svg>
