<svg xmlns="http://www.w3.org/2000/svg" viewBox="0 0 512 512">
    <path d="M56.889 440.889h398.222C486.528 440.889 512 415.417 512 384V256L25.74 431.594a56.602 56.602 0 0 0 31.149 9.295zM455.111 71.111H56.889a56.603 56.603 0 0 0-31.147 9.294l486.256 175.592-.003.001.005.002V128c0-31.417-25.472-56.889-56.889-56.889z" fill="#009e49"/>
    <path d="M25.742 80.405a57.132 57.132 0 0 0-6.272 4.766l25.584 18.477L462.22 255.996l-.003.001.005.002L45.058 408.347l-.002.001-25.587 18.48a56.893 56.893 0 0 0 6.267 4.763l486.259-175.593.003-.001L25.742 80.405z" fill="#fff"/>
    <path fill="#fcd116" d="M45.058 408.347L462.221 256l-.005-.002L45.058 103.653 256 256z"/>
    <path d="M45.058 408.347L256 256 45.058 103.653l-.002-.001-25.587-18.48A57.158 57.158 0 0 0 8.2 98.566l219.356 157.429-.004.003.004.003-90.827 65.185-128.528 92.25a57.143 57.143 0 0 0 11.268 13.392l25.587-18.48.002-.001z" fill="#141414"/>
    <path d="M227.552 255.997l.004-.003L8.2 98.565C2.997 107.153 0 117.227 0 128v256c0 10.774 2.997 20.848 8.201 29.436l128.528-92.251 90.823-65.188z" fill="#ce1126"/>
</svg>
