<svg xmlns="http://www.w3.org/2000/svg" viewBox="0 0 512 512"><path d="M512 384c0 31.418-25.473 56.889-56.889 56.889H56.89C25.472 440.889 0 415.417 0 384V128c0-31.418 25.472-56.889 56.889-56.889H455.11C486.53 71.111 512 96.584 512 128v256z" fill="#de2910"/><path d="M220.786 220.331c-3.811-9.187-6.215-19.599-6.556-24.42-.498-6.799-.484-13.681-.54-17.806-.1-5.987 1.593-12.473 3.613-19.782 4.28-15.532 20.01-28.9 32.88-31.858 10.61-2.446 20.353-.071 28.943 4.395 7.95 4.125 14.834 11.805 15.347 13.667.156.513-2.22-.753-3.13-1.237-1.023-.555-1.393-.469-3.356-1.451-2.29-1.18-6.2-1.452-7.936-.54-2.361 1.266-3.115 2.858-3.811 4.025-.881 1.465-1.28 1.82-1.294 4.892-.028 2.589-.028 6.713 2.063 10.325.54.968 1.095 2.503 2.076 3.854 1.934 2.645 4.353 6.087 5.86 9.586 2.034 4.665 2.816 9.315 2.546 11.008l.313 4.636c.341 6.244-3.769 21.66-16 29.454-2.688 1.706-5.633 3.996-8.733 5.675-4.522 2.446-8.42 5.02-11.093 9.813-1.58 2.86-1.323 6.03-1.252 9.202.1 5.717 1.735 11.263 3.172 14.137l.967 2.161c-.725.172-1.066-.198-1.394-.483l-1.607-1.807c-2.446-2.488-4.893-8.675-6.826-14.093-1.55-4.338-2.902-11.193-2.802-15.73.214-7.937 2.063-14.422 3.214-18.632 1.706-6.328 2.161-7.082 2.888-8.875l.127-.298c-.029-.27.043-.498-.171-.712-.441-.412-1.124-.412-1.521.014l-.157.299c-1.166 1.621-2.19 5.234-3.967 11.462-1.465 5.15-2.688 10.51-2.161 18.418.298 4.522 1.038 11.477 2.787 15.715 2.531 6.072 5.134 11.349 7.14 13.739l1.209 1.906c.114.37.285.611.512.74l.199.114c-.214 1.066-6.997-3.698-15.531-14.892-6.77-8.888-13.681-19.726-15.773-26.708" fill="#fff"/><path d="M252.943 179.726l.767 9.188 8.903 2.475-8.52 3.57.4 9.23-6.017-6.983-8.647 3.214 4.765-7.894-5.718-7.211 8.974 2.091 5.092-7.68z" fill="#de2910"/><path d="M252.943 179.726l.767 9.188 8.903 2.475-8.52 3.57.4 9.23-6.017-6.983-8.647 3.214 4.765-7.894-5.718-7.211 8.974 2.091 5.092-7.68z" fill="none" stroke="#de2910" stroke-width=".01625"/><path d="M204.401 285.298c-9.87 1.195-20.551.682-25.272-.285-6.685-1.352-13.298-3.23-17.294-4.267-5.803-1.521-11.591-4.906-18.076-8.804-13.795-8.32-22.443-27.065-21.818-40.277.513-10.866 5.419-19.584 12.046-26.681 6.115-6.543 15.36-11.079 17.294-11.094.526 0-1.337 1.934-2.047 2.688-.812.824-.812 1.222-2.29 2.816-1.764 1.906-3.073 5.617-2.66 7.523.582 2.632 1.906 3.755 2.845 4.737 1.166 1.251 1.393 1.735 4.352 2.589 2.503.725 6.458 1.835 10.525.796 1.066-.27 2.688-.37 4.266-.968 3.058-1.152 7.012-2.546 10.795-3.072 5.035-.669 9.728-.185 11.293.526l4.551.953c6.101 1.35 19.826 9.472 24.035 23.352.925 3.057 2.346 6.5 3.129 9.941 1.124 5.006 2.56 9.458 6.442 13.313 2.333 2.304 5.462 2.887 8.534 3.697 5.519 1.436 11.306 1.365 14.464.768l2.346-.355c-.029.725-.469.967-.854 1.208l-2.147 1.053c-3.073 1.693-9.7 2.375-15.431 2.774-4.594.327-11.563-.214-15.9-1.55-7.58-2.319-13.34-5.86-17.082-8.106-5.617-3.343-6.228-3.983-7.78-5.163l-.227-.199c-.27-.071-.469-.199-.74-.029a1.056 1.056 0 0 0-.384 1.466l.241.227c1.252 1.579 4.438 3.513 9.955 6.913 4.565 2.816 9.402 5.432 17.153 7.04 4.437.938 11.335 2.09 15.9 1.55 6.527-.797 12.302-1.892 15.146-3.158l2.161-.64c.4-.029.654-.127.84-.312l.17-.157c.968.469-5.432 5.747-18.53 10.952-10.383 4.11-22.67 7.85-29.967 7.965" fill="#fff"/><path d="M173.966 243.356l9.074 1.735 4.765-7.894 1.152 9.16 8.99 2.104-8.363 3.911.782 9.202-6.3-6.728-8.519 3.584 4.452-8.079-6.033-6.995z" fill="#de2910"/><path d="M173.966 243.356l9.074 1.735 4.765-7.894 1.152 9.16 8.99 2.104-8.363 3.911.782 9.202-6.3-6.728-8.519 3.584 4.452-8.079-6.033-6.995z" fill="none" stroke="#de2910" stroke-width=".01625"/><path d="M285.866 217.529c7.41-6.628 16.442-12.331 20.879-14.251 6.258-2.717 12.743-4.964 16.64-6.387 5.604-2.062 12.303-2.602 19.84-3.115 16.085-1.081 33.877 9.359 40.931 20.538 5.803 9.201 6.784 19.171 5.405 28.786-1.266 8.846-6.244 17.877-7.836 18.986-.426.299-.043-2.346.127-3.385.214-1.137-.028-1.465.27-3.626.355-2.56-.682-6.357-2.118-7.68-1.992-1.82-3.727-2.005-5.035-2.261-1.693-.355-2.162-.611-5.064.37-2.46.839-6.329 2.205-9.074 5.376-.725.839-1.991 1.835-2.959 3.229-1.835 2.702-4.28 6.101-7.097 8.69-3.74 3.441-7.865 5.731-9.529 6.03l-4.295 1.835c-5.774 2.375-21.702 3.57-33.095-5.405-2.489-1.963-5.617-3.968-8.235-6.358-3.797-3.47-7.524-6.3-12.914-7.225-3.228-.568-6.13.74-9.116 1.849-5.347 1.978-10.055 5.347-12.287 7.638l-1.735 1.65c-.384-.627-.157-1.067.013-1.48l1.167-2.104c1.55-3.143 6.585-7.495 11.065-11.108 3.57-2.887 9.613-6.442 13.923-7.822 7.553-2.433 14.294-2.816 18.645-3.129 6.528-.469 7.382-.299 9.344-.214l.299.043c.256-.114.497-.128.626-.399.241-.555.014-1.195-.54-1.436l-.312-.043c-1.92-.569-5.66-.341-12.132.029-5.347.313-10.808.939-18.105 4.025-4.152 1.777-10.48 4.779-13.923 7.836-4.893 4.395-9.003 8.59-10.595 11.264l-1.408 1.764c-.312.241-.484.484-.512.725l-.043.227c-1.081.157 1.166-7.822 8.918-19.57 6.143-9.315 14.108-19.413 20.025-23.708" fill="#fff"/><path d="M334.778 234.496l-8.42 3.769.582 9.201-6.172-6.855-8.577 3.414 4.608-7.992-5.888-7.098 9.031 1.906 4.922-7.794.967 9.174 8.946 2.275z" fill="#de2910"/><path d="M334.778 234.496l-8.42 3.769.582 9.201-6.172-6.855-8.577 3.414 4.608-7.992-5.888-7.098 9.031 1.906 4.922-7.794.967 9.174 8.946 2.275z" fill="none" stroke="#de2910" stroke-width=".01625"/><path d="M260.523 318.905c-1.85 9.756-5.562 19.797-7.908 23.992-3.327 5.96-7.111 11.705-9.301 15.19-3.214 5.048-8.178 9.57-13.881 14.563-12.103 10.639-32.583 13.199-44.972 8.619-10.211-3.783-17.038-11.108-21.788-19.57-4.38-7.794-5.917-17.992-5.334-19.84.156-.513 1.436 1.849 1.934 2.774.54 1.023.925 1.152 2.005 3.028 1.28 2.261 4.408 4.636 6.342 4.808 2.688.241 4.181-.683 5.39-1.266 1.536-.74 2.076-.84 3.769-3.385 1.451-2.148 3.697-5.59 3.954-9.772.057-1.095.455-2.687.37-4.366-.172-3.257-.313-7.452.355-11.221.867-5.02 2.758-9.33 3.897-10.595l2.29-4.054c3.143-5.405 15.033-16.043 29.54-15.857 3.186.057 6.898-.257 10.425.028 5.106.455 9.785.441 14.635-2.105 2.901-1.521 4.409-4.324 6.101-6.997 3.044-4.835 4.722-10.397 5.107-13.568l.383-2.332c.683.241.768.74.897 1.18l.34 2.375c.683 3.441-.668 9.955-2.02 15.531-1.08 4.48-3.712 10.951-6.285 14.691-4.523 6.528-9.63 10.923-12.9 13.81-4.88 4.367-5.69 4.737-7.282 5.845l-.256.157c-.156.256-.327.412-.256.71.127.57.711.953 1.28.826l.27-.171c1.891-.725 4.721-3.172 9.629-7.41 4.038-3.5 8.007-7.31 11.903-14.208 2.233-3.954 5.433-10.155 6.287-14.691 1.223-6.458 1.92-12.274 1.565-15.389l.042-2.248c.114-.383.085-.668-.042-.896l-.085-.199c.753-.782 3.826 6.898 4.82 20.95.783 11.15.612 23.992-1.464 30.99" fill="#fff"/><path d="M211.356 335.204l4.395-8.121-6.072-6.955 9.074 1.692 4.72-7.921 1.21 9.145 8.988 2.047-8.32 3.983.825 9.187-6.342-6.698-8.478 3.64z" fill="#de2910"/><path d="M211.356 335.204l4.395-8.121-6.072-6.955 9.074 1.692 4.72-7.921 1.21 9.145 8.988 2.047-8.32 3.983.825 9.187-6.342-6.698-8.478 3.64z" fill="none" stroke="#de2910" stroke-width=".01625"/><path d="M309.689 279.439c8.42 5.318 16.384 12.43 19.441 16.156 4.338 5.291 8.291 10.894 10.724 14.236 3.555 4.835 5.902 11.094 8.476 18.248 5.448 15.132.328 35.142-8.491 44.998-7.254 8.093-16.569 11.79-26.198 13.1-8.832 1.222-18.887-1.082-20.38-2.305-.441-.34 2.248-.668 3.272-.796 1.152-.142 1.407-.441 3.57-.74 2.56-.384 5.902-2.417 6.798-4.167 1.195-2.389.882-4.125.783-5.448-.114-1.706-.014-2.247-1.764-4.75-1.479-2.147-3.84-5.519-7.651-7.267-.995-.455-2.319-1.408-3.898-1.934-3.115-1.052-7.068-2.46-10.34-4.451-4.323-2.645-7.666-5.974-8.42-7.524l-2.943-3.613c-3.87-4.892-9.402-19.853-3.898-33.266 1.195-2.959 2.275-6.514 3.84-9.685 2.275-4.607 3.968-8.974 3.385-14.407-.355-3.256-2.404-5.675-4.266-8.263-3.385-4.593-7.936-8.177-10.753-9.7l-2.033-1.208c.483-.555.967-.455 1.407-.413l2.346.54c3.442.626 9.032 4.266 13.725 7.58 3.769 2.645 8.833 7.466 11.349 11.235 4.423 6.599 6.641 12.971 8.135 17.066 2.261 6.159 2.319 7.027 2.788 8.918l.028.285c.172.241.27.469.555.497.612.1 1.167-.298 1.223-.881l-.029-.312c.029-2.02-1.222-5.547-3.371-11.677-1.764-5.048-3.883-10.126-8.86-16.27-2.859-3.527-7.453-8.775-11.364-11.235-5.546-3.498-10.737-6.3-13.739-7.097l-2.076-.868c-.312-.241-.597-.327-.867-.298l-.2.013c-.454-.981 7.837-1.023 21.263 3.2 10.653 3.357 22.543 8.207 28.303 12.7" fill="#fff"/><path d="M306.845 331.165l-5.916-7.069-8.675 3.129 4.864-7.823-5.633-7.31 8.96 2.22 5.191-7.638.654 9.23 8.846 2.574-8.547 3.47.256 9.217z" fill="#de2910"/><path d="M306.845 331.165l-5.916-7.069-8.675 3.129 4.864-7.823-5.633-7.31 8.96 2.22 5.191-7.638.654 9.23 8.846 2.574-8.547 3.47.256 9.217z" fill="none" stroke="#de2910" stroke-width=".01625"/><g fill="#de2910"><path d="M244.054 202.439c1.635-5.149 6.698-4.494 4.921 1.735-1.778 6.215-6.115 21.902-3.811 33.024 2.133 10.253 5.177 16.383 8.775 20.693 3.598 4.324-.242 6.998-4.324 1.878-4.451-5.546-8.875-15.701-9.785-22.571-1.764-13.412.511-23.11 4.224-34.76"/><path d="M193.536 257.962c-4.537-2.93-2.56-7.65 2.973-4.295 5.546 3.357 19.512 11.692 30.862 12.388 10.454.64 17.166-.683 22.273-3.015 5.12-2.333 6.685 2.063.669 4.679-6.528 2.816-17.494 4.422-24.35 3.485-13.398-1.849-22.158-6.585-32.427-13.241"/><path d="M232.377 320.1c-4.096 3.513-8.063.299-3.285-4.067 4.78-4.395 16.698-15.432 20.58-26.14 3.542-9.828 4.168-16.64 3.372-22.215-.811-5.562 3.854-5.832 4.665.668.881 7.054-.669 18.034-3.499 24.349-5.535 12.329-12.56 19.411-21.833 27.405M301.085 307.499c1.607 5.148-2.915 7.508-5.035 1.393-2.119-6.13-7.509-21.46-15.773-29.283-7.608-7.183-13.61-10.454-19.043-11.961-5.419-1.466-3.811-5.846 2.475-3.997 6.826 2.005 16.27 7.808 20.949 12.9 9.102 9.998 12.77 19.256 16.427 30.948"/><path d="M310.329 233.33c5.405-.156 6.457 4.85-.029 5.22-6.458.37-22.685 1.394-32.441 7.225-8.989 5.39-13.768 10.282-16.683 15.104-2.887 4.792-6.656 2.091-3.186-3.47 3.782-6.03 11.919-13.54 18.119-16.654 12.076-6.046 21.989-7.084 34.22-7.425"/></g></svg>