<svg xmlns="http://www.w3.org/2000/svg" viewBox="0 0 512 512">
    <path d="M0 199.111h512v113.778H0zm455.111-128H56.889C25.472 71.111 0 96.583 0 128v71.111h512V128c0-31.417-25.472-56.889-56.889-56.889zM0 384c0 31.417 25.472 56.889 56.889 56.889h398.222C486.528 440.889 512 415.417 512 384v-71.111H0V384z" fill="#0156a3"/>
    <path fill="#eee" d="M0 199.111h512v113.778H0z"/>
    <path d="M259.764 252.583l-3.541-10.894-3.541 10.894h-11.463l9.273 6.741-3.541 10.894 9.273-6.727 9.273 6.727-3.541-10.894 9.273-6.741h-11.465zm75.839 35.278l-3.541 10.894 9.273-6.741 9.273 6.741-3.541-10.894 9.273-6.741h-11.463l-3.541-10.894-3.541 10.894h-11.463l9.271 6.741zm9.273-63.722l-3.541-10.894-3.541 10.894H326.33l9.273 6.741-3.541 10.894 9.273-6.727 9.273 6.727-3.541-10.894 9.273-6.741h-11.464zm-180.723 63.722l-3.541 10.894 9.273-6.741 9.273 6.741-3.541-10.894 9.273-6.741h-11.463l-3.541-10.894-3.541 10.894H154.88l9.273 6.741zm9.27-63.722l-3.541-10.894-3.541 10.894h-11.463l9.273 6.741-3.541 10.894 9.273-6.727 9.273 6.727-3.541-10.894 9.273-6.741h-11.465z" fill="#2657a7"/>
</svg>
