<svg xmlns="http://www.w3.org/2000/svg" viewBox="0 0 512 512"><path d="M0 384c0 31.418 25.473 56.889 56.889 56.889H455.11C486.53 440.889 512 415.416 512 384v-56.889H0V384z" fill="#171796"/><path d="M0 327.111h512V184.89H0V327.11z" fill="#eee"/><path d="M455.111 71.111H56.89C25.472 71.111 0 96.582 0 128v56.889h199.111v99.555c0 31.417 25.473 56.889 56.889 56.889s56.889-25.473 56.889-56.89V184.89H512V128c0-31.417-25.473-56.889-56.889-56.889" fill="#d52b1e"/><g fill="#eee"><path d="M241.778 213.334h-28.445v-28.445h28.445v28.445z"/><path d="M270.222 241.778h-28.445v-28.445h28.445v28.445z"/><path d="M298.666 213.334h-28.445v-28.445h28.445v28.445zM298.666 270.222h-28.445v-28.445h28.445v28.445zM241.778 270.222h-28.445v-28.445h28.445v28.445z"/><path d="M270.222 298.666h-28.445v-28.445h28.445v28.445zM241.778 324.494v-25.828H215.95a42.518 42.518 0 0 0 25.828 25.828M270.222 324.494a42.484 42.484 0 0 0 25.828-25.828h-25.828v25.828z"/></g><g fill="#0193dd"><path d="M256 169.245c4.081 0 8.106.256 12.118.611l2.26-26.211-14.378-12.8-14.379 12.8 2.262 26.211c4.01-.356 8.02-.611 12.117-.611M315.306 182.471l11.108-23.894-9.103-16.938-17.92 7.097-6.841 25.458a139.893 139.893 0 0 1 22.756 8.277M219.42 174.236l-6.841-25.457-17.878-7.112-9.145 16.94 11.108 23.907a139.206 139.206 0 0 1 22.756-8.278"/></g><path d="M314.454 180.153a142.436 142.436 0 0 0-19.713-7.168l6.144-22.884 15.601-6.186 7.95 14.763-9.982 21.475zm-68.935-12.188l-2.034-23.566 12.53-11.15 12.515 11.15-2.034 23.566c-3.029-.241-6.699-.469-10.481-.469-3.797-.001-7.467.226-10.496.469m-47.973 12.187l-9.983-21.475 7.965-14.777 15.573 6.201L217.26 173a139.893 139.893 0 0 0-19.714 7.153m120.592-40.703l-18.375 7.267-12.218-15.46-16.811 10.34-14.72-13.112-14.749 13.127-16.796-10.367-12.231 15.487-18.347-7.296-10.311 19.115 12.245 26.325 1.608-.754a138.167 138.167 0 0 1 22.457-8.164l.37-.1c7.851-2.09 15.659-3.485 23.211-4.152l.583-.058c6.485-.555 17.422-.555 23.907 0l.527.043c7.58.682 15.43 2.076 23.325 4.181l.298.071a139.457 139.457 0 0 1 22.458 8.178l1.607.754 12.232-26.312-10.27-19.113z" fill="#171796"/></svg>