<svg xmlns="http://www.w3.org/2000/svg" viewBox="0 0 512 512"><path d="M512 384c0 31.418-25.473 56.889-56.889 56.889H56.89C25.472 440.889 0 415.417 0 384V128c0-31.418 25.472-56.889 56.889-56.889H455.11C486.53 71.111 512 96.584 512 128v256z" fill="#d21c33"/><path d="M455.111 71.111H56.89C25.472 71.111 0 96.582 0 128v128h512V128c0-31.418-25.473-56.889-56.889-56.889" fill="#00209f"/><path d="M339.996 327.111h-169.33V185.472h169.33v141.64z" fill="#fff"/><path d="M339.996 307.512c-21.318-10.822-50.19-17.592-83.925-17.592-33.706 0-64.085 6.77-85.405 17.592v19.6h169.33v-19.6z" fill="#006a16"/><path d="M220.771 237.795l16.569 18.645-2.076 11.691-3.584-2.02-3.214 12.203h-.854l-1.52 6.429-28.132-2.375.669-20.082 6.783 1.949.825-18.731 9.857 6.699.512-11.364 4.165-3.044z" fill="#00209f"/><g fill="#d21c33"><path d="M256.142 274.232v28.473l-21.347-6.273-5.419-7.965-3.726-2.716 2.034-7.196 3.214-12.459h4.906l1.209-10.51 19.13 18.646zM194.731 261.347c2.546-3.043 7.296-1.01 7.453 0 .171 1.024-1.863.854-3.727 2.547s-1.35 6.94-4.58 6.272c-3.213-.684.854-8.819.854-8.819M206.236 245.49c3.285-2.219 7.297 1.052 7.168 2.063-.114 1.038-2.02.312-4.281 1.422s-3.23 6.286-6.144 4.75c-2.9-1.551 3.257-8.235 3.257-8.235M219.805 235.79c3.541-1.777 7.098 1.991 6.841 2.986-.256.995-2.745-.767-5.12.029-2.389.811-3.342 6.628-6.016 4.721-2.675-1.905 4.295-7.736 4.295-7.736"/></g><g fill="#f1b517"><path d="M212.551 227.883l10.994 6.698-1.195 3.214 29.668 32.868v2.546l-30.834-34.574-4.039-.669-4.594-10.084zM196.765 237.795s11.023 4.239 11.023 4.75c0 .512 2.02 3.897 2.02 3.897l40.177 32.54-1.18 1.522-39.836-32.54-5.76-2.531-6.444-7.638zM185.031 254.435s12.715 1.777 12.885 2.29c.156.512 1.024 3.385 1.024 3.385l46.593 25.415-2.034 1.195-45.426-25.087-5.248-.342-7.794-6.856z"/><path d="M196.096 278.641l47.886 5.845-4.537 5.462-7.098.71 5.292 7.126-2.547 2.887-7.125-7.793s-2.218 11.348-11.875 11.348-12.7-9.657-12.7-12.871c0-3.229.84-4.906.84-4.906h-9.16l1.024-7.808z"/></g><path d="M290.774 236.771L273.45 257.28l.725 11.861 4.452-3.044 3.213 12.203h.854l1.521 6.429 28.132-2.375-.683-20.068-6.784 1.934-.825-18.731-9.856 6.698-.512-11.348-2.914-4.068z" fill="#00209f"/><g fill="#d21c33"><path d="M256.142 274.232v28.473l20.423-6.273 4.964-7.965 3.499-2.716-2.162-7.196-3.327-12.459-3.798 2.816-1.294-11.62-18.304 16.94zM315.591 261.347c-2.56-3.043-7.31-1.01-7.466 0-.171 1.024 1.863.854 3.726 2.547s1.365 6.94 4.58 6.272c3.214-.684-.84-8.819-.84-8.819M304.058 245.49c-3.272-2.219-7.282 1.052-7.168 2.063.128 1.038 2.034.312 4.295 1.422s3.214 6.286 6.13 4.75c2.914-1.551-3.257-8.235-3.257-8.235M290.502 235.79c-3.555-1.777-7.082 1.991-6.826 2.986.241.995 2.731-.767 5.106.029 2.39.811 3.343 6.628 6.03 4.721 2.674-1.905-4.31-7.736-4.31-7.736"/></g><g fill="#f1b517"><path d="M297.756 227.883l-10.98 6.698 2.119 3.214-28.742 32.868v2.546l29.908-34.574 3.57-.669 4.125-10.084zM313.457 237.795s-11.007 4.239-11.007 4.75c0 .512-2.047 3.897-2.047 3.897l-40.164 32.54 1.195 1.522 39.836-32.54 5.746-2.531 6.441-7.638zM325.22 254.435s-12.715 1.777-12.871 2.29c-.185.512-1.024 3.385-1.024 3.385l-46.606 25.415 2.034 1.195 45.41-25.087 5.263-.342 7.794-6.856zM314.169 278.641l-47.873 5.845 4.538 5.462 7.082.71-5.305 7.126 2.574 2.887 7.125-7.793s2.205 11.348 11.861 11.348 12.7-9.657 12.7-12.871c0-3.229-.825-4.906-.825-4.906h9.131l-1.008-7.808z"/></g><path d="M325.12 314.909s-8.391.299-17.195-1.608c-8.804-1.92-10.325-5.361-14.151-4.607-3.826.767-12.7 4.067-19.968 4.992-7.281.925-17.735 1.223-17.735 1.223s-9.614-.299-16.91-1.223c-7.267-.925-15.317-4.224-19.142-4.992-3.84-.754-5.362 2.687-14.18 4.607-8.804 1.906-17.238 1.608-17.238 1.608l2.29 4.067-2.29 1.991c19.925.37 29.128-6.058 29.128-6.058 9.955 6.599 38.342 6.784 38.342 6.784s29.241-.185 39.196-6.784c0 0 9.614 6.429 29.54 6.059l-2.105-1.992 2.418-4.067z" fill="#fff"/><path d="M260.153 254.435c0 21.191-1.85 38.386-4.153 38.386-2.29 0-4.152-17.195-4.152-38.386 0-21.205 1.862-38.386 4.152-38.386 2.304.001 4.153 17.181 4.153 38.386" fill="#f1b517"/><path d="M264.22 306.774h-16.27v-16.285h16.27v16.285z" fill="#d21c33"/><path d="M265.23 289.479c0 1.877-3.897 3.385-8.732 3.385-4.822 0-8.72-1.508-8.72-3.385s3.898-3.385 8.72-3.385c4.836 0 8.732 1.507 8.732 3.385" fill="#fff"/><path d="M265.23 305.749c0 1.877-3.897 3.385-8.732 3.385-4.822 0-8.72-1.508-8.72-3.385s3.898-3.385 8.72-3.385c4.836.001 8.732 1.509 8.732 3.385" fill="#d21c33"/><path d="M291.755 208.981c-3.256-3.897-11.634-3.726-17.323-3.897-5.675-.172-8.533 1.862-6-.854 2.545-2.702 6.47-2.02 10.61-2.19 4.152-.171 4.878-.669 2.332-2.02-2.532-1.365-7.012-3.029-12.928-1.508-5.831 1.494-9.486 5.12-12.586 5.747-3.1-.626-6.984-4.253-12.786-5.746-5.945-1.522-10.525.142-13.07 1.507-2.547 1.351-1.863 1.849 2.29 2.02 4.138.171 8.035-.512 10.581 2.19 2.546 2.716-.341.683-6.016.854s-14.067 0-17.338 3.897c-3.256 3.898 2.845 1.351 6.073.839 3.213-.512 7.965-.669 7.965-.669s-7.965 2.361-10.169 5.419c-2.205 3.044.669 5.76 4.736 3.385 4.081-2.375 10.34-5.589 13.739-5.931 0 0-8.818 3.668-12.715 6.841-3.897 3.157.185 2.83 3.129 2.83 2.972 0 6.016-1.195 8.547-3.058 2.56-1.862-1.678 3.727-2.361 7.282-.669 3.555 4.58 2.716 5.519 0 .925-2.717 3.967-8.135 3.967-8.135s-1.337 7.794-1.18 13.056c.172 5.248 1.907 5.589 3.258 3.214 1.365-2.361 6.059 1.407 6.059 1.407s4.266-3.769 5.603-1.407c1.365 2.375 2.66 2.034 2.816-3.214.172-5.263-1.18-13.056-1.18-13.056s3.058 5.419 3.983 8.135c.939 2.716 6.186 3.555 5.504 0-.669-3.555-4.906-9.145-2.361-7.282s5.588 3.058 8.533 3.058c2.973 0 7.054.328 3.158-2.83-3.898-3.171-12.715-6.841-12.715-6.841 3.399.341 9.657 3.555 13.725 5.931 4.081 2.375 6.955-.341 4.75-3.385-2.219-3.058-10.169-5.419-10.169-5.419s4.75.156 7.965.669c3.225.512 9.311 3.059 6.055-.839" fill="#006a16"/></svg>