<svg xmlns="http://www.w3.org/2000/svg" viewBox="0 0 512.014 512.014">
    <path d="M287.303 281.735h13.268l-6.641-11.506-6.628 11.506zm-37.93 14.222l6.64 11.507 6.642-11.506h-13.282z" fill="#edecec"/>
    <path d="M.014 355.563h512V156.45h-512v199.112zm4.167-248.889h503.651c-8.447-20.835-28.842-35.555-52.72-35.555H56.888c-23.865 0-44.26 14.72-52.708 35.555" fill="#eee"/>
    <path d="M300.53 230.279h-13.284l6.642 11.491 6.642-11.491zm-82.497 0h-13.284l6.641 11.491 6.643-11.491zM270.805 281.735l14.848-25.727-14.848-25.714h-29.71l-14.848 25.713 14.848 25.728h29.71zm-52.707-11.506l-6.642 11.491h13.284l-6.643-11.491zm37.916-65.678l-6.641 11.507h13.283l-6.642-11.507z" fill="#edecec"/>
    <path d="M4.181 106.674C1.508 113.272 0 120.455 0 128.008v28.444h512v-28.445a56.629 56.629 0 0 0-4.168-21.333H4.183z" fill="#0038b8"/>
    <path d="M4.181 405.34h503.651c-8.447 20.835-28.842 35.555-52.72 35.555H56.888c-23.865.001-44.26-14.719-52.708-35.555" fill="#eee"/>
    <path d="M4.181 405.34C1.508 398.741 0 391.559 0 384.008v-28.445h512v28.445a56.629 56.629 0 0 1-4.168 21.333H4.183zm213.917-135.111l6.64 11.491h-13.283l6.643-11.491zm6.642-39.95l-6.641 11.506-6.641-11.506h13.282zm16.426 0h29.71l14.848 25.727-14.848 25.714h-29.71l-14.862-25.714 14.862-25.727zm14.848-25.728l6.641 11.506h-13.284l6.643-11.506zm37.917 65.678l6.642 11.491h-13.284l6.642-11.491zm6.642-39.95l-6.642 11.506-6.641-11.506h13.282zm-44.56 77.17l-6.64-11.506h13.283l-6.642 11.506zm-23.067-11.505l23.069 39.95 23.069-39.95h46.122l-23.053-39.936 23.053-39.95h-46.122l-23.069-39.95-23.069 39.95h-46.122l23.054 39.95-23.054 39.936h46.122z" fill="#0038b8"/>
</svg>
