<svg xmlns="http://www.w3.org/2000/svg" viewBox="0 0 512 512"><path d="M512 384c0 31.418-25.473 56.889-56.889 56.889H56.89C25.472 440.889 0 415.417 0 384V128c0-31.418 25.472-56.889 56.889-56.889H455.11C486.53 71.111 512 96.584 512 128v256z" fill="#cf1b2b"/><path d="M270.506 235.734c0 10.866-8.803 19.668-19.668 19.668s-19.67-8.803-19.67-19.668c0-10.867 8.805-19.669 19.67-19.669s19.668 8.803 19.668 19.669" fill="#f8dc15"/><path d="M270.506 247.214c0 10.866-8.803 19.669-19.668 19.669s-19.67-8.804-19.67-19.67 8.805-19.668 19.67-19.668 19.668 8.803 19.668 19.669" fill="#f8dc15"/><path d="M140.203 172.231c5.788-2.901 18.915 21.959 29.283 21.348 10.368-.598 37.205-20.467 51.854-21.818 0 0 0-6.244 12.189-6.244 12.217 0 14.022 6.13 15.26 14.052 0 0 9.742 15.232 14.022 26.822 4.281 11.591 4.281 19.528 4.281 19.528s-9.158 9.145-14.648 9.756c-5.49.611-20.737-4.879-20.737-4.879s-3.043-23.125-4.266-30.165l-4.266-4.607s-6.088 6.712-17.081 8.534c-10.994 1.835-28.06 1.222-34.177 2.446-6.1 1.224-5.475 9.145-10.98 8.534-5.475-.598-1.208-12.8-10.98-19.513-9.755-6.713-17.078-20.139-9.755-23.794" fill="#fff"/><path d="M165.376 211.769l5.348 4.651 6.841-1.764-2.774 6.514 3.783 5.959-7.04-.626-4.523 5.447-1.579-6.897-6.57-2.618 6.087-3.613.427-7.053z" fill="#f8dc15"/><path d="M247.765 372.48c-5.405-3.584 9.557-27.393 3.854-36.054-5.718-8.675-36.338-21.974-44.829-33.977 0 0-5.39 3.115-11.491-7.467-6.102-10.552-1.735-15.203 4.508-20.223 0 0 8.334-16.058 16.242-25.558 7.893-9.515 14.762-13.469 14.762-13.469s12.501 3.357 15.773 7.808c3.271 4.437 6.143 20.409 6.143 20.409s-18.5 14.181-23.977 18.775l-1.863 6.001s8.86 1.92 15.93 10.539c7.097 8.576 15.09 23.694 19.2 28.359 4.11 4.665 10.666.156 12.9 5.247 2.218 5.02-10.497 7.439-11.42 19.242-.94 11.807-8.92 24.862-15.732 20.368" fill="#fff"/><path d="M269.454 330.894l1.351-6.969-4.949-5.063 7.026-.825 3.272-6.286 2.972 6.443 6.983 1.166-5.178 4.835 1.01 6.982-6.158-3.456-6.33 3.173z" fill="#f8dc15"/><path d="M366.734 180.125c-.384 6.485-28.488 5.405-33.138 14.678-4.651 9.3-.881 42.467-6.997 55.836 0 0 5.39 3.1-.725 13.667-6.102 10.568-12.303 9.088-19.769 6.202 0 0-18.063.825-30.265-1.28-12.174-2.092-19.029-6.045-19.029-6.045s-3.342-12.515-1.152-17.565c2.218-5.063 14.606-15.532 14.606-15.532s21.546 8.947 28.26 11.393l6.144-1.38s-2.801-8.648 1.137-19.073c3.883-10.438 12.971-24.917 14.961-30.805 1.978-5.902-5.177-9.33-1.906-13.795 3.256-4.451 11.691 5.362 22.371.257 10.71-5.092 26-4.708 25.502 3.442" fill="#fff"/><path d="M319.886 182.186l-6.699 2.319-1.906 6.813-4.239-5.66-7.068.298 4.081-5.788-2.475-6.628 6.755 2.063 5.546-4.38.1 7.082 5.905 3.881z" fill="#f8dc15"/></svg>