<svg xmlns="http://www.w3.org/2000/svg" viewBox="0 0 512 512"><path d="M0 384c0 31.418 25.473 56.889 56.889 56.889H455.11C486.53 440.889 512 415.416 512 384v-56.889H0V384z" fill="#141414"/><path d="M0 327.111h512V184.89H0V327.11z" fill="#eee"/><path d="M455.111 71.111H56.89C25.472 71.111 0 96.582 0 128v56.889h512V128c0-31.417-25.473-56.889-56.889-56.889" fill="#dd2e44"/><g fill="#007a3c"><path d="M159.673 256.854v17.479h80.37V263.85c0-4.665-5.234-4.38-5.234-.867v7.851h-62.905v-12.231l44.117-44.118 6.699 7.125-40.035 40.491h41.642s1.892-12.245 13.242-12.245l12.971 9.032v32.91H133.462s-2.915 15.431-20.678 13.397c0 0 12.231-8.149 12.231-17.764 0-9.6-7.851-17.18-7.851-17.18l11.065-6.982s1.166 5.974 2.318 7.722c1.18 1.735 5.533 3.343 5.533 3.343h14.862l-.185-7.808-2.147-.938 11.063-8.735zM277.746 271.104l-2.361 3.229h-6.926c.042-16.384.085-48.612-.014-48.94-.156-.44 3.058-2.758 3.058-2.758l-13.98-7.723v76.885h26.21l-5.987-20.693zM318.905 274.332h-.512c-3.5 0-3.058-4.665 1.748-4.665 2.66 0 3.528 1.437 3.798 2.717v1.948h-5.034zm36.466-47.175v47.175h-6.982v-41.94l-8.746 8.745v33.195h-6.983v-27.96l-8.719 8.732v.085l-1.906 1.806 1.906.754v6.5c-8.333-4.295-17.478 2.19-17.478 10.083v17.48h57.642v-73.387l-8.734 8.732zM337.608 214.485c0 2.161-.725 3.94-1.608 3.94s-1.607-1.778-1.607-3.94c0-2.176.725-3.925 1.607-3.925s1.608 1.749 1.608 3.925M322.901 225.138s2.618 2.488 7.439 1.748c4.793-.725 6.4-5.091 6.4-5.091s2.759 4.509 5.817 3.783c3.073-.725 5.832-5.533 5.832-5.533s.142 7.709-4.38 8.434c-4.509.74-6.4-2.46-6.4-2.46s-2.333 3.485-6.699 3.782c-4.368.3-8.009-4.664-8.009-4.664M393.216 270.691l-3.782 3.641h-6.102v-49.65l3.627-1.607-14.123-8.149v76.871h26.354l-5.974-21.106z"/><path d="M152.405 300.544a3.793 3.793 0 0 1-3.797 3.782 3.799 3.799 0 0 1-3.783-3.782c0-2.091 1.706-3.798 3.782-3.798a3.797 3.797 0 0 1 3.798 3.798"/></g></svg>