<svg xmlns="http://www.w3.org/2000/svg" viewBox="0 0 512 512">
    <path d="M0 384c0 31.418 25.473 56.889 56.889 56.889H455.11c31.42 0 56.89-25.473 56.89-56.889v-56.889H0V384z" fill="#da0001"/>
    <path d="M0 327.111h512V184.89H0v142.22z" fill="#eee"/>
    <path d="M512 184.889V128c0-31.417-25.473-56.889-56.889-56.889H56.89C25.472 71.111 0 96.583 0 128v56.889h512z" fill="#239f40"/>
    <path d="M512 341.334H0V327.11h512v14.223z" fill="#fff" opacity=".4"/>
    <g fill="#be1931">
        <path d="M276.835 212.906c13.611 6.969 43.208 41.999 11.349 81.508 19.783-4.38 44.971-62.692-11.349-81.508m-41.77 0c-13.596 6.969-43.208 41.999-11.349 81.508-19.784-4.38-44.957-62.692 11.349-81.508m55.822 90.169c-10.78.171-24.377-1.494-34.46-6.727 1.664 3.228 3.044 5.262 4.708 8.49 9.628.883 22.883 1.992 29.753-1.763m-68.908 0c10.78.171 24.363-1.494 34.446-6.727-1.65 3.228-3.043 5.262-4.693 8.49-9.614.883-22.883 1.992-29.753-1.763m19.784-100.65c2.19 5.803 7.921 6.656 14.051 3.229 4.466 2.687 11.378 2.859 13.768-2.944 1.806 14.336-13.284 10.951-13.853 8.149-5.617 5.432-16.071 2.29-13.966-8.434"/>
        <path d="M292.096 254.578c-.214-17.75-9.629-33.452-18.901-39.808 6.115 7.495 24.918 48.867-11.165 76.102l.669-72.49-6.755-5.946-6.755 5.675 1.137 73.174c-.1-.085-.156-.143-.256-.214-36.451-27.221-17.55-68.779-11.406-76.302-9.288 6.357-18.703 22.059-18.902 39.807-.198 16.442 7.738 34.603 30.75 48.825l.042 2.446 5.66 6.202 5.675-6.471.013-2.547c22.586-14.164 30.393-32.155 30.194-48.453"/>
    </g>
    <path d="M512 184.889H0v-14.223h512v14.223z" fill="#fff" opacity=".4"/>
</svg>
