<svg xmlns="http://www.w3.org/2000/svg" viewBox="0 0 512 512"><g fill="#003897"><path d="M142.222 71.111H56.89C25.472 71.111 0 96.582 0 128v85.334h142.222V71.11zM455.111 71.111H227.555v142.223H512V128c0-31.418-25.473-56.889-56.889-56.889M142.222 440.889H56.89C25.472 440.889 0 415.417 0 384v-85.334h142.222V440.89zM455.111 440.889H227.555V298.666H512V384c0 31.418-25.473 56.889-56.889 56.889"/></g><path d="M206.223 71.111h-41.87l-.355 163.555H0v42.666h163.91l-.355 163.555h42.666V277.332H512v-42.666H206.222V71.111z" fill="#d72828"/><g fill="#eee"><path d="M206.223 440.889h21.333V298.666H512v-21.334H206.222V440.89zM227.555 71.111h-21.334v163.555H512v-21.334H227.555V71.112zM163.555 71.111h-21.334v142.223H0v21.334h163.555V71.11zM0 277.334v21.334h142.222V440.89h21.334V277.335H0z"/></g></svg>