<svg xmlns="http://www.w3.org/2000/svg" viewBox="0 0 512 512">
    <path d="M508.618 108.649L366.733 211.113l141.883-102.472c-7.094-19.598-24.648-34.174-45.917-37.011L256 220.914l-.001-.001L462.697 71.63a57.355 57.355 0 0 0-7.586-.519H56.889c-2.574 0-5.103.187-7.587.519-21.269 2.837-38.824 17.414-45.917 37.011L207.417 256l-.003.003L3.383 108.645A56.752 56.752 0 0 0 0 128v256a56.761 56.761 0 0 0 3.382 19.351l141.587-102.249L3.384 403.358c7.094 19.598 24.648 34.174 45.917 37.011L256 291.086l.001.001L49.303 440.37c2.484.331 5.012.519 7.586.519h398.222c2.574 0 5.103-.187 7.587-.519 21.269-2.837 38.824-17.414 45.917-37.011L304.583 256l.003-.003 204.031 147.357A56.742 56.742 0 0 0 512 384V128a56.761 56.761 0 0 0-3.382-19.351z" fill="#ffd202"/>
    <path d="M462.697 71.63a57.355 57.355 0 0 0-7.586-.519H56.889c-2.574 0-5.103.187-7.587.519L256 220.913 462.697 71.63z" fill="#009b3a"/>
    <path d="M366.733 211.113l-62.147 44.885 204.031 147.357A56.752 56.752 0 0 0 512 384V128a56.761 56.761 0 0 0-3.382-19.351L366.733 211.113zM3.383 108.645A56.752 56.752 0 0 0 0 128v256a56.761 56.761 0 0 0 3.382 19.351l141.587-102.249 62.445-45.099L3.383 108.645z" fill="#141414"/>
    <path d="M49.303 440.37c2.484.331 5.012.519 7.586.519h398.222c2.574 0 5.103-.187 7.587-.519L256.001 291.087 49.303 440.37z" fill="#009b3a"/>
</svg>
