<svg xmlns="http://www.w3.org/2000/svg" viewBox="0 0 512 512">
    <path d="M455.111 71.111H56.889c-14.389 0-27.52 5.563-37.538 14.374l-.131-.098C7.437 95.812 0 111.034 0 128v256c0 16.966 7.437 32.189 19.219 42.612L162.735 320l85.872-63.791.282.209-86.154 64L19.219 426.821c10.034 8.878 23.219 14.067 37.67 14.067h398.222C486.528 440.889 512 415.417 512 384V128c0-31.417-25.472-56.889-56.889-56.889z" fill="#ce1126"/>
    <path d="M19.219 426.821c10.034 8.878 23.219 14.067 37.67 14.067h398.222C486.528 440.889 512 415.417 512 384v-63.582H162.735L19.219 426.821z" fill="#007a3d"/>
    <path fill="#eee" d="M248.889 256.418l-86.154 64H512v-128H162.735z"/>
    <path d="M455.111 71.111H56.889c-14.451 0-27.635 5.608-37.67 14.486l143.516 106.821H512V128c0-31.417-25.472-56.889-56.889-56.889z" fill="#141414"/>
    <path d="M94.248 275.023l15.019 13.881-1.479-20.395 20.21-3.086-16.868-11.563 10.183-17.735-19.556 5.988-7.509-19.015-7.509 19.015-19.556-5.988 10.183 17.735-16.868 11.563 20.21 3.086-1.479 20.395 15.019-13.881z" fill="#fff"/>
</svg>
