<svg xmlns="http://www.w3.org/2000/svg" viewBox="0 0 512 512">
    <path d="M512 384c0 31.418-25.473 56.889-56.889 56.889H56.89C25.472 440.889 0 415.417 0 384V128c0-31.418 25.472-56.889 56.889-56.889H455.11C486.53 71.111 512 96.584 512 128v256z" fill="#060"/>
    <path d="M512 327.111H0V184.89h512v142.22z" fill="#bb1600"/>
    <path d="M455.111 71.111H56.89C25.472 71.111 0 96.582 0 128v56.889h512V128c0-31.417-25.473-56.889-56.889-56.889" fill="#141414"/>
    <path d="M512 199.111H0V184.89h512v14.222zm0 128H0V312.89h512v14.222z" fill="#eee"/>
    <path d="M195.983 361.002L299.52 187.007c7.709 2.148 13.297-7.566 18.346-22.64 5.945-17.665 10.795-29.655 9.785-30.252-1.024-.611-9.23 9.386-21.945 23.011-10.965 11.805-16.839 21.461-10.866 27.165L191.331 358.257c-.767 1.267 3.883 4.083 4.652 2.745" fill="#fff"/>
    <path d="M195.983 361.002L299.52 187.007c7.709 2.148 13.297-7.566 18.346-22.64 5.945-17.665 10.795-29.655 9.785-30.252-1.024-.611-9.23 9.386-21.945 23.011-10.965 11.805-16.839 21.461-10.866 27.165L191.331 358.257c-.767 1.267 3.883 4.083 4.652 2.745z" fill="none" stroke="#141414" stroke-width=".075"/>
    <path d="M316.017 361.002L212.494 187.007c-7.709 2.148-13.298-7.566-18.362-22.64-5.93-17.665-10.78-29.655-9.77-30.252.994-.611 9.23 9.386 21.915 23.011 10.994 11.805 16.882 21.461 10.91 27.165L320.68 358.257c.784 1.267-3.867 4.083-4.664 2.745" fill="#fff"/>
    <path d="M316.017 361.002L212.494 187.007c-7.709 2.148-13.298-7.566-18.362-22.64-5.93-17.665-10.78-29.655-9.77-30.252.994-.611 9.23 9.386 21.915 23.011 10.994 11.805 16.882 21.461 10.91 27.165L320.68 358.257c.784 1.267-3.867 4.083-4.664 2.745z" fill="none" stroke="#141414" stroke-width=".075"/>
    <path d="M256 362.382c35.456-26.595 52.509-62.037 52.509-106.666S291.456 175.645 256 149.062c-35.441 26.582-52.509 62.023-52.509 106.653S220.56 335.786 256 362.383" fill="#bb1600"/>
    <path d="M256 362.382c35.456-26.595 52.509-62.037 52.509-106.666S291.456 175.645 256 149.062c-35.441 26.582-52.509 62.023-52.509 106.653S220.56 335.786 256 362.383z" fill="none" stroke="#141414" stroke-width=".075"/>
    <path d="M214.755 312.178c7.58-16.84 11.279-35.542 11.279-56.392 0-20.835-3.698-39.552-11.279-56.405-7.566 16.854-11.293 35.57-11.293 56.405 0 20.85 3.727 39.553 11.293 56.391" fill="#141414"/>
    <path d="M214.755 312.178c7.58-16.84 11.279-35.542 11.279-56.392 0-20.835-3.698-39.552-11.279-56.405-7.566 16.854-11.293 35.57-11.293 56.405 0 20.85 3.727 39.553 11.293 56.391z" fill="none" stroke="#141414" stroke-width=".025"/>
    <path d="M297.288 312.178c-7.553-16.84-11.293-35.542-11.293-56.392 0-20.835 3.74-39.552 11.293-56.405 7.566 16.854 11.278 35.57 11.278 56.405-.001 20.85-3.712 39.553-11.278 56.391" fill="#141414"/>
    <path d="M297.288 312.178c-7.553-16.84-11.293-35.542-11.293-56.392 0-20.835 3.74-39.552 11.293-56.405 7.566 16.854 11.278 35.57 11.278 56.405-.001 20.85-3.712 39.553-11.278 56.391z" fill="none" stroke="#141414" stroke-width=".025"/>
    <path d="M256 269.226c4.353 0 7.894-6.03 7.894-13.454 0-7.438-3.541-13.468-7.894-13.468s-7.879 6.03-7.879 13.468c0 7.424 3.526 13.454 7.879 13.454m-3.285-35.555c-7.14-10.51-10.61-23.851-10.61-40.121 0-16.285 3.47-29.639 10.61-40.149v80.27zm6.57 0c7.125-10.51 10.581-23.851 10.581-40.121 0-16.285-3.456-29.639-10.581-40.149v80.27zm-6.57 44.089c-7.14 10.496-10.61 23.851-10.61 40.121 0 16.299 3.47 29.612 10.61 40.135V277.76zm6.57 0c7.125 10.496 10.581 23.851 10.581 40.121 0 16.299-3.456 29.612-10.581 40.135V277.76z" fill="#fff"/>
</svg>
