<svg xmlns="http://www.w3.org/2000/svg" viewBox="0 0 512 512">
    <path d="M512 384c0 31.418-25.473 56.889-56.889 56.889H56.89C25.472 440.889 0 415.417 0 384V128c0-31.418 25.472-56.889 56.889-56.889H455.11C486.53 71.111 512 96.584 512 128v256z" fill="#e8112d"/>
    <path d="M262.727 170.525c.2-14.863 13.37-25.087 13.924-44.885 9.429 11.861-6.159 34.105-.626 46.99 2.531-14.635 17.109-22.685 20.779-42.14 7.466 13.184-11.42 32.698-7.979 46.307 4.779-14.08 20.451-19.726 27.121-38.386 5.305 14.208-16.399 30.522-15.119 44.488 6.927-13.141 23.282-16.27 32.783-33.664 3.029 14.863-20.978 27.578-21.888 41.586 8.89-11.918 25.558-12.445 37.633-28.131.669 15.161-25.018 23.95-28.103 37.646 10.64-10.367 27.165-8.291 41.558-21.887-1.706 15.075-28.445 19.755-33.679 32.782 12.146-8.576 28.174-3.94 44.501-15.118-4.025 14.62-31.188 15.047-38.357 27.12 13.312-6.584 28.387.513 46.307-7.978-6.272 13.795-33.195 9.984-42.168 20.765 14.193-4.395 28.003 4.964 47.005-.611-8.392 12.644-34.333 4.665-44.885 13.924 14.691-2.134 26.851 9.258 46.492 6.727-10.226 11.179-34.631-.767-46.492 6.728 14.847.198 25.073 13.382 44.857 13.908-11.861 9.473-34.091-6.172-46.976-.611 14.662 2.531 22.699 17.109 42.169 20.779-13.199 7.466-32.725-11.42-46.337-7.979 14.08 4.779 19.755 20.451 38.387 27.121-14.194 5.334-30.493-16.398-44.502-15.118 13.17 6.912 16.313 23.28 33.68 32.782-14.863 3.029-27.563-20.977-41.587-21.887 11.919 8.888 12.445 25.557 28.131 37.632-15.132.669-23.965-25.031-37.632-28.102 10.353 10.638 8.277 27.165 21.887 41.542-15.09-1.692-19.755-28.445-32.782-33.664 8.561 12.147 3.925 28.174 15.118 44.502-14.648-4.025-15.06-31.19-27.12-38.358 6.584 13.298-.527 28.388 7.978 46.308-13.81-6.287-9.999-33.195-20.779-42.17 4.395 14.195-4.949 28.005.626 47.006-12.657-8.391-4.665-34.333-13.923-44.9 2.133 14.706-9.273 26.866-6.728 46.506-11.192-10.226.754-34.645-6.727-46.506-.199 14.862-13.369 25.087-13.924 44.871-9.458-11.832 6.159-34.091.611-46.976-2.517 14.662-17.109 22.699-20.765 42.169-7.481-13.2 11.42-32.725 7.965-46.308-4.779 14.051-20.451 19.726-27.107 38.358-5.319-14.194 16.398-30.493 15.118-44.502-6.926 13.17-23.296 16.313-32.782 33.664-3.029-14.847 20.977-27.549 21.887-41.542-8.888 11.89-25.542 12.416-37.646 28.102-.669-15.132 25.031-23.965 28.118-37.632-10.639 10.353-27.179 8.277-41.572 21.887 1.707-15.09 28.473-19.755 33.664-32.782-12.131 8.56-28.146 3.91-44.487 15.118 4.038-14.648 31.203-15.061 38.371-27.121-13.313 6.585-28.401-.497-46.308 7.979 6.287-13.81 33.18-9.999 42.155-20.779-14.193 4.38-27.975-4.949-46.99.611 8.363-12.629 34.333-4.665 44.885-13.909-14.706 2.134-26.85-9.272-46.506-6.727 10.24-11.179 34.631.754 46.506-6.727-14.862-.2-25.073-13.37-44.885-13.924 11.862-9.458 34.092 6.159 46.99.611-14.648-2.517-22.685-17.109-42.14-20.765 13.2-7.481 32.712 11.42 46.308 7.965-14.08-4.779-19.726-20.451-38.386-27.107 14.207-5.32 30.521 16.398 44.487 15.118-13.155-6.926-16.27-23.296-33.664-32.782 14.863-3.044 27.592 20.977 41.587 21.887-11.904-8.889-12.43-25.557-28.132-37.646 15.147-.669 23.95 25.031 37.647 28.117-10.368-10.638-8.292-27.178-21.888-41.57 15.061 1.706 19.755 28.472 32.796 33.663-8.59-12.131-3.94-28.131-15.132-44.488 14.62 4.04 15.061 31.204 27.121 38.372-6.585-13.326.513-28.401-7.979-46.294 13.81 6.272 9.984 33.166 20.78 42.14-4.41-14.194 4.948-27.975-.627-46.99 12.644 8.363 4.665 34.333 13.924 44.871-2.148-14.691 9.272-26.851 6.727-46.492 11.192 10.239-.755 34.644 6.727 46.506" fill="#ffcc4d"/>
    <path d="M256 325.831c38.527 0 69.76-31.246 69.76-69.774 0-38.542-31.233-69.773-69.76-69.773s-69.76 31.232-69.76 69.774c0 38.527 31.232 69.773 69.76 69.773" fill="#e8112d"/>
    <g fill="#ffcc4d">
        <path d="M256 191.303c17.793 0 33.792 7.622 44.943 19.81-17.48 1.765-32.3 5.875-44.943 12.147-12.644-6.272-27.477-10.382-44.928-12.146 11.122-12.188 27.122-19.811 44.928-19.811m-4.594 34.403a97.889 97.889 0 0 0-4.125 2.433c-11.335-6.016-24.917-9.899-41.045-11.051a61.071 61.071 0 0 1 2.304-3.044c16.769 1.48 30.92 5.49 42.866 11.662m9.23 0a97.889 97.889 0 0 1 4.125 2.433c11.335-6.016 24.918-9.899 41.045-11.051a42.838 42.838 0 0 0-2.304-3.044c-16.768 1.48-30.92 5.49-42.866 11.662m-56.447-5.446a59.09 59.09 0 0 0-1.835 3.2c15.018.341 27.62 3.811 37.973 9.529a77.084 77.084 0 0 1 3.3-2.375c-10.81-5.903-23.88-9.587-39.438-10.354"/>
        <path d="M202.34 280.817c-5.234-9.002-7.167-17.52-7.167-28.672 0-9.103 1.962-17.679 5.518-25.415 14.535-.1 26.709 3.073 36.637 8.59-14.722 12.047-26.64 26.155-34.988 45.497m28.871 26.852c-2.731-1.053-5.702-4.025-8.235-5.448 1.451-22.855 12.146-41.657 27.051-57.457a53.814 53.814 0 0 1 3.187 3.313c-13.868 16.2-22.757 37.207-22.003 59.592m76.643-87.409a59.09 59.09 0 0 1 1.835 3.2c-15.033.341-27.634 3.811-37.974 9.529a86.836 86.836 0 0 0-3.3-2.375c10.796-5.903 23.851-9.587 39.439-10.354"/>
        <path d="M309.689 280.832c5.22-9.002 7.167-17.536 7.167-28.686 0-9.102-1.977-17.679-5.532-25.415-14.521-.1-26.695 3.073-36.623 8.59 14.706 12.046 26.654 26.169 34.988 45.511M256 253.298c10.909 17.55 12.999 36.75 12.401 58.438-4.736 1.167-7.31 1.28-12.401 1.28-5.106 0-7.666-.114-12.401-1.28-.598-20.578 1.492-40.22 12.401-58.438m24.746 54.371c2.717-1.053 5.774-3.143 8.307-4.551-1.452-22.87-12.147-42.553-27.052-58.354a63.921 63.921 0 0 0-3.186 3.314c13.883 16.2 22.685 37.206 21.931 59.59m-34.36-66.174a61.533 61.533 0 0 0-4.167-3.158c-15.445 13.681-26.894 29.568-33.338 51.129 2.389 2.716 2.333 4.721 5.163 6.969 3.982-22.657 16.882-39.993 32.342-54.94m19.272 0a61.533 61.533 0 0 1 4.167-3.158c15.431 13.681 26.851 29.866 33.294 51.428-2.389 2.716-2.745 4.422-5.575 6.67-3.969-22.657-16.428-39.993-31.886-54.94M256 228.324a188.37 188.37 0 0 1 4.067 2.546c-1.038.64-3.413 2.247-4.067 2.702-.64-.455-3.029-2.062-4.067-2.702.668-.441 3.3-2.091 4.067-2.546m-7.68 5.077c-1.039.783-2.617 1.991-3.214 2.503 1.494.981 3.499 2.504 4.125 2.986.783-.669 2.333-2.02 3.2-2.66-1.067-.753-3.315-2.374-4.111-2.829m15.403 0c1.038.783 2.617 1.991 3.213 2.503-1.493.981-3.498 2.504-4.138 2.986-.768-.669-2.32-2.02-3.187-2.66 1.054-.753 3.302-2.374 4.112-2.829M256 239.075c.669.569 2.645 2.319 3.171 2.845-.939.825-2.404 2.205-3.171 3.073-.767-.868-2.219-2.248-3.157-3.073.512-.526 2.503-2.275 3.157-2.845"/>
    </g>
</svg>
