<svg xmlns="http://www.w3.org/2000/svg" viewBox="0 0 512 512">
    <path d="M512 384c0 31.418-25.473 56.889-56.889 56.889H56.89C25.472 440.889 0 415.417 0 384V128c0-31.418 25.472-56.889 56.889-56.889H455.11C486.53 71.111 512 96.584 512 128v256z" fill="#032ea1"/>
    <path d="M512 361.642H0v-211.27h512v211.27z" fill="#e01e24"/>
    <path d="M384.285 325.689V312.86h-7.709v-12.829h-7.054v-8.334h-3.213v-6.413h-6.229l-3.385-4.85v-22.728l3.84-3.854v-21.177l-3.2 2.887v-6.74h-2.574v3.213h-5.12v-10.269l-6.087 5.461 1.92-6.897-3.541-15.886h-1.92s-1.593-6.728-4.793-6.728c0 0 1.28-4.167-1.294-4.167s-1.934 3.2-1.934 3.2-4.48 1.933-4.48 6.741l-2.56-.313-3.853 18.59 2.702 5.46-6.244-5.46v14.122H283.58V223.06l-1.934 1.906v4.509h-4.48v-4.509l3.2-2.872v-6.088l-2.574 2.716-3.853-5.29v-4.495l-2.233 2.233-.654-3.84 3.214-5.12-.484-4.168-3.683 4.48v-3.84l1.607-3.527-7.381-18.603-1.764-5.148-2.731-.313v-2.574s-1.92-4.48-4.494-4.48c-2.56 0-4.48 4.48-4.48 4.48v2.574l-2.731.313-1.777 5.148-7.368 18.603 1.607 3.527v3.84l-3.683-4.48-.498 4.168 3.214 5.12-.64 3.84-2.248-2.233v4.494l-3.84 5.291-2.573-2.716v6.088l3.2 2.872v4.509h-4.48v-4.509l-1.934-1.906v12.829h-33.991v-14.123l-6.244 5.461 2.716-5.46-3.854-18.59-2.573.313c0-4.808-4.48-6.741-4.48-6.741s.64-3.2-1.934-3.2c-2.56 0-1.28 4.167-1.28 4.167-3.2 0-4.807 6.728-4.807 6.728h-1.92l-3.528 15.886 1.92 6.897-6.087-5.46v10.268h-5.134v-3.214h-2.574v6.741l-3.186-2.887v21.177l3.84 3.854v22.728l-3.399 4.85h-4.949v6.413h-4.48v8.334h-6.428v12.829h-7.054v12.829h-7.054l-.64 14.093h270.72l.64-14.093h-7.06z" fill="#fff"/>
    <g fill="#db7f86">
        <path d="M248.291 339.755h-5.035v-85.618h5.035v85.618zm20.68 0h-4.964v-85.618h4.964v85.618zm-99.186 0h-4.864v-85.618h4.864v85.618zm20.978-.142h-4.694v-85.618h4.694v85.618zm135.452.142h-6.072v-85.618h6.072v85.618zm20.993 0H342.4v-85.618h4.808v85.618zM164.921 284.16h-14.307l2.759-5.39h11.548v5.39z"/>
        <path d="M360.206 284.16H342.4v-5.39h15.275l2.531 5.39zm-113.749.029h-59.165v-5.39h59.165v5.39zm78.507 0h-59.179v-5.39h59.179v5.39z"/>
    </g>
</svg>
