<svg xmlns="http://www.w3.org/2000/svg" viewBox="0 0 512 512">
    <path d="M455.111 71.111H56.889C25.472 71.111 0 96.583 0 128v256c0 31.417 25.472 56.889 56.889 56.889h398.222C486.528 440.889 512 415.417 512 384V128c0-31.417-25.472-56.889-56.889-56.889z" fill="#eee"/>
    <path d="M304.945 186.098c-38.599-27.022-91.804-17.636-118.841 20.964-.018.024-.033.05-.049.074.018-.026.035-.053.054-.079-11.582 16.531-9.787 38.438 3.125 52.887a42.815 42.815 0 0 0 7.353 6.538c14.149 9.905 32.213 10.007 46.18 1.764a42.49 42.49 0 0 0 13.23-12.249c13.511-19.285 40.149-23.979 59.42-10.468a42.573 42.573 0 0 1 10.309 10.231c10.168 14.295 10.816 34.004.183 49.18 27.036-38.586 17.649-91.792-20.964-118.842z" fill="#c60c30"/>
    <path d="M315.416 245.528c-19.271-13.511-45.909-8.818-59.42 10.468a42.494 42.494 0 0 1-13.23 12.25c-13.965 8.248-32.037 8.143-46.176-1.754a42.81 42.81 0 0 1-7.357-6.547c-12.911-14.45-14.707-36.355-3.125-52.887-.018.026-.035.053-.054.079-26.983 38.621-17.569 91.758 21.003 118.762 38.613 27.051 91.804 17.664 118.841-20.949 10.632-15.186 9.985-34.894-.173-49.19a42.542 42.542 0 0 0-10.309-10.232z" fill="#003478"/>
    <path d="M373.528 331.028l-27.434 32.697 10.894 9.131 27.434-32.683zm47.44-34.412l-10.88-9.159-27.421 32.683 10.895 9.145zm-25.663 52.704l-27.42 32.682 10.894 9.144 27.42-32.667zm47.469-34.427l-10.894-9.145-27.435 32.668 10.894 9.159zm-53.112 85.401l10.909 9.131 27.434-32.668-10.908-9.145zm36.574-43.585l10.908 9.145 27.407-32.683-10.88-9.144zm27.443-168.742l10.908-9.131-27.449-32.697-10.894 9.145zm-25.678-52.716l-27.42-32.697-10.88 9.145 27.406 32.697zm14.782 61.855l-63.986-76.26-10.908 9.145 64 76.26zm-58.366-25.3l-27.421-32.683-10.88 9.16 27.406 32.682zm36.588 43.585l-27.449-32.682-10.895 9.159 27.435 32.654zM91.028 296.602l63.986 76.274 10.894-9.159-64-76.26zm5.626 50.973l10.894-9.145-27.42-32.697-10.894 9.16zm9.139 10.904l27.435 32.667 10.894-9.13-27.435-32.696zm-58.362-25.308l64 76.26 10.894-9.145-63.985-76.259zm74.874-221.47l-10.894-9.145-64 76.274 10.908 9.131zm-42.194 94.544l64-76.26-10.908-9.145-63.986 76.274zm21.793 18.285l63.986-76.259-10.895-9.145-64 76.26z" fill="#292f33"/>
</svg>
