<svg xmlns="http://www.w3.org/2000/svg" viewBox="0 0 512 512"><path d="M455.111 71.111H56.889C25.472 71.111 0 96.583 0 128v256c0 31.417 25.472 56.889 56.889 56.889h398.222C486.528 440.889 512 415.417 512 384V128c0-31.417-25.472-56.889-56.889-56.889z" fill="#eee"/><path d="M304.945 186.098c-38.599-27.022-91.804-17.636-118.841 20.964-.018.024-.033.05-.049.074.018-.026.035-.053.054-.079-11.582 16.531-9.787 38.438 3.125 52.887a42.815 42.815 0 0 0 7.353 6.538c14.149 9.905 32.213 10.007 46.18 1.764a42.49 42.49 0 0 0 13.23-12.249c13.511-19.285 40.149-23.979 59.42-10.468a42.573 42.573 0 0 1 10.309 10.231c10.168 14.295 10.816 34.004.183 49.18 27.036-38.586 17.649-91.792-20.964-118.842z" fill="#c60c30"/><path d="M315.416 245.528c-19.271-13.511-45.909-8.818-59.42 10.468a42.494 42.494 0 0 1-13.23 12.25c-13.965 8.248-32.037 8.143-46.176-1.754a42.81 42.81 0 0 1-7.357-6.547c-12.911-14.45-14.707-36.355-3.125-52.887-.018.026-.035.053-.054.079-26.983 38.621-17.569 91.758 21.003 118.762 38.613 27.051 91.804 17.664 118.841-20.949 10.632-15.186 9.985-34.894-.173-49.19a42.542 42.542 0 0 0-10.309-10.232z" fill="#003478"/><g fill="#292f33"><path d="M373.528 331.028l-27.434 32.697 10.894 9.131 27.434-32.683zM420.968 296.616l-10.88-9.159-27.421 32.683 10.895 9.145zM395.305 349.32l-27.42 32.682 10.894 9.144 27.42-32.667zM442.774 314.893l-10.894-9.145-27.435 32.668 10.894 9.159zM389.662 400.294l10.909 9.131 27.434-32.668-10.908-9.145zM426.236 356.709l10.908 9.145 27.407-32.683-10.88-9.144zM453.679 187.967l10.908-9.131-27.449-32.697-10.894 9.145zM428.001 135.251l-27.42-32.697-10.88 9.145 27.406 32.697zM442.783 197.106l-63.986-76.26-10.908 9.145 64 76.26zM384.417 171.806l-27.421-32.683-10.88 9.16 27.406 32.682zM421.005 215.391l-27.449-32.682-10.895 9.159 27.435 32.654zM91.028 296.602l63.986 76.274 10.894-9.159-64-76.26zM96.654 347.575l10.894-9.145-27.42-32.697-10.894 9.16zM105.793 358.479l27.435 32.667 10.894-9.13-27.435-32.696zM47.431 333.171l64 76.26 10.894-9.145-63.985-76.259zM122.305 111.701l-10.894-9.145-64 76.274 10.908 9.131zM80.111 206.245l64-76.26-10.908-9.145-63.986 76.274zM101.904 224.53l63.986-76.259-10.895-9.145-64 76.26z"/></g></svg>