<svg xmlns="http://www.w3.org/2000/svg" viewBox="0 0 512 512"><path d="M455.111 71.111H56.889c-15.411 0-29.381 6.348-39.626 16.303l-.111-.105C6.575 97.64 0 112.049 0 128v256c0 15.951 6.575 30.36 17.151 40.691L128 320v.418L17.151 424.9c10.255 10.017 24.271 15.989 39.738 15.989h398.222C486.528 440.889 512 415.417 512 384V128c0-31.417-25.472-56.889-56.889-56.889z" fill="#eee"/><path d="M17.151 424.9c10.255 10.017 24.271 15.989 39.738 15.989h398.222C486.528 440.889 512 415.417 512 384v-63.582H128L17.151 424.9z" fill="#ce1126"/><path d="M455.111 71.111H56.889c-15.466 0-29.483 6.391-39.738 16.407L128 192.418h384V128c0-31.417-25.472-56.889-56.889-56.889z" fill="#007a3d"/><path d="M128 192L17.151 87.309C6.575 97.64 0 112.049 0 128v256c0 15.951 6.575 30.36 17.151 40.691L128 320V192z" fill="#141414"/></svg>