<svg xmlns="http://www.w3.org/2000/svg" viewBox="0 0 512 512">
    <path d="M512 384c0 31.418-25.473 56.889-56.889 56.889H56.89C25.472 440.889 0 415.417 0 384V128c0-31.418 25.472-56.889 56.889-56.889H455.11C486.53 71.111 512 96.584 512 128v256z" fill="#00afca"/>
    <g fill="#ffcc4d">
        <path d="M270.791 194.091c22.528 0 40.746 18.248 40.746 40.746 0 22.528-18.218 40.762-40.746 40.762-22.5 0-40.746-18.233-40.746-40.761 0-22.5 18.246-40.747 40.746-40.747m0-3.059c2.418-.028 3.3-1.55 3.3-3.356 0-2.417-3.3-21.276-3.3-21.276s-3.356 18.859-3.356 21.276c0 1.807.91 3.357 3.356 3.357m0 87.864c-2.446.014-3.356 1.537-3.356 3.343 0 2.432 3.356 21.049 3.356 21.049s3.3-18.618 3.3-21.049c0-1.806-.882-3.343-3.3-3.343m-11.435-1.719c-2.346-.598-3.583.64-4.053 2.388-.627 2.333-2.32 21.419-2.32 21.419s8.122-17.365 8.747-19.697c.471-1.75-.013-3.485-2.374-4.11m22.757-84.879c2.36.626 3.64-.627 4.11-2.362.626-2.346 2.19-21.19 2.19-21.19s-7.993 17.108-8.633 19.47c-.47 1.735-.015 3.455 2.333 4.082m-33.324 80.468c-2.105-1.18-3.641-.312-4.538 1.267-1.209 2.076-7.78 20.081-7.78 20.081s12.331-14.663 13.54-16.754c.911-1.577.883-3.37-1.222-4.594m43.932-76.073c2.119 1.222 3.684.341 4.58-1.223 1.223-2.091 7.609-19.882 7.609-19.882s-12.16 14.45-13.383 16.555c-.882 1.562-.882 3.341 1.194 4.55"/>
        <path d="M239.715 265.799c-1.735-1.693-3.428-1.251-4.708.029-1.706 1.72-12.715 17.393-12.715 17.393s15.715-10.98 17.423-12.672c1.28-1.28 1.736-3.029 0-4.75m62.08-62.136c1.735 1.72 3.456 1.28 4.736 0 1.721-1.707 12.501-17.252 12.501-17.252s-15.487 10.838-17.194 12.559c-1.28 1.279-1.75 2.985-.043 4.693m-69.02 53.062c-1.238-2.063-2.986-2.076-4.565-1.18-2.091 1.209-16.782 13.498-16.782 13.498s18.02-6.514 20.125-7.723c1.563-.896 2.446-2.475 1.222-4.595m76.089-43.96c1.237 2.105 3.029 2.134 4.58 1.238 2.118-1.223 16.54-13.427 16.54-13.427s-17.764 6.443-19.869 7.651c-1.55.91-2.446 2.447-1.251 4.538m-80.455 33.394c-.654-2.333-2.361-2.788-4.11-2.333-2.333.626-19.698 8.704-19.698 8.704s19.086-1.635 21.419-2.261c1.749-.47 3.015-1.75 2.389-4.11m84.906-22.756c.654 2.36 2.361 2.845 4.11 2.375 2.346-.627 19.456-8.675 19.456-8.675s-18.83 1.62-21.191 2.247c-1.735.455-3 1.72-2.375 4.052m-86.4 11.42c-.029-2.417-1.55-3.3-3.356-3.3-2.418 0-21.276 3.3-21.276 3.3s18.858 3.357 21.276 3.357c1.806.001 3.356-.91 3.356-3.357m87.823 0c.013 2.447 1.536 3.357 3.342 3.357 2.433 0 21.049-3.357 21.049-3.357s-18.617-3.3-21.049-3.3c-1.806.002-3.343.883-3.343 3.3m-86.328-11.335c.597-2.346-.64-3.598-2.389-4.053-2.333-.627-21.419-2.319-21.419-2.319s17.365 8.121 19.698 8.746c1.748.471 3.483-.012 4.11-2.374m84.906 22.757c-.626 2.361.626 3.641 2.361 4.11 2.346.626 21.191 2.19 21.191 2.19s-17.108-8.008-19.47-8.633c-1.734-.47-3.456-.014-4.082 2.333m-80.526-33.338c1.18-2.105.312-3.641-1.266-4.537-2.077-1.209-20.082-7.78-20.082-7.78s14.663 12.331 16.754 13.54c1.579.911 3.371.882 4.594-1.223m76.103 43.948c-1.222 2.119-.34 3.684 1.224 4.58 2.091 1.222 19.883 7.608 19.883 7.608s-14.45-12.16-16.555-13.368c-1.565-.912-3.343-.912-4.552 1.18m-69.148-53.007c1.692-1.735 1.251-3.427-.029-4.707-1.721-1.706-17.394-12.715-17.394-12.715s10.98 15.715 12.673 17.422c1.28 1.28 3.03 1.735 4.75 0m62.194 62.137c-1.722 1.735-1.28 3.47 0 4.736 1.706 1.735 17.25 12.501 17.25 12.501s-10.837-15.487-12.558-17.209c-1.279-1.266-2.985-1.735-4.692-.028m-53.092-69.149c2.063-1.238 2.076-2.986 1.18-4.565-1.209-2.091-13.497-16.767-13.497-16.767s6.514 18.005 7.722 20.11c.898 1.565 2.477 2.446 4.595 1.222m43.933 76.16c-2.105 1.222-2.134 3.001-1.238 4.565 1.223 2.105 13.426 16.54 13.426 16.54s-6.442-17.777-7.65-19.869c-.912-1.562-2.448-2.458-4.538-1.236m-33.38-80.469c2.332-.654 2.787-2.361 2.332-4.11-.626-2.332-8.704-19.697-8.704-19.697s1.635 19.086 2.262 21.419c.47 1.748 1.75 3.014 4.11 2.388m22.756 84.864c-2.361.654-2.845 2.361-2.375 4.11.626 2.346 8.675 19.456 8.675 19.456s-1.621-18.845-2.248-21.176c-.454-1.75-1.72-3.015-4.052-2.39"/>
        <path d="M247.865 328.931l1.777.783.47-.384.64-.484.682-.37.64-.412 2.346-.939 2.034-.925 1.01-.399.867-.469.868-.455.697-.483 1.778-1.153 1.806-1.18 1.735-1.081 1.55-1.109 1.18-.938.925-.868 1.024-.925 1.095-1.024.399-.384.468-.312.54-.328.612-.298 1.35-.64 1.323-.455 1.793-.469 1.962-.469 2.034-.399 2.248-.383 2.745-.328 2.73-.37 2.802-.327 2.745-.455.925-.171.854-.228.952-.241.939-.214.953-1.18 1.493-1.65 1.024-1.01 1.137-.939 1.338-1.023 1.565-1.024 2.361-1.394 2.46-1.238 2.589-1.337 2.531-1.18 2.304-1.166 2.219-1.095 1.806-.939 1.394-.939.383-1.18.555-1.152.698-1.18.854-1.167.952-1.25 1.166-1.267 1.252-1.408 1.55-1.465 1.422-1.266 1.494-1.237.754-.555.811-.54.854-.484.867-.469.854-.399.839-.285.967-.256.868-.241.91-.058.867-.07.91.07.868.143-.058.952-.227.925-.328.953-.37 1.01-.582 1.01-.683 1.024-.867 1.095-1.024 1.095.796-.085.698-.157.555-.17.526-.215.484-.156.555-.171.697-.071.768-.072.085.555v.54l-.085.54-.143.47-.214.468-.34.469-.3.383-.383.4-1.65 1.55-1.635 1.493.925.085 1.023.312 1.024.3.754.155-.925.712-1.081.711-1.109.697-1.251.712-1.252.697-1.25.768-1.252.867-1.166.939.54.071.711.328.312.071.3.156.255.071.228-.07-1.565.867-1.978.938-.91.455-.81.484-.385.228-.227.241-.128.227-.17.228.057.313.171.24.299.228.285.241-.114.313-.171.241-.299.228-.285.241-.754.37-.91.399-.925.327-.854.299-.64.327-.468.228 1.55 1.565-.555.54-.527.399-.468.241-.555.214-1.095.156h-1.494l.171.711.214.698.171.782.171.796-1.337 1.01-1.635 1.167-1.806 1.166-2.005 1.166-1.195.64-1.167.54-1.25.484-1.323.469-1.423.455-1.479.312-1.55.328-1.663.241 2.887.057h2.531l2.304-.227 2.134-.241 1.949-.384 1.721-.469 1.721-.611 1.635-.64 2.176-1.01 2.134-1.18 2.005-1.266 2.134-1.223-1.28-.626-1.223-.399-.61-.241-.64-.313-.683-.298-.725-.413.611-.455.754-.312.796-.313.981-.227 1.849-.413 1.949-.214 1.721-.24 1.565-.157.64-.156.555-.143.299-.171.227-.228-.057-.085-.172-.156-.227-.085-.299-.142-.867-.157-1.109-.156-1.081-.085-1.082-.156-.967-.228-.583-.24 2.077-.47 2.105-.455 1.891-.412 1.565-.37 1.322-.399 1.167-.469.568-.227.355-.241.384-.242.341-.312-.085-.071-.142-.157-.327-.07-.4-.086-.994-.085h-1.195l-1.223-.085-1.195-.057-.995-.172-.64-.142.555-.241.555-.228 1.864-.555 1.635-.469 1.507-.383 1.38-.469 1.508-.484 1.465-.611.698-.399.64-.384.227-.24.241-.313.228-.228.085-.227-.085-.242-.228-.17-.241-.058h-2.176l-1.024.057h-1.394l-.412-.057-.285-.157-.328-.156 3.115-2.047 2.915-1.878 2.574-1.635 2.261-1.565.91-.782.868-.768.682-.782.64-.783.484-.854.384-.867.227-.939v-1.024h-.54l-.555.085-.64.242-.582.213-1.238.783-1.337.782-.725.4-.611.412-.725.285-.697.256-.626.142-.611.085h-.725l-.611-.227 1.89-1.408 2.106-1.806 2.417-2.105 2.418-2.361 2.417-2.489 2.248-2.502 1.024-1.338 1.038-1.251.854-1.251.783-1.167.17-.298.043-.242-.042-.312-.085-.228-.085-.24-.228-.157-.241-.241-.227-.085-.3-.128-.34-.085h-.612l-.298.085-.427.058-.213.241-.342.241-1.38 1.394-1.621 1.65-1.721 1.806-1.891 1.793-1.878 1.635-1.862 1.565-.953.626-.854.54-.952.469-.768.398.527-.483.725-.683.938-.952.995-1.167 2.275-2.745 2.503-3.2 1.251-1.72 1.166-1.722 1.195-1.635.982-1.706.967-1.579.783-1.408.61-1.337.385-1.081.085-.399v-.626l-.085-.228-.143-.241-.142-.228-.157-.156-.256-.071-.441-.241-.583-.157H360.4l-.312.085-.228.072-.327.156-.228.227-.626.555-.64.783-1.394 1.806-1.479 2.261-1.663 2.418-1.778 2.502-.995 1.167-.967 1.166-1.01 1.039-1.082.938 1.394-2.588 1.408-2.959.782-1.65.696-1.635.725-1.721.612-1.722.555-1.806.526-1.721.384-1.721.34-1.707.128-1.65.114-1.565-.114-.782-.057-.683-.071-.725-.172-.697-.057-.228-.171-.24-.214-.228-.171-.172-.527-.213-.582-.172h-.526l-.513.085-.127.085-.228.058-.085.156-.085.256-.767 2.56-.698 2.574-.725 2.745-.697 2.645-.725 2.674-.91 2.489-.47 1.251-.554 1.095-.611 1.166-.725 1.024.468-2.247.342-2.048.27-1.877.17-1.722.172-1.479.071-1.337-.071-1.095-.085-.939-.142-.767-.228-.626-.156-.242-.171-.241-.172-.143-.241-.085-.227-.07-.228-.086h-.241l-.228.085-.64.156-.611.313-.526 2.489-.583 2.432-.611 2.275-.697 2.161-.768 2.205-.867 2.19-.94 2.262-1.108 2.261-.754 1.479-.811 1.494-.854 1.478-.867 1.494-.91 1.407-.953 1.408-1.023 1.407-1.024 1.408-1.835 2.333-1.978 2.19-2.02 2.176-2.118 2.047-2.19 2.048-2.275 1.849-2.304 1.806-2.446 1.721-1.65 1.095-1.722 1.095-1.721 1.01-1.721 1.01-2.716 1.251-2.76 1.267-2.8.995-2.83 1.023-2.304.712-2.361.697-2.418.54-2.417.555-2.418.399-2.531.312-2.418.313-2.488.156-.242.071-.241.072-.469.256-.526.37-.811.711-.995.925-1.251 1.266-1.48 1.65-1.407 1.635-1.65 1.793-.853.854-.868.867-1.01.783-1.01.767-.796.54-.783.498-.838.37-.868.398-1.891.783-1.863.711-1.877.698-1.635.64-.711.298-.698.384-.64.328-.455.298-.455.469-.399.399-.241.384-.171.383-.058.569v.296m62.809 7.354l-.526.214-.583.085-.441.085-.413-.085-.398-.085-.355-.128-.328-.156-.399-.256-.64-.455-.582-.469-.328-.227-.412-.172-.285-.071h-.413l-.697 1.479-.925 1.877-.328.469-.298.384-.342.241-.27.241-.426.143h-.384l-.355-.143-.512-.241-.128-.241-.17-.228-.172-.327-.171-.37-.128-.711-.085-.47-.469.385-.455.555-.412.61-.469.726-.526.697-.555.54-.313.328-.383.227-.384.172-.484.142h-.214l-.426.071-.384-.071-.298-.142-.925-1.095-1.024-1.11-.698 1.11-.81.925-.385.383-.355.399-.398.299-.413.241-.299.171-.398.085h-.384l-.341-.085-.299-.171-.228-.241-.298-.37-.172-.484-.17-.455-.3-.782-.085-.413-.142-.299-.156-.156h-.172l-2.118 3.456-.299.285-.555.257-.611.142-.612.156h-.725l-.555-.156-.17-.085-.215-.227-.057-.143v-.312l.27-3.457-.214.085-.312.157-.299.156-.313.312-.64.698-.682.782-.698.854-.867.725-.399.313-.399.298-.468.257-.399.042-.526.085-.384-.085-.171-.042-.157-.172-.085-.241v-.227l.085-1.01.157-1.024.085-.555-.085-.455-.072-.469-.327-.555-.469.698-.754 1.023-.967 1.024-.995 1.01-.569.399-.526.384-.484.17-.37.128-.171-.085h-.241l-.157-.127-.07-.085-.157-.241-.071-.228v-.312l-.085-.4.085-2.958-1.963 1.323-2.346 1.478-.54.242-.626.312-.555.143-.64.17-.527.143h-.555l-.526-.057-.484-.171.242-.627.241-.54.227-.555.3-.455.327-.483.298-.47.4-.383.398-.399.854-.611.995-.626 1.023-.484 1.18-.384 1.18-.298 1.323-.242 1.322-.241 1.338-.156 2.872-.143 2.987-.085h5.931l1.494-.085 1.393-.071 1.423-.085 1.322-.142 1.338-.257 1.137-.227 1.195-.313 1.11-.455 1.038-.468.796-.627.868-.626.74-.881-.797-1.55.64-.085.612-.143.64-.312.526-.413.214-.127.256-.241.171-.328.156-.214.058-.327v-.54l-.156-.313 1.322-.241 1.423-.142 1.493-.085h1.565l3.214.142 3.285.241 3.328.399 3.285.313 3.213.312 2.944.156v1.082l-.057.483-.157.469-.142.469-.171.384-.214.327-.341.37-.527.555-.696.455-.754.328-.74.156-.867.156-.854-.085-.811-.071-.868-.228-.74-.412-.81-.384-.612-.555-.611-.611v1.337l-.257 1.722-.127.853-.256.783-.172.327-.213.214-.172.241-.217.149z"/>
        <path d="M276.494 332.445l1.308.171.64.228.128.071V333h-.128l-.17.071-1.252.241h-.995l-3.285-.24-3.996-.072-4.282-.085-4.48.085-2.105.071-2.105.156-1.877.157-1.793.156-1.493.241-1.323.299-.469.171-.468.156-.384.157-.313.241.143-.796.327-.783-.555.156-.54.157-.468.241-.469.227-.384.242-.327.312-.242.384-.057.399-.228-.54-.17-.484-.086-.54-.085-.469.085-.399.085-.468.071-.37.242-.413.142-.312.328-.384.312-.313.313-.312.838-.54.968-.555c.497.299 1.052.54 1.621.697.498.072 1.081-.013 1.664-.142.939.825 2.219.725 3.044-.171.127-.143.327-.413.383-.612.128-.455.114-1.038 0-1.578l.94-.058 1.094-.171 1.166-.313 1.252-.312 1.266-.241 1.153-.299 1.094-.156.925-.085-.37.327-.952.698-1.095.853-.754.54.995.257.854.142-.611.711-.627.698-.61.697-.485.627.612.227.626.171.711.157h1.408l.697-.157.698-.17.569-.313.626.312.626.241.611.172.612.156 1.422.142 1.494.157h5.94m-7.125-23.755l-.698 1.407-.782 1.807-.469.853-.399.783-.299.611-.398.399-.925-.783-1.039-.697-1.095-.555-1.153-.469-1.266-.313-1.251-.327-1.238-.214-1.337-.156-2.731-.241-2.745-.071-2.645-.172-2.518-.298-1.394-.242-1.337-.298-.683-.242-.71-.241-.627-.312-.555-.3-.868-.568-.838-.611-.953-.711-.854-.768-1.792-1.721-1.793-1.721-1.806-1.635-1.635-1.494-.796-.54-.768-.54-.71-.328-.712-.241-1.323-.299-1.166-.398-1.166-.384-1.18-.555-1.024-.455-.995-.626-.952-.64-.854-.627-.953-.697-.767-.711-.783-.783-.782-.782-1.494-1.635-1.407-1.722-2.817-3.655-2.958-3.768-1.707-1.793-1.806-1.806-1.01-.925-1.039-.854-1.08-.796-1.167-.854-.228.071-.256.242-.227.298-.143.413-.241.682-.071.328-.555-.241-.469-.228-.555-.241-.469-.156h-1.01l-.54.156-.555.241.555.683.698.952.682 1.095.64 1.18.626 1.238.455 1.18.172.626.171.469.071.54v.455h-4.21l.611.952.712.939.753.939.868.853.854.868.867.854.868.697.796.555-.868.085-1.166.085-1.18.143-.867.085.697.626.854.611.952.711 1.01.698 1.024.626 1.01.555.953.328.853.213.384.085.313.072.241.085.156.156.071.071v.313l-.07.17-.157.47-.071.455-.1.312v.228l.1.398.071.328.156.142.228.157.298.156.413.085.399.156.383.156.384.143.313.241.071.085v.143l-.071.085-.313.227-.312.228-.313.327-.312.384v.327l-.072.313.072.384.085.468 1.322.469 1.408.469.626.142.626.257.469.227.399.241-2.589 2.02.697.627.868.468 1.081.555 1.095.384 1.266.399 1.153.227 1.039.228h.925l-.854.626-1.109.698-1.152.64-.868.626.783.54 1.095.555 1.251.626 1.479.698 3.456 1.493 3.74 1.479 3.911 1.408 3.826 1.25 1.722.556 1.55.384 1.422.383 1.251.242-2.517-.242-2.333-.312-2.332-.399-2.19-.469-2.19-.626-2.119-.611-2.02-.698-1.962-.782-3.84-1.565-3.584-1.579-1.721-.697-1.722-.712-1.635-.611-1.635-.626.384-.228.469-.171.626-.227.698-.157 1.493-.468 1.323-.484-2.346-.37-3.214-.626-1.565-.484-1.323-.37-.54-.241-.468-.242-.384-.241-.241-.227v-.072l.085-.071.227-.085.228-.156.64-.241.853-.242 1.863-.54 1.579-.54-3.84-.697-2.973-.469-1.081-.256-.868-.299-.312-.156-.299-.241-.241-.143-.156-.241.227-.156.698-.157 1.038-.156 1.153-.227 1.266-.157 1.095-.312.54-.171.455-.157.328-.213.312-.257-.64-.241-.611-.227-.796-.143-.768-.171-1.806-.228-1.793-.241-.925-.214-.867-.171-.854-.312-.867-.3-.797-.398-.697-.555-.626-.555-.469-.682.171-.085.299-.085h.399l.626.085 1.407.085 1.55.057 1.735.171h2.177l.626-.085.469-.142.327-.171-1.891-.783-2.489-1.095-1.407-.697-1.494-.712-1.465-.767-1.494-.783-1.407-.867-1.338-.939-1.237-.925-1.095-.952-.469-.54-.484-.47-.299-.468-.327-.555-.299-.469-.171-.54-.071-.468-.058-.54h.526l.627.07.626.257.626.214 1.251.782 1.408.783.626.399.698.37.697.327.626.228.698.17.64.072h.711l.611-.241-1.862-1.408-2.119-1.777-2.417-2.119-2.418-2.346-2.417-2.503-2.29-2.502-.982-1.323-1.038-1.251-.854-1.251-.783-1.18-.156-.313v-.54l.071-.241.085-.227.228-.143.227-.241.257-.171.298-.085.313-.058h.626l.384.058.341.085.299.24.227.228L181 268.37l1.635 1.65 1.721 1.806 1.891 1.778 1.85 1.635 1.89 1.592.925.611.868.54.925.484.867.313-.61-.4-.712-.697-.939-.938-1.024-1.18-2.247-2.732-2.503-3.2-1.25-1.721-1.18-1.721-1.096-1.721-1.095-1.65-.939-1.55-.782-1.423-.54-1.322-.455-1.082-.1-.398v-.64l.1-.214.142-.241.143-.242.171-.156.241-.142.54-.172.47-.156H181l.313.071.227.085.313.172.256.227.611.555.611.768 1.423 1.806 1.494 2.261 1.706 2.418 1.806 2.503.925 1.18.925 1.167 1.039 1.01 1.081.938-1.322-2.573-1.494-2.96-.768-1.634-.71-1.664-.698-1.692-.64-1.722-.527-1.806-.555-1.721-.383-1.735-.313-1.721-.171-1.635-.071-1.55.071-.783.1-.711.071-.711.156-.683.157-.256.085-.228.227-.241.143-.142.555-.242.54-.142h.555l.455.085.241.057.156.072.085.17.085.228.754 2.489.711 2.674.725 2.731.696 2.66.683 2.66.952 2.504.484 1.166.526 1.166.627 1.095.697 1.109-.455-2.29-.299-2.02-.34-1.862-.157-1.722-.143-1.507-.085-1.309.085-1.109.072-.925.156-.796.241-.611.171-.241.143-.228.156-.171.228-.143.227-.071h.711l.64.214.598.327.569 2.503.526 2.417.64 2.262.682 2.19.812 2.19.853 2.205.925 2.247 1.095 2.261.797 1.494.782 1.494.839 1.479.867 1.478.94 1.423.952 1.394 1.01 1.393 1.01 1.423 1.877 2.346 1.963 2.19 2.02 2.176 2.118 2.048 2.19 2.005 2.262 1.891 2.346 1.793 2.417 1.72 1.635 1.096 1.722 1.024 1.806 1.01 1.706.938 2.731 1.323 2.66 1.266 2.817 1.081 2.816 1.01 2.645.868 2.759.697 2.816.64 2.716.54 2.901.399 2.817.313 2.887.227 2.878.149zM49.166 405.646s-3.371 2.801-4.508 1.394c-1.836-2.275 5.66-13.639 5.66-17.664 0-6.556-4.396-8.377-9.8-9.301-3.64-.626-9.557.27-9.557.27 1.109 1.494 1.835 1.949 3.713 2.047-2.092 1.11-4.21 3.457-4.21 7.126 0 5.646 2.318 7.978 2.318 14.35 0 3.54-2.9 8.035-2.9 8.035 5.12-.513 7.68-5.248 6.228-9.045.811-.114 1.55.057 2.19.653.37-1.038-.214-2.275-1.01-3.313.626-.328 1.109-.128 2.119.07-.1-1.08-.754-2.218-2.333-3.3 4.608 1.18 7.453-2.02 7.453-5.375 0-2.56-1.793-4.38-3.528-4.38-.568 0-1.393.24-1.862.582-.328-.683-.157-1.621.185-2.319-1.266.313-2.076 1.081-1.508 2.66-.981.071-1.748.426-2.275 1.066a2.69 2.69 0 0 0 2.275 1.024c-.711 1.479.085 2.319 1.238 2.973 0 0-.74-2.973 1.152-2.973.854 0 1.622.285 1.622 1.537 0 1.08-.953 2.573-3.143 2.488-2.205-.1-3.967-1.507-3.967-4.992 0-3.256 2.602-4.864 6.03-4.964 3.1-.1 5.432 1.579 5.432 4.779 0 4.239-6.144 13.937-6.144 17.721 0 2.845 2.56 4.422 5.049 4.422 3.242 0 5.974-3.213 5.974-3.213l-1.893-2.358zm-.711-76.829c0-7.082 6.371-10.737 11.378-10.737 6.74 0 10.34 4.039 10.34 9.301 0 3.015-.54 4.893-1.92 7.751 0 0-11.137 23.154-15.474 32.1-.526 1.124-.725 2.404-.725 4.267 0 2.872 2.816 5.234 5.731 5.305 2.66.071 5.575-2.489 5.575-5.405 0-3.541-1.835-5.106-3.712-5.106-2.32 0-3.243.938-3.243 2.56 0 1.152.54 1.65 1.323 1.65 1.99 0 1.436-2.688 1.436-2.688.995.228 1.792 1.223 1.337 2.503a3.518 3.518 0 0 1 1.92 1.123c-.526.527-1.137.939-1.92 1.053.469 1.55-.156 2.29-1.493 2.617.256-.611.27-1.137.185-1.65-2.12.598-5.377-.355-5.377-4.025 0-3.626 2.532-6.685 7.254-5.945-1.124-.512-1.692-1.607-1.806-2.858.854.37 1.806.412 1.806.412-.555-.981-1.322-1.806-1.294-3.74.897.413 1.693 1.138 2.83.669-1.763-3.456.399-8.206 5.903-9.359-2.02 2.346-3.001 4.893-3.001 7.453 0 8.248 2.29 9.613 2.29 15.33 0 2.39-1.238 4.993-3.655 6.742v-.1c1.592.426 2.617 1.238 3.228 2.304-3.683 1.039-9.045 1.024-11.918-.1-3.314-.37-5.618-2.915-6.3-4.195-.683-1.309-1.992-5.945 0-10.155 2.19-4.565 12.515-26.454 15.73-33.338.682-1.465 1.095-3.015 1.095-4.693 0-4.195-3.854-5.69-6.045-5.69-2.618 0-5.292 2.02-5.292 4.51 0 1.592.854 2.517 2.092 2.517 2.972 0 2.787-2.502 2.19-4.11 1.848.854 2.915 2.304 2.617 3.883 1.053.127 2.048.64 2.973 1.663-.725.925-1.608 1.621-2.973 1.635.598 2.418-1.024 3.441-2.617 3.996.497-1.763.825-3.81-2.19-3.81-2.205 0-3.94-.384-4.95-1.82-.07 1.92-.255 9.457-.255 9.457-.114 2.845 3.797 2.759 6.3 1.92-.94 3.257-2.86 5.035-7.34 4.58 1.096.455 2.248 1.479 2.248 3.427 0 2.674-2.161 5.618-3.583 6.5l-.698-27.703z"/>
        <path d="M49.862 328.817c0-7.082-6.37-10.737-11.377-10.737-6.741 0-10.34 4.039-10.34 9.301 0 3.015.54 4.893 1.92 7.751 0 0 11.136 23.154 15.474 32.1.526 1.124.711 2.404.711 4.267 0 2.872-2.801 5.234-5.718 5.305-2.673.071-5.575-2.489-5.575-5.405 0-3.541 1.835-5.106 3.713-5.106 2.319 0 3.242.938 3.242 2.56 0 1.152-.54 1.65-1.322 1.65-1.991 0-1.436-2.688-1.436-2.688-.995.228-1.793 1.223-1.338 2.503a3.518 3.518 0 0 0-1.92 1.123c.526.527 1.138.939 1.92 1.053-.455 1.55.156 2.29 1.494 2.617a2.852 2.852 0 0 1-.185-1.65c2.119.598 5.376-.355 5.376-4.025 0-3.626-2.531-6.685-7.254-5.945 1.124-.512 1.693-1.607 1.807-2.858-.854.37-1.807.412-1.807.412.54-.981 1.323-1.806 1.28-3.74-.88.413-1.678 1.138-2.816.669 1.764-3.456-.399-8.206-5.902-9.359 2.02 2.346 3.001 4.893 3.001 7.453 0 8.248-2.29 9.613-2.29 15.33 0 2.39 1.237 4.993 3.669 6.742v-.1c-1.608.426-2.645 1.238-3.229 2.304 3.684 1.039 9.031 1.024 11.904-.1 3.313-.37 5.617-2.915 6.3-4.195.682-1.309 1.991-5.945 0-10.155-2.19-4.565-12.515-26.454-15.73-33.338-.683-1.465-1.095-3.015-1.095-4.693 0-4.195 3.853-5.69 6.045-5.69 2.617 0 5.291 2.02 5.291 4.51 0 1.592-.854 2.517-2.091 2.517-2.973 0-2.788-2.502-2.205-4.11-1.835.854-2.902 2.304-2.618 3.883-1.039.127-2.034.64-2.959 1.663.725.925 1.608 1.621 2.96 1.635-.583 2.418 1.023 3.441 2.617 3.996-.498-1.763-.825-3.81 2.205-3.81 2.205 0 3.94-.384 4.948-1.82.058 1.92.257 9.457.257 9.457.113 2.845-3.812 2.759-6.3 1.92.938 3.256 2.858 5.035 7.338 4.58-1.095.455-2.247 1.479-2.247 3.427 0 2.674 2.161 5.618 3.584 6.5l.698-27.703zm-.696 76.829s3.372 2.801 4.509 1.394c1.835-2.275-5.66-13.639-5.66-17.664 0-6.556 4.395-8.377 9.799-9.301 3.641-.626 9.557.27 9.557.27-1.108 1.494-1.835 1.949-3.712 2.047 2.091 1.11 4.21 3.457 4.21 7.126 0 5.646-2.319 7.978-2.319 14.35 0 3.54 2.901 8.035 2.901 8.035-5.12-.513-7.68-5.248-6.228-9.045-.812-.114-1.537.057-2.19.653-.37-1.038.227-2.275 1.01-3.313-.64-.328-1.11-.128-2.12.07.1-1.08.74-2.218 2.333-3.3-4.607 1.18-7.452-2.02-7.452-5.375 0-2.56 1.792-4.38 3.527-4.38.555 0 1.394.24 1.863.582.327-.683.156-1.621-.199-2.319 1.28.313 2.091 1.081 1.521 2.66.982.071 1.749.426 2.275 1.066a2.69 2.69 0 0 1-2.275 1.024c.712 1.479-.085 2.319-1.237 2.973 0 0 .74-2.973-1.153-2.973-.853 0-1.621.285-1.621 1.537 0 1.08.953 2.573 3.143 2.488 2.205-.1 3.967-1.507 3.967-4.992 0-3.258-2.602-4.864-6.03-4.964-3.1-.1-5.432 1.579-5.432 4.779 0 4.239 6.143 13.937 6.143 17.721 0 2.845-2.56 4.422-5.062 4.422-3.229 0-5.974-3.213-5.974-3.213l1.906-2.358zm-.711-201.174c0-7.11 6.371-10.752 11.378-10.752 6.74 0 10.34 4.039 10.34 9.315 0 3.001-.54 4.879-1.92 7.738 0 0-11.137 23.167-15.474 32.113-.526 1.124-.725 2.389-.725 4.253 0 2.887 2.816 5.234 5.731 5.319 2.66.057 5.575-2.503 5.575-5.405 0-3.542-1.835-5.12-3.712-5.12-2.32 0-3.243.952-3.243 2.588 0 1.124.54 1.622 1.323 1.622 1.99 0 1.436-2.674 1.436-2.674.995.214 1.792 1.224 1.337 2.475.725.156 1.394.54 1.92 1.152-.526.513-1.137.925-1.92 1.053.469 1.536-.156 2.29-1.493 2.602.256-.597.27-1.137.185-1.65-2.12.598-5.377-.355-5.377-4.025 0-3.612 2.532-6.67 7.254-5.916-1.124-.54-1.692-1.635-1.806-2.859.854.328 1.806.37 1.806.37-.555-.967-1.322-1.806-1.294-3.712.897.384 1.693 1.137 2.83.654-1.763-3.457.399-8.22 5.903-9.36-2.02 2.362-3.001 4.922-3.001 7.453 0 8.235 2.29 9.614 2.29 15.347 0 2.388-1.238 4.963-3.655 6.74v-.1c1.592.427 2.617 1.21 3.228 2.305-3.683 1.038-9.045 1.023-11.918-.114-3.314-.384-5.618-2.915-6.3-4.195-.683-1.294-1.992-5.945 0-10.14 2.19-4.58 12.515-26.468 15.73-33.351.682-1.465 1.095-3.002 1.095-4.68 0-4.223-3.854-5.688-6.045-5.688-2.618 0-5.292 1.991-5.292 4.48 0 1.593.854 2.546 2.092 2.546 2.972 0 2.787-2.531 2.19-4.11 1.848.825 2.915 2.304 2.617 3.869 1.053.156 2.048.64 2.973 1.679-.725.91-1.608 1.592-2.973 1.621.598 2.418-1.024 3.441-2.617 3.996.497-1.748.825-3.811-2.19-3.811-2.205 0-3.94-.384-4.95-1.806-.07 1.906-.255 9.457-.255 9.457-.114 2.83 3.797 2.759 6.3 1.907-.94 3.27-2.86 5.048-7.34 4.593 1.096.455 2.248 1.479 2.248 3.442 0 2.66-2.161 5.603-3.583 6.47l-.698-27.69z"/>
        <path d="M49.862 204.472c0-7.11-6.37-10.752-11.377-10.752-6.741 0-10.34 4.039-10.34 9.315 0 3.001.54 4.879 1.92 7.738 0 0 11.136 23.167 15.474 32.113.526 1.124.711 2.389.711 4.253 0 2.887-2.801 5.234-5.718 5.319-2.673.057-5.575-2.503-5.575-5.405 0-3.542 1.835-5.12 3.713-5.12 2.319 0 3.242.952 3.242 2.588 0 1.124-.54 1.622-1.322 1.622-1.991 0-1.436-2.674-1.436-2.674-.995.214-1.793 1.224-1.338 2.475a3.478 3.478 0 0 0-1.92 1.152c.526.513 1.138.925 1.92 1.053-.455 1.536.156 2.29 1.494 2.602a2.841 2.841 0 0 1-.185-1.65c2.119.598 5.376-.355 5.376-4.025 0-3.612-2.531-6.67-7.254-5.916 1.124-.54 1.693-1.635 1.807-2.859-.854.328-1.807.37-1.807.37.54-.967 1.323-1.806 1.28-3.712-.88.384-1.678 1.137-2.816.654 1.764-3.457-.399-8.22-5.902-9.36 2.02 2.362 3.001 4.922 3.001 7.453 0 8.235-2.29 9.614-2.29 15.347 0 2.388 1.237 4.963 3.669 6.74v-.1c-1.608.427-2.645 1.21-3.229 2.305 3.684 1.038 9.031 1.023 11.904-.114 3.313-.384 5.617-2.915 6.3-4.195.682-1.294 1.991-5.945 0-10.14-2.19-4.58-12.515-26.468-15.73-33.351-.683-1.465-1.095-3.002-1.095-4.68 0-4.223 3.853-5.688 6.045-5.688 2.617 0 5.291 1.991 5.291 4.48 0 1.593-.854 2.546-2.091 2.546-2.973 0-2.788-2.531-2.205-4.11-1.835.825-2.902 2.304-2.618 3.869-1.039.156-2.034.64-2.959 1.679.725.91 1.608 1.592 2.96 1.621-.583 2.418 1.023 3.441 2.617 3.996-.498-1.748-.825-3.811 2.205-3.811 2.205 0 3.94-.384 4.948-1.806.058 1.906.257 9.457.257 9.457.113 2.83-3.812 2.759-6.3 1.907.938 3.27 2.858 5.048 7.338 4.593-1.095.455-2.247 1.479-2.247 3.442 0 2.66 2.161 5.603 3.584 6.47l.698-27.69z"/>
        <path d="M49.862 183.183c0 7.097-6.37 10.752-11.377 10.752-6.741 0-10.34-4.025-10.34-9.315 0-3.001.54-4.879 1.92-7.738 0 0 11.136-23.167 15.474-32.113.526-1.124.711-2.389.711-4.253 0-2.887-2.801-5.233-5.718-5.318-2.673-.058-5.575 2.502-5.575 5.405 0 3.54 1.835 5.12 3.713 5.12 2.319 0 3.242-.953 3.242-2.59 0-1.137-.54-1.62-1.322-1.62-1.991 0-1.436 2.673-1.436 2.673-.995-.213-1.793-1.222-1.338-2.488a3.54 3.54 0 0 1-1.92-1.138c.526-.512 1.138-.925 1.92-1.052-.455-1.537.156-2.275 1.494-2.603a2.841 2.841 0 0 0-.185 1.65c2.119-.611 5.376.355 5.376 4.011 0 3.627-2.531 6.685-7.254 5.932 1.124.54 1.693 1.635 1.807 2.858-.854-.327-1.807-.37-1.807-.37.54.968 1.323 1.807 1.28 3.727-.88-.4-1.678-1.138-2.816-.67 1.764 3.457-.399 8.236-5.902 9.36 2.02-2.362 3.001-4.922 3.001-7.453 0-8.235-2.29-9.614-2.29-15.346 0-2.389 1.237-4.978 3.669-6.741v.113c-1.608-.441-2.645-1.237-3.229-2.318 3.684-1.04 9.031-1.024 11.904.113 3.313.384 5.617 2.915 6.3 4.21.682 1.28 1.991 5.932 0 10.127a7345.595 7345.595 0 0 0-15.73 33.35c-.683 1.452-1.095 3.002-1.095 4.68 0 4.223 3.853 5.688 6.045 5.688 2.617 0 5.291-1.991 5.291-4.493 0-1.58-.854-2.532-2.091-2.532-2.973 0-2.788 2.518-2.205 4.11-1.835-.825-2.902-2.303-2.618-3.868-1.039-.143-2.034-.64-2.959-1.68.725-.91 1.608-1.607 2.96-1.62-.583-2.418 1.023-3.442 2.617-4.012-.498 1.778-.825 3.827 2.205 3.827 2.205 0 3.94.37 4.948 1.806.058-1.906.257-9.473.257-9.473.113-2.816-3.812-2.745-6.3-1.891.938-3.271 2.858-5.049 7.338-4.594-1.095-.455-2.247-1.478-2.247-3.441 0-2.66 2.161-5.617 3.584-6.485l.698 27.703zm0 124.344c0 7.098-6.37 10.738-11.377 10.738-6.741 0-10.34-4.025-10.34-9.301 0-3.001.54-4.893 1.92-7.738 0 0 11.136-23.154 15.474-32.127.526-1.124.711-2.389.711-4.239 0-2.901-2.801-5.234-5.718-5.305-2.673-.071-5.575 2.489-5.575 5.39 0 3.541 1.835 5.106 3.713 5.106 2.319 0 3.242-.952 3.242-2.574 0-1.123-.54-1.62-1.322-1.62-1.991 0-1.436 2.673-1.436 2.673-.995-.227-1.793-1.222-1.338-2.489a3.383 3.383 0 0 1-1.92-1.137c.526-.513 1.138-.925 1.92-1.053-.455-1.55.156-2.29 1.494-2.602-.256.582-.27 1.123-.185 1.65 2.119-.612 5.376.355 5.376 4.011 0 3.626-2.531 6.67-7.254 5.931 1.124.555 1.693 1.635 1.807 2.873-.854-.342-1.807-.399-1.807-.399.54.981 1.323 1.82 1.28 3.726-.88-.399-1.678-1.137-2.816-.669 1.764 3.457-.399 8.25-5.902 9.36 2.02-2.347 3.001-4.907 3.001-7.453 0-8.207-2.29-9.614-2.29-15.332 0-2.388 1.237-4.977 3.669-6.74v.1c-1.608-.427-2.645-1.21-3.229-2.305 3.684-1.038 9.031-1.023 11.904.114 3.313.384 5.617 2.915 6.3 4.195.682 1.294 1.991 5.945 0 10.14-2.19 4.58-12.515 26.468-15.73 33.351-.683 1.452-1.095 2.987-1.095 4.68 0 4.21 3.853 5.688 6.045 5.688 2.617 0 5.291-2.005 5.291-4.509 0-1.55-.854-2.502-2.091-2.502-2.973 0-2.788 2.502-2.205 4.096-1.835-.825-2.902-2.319-2.618-3.883-1.039-.142-2.034-.61-2.959-1.663.725-.897 1.608-1.579 2.96-1.635-.583-2.418 1.023-3.428 2.617-3.997-.498 1.778-.825 3.812 2.205 3.812 2.205 0 3.94.383 4.948 1.82.058-1.907.257-9.473.257-9.473.113-2.816-3.812-2.745-6.3-1.906.938-3.258 2.858-5.02 7.338-4.58-1.095-.455-2.247-1.479-2.247-3.441 0-2.66 2.161-5.604 3.584-6.485l.698 27.703z"/>
        <path d="M48.455 307.527c0 7.098 6.371 10.738 11.378 10.738 6.74 0 10.34-4.025 10.34-9.301 0-3.001-.54-4.893-1.92-7.738 0 0-11.137-23.154-15.474-32.127-.526-1.124-.725-2.389-.725-4.239 0-2.901 2.816-5.234 5.731-5.305 2.66-.071 5.575 2.489 5.575 5.39 0 3.541-1.835 5.106-3.712 5.106-2.32 0-3.243-.952-3.243-2.574 0-1.123.54-1.62 1.323-1.62 1.99 0 1.436 2.673 1.436 2.673.995-.227 1.792-1.222 1.337-2.489a3.383 3.383 0 0 0 1.92-1.137c-.526-.513-1.137-.925-1.92-1.053.469-1.55-.156-2.29-1.493-2.602.256.582.27 1.123.185 1.65-2.12-.612-5.377.355-5.377 4.011 0 3.626 2.532 6.67 7.254 5.931-1.124.555-1.692 1.635-1.806 2.873.854-.342 1.806-.399 1.806-.399-.555.981-1.322 1.82-1.294 3.726.897-.399 1.693-1.137 2.83-.669-1.763 3.457.399 8.25 5.903 9.36-2.02-2.347-3.001-4.907-3.001-7.453 0-8.207 2.29-9.614 2.29-15.332 0-2.388-1.238-4.977-3.655-6.74v.1c1.592-.427 2.617-1.21 3.228-2.305-3.683-1.038-9.045-1.023-11.918.114-3.314.384-5.618 2.915-6.3 4.195-.683 1.294-1.992 5.945 0 10.14 2.19 4.58 12.515 26.468 15.73 33.351.682 1.452 1.095 2.987 1.095 4.68 0 4.21-3.854 5.688-6.045 5.688-2.618 0-5.292-2.005-5.292-4.509 0-1.55.854-2.502 2.092-2.502 2.972 0 2.787 2.502 2.19 4.096 1.848-.825 2.915-2.319 2.617-3.883 1.053-.142 2.048-.61 2.973-1.663-.725-.897-1.608-1.579-2.973-1.635.598-2.418-1.024-3.428-2.617-3.997.497 1.778.825 3.812-2.19 3.812-2.205 0-3.94.383-4.95 1.82-.07-1.907-.255-9.473-.255-9.473-.114-2.816 3.797-2.745 6.3-1.906-.94-3.258-2.86-5.02-7.34-4.58 1.096-.455 2.248-1.479 2.248-3.441 0-2.66-2.161-5.604-3.583-6.485l-.698 27.703zm.711-201.16s3.372-2.83 4.509-1.422c1.835 2.304-5.66 13.667-5.66 17.679 0 6.556 4.395 8.349 9.799 9.272 3.641.64 9.557-.256 9.557-.256-1.108-1.494-1.835-1.934-3.712-2.047 2.091-1.082 4.21-3.428 4.21-7.098 0-5.675-2.319-7.992-2.319-14.365 0-3.541 2.901-8.05 2.901-8.05-5.12.526-7.68 5.263-6.228 9.06-.812.128-1.537-.071-2.19-.669-.37 1.053.227 2.275 1.01 3.328-.64.341-1.11.127-2.12-.085.1 1.095.74 2.232 2.333 3.314-4.607-1.196-7.452 2.02-7.452 5.39 0 2.546 1.792 4.352 3.527 4.352.555 0 1.394-.227 1.863-.582.327.71.156 1.635-.199 2.332 1.28-.327 2.091-1.095 1.521-2.66.982-.1 1.749-.426 2.275-1.052-.526-.698-1.337-1.082-2.275-1.053.712-1.465-.085-2.304-1.237-2.959 0 0 .74 2.959-1.153 2.959-.853 0-1.621-.285-1.621-1.521 0-1.081.953-2.589 3.143-2.489 2.205.085 3.967 1.508 3.967 5.006 0 3.229-2.602 4.835-6.03 4.949-3.1.085-5.432-1.592-5.432-4.779 0-4.252 6.143-13.937 6.143-17.721 0-2.845-2.56-4.437-5.062-4.437-3.229 0-5.974 3.213-5.974 3.213l1.906 2.392z"/>
        <path d="M49.166 106.367s-3.371-2.83-4.508-1.422c-1.836 2.304 5.66 13.667 5.66 17.679 0 6.556-4.396 8.349-9.8 9.272-3.64.64-9.557-.256-9.557-.256 1.109-1.494 1.835-1.934 3.713-2.047-2.092-1.082-4.21-3.428-4.21-7.098 0-5.675 2.318-7.992 2.318-14.365 0-3.541-2.9-8.05-2.9-8.05 5.12.526 7.68 5.263 6.228 9.06.811.128 1.55-.071 2.19-.669.37 1.053-.214 2.275-1.01 3.328.626.341 1.109.127 2.119-.085-.1 1.095-.754 2.232-2.333 3.314 4.608-1.196 7.453 2.02 7.453 5.39 0 2.546-1.793 4.352-3.528 4.352-.568 0-1.393-.227-1.862-.582-.328.71-.157 1.635.185 2.332-1.266-.327-2.076-1.095-1.508-2.66-.981-.1-1.748-.426-2.275-1.052.527-.698 1.338-1.082 2.275-1.053-.711-1.465.085-2.304 1.238-2.959 0 0-.74 2.959 1.152 2.959.854 0 1.622-.285 1.622-1.521 0-1.081-.953-2.589-3.143-2.489-2.205.085-3.967 1.508-3.967 5.006 0 3.229 2.602 4.835 6.03 4.949 3.1.085 5.432-1.592 5.432-4.779 0-4.252-6.144-13.937-6.144-17.721 0-2.845 2.56-4.437 5.049-4.437 3.242 0 5.974 3.213 5.974 3.213l-1.893 2.392zm-.711 76.816c0 7.097 6.371 10.752 11.378 10.752 6.74 0 10.34-4.025 10.34-9.315 0-3.001-.54-4.879-1.92-7.738 0 0-11.137-23.167-15.474-32.113-.526-1.124-.725-2.389-.725-4.253 0-2.887 2.816-5.233 5.731-5.318 2.66-.058 5.575 2.502 5.575 5.405 0 3.54-1.835 5.12-3.712 5.12-2.32 0-3.243-.953-3.243-2.59 0-1.137.54-1.62 1.323-1.62 1.99 0 1.436 2.673 1.436 2.673.995-.213 1.792-1.222 1.337-2.488a3.54 3.54 0 0 0 1.92-1.138c-.526-.512-1.137-.925-1.92-1.052.469-1.537-.156-2.275-1.493-2.603.256.598.27 1.138.185 1.65-2.12-.611-5.377.355-5.377 4.011 0 3.627 2.532 6.685 7.254 5.932-1.124.54-1.692 1.635-1.806 2.858.854-.327 1.806-.37 1.806-.37-.555.968-1.322 1.807-1.294 3.727.897-.4 1.693-1.138 2.83-.67-1.763 3.457.399 8.236 5.903 9.36-2.02-2.362-3.001-4.922-3.001-7.453 0-8.235 2.29-9.614 2.29-15.346 0-2.389-1.238-4.978-3.655-6.741v.113c1.592-.441 2.617-1.237 3.228-2.318-3.683-1.04-9.045-1.024-11.918.113-3.314.384-5.618 2.915-6.3 4.21-.683 1.28-1.992 5.932 0 10.127 2.19 4.58 12.515 26.453 15.73 33.35.682 1.452 1.095 3.002 1.095 4.68 0 4.223-3.854 5.688-6.045 5.688-2.618 0-5.292-1.991-5.292-4.493 0-1.58.854-2.532 2.092-2.532 2.972 0 2.787 2.518 2.19 4.11 1.848-.825 2.915-2.303 2.617-3.868 1.053-.143 2.048-.64 2.973-1.68-.725-.91-1.608-1.607-2.973-1.62.598-2.418-1.024-3.442-2.617-4.012.497 1.778.825 3.827-2.19 3.827-2.205 0-3.94.37-4.95 1.806-.07-1.906-.255-9.473-.255-9.473-.114-2.816 3.797-2.745 6.3-1.891-.94-3.271-2.86-5.049-7.34-4.594 1.096-.455 2.248-1.478 2.248-3.441 0-2.66-2.161-5.617-3.583-6.485l-.698 27.703z"/>
    </g>
</svg>
