<svg xmlns="http://www.w3.org/2000/svg" viewBox="0 0 512 512">
    <path d="M0 384c0 31.418 25.473 56.889 56.889 56.889H455.11c31.42 0 56.89-25.473 56.89-56.889v-42.666H0V384zM455.111 71.111H56.89C25.472 71.111 0 96.582 0 128v42.666h512V128c0-31.418-25.473-56.889-56.889-56.889" fill="#ce1126"/>
    <path d="M256 184.889c39.267 0 71.111 31.844 71.111 71.111S295.267 327.111 256 327.111 184.889 295.267 184.889 256s31.843-71.111 71.111-71.111M0 341.334h512V170.668H0v170.666z" fill="#002868"/>
    <path d="M256 327.111c39.267 0 71.111-31.844 71.111-71.111S295.267 184.889 256 184.889 184.889 216.733 184.889 256s31.843 71.111 71.111 71.111" fill="#fff"/>
</svg>
