<svg xmlns="http://www.w3.org/2000/svg" viewBox="0 0 512 512">
    <path d="M460.601 80.627H51.4c-24.171 0-43.844 19.672-43.844 43.844V387.53c0 24.171 19.671 43.844 43.844 43.844h409.2c24.172 0 43.843-19.671 43.843-43.844V124.471c.001-24.172-19.672-43.844-43.843-43.844z" fill="#8d2129"/>
    <path d="M130.889 81.666H68.185v-5H52.777c-25.498 0-46.222 20.116-46.222 44.834v269c0 24.718 20.722 44.834 46.222 44.834h15.408V431h62.704V81.666z" fill="#ff5b00"/>
    <path d="M52.778 76.666c-25.5 0-46.223 20.116-46.223 44.834v269c0 24.718 20.723 44.834 46.223 44.834h15.407V76.668c0-.002-15.408-.002-15.408-.002z" fill="#005641"/>
    <g fill="#ffb700">
        <path d="M168.607 128.881c12.004 1.337 16.897 7.553 19.114 14.223 0 0-.952-13.639-.497-25.059.299-7.566-3.939-16.711-11.946-15.389-7.993 1.337-16.897-.285-16.897-.285s1.793 5.177 0 10.07c-1.777 4.893-1.777 15.104 10.226 16.44zm314.178-26.51s-8.904 1.622-16.896.285c-8.008-1.322-12.247 7.823-11.947 15.389.455 11.421-.497 25.059-.497 25.059 2.219-6.67 7.111-12.886 19.114-14.223 12.003-1.336 12.003-11.548 10.225-16.441-1.792-4.891.001-10.069.001-10.069zM158.381 399.553c1.793 4.892 0 10.082 0 10.082s8.904-1.635 16.896-.299c8.008 1.336 12.247-7.807 11.947-15.375-.455-11.421.497-25.074.497-25.074-2.219 6.67-7.111 12.887-19.114 14.223-12.003 1.338-12.003 11.549-10.226 16.443zM472.56 383.11c-12.004-1.336-16.897-7.552-19.114-14.222 0 0 .953 13.653.498 25.073-.3 7.567 3.938 16.712 11.946 15.375 7.992-1.336 16.896.3 16.896.3s-1.792-5.192 0-10.085c1.777-4.893 1.777-15.105-10.226-16.44zM210.365 256c0 6.514 8.605 7.992 8.605 7.992s-2.375 2.674-.598 4.153c-2.972.584-2.375 4.451.3 6.813-2.973 2.076 1.18 5.033 1.18 5.033s-3.256 4.153 2.077 4.736c.583 3.257-.299 3.555-4.737 3.555-4.45 0 0 5.334 2.66 4.75 2.673-.568 2.958.584 1.18 2.674-1.777 2.09-2.958 3.555-1.18 5.334 1.777 1.777 3.255 6.514-1.48 8.576-.896-1.777-5.632-3.555-5.333 0 .285 3.555 6.215 5.646 6.215 5.646l-4.139 5.022 6.215.312s.597 7.111 3.256 6.215c2.674-.881 3.015-5.034 3.015-5.034l6.77-1.493-4.451-5.021s6.527.583 7.41-3.257c.896-3.855-3.555-7.111-5.918-1.494-3.555-2.09-3.855-7.695-1.777-9.785 2.076-2.076 1.777-3.242-.896-5.333-2.659-2.077-.299-2.959 3.256-3.243 3.555-.299 3.855-2.674.299-3.869-3.555-1.193-3.555-2.36-3.555-2.36s3.555-.598 5.93-.598c2.361 0 3.555 3.855 3.555 7.111 0 3.271-1.479 9.785 2.658 10.07-.583-3.555 3.257-3.243 3.257-3.243s7.111 6.514 10.083 8.89c2.96 2.374 6.514 6.798 16.882-5.647 8.305 4.75 13.937 5.334 13.937 5.334s2.361 10.082 5.021 17.493c2.674 7.395-3.242 13.042-10.353 12.73-7.111-.3-11.264.312-14.236 5.645-2.96 5.334 1.777 7.41 4.75 2.66 1.777 2.985 6.215 4.75 11.263 0 4.438 6.23 10.07.298 10.07.298s4.438 3.84 7.395 3.299c2.959-.542 4.75-5.674 4.153-8.633s-.285-7.992-.285-7.992 4.437.285 9.77-4.452c5.333-4.736 2.673-4.437-.882-5.632-3.555-1.181-6.23-2.659-5.646-7.111.584-4.438 7.111-11.549 7.111-11.549s8.89 0 20.452-8.008c11.548-7.992 26.367-6.527 26.367-6.527s-1.479 9.486 7.41 17.494c5.775 5.191 7.41 13.625 7.993 21.93.583 8.305-5.022 9.187-9.174 9.472-4.153.299-7.709.299-10.666 5.633-2.959 5.333 2.959 5.632 6.812 1.777 1.778 2.674 5.633 4.451 9.473-.299 6.812 7.112 9.201-.285 9.201-.285s3.84 6.215 7.695 3.513c3.84-2.716 2.375-8.561 1.194-10.923s-1.778-7.11 1.777-9.785c3.555-2.658 6.799-6.527 6.514-8.305-.299-1.777-5.93-2.36-7.709-4.437-1.777-2.09-2.361-6.23 2.375-9.785 10.666 5.632 15.701 11.861 16.598 17.777.881 5.917 1.181 11.28-1.778 12.16-2.958.897-13.041 2.96-15.118 8.008-2.063 5.034 1.777 5.034 4.736 2.659 2.959 3.555 7.41 2.673 9.785-.598 2.375 3.555 6.514 4.75 10.666.598 9.486 5.333 10.368 1.181 7.111-2.959-3.271-4.139-5.333-9.201 2.659-16.313 8.008-7.11 2.076-7.395-1.777-10.055-3.84-2.673-7.993-13.34 2.076-39.126 10.07-25.77-5.633-37.617-5.633-37.617s12.16-5.93 10.07-18.077c-2.446-14.265-17.181-16-33.181-13.638-16 2.375-24.889 2.673-27.847-2.659-2.96-5.334-5.93-3.855-8.89 1.181-2.958-3.84-3.255-11.25 4.737-12.145-2.659-3.271-10.367-3.855-14.222 3.855-6.215-4.451-5.034-11.549-.285-14.819 4.75-3.256 7.11 2.674 7.11 2.674s5.022-1.777 3.556-8.291c10.367 1.777 15.104 10.951 9.472 18.959 8.292-1.182 13.639-8.59 7.993-17.182 9.785 3.555 12.16 10.368 5.049 18.66 9.77-.3 10.367-8.89 10.367-8.89s2.361 7.993 13.028 9.188c-3.855-3.84-3.555-9.785-3.555-9.785s10.082 9.785 15.715 13.041c5.617 3.256 18.658 5.334 17.478-5.034-1.181-10.367-10.666-6.23-10.367-.597-7.709-1.494-15.119-10.07-33.778-20.438-18.673-10.382-45.341-6.812-52.223 5.034-6.898 11.848 3.926 23.695 3.926 23.695s-6.813 9.486 2.674 13.938c-.584-10.084 6.513-9.047 12.728-5.049 6.23 4.01 16.455 4.451 32 2.232 15.559-2.232 29.341-3.113 29.341 7.553s-16.44 12.445-28.445 12.445-53.788 3.996-56.007 2.674c-2.219-1.337-5.334-9.785-5.334-9.785s5.775 1.777 4.451 0c-1.336-1.778-4.01-14.223-4.01-14.223l4.452 2.659c0-3.996 1.777-19.555-4.451-27.549 7.566-3.114 6.67-15.759 6.67-15.759s-3.114 4.65-7.553 5.533c-4.451.896-5.775-6.215-12.886-5.475-.896 3.414-4.893 5.93-4.893 5.93s-3.555-8.889-11.548-4.893c2.658 5.334-2.674 5.775-7.112 1.778-4.451-3.996-12.003 0-12.003 0s2.658 7.992-5.79 10.225c-8.433 2.219-16.88 2.659-16.88 2.659s2.816-7.993-5.775-9.188c-4.452-.611-7.112 5.034-4.75 12.744 2.375 7.709 15.416 17.181 15.416 17.181l.584-5.034 5.347 5.034 1.465-5.034s3.555 6.514 8.008 11.563c-13.938-.896-26.368-8.305-29.042-9.188-2.658-.896-4.138 4.737 1.778 7.695-2.375.598-5.034 7.41-5.034 11.563 4.75-.598 10.083-1.181 10.083-1.181s-1.778 2.958-2.077 5.333c4.139-1.193 7.41-2.972 8.59-3.555 1.182-.61.598 5.917 2.659 4.438 2.076-1.494 1.793-3.555 1.793-3.555s2.858 5.519 6.215 5.93c2.303-6.884 7.11-.598 4.138 1.777-2.972 2.375-13.027 9.77-19.541 17.68-6.514 7.893-5.632 27.647-5.632 27.647l-19.257-19.257s3.84-1.18 4.438-6.812c.597-5.633-7.709-6.23-7.709-6.23s.299-13.326.299-30.208c0-16.896-.881-44.445 6.812-60.743-7.41 2.943-19.555 13.027-21.617 42.07-2.076 29.041-1.194 49.777-1.194 49.777s-7.4-1.18-7.4 5.334z"/>
        <path d="M455.111 71.111H56.89C25.472 71.111 0 96.584 0 128v256c0 31.416 25.472 56.889 56.889 56.889H455.11c31.417 0 56.89-25.473 56.89-56.889V128c0-31.416-25.473-56.889-56.889-56.889zM14.222 384V128c0-23.524 19.144-42.666 42.667-42.666h69.333v341.333H56.89c-23.523 0-42.667-19.145-42.667-42.667zm483.555 0c0 23.522-19.143 42.666-42.666 42.666H144V85.332h311.111c23.523 0 42.666 19.144 42.666 42.667V384z"/>
    </g>
</svg>
