<svg xmlns="http://www.w3.org/2000/svg" viewBox="0 0 512 512">
    <path d="M507.635 106.248c-8.574-20.915-28.859-35.137-52.524-35.137H56.889C25.472 71.111 0 96.583 0 128v256a55.941 55.941 0 0 0 4.365 21.752c8.573 20.915 28.859 35.137 52.524 35.137h398.222c23.665 0 43.951-14.222 52.524-35.137A55.941 55.941 0 0 0 512 384V128a55.941 55.941 0 0 0-4.365-21.752z" fill="#eee"/>
    <path d="M170.667 204.174V71.111H56.889C25.472 71.111 0 96.583 0 128v112.941h170.667v-36.767zm-55.78-2.247l-29.554-21.476-29.553 21.476 11.292-34.813-29.554-21.545h36.523l11.292-34.745 11.292 34.745h36.523l-29.554 21.545 11.293 34.813z" fill="#002868"/>
    <path d="M56.889 440.889h398.222c23.665 0 43.951-14.222 52.524-35.137H4.365c8.573 20.915 28.859 35.137 52.524 35.137zM0 338.824h512v35.974H0zm170.667-201.621H512v35.974H170.667zm336.968-30.955c-8.574-20.915-28.859-35.137-52.524-35.137H170.667v35.137h336.968zm-336.968 97.883H512v36.81H170.667zM0 271.059h512v36.81H0z" fill="#bf0a30"/>
    <path d="M133.156 145.708H96.619l-11.278-34.745-11.292 34.745H37.512l29.554 21.476-11.292 34.745 29.568-21.476 29.554 21.476-11.292-34.745 29.552-21.476z" fill="#fff"/>
</svg>
