<svg xmlns="http://www.w3.org/2000/svg" viewBox="0 0 512 512"><path d="M512 384c0 31.418-25.473 56.889-56.889 56.889H56.89C25.472 440.889 0 415.417 0 384V128c0-31.418 25.472-56.889 56.889-56.889H455.11C486.53 71.111 512 96.584 512 128v256z" fill="#009543"/><path d="M512 327.111H0V184.89h512V327.11z" fill="#eee"/><path d="M455.111 71.111H56.89C25.472 71.111 0 96.582 0 128v56.889h512V128c0-31.417-25.473-56.889-56.889-56.889" fill="#00209f"/><path d="M240.441 224.426c0-8.447 3.698-16.185 10.709-18.66v15.944l-6.926 6.94h6.926v10.34c0 .355.299.582.384.91l-4.906 6.514c-2.915-5.248-6.187-13.967-6.187-21.988m31.118 0c0 7.879-3.158 16.455-6.03 21.746l-5.006-6.413c.057-.285.312-.469.312-.768v-10.34h6.94l-6.94-6.94v-15.944c7.026 2.474 10.724 10.212 10.724 18.66m29.938 57.998c-.227-.669-6.058 2.005-6.058 2.005l-26.254-33.593c3.214-5.76 6.969-15.26 6.969-27.078 0-17.65-9.359-22.287-15.318-23.524v-.783a4.418 4.418 0 0 0-4.422-4.422h-.839a4.427 4.427 0 0 0-4.422 4.422v.783c-5.946 1.237-15.303 5.874-15.303 23.524 0 12.06 3.911 21.731 7.167 27.449L218 284.43s-5.106-2.674-5.334-2.005c-.227.669-10.666 17.337-10.666 17.337s22.215 14.507 54.001 14.507c28.445 0 55.083-14.507 55.083-14.507s-9.374-16.668-9.587-17.337" fill="#292f33"/><path d="M295.78 289.337s-20.224 7.482-39.78 7.482-39.78-7.482-39.78-7.482l-4.879 9.23s20.665 9.245 44.658 9.245c24.007 0 44.672-9.245 44.672-9.245l-4.891-9.23z" fill="#53646d"/></svg>