<svg xmlns="http://www.w3.org/2000/svg" viewBox="0 0 512 512"><path d="M492.531 85.172l-186.37 134.604a63.792 63.792 0 0 0-3.771-4.689 63.042 63.042 0 0 1 3.773 4.683l186.365-134.6c-10.003-8.747-23.087-14.059-37.418-14.059H284.444v.001-.001h-56.889v.001l22.116 123.251-22.116-123.25v-.002H56.889c-14.33 0-27.414 5.312-37.417 14.058L205.84 219.772a64.128 64.128 0 0 1-.002.004L19.469 85.172C7.543 95.6 0 110.915 0 128v163.555h.001l194.685-27.036.003.026L0 291.778V384c0 17.085 7.543 32.4 19.469 42.828l186.37-134.604a63.934 63.934 0 0 0 3.78 4.7 63.37 63.37 0 0 1-3.783-4.695L19.471 426.83c10.003 8.747 23.087 14.059 37.418 14.059H227.556v-.001.001h56.889v-.001l-22.116-123.251 22.116 123.25v.002h170.666c14.331 0 27.414-5.312 37.417-14.058L306.16 292.228a64.128 64.128 0 0 1 .002-.004l186.37 134.604C504.457 416.4 512 401.085 512 384v-92.235l-194.689-27.141.013-.103 194.675 27.035H512V128c0-17.085-7.543-32.4-19.469-42.828zM194.716 247.585c-.382 2.791-.625 5.544-.625 8.433V256c0-2.866.251-5.648.627-8.416l-.002.001zm89.728-176.472l-22.116 123.25 22.116-123.25zm-56.888 369.774l22.116-123.25-22.116 123.25zM317.909 256v.018c0-2.89-.214-5.875-.597-8.384h.003c.381 2.51.594 5.474.594 8.366z" fill="#d20000"/><g fill="#ffe600"><path d="M194.69 264.519c-.384-2.802-.654-5.618-.654-8.519s.27-5.717.654-8.519L.001 220.444H0v71.111h.001l194.689-27.036zM249.671 194.363a62.342 62.342 0 0 1 6.329-.327c2.133 0 4.238.114 6.329.327l22.116-123.251v-.001h-56.889v.001l22.115 123.251zM296.281 209.006c.667.575 1.307 1.179 1.948 1.78a62.806 62.806 0 0 1 4.162 4.301 63.042 63.042 0 0 1 3.773 4.683L492.53 85.17c-10.004-8.747-23.088-14.059-37.419-14.059h-21.336L296.28 209.004l.001.002zM262.329 317.637a62.342 62.342 0 0 1-6.329.327c-2.133 0-4.238-.114-6.329-.327l-22.116 123.251v.001h56.889v-.001l-22.115-123.251zM214.37 210.24c.45-.411.888-.834 1.351-1.232l.003-.003L78.228 71.111H56.889c-14.33 0-27.414 5.312-37.417 14.058L205.84 219.772a64.128 64.128 0 0 1 2.66-3.401 61.919 61.919 0 0 1 5.87-6.131zM215.718 302.994c-.663-.572-1.3-1.174-1.939-1.773a62.504 62.504 0 0 1-4.16-4.298 63.37 63.37 0 0 1-3.783-4.695L19.471 426.83c10.003 8.747 23.087 14.059 37.418 14.059h21.336L215.72 302.996l-.002-.002zM297.628 301.762c-.449.41-.887.833-1.349 1.23l-.002.003 137.495 137.894h21.339c14.331 0 27.414-5.312 37.417-14.058L306.16 292.228a64.128 64.128 0 0 1-2.66 3.401 61.955 61.955 0 0 1-5.872 6.133zM317.31 247.481c.384 2.802.654 5.618.654 8.519s-.27 5.717-.654 8.519l194.689 27.036H512v-71.111h-.001L317.31 247.481zM256 208.258c-26.325 0-47.744 21.419-47.744 47.744s21.419 47.744 47.744 47.744 47.744-21.419 47.744-47.744-21.419-47.744-47.744-47.744z"/></g></svg>