<svg xmlns="http://www.w3.org/2000/svg" viewBox="0 0 512 512">
    <path d="M0 384c0 31.418 25.473 56.889 56.889 56.889H455.11c31.42 0 56.89-25.473 56.89-56.889v-56.889H0V384z" fill="#ea2839"/>
    <path d="M0 327.111h512V184.89H0v142.22z" fill="#34b232"/>
    <path d="M455.111 71.111H56.89C25.472 71.111 0 96.582 0 128v56.889h512V128c0-31.417-25.473-56.889-56.889-56.889" fill="#fecb01"/>
    <path d="M256 124.586l33.465 102.969h108.274l-87.595 61.625 33.451 101.959L256 326.998 168.405 390.4l33.465-101.077-87.595-61.768h108.274L256 124.586z" fill="#fff"/>
</svg>
