<svg xmlns="http://www.w3.org/2000/svg" viewBox="0 0 512 512">
    <path d="M512 384c0 31.418-25.473 56.889-56.889 56.889H56.89C25.472 440.889 0 415.417 0 384V128c0-31.418 25.472-56.889 56.889-56.889H455.11C486.53 71.111 512 96.584 512 128v256z" fill="#c4272f"/>
    <path d="M341.334 440.889H170.666V71.11h170.666v369.78z" fill="#005197"/>
    <g fill="#f9cf01">
        <path d="M40.633 412.445H18.29V233.658h22.342v178.787zm77.682-134.087H52.337v-11.18h65.978v11.18zm34.062 134.087h-22.342V233.658h22.342v178.787zm-34.062-33.523H52.337v-11.178h65.978v11.178zM53.589 233.657h63.487L85.333 255.86l-31.744-22.202zm-1.237 159.261h65.978l-32.995 23.068-32.983-23.068zm55.324-226.319c0 12.359-10.012 22.342-22.342 22.342-12.345 0-22.358-9.984-22.358-22.342s10.013-22.343 22.358-22.343c12.33 0 22.342 9.984 22.342 22.343m-11.164-41.87c0 10.795-5.006 13.966-11.178 13.966s-11.165-3.171-11.165-13.966c0-10.809 7.68-25.145 11.165-25.145 3.498 0 11.178 14.336 11.178 25.145"/>
        <path d="M85.334 204.857c-18.532 0-34.674-8.433-43.862-21.006 3.854 20.779 21.988 36.494 43.862 36.494s40.007-15.715 43.861-36.494c-9.187 12.572-25.33 21.007-43.861 21.007m-5.276 137.669a5.84 5.84 0 0 1 5.873-5.873 5.836 5.836 0 0 1 5.86 5.874c0 3.228-2.602 5.887-5.86 5.887-3.271.001-5.873-2.659-5.873-5.888m41.812-19.483c0-15.574-9.771-28.771-23.453-33.991 4.253 3.655 8.25 6.357 8.25 15.118 0 13.824-8.236 21.276-21.335 21.276v.114c-9.145.341-16.483 7.794-16.483 16.968s7.338 16.597 16.483 16.938v.114c.128 0 .257-.029.4-.042.07.013.127.042.198.042.199 0 .384-.114.582-.114 19.614-.64 35.358-16.626 35.358-36.423"/>
        <path d="M84.892 309.66c-3.284 0-5.93-2.688-5.93-5.931 0-3.258 2.644-5.959 5.93-5.959s5.932 2.703 5.932 5.959c-.002 3.244-2.646 5.931-5.931 5.931m.44-23.054v-.085c-.1 0-.184.029-.298.029-.043 0-.085-.029-.143-.029-.156 0-.284.085-.44.085-19.756.484-35.656 16.527-35.656 36.438 0 15.587 9.757 28.786 23.453 34.005-4.253-3.655-7.921-6.371-7.921-14.208 0-13.952 7.452-21.66 20.337-21.66l.029-.256c.071 0 .127.043.198.043 9.5 0 17.223-7.765 17.223-17.238 0-9.344-7.495-16.867-16.781-17.124"/>
    </g>
</svg>
