<svg xmlns="http://www.w3.org/2000/svg" viewBox="0 0 512 512">
    <path d="M512 384c0 31.418-25.473 56.889-56.889 56.889H56.89C25.472 440.889 0 415.417 0 384V128c0-31.418 25.472-56.889 56.889-56.889H455.11C486.53 71.111 512 96.584 512 128v256z" fill="#00785e"/>
    <path d="M255.659 121.841c2.574 4.935 3.967 11.023 5.789 16.698h18.09c-4.664 3.641-9.642 6.969-14.336 10.567 1.338 5.831 3.528 10.795 5.12 16.355-.967.384-2.332-.896-3.413-1.692-3.129-2.319-7.296-5.448-10.553-7.837-5.305 2.645-10.14 7.58-14.662 9.885 1.436-5.73 3.641-10.666 5.12-16.37-4.366-3.94-9.344-7.253-14.321-10.567 5.22-.796 11.932-.114 17.72-.341 2.047-5.348 3.952-10.809 5.446-16.698m-77.384 48.399c3.499-2.076 6.627-4.509 9.885-6.826-1.479-3.499-2.105-7.879-3.74-11.25 3.129 1.066 6.514 4.864 9.885 6.826 3.512-2.063 6.67-4.466 9.885-6.826-.256 3.271-2.546 7.452-3.399 11.25 2.618 3.057 6.244 5.091 9.529 7.509-3.428.81-8.378.185-11.919 0-1.764 3.456-2.986 7.466-4.096 11.59-1.793-3.327-2.745-7.508-3.755-11.59h-9.201c-.258-.995-2.818.298-3.074-.683m152.391.698h-8.86c-1.465 3.655-2.389 7.836-3.755 11.59-1.55-3.683-2.745-7.722-4.11-11.59-3.826.34-7.965.412-12.26.34 2.959-2.73 6.599-4.778 9.543-7.494-.953-4.168-2.531-7.694-3.755-11.591 3.456 2.118 6.614 4.522 9.885 6.812 3.854-1.963 6.542-5.049 10.226-7.154-1.479 3.499-2.105 7.865-3.74 11.235 2.873 2.816 6.456 4.921 9.885 7.168-.271.981-2.803-.313-3.059.684m-170.439 20.777c1.664 3.214 1.68 8.079 2.717 11.932 4.281.27 8.106.996 12.274 1.366-3.442 2.02-6.842 4.067-10.553 5.788.214 4.324 1.338 7.752 2.034 11.592-.995.227-2.987-1.707-4.423-3.073-1.607-1.479-3.029-3.342-4.437-4.422-3.826 1.748-7.083 4.053-10.894 5.802 1.706-3.527 3.1-7.352 5.106-10.581-2.404-3.385-5.702-5.888-8.86-8.519 3.57-.611 8.121.725 11.933 1.024 1.946-3.37 3.61-7.054 5.104-10.909m196.323 10.909c4.096-.441 7.95-1.153 12.274-1.365-2.901 2.93-6.172 5.419-8.889 8.534 1.835 3.413 3.258 7.21 5.149 10.567-3.257-.754-7.183-3.74-10.595-5.461-3.285 2.147-6.273 6.442-9.188 7.836.598-3.94 1.735-7.353 2.048-11.578-3.371-2.105-6.77-4.152-10.581-5.817 3.47-1.081 7.936-1.138 11.932-1.693 1.508-3.37 1.536-8.235 2.745-11.932 1.876 3.456 3.526 7.154 5.105 10.909" fill="#fbd116"/>
    <g fill="#fff">
        <path d="M304.74 330.113c-22.159-1.138-36.239-10.368-49.081-20.808-12.004 11.036-26.653 19.456-48.399 20.808h-64.071c.057.27 0 .668.327.668 1.479 2.275 2.973 4.523 4.779 6.471 19.925 1.365 43.62.698 63.73.355 19.314-1.166 32.142-8.775 43.975-17.38 11.79 8.648 24.69 16.2 43.961 17.38 20.48.342 44.174 1.01 63.73-.355a62.74 62.74 0 0 0 4.779-6.47c.1.042.27-.058.37 0-2.502-1.537-10.211-.67-14.336-.67H304.74zm51.1 16.341c.598.1 1.195-1.323 0-1.01-66.687.441-135.026-.91-200.42.682.355 0 .413.257.683.328.88.995 2.062 2.687 3.413 3.072 2.703.74 7.58 0 11.919 0h181.689c.696-1.239 2.005-1.835 2.716-3.072m-12.231 11.932c.341.014.399-.27.682-.341.029-.426.426-.469.328-1.024-56.804 1.109-116.267-1.494-172.8 0-.968.029-3.869-.967-4.097 1.024.342 0 .413.285.683.341 2.076 1.55 4.125 3.171 6.13 4.765a7589.18 7589.18 0 0 0 162.93 0c2.034-1.594 4.081-3.215 6.144-4.765m-15.644 11.249c.896-.654.796-.469 0-.669-4.721-1.108-12.004 0-18.076 0H191.275c-2.219 0-8.619-.455-7.154.669 3.997 2.489 8.135 4.821 12.602 6.826 38.74.569 79.886.569 118.598 0 4.494-2.004 8.646-4.322 12.644-6.826M305.436 380.9h.669c-.014-.582-.128-.626-.669-.696-7.481-1.095-16.469 0-24.889 0-25.06 0-51.427-.555-74.652.696h.697c12.245 4.523 25.43 8.178 41.587 8.846 1.351.797 4.181.128 6.115.342h3.427c1.92-.214 4.75.455 6.115-.342 16.085-.74 29.355-4.281 41.6-8.846"/>
        <path d="M238.279 275.57c.27 1.209.867 2.076 1.706 2.716-.255-1.208-.881-2.062-1.706-2.716m-11.933-38.855c.654 16.27 5.049 28.8 11.933 38.855-5.475-12.16-10.325-25.557-8.86-42.951 1.891-22.713 13.553-40.733 26.922-51.456 12.615 11.363 24.135 28.643 26.24 51.128 1.749 18.703-3.94 33.537-10.567 45.668 7.424-9.515 13.027-23.765 13.639-41.245.568-.583.568-3.513 0-4.096-.442-11.933-3.1-21.675-7.154-29.995 2.147-4.31 5.632-7.325 6.812-12.602 5.39 8.548 8.889 19.058 9.885 32.029v10.568c-.952 16.085-6.4 27.69-12.942 38.172-.299.043-1.053 1.124-.355 1.024.697-1.238 2.02-1.835 2.745-3.073 14.72-12.53 32.042-22.485 58.269-23.508h6.143c.64 1.023-1.65 2.318-2.731 3.755-1.166 1.52-2.005 3.583-3.072 4.765-28.53.555-47.175 11.022-62.023 25.2 11.221-7.722 26.61-16.425 44.644-18.047 17.251-1.536 32.214 1.124 44.985 6.472-3.626 9.785-8.761 18.047-15.331 24.888a34.418 34.418 0 0 0-4.438 4.423c-11.761 10.639-26.026 18.716-47.032 20.11h-8.178c0 .341.413.27.683.341 1.407.868 3.868.683 6.115.698 1.62.555 5.575.555 7.167 0 22.855-.897 37.163-10.34 50.105-21.15 1.793 1.28 9.841.953 8.193 2.746a43.411 43.411 0 0 0-5.12 5.106c-12.047 10.553-26.682 18.518-48.058 19.769h-7.167c-21.575-1.251-36.295-9.359-48.4-20.11-1.152-1.223-2.004-2.745-3.74-3.414-.824 1.338-2.247 2.076-3.057 3.414-12.102 10.752-26.837 18.845-48.398 20.11h-7.154c-21.575-1.294-36.38-9.315-48.413-20.11a37.011 37.011 0 0 0-4.778-4.765c.185-.484-1.323-.854-.342-1.039 2.987-.312 5.803-.782 8.193-1.706 13.326 10.539 27.377 20.337 50.446 21.149 1.579.555 5.561.555 7.154 0 2.247-.014 4.736.17 6.13-.698h.669c-2.034-.782-5.547-.114-8.164-.341-21.02-1.351-35.271-9.486-47.033-20.11a35.147 35.147 0 0 0-4.437-4.423c-6.543-6.868-11.761-15.061-15.331-24.888 12.7-5.362 27.52-7.894 44.643-6.472 17.907 1.522 33.338 9.984 44.317 17.722.653.81 1.592 1.365 2.388 2.047-.127-1.137-1.038-1.465-1.706-2.047-15.246-13.612-33.351-24.378-61.71-24.875-2.205-2.547-4.906-6.443-6.471-8.52h6.471c25.799 1.138 43.306 10.553 57.614 23.183 1.38 1.452 2.475 3.2 4.422 4.068.257-1.479-.668.285-.682-.669-.355-.767-.768-1.507-1.365-2.047-6.186-10.27-11.349-21.575-12.274-37.15v-10.567c.868-13.013 4.708-23.026 9.558-32.028 1.792 4.665 4.493 8.462 7.153 12.273-3.413 7.482-5.973 15.815-6.812 25.885-.783.484-.128 2.389-.341 3.428v1.01c-.57.582-.57 3.512-.002 4.096"/>
    </g>
</svg>
