<svg xmlns="http://www.w3.org/2000/svg" viewBox="0 0 512 512"><path d="M455.111 71.111H56.889C25.472 71.111 0 96.583 0 128v256c0 31.417 25.472 56.889 56.889 56.889h398.222C486.528 440.889 512 415.417 512 384V128c0-31.417-25.472-56.889-56.889-56.889z" fill="#006233"/><g fill="#ffc400"><path d="M255.993 305.779c-58.724 0-106.354-47.46-106.652-106.112a110.551 110.551 0 0 0-3.57 27.89c0 60.871 49.351 110.222 110.222 110.222 60.885 0 110.222-49.351 110.222-110.222 0-9.643-1.237-18.987-3.556-27.89-.298 58.653-47.928 106.112-106.666 106.112z"/><path d="M230.923 233.63l25.074-18.219 25.088 18.219-9.586-29.483 25.074-18.218h-30.99l-9.586-29.483-9.571 29.483h-31.005l25.074 18.218z"/></g></svg>