<svg xmlns="http://www.w3.org/2000/svg" viewBox="0 0 512 512"><path d="M512 384c0 31.418-25.473 56.889-56.889 56.889H56.89C25.472 440.889 0 415.417 0 384V128c0-31.418 25.472-56.889 56.889-56.889H455.11C486.53 71.111 512 96.584 512 128v256z" fill="#77b255"/><path d="M512 327.111H0V184.89h512V327.11z" fill="#dd2e44"/><path d="M455.111 71.111H56.89C25.472 71.111 0 96.582 0 128v56.889h512V128c0-31.417-25.473-56.889-56.889-56.889" fill="#141414"/><g fill="#dd2e44"><path d="M329.814 170.666C315.05 145.18 287.545 128 255.97 128s-59.065 17.18-73.827 42.666h147.67zM251.705 85.334h8.576l-4.295 30.762-4.281-30.762zM230.173 87.894l8.462-1.452.953 31.048-9.416-29.596zM209.365 94.051l8.092-2.859 6.187 30.436-14.279-27.577zM189.909 103.623l7.495-4.168 11.235 28.956-18.73-24.788zM172.374 116.353l6.699-5.377 15.942 26.639-22.641-21.262zM157.155 131.854l5.689-6.443 20.224 23.58-25.913-17.137zM144.854 149.702l4.522-7.296 23.908 19.811-28.43-12.515zM154.994 170.666l-16.058-9.245-3.229 7.95 5.192 1.294h14.095zM373.334 170.666l3.1-.767-3.143-7.922-15.275 8.69h15.318zM362.994 142.919l4.422 7.281-28.445 12.401 24.023-19.682zM349.567 125.866l5.604 6.429-25.97 17.024 20.366-23.453zM333.469 111.36l6.599 5.39-22.713 21.163 16.114-26.553zM315.165 99.726l7.41 4.21-18.816 24.69 11.406-28.9zM295.125 91.364l8.008 2.901-14.365 27.506 6.357-30.407zM273.977 86.514l8.405 1.507-9.542 29.54 1.137-31.047z"/></g></svg>