<svg xmlns="http://www.w3.org/2000/svg" viewBox="0 0 512 512">
    <path d="M512 384c0 31.418-25.473 56.889-56.889 56.889H56.89C25.472 440.889 0 415.417 0 384V128c0-31.418 25.472-56.889 56.889-56.889H455.11C486.53 71.111 512 96.584 512 128v256z" fill="#77b255"/>
    <path d="M512 327.111H0V184.89h512v142.22z" fill="#dd2e44"/>
    <path d="M455.111 71.111H56.89C25.472 71.111 0 96.582 0 128v56.889h512V128c0-31.417-25.473-56.889-56.889-56.889" fill="#141414"/>
    <path d="M329.814 170.666C315.05 145.18 287.545 128 255.97 128s-59.065 17.18-73.827 42.666h147.67zm-78.109-85.332h8.576l-4.295 30.762-4.281-30.762zm-21.532 2.56l8.462-1.452.953 31.048-9.416-29.596zm-20.808 6.157l8.092-2.859 6.187 30.436-14.279-27.577zm-19.456 9.572l7.495-4.168 11.235 28.956-18.73-24.788zm-17.535 12.73l6.699-5.377 15.942 26.639-22.641-21.262zm-15.219 15.501l5.689-6.443 20.224 23.58-25.913-17.137zm-12.301 17.848l4.522-7.296 23.908 19.811-28.43-12.515zm10.14 20.964l-16.058-9.245-3.229 7.95 5.192 1.294h14.095zm218.34 0l3.1-.767-3.143-7.922-15.275 8.69h15.318zm-10.34-27.747l4.422 7.281-28.445 12.401 24.023-19.682zm-13.427-17.053l5.604 6.429-25.97 17.024 20.366-23.453zm-16.098-14.506l6.599 5.39-22.713 21.163 16.114-26.553zm-18.304-11.634l7.41 4.21-18.816 24.69 11.406-28.9zm-20.04-8.362l8.008 2.901-14.365 27.506 6.357-30.407zm-21.148-4.85l8.405 1.507-9.542 29.54 1.137-31.047z" fill="#dd2e44"/>
</svg>
