<svg xmlns="http://www.w3.org/2000/svg" viewBox="0 0 512 512">
    <path d="M512 384c0 31.418-25.473 56.889-56.889 56.889H56.89C25.472 440.889 0 415.417 0 384V128c0-31.418 25.472-56.889 56.889-56.889H455.11C486.53 71.111 512 96.584 512 128v256z" fill="#dd2e44"/>
    <path d="M7.894 412.445H504.12C509 404.04 512 394.411 512 384H0c0 10.411 3.015 20.039 7.894 28.445M512 355.555H0V327.11h512v28.445zm0-56.889H0v-28.445h512v28.445zm0-56.888H0v-28.445h512v28.445zm0-56.889H0v-28.445h512v28.445zM7.894 99.555C3.015 107.946 0 117.589 0 128h512c0-10.411-3.001-20.054-7.879-28.445H7.894z" fill="#eee"/>
    <path d="M256 71.111H56.889C25.472 71.111 0 96.582 0 128v142.222h256V71.112z" fill="#010066"/>
    <g fill="#ffcc4d">
        <path d="M135.595 245.091c-41.102 0-74.425-33.322-74.425-74.425 0-41.116 33.323-74.439 74.425-74.439a74.42 74.42 0 0 1 28.7 5.76c-14.151-10.424-31.587-16.653-50.517-16.653-47.12 0-85.334 38.201-85.334 85.333 0 47.12 38.215 85.334 85.334 85.334 18.93 0 36.366-6.244 50.517-16.669a74.195 74.195 0 0 1-28.7 5.76"/>
        <path d="M183.78 125.582l4.75 23.04 14.265-18.702-5.717 22.826 20.977-10.652-15.047 18.076 23.508-.512-21.405 9.756 21.405 9.771-23.509-.512 15.048 18.076-20.977-10.653 5.717 22.827-14.265-18.703-4.75 23.04-4.75-23.04-14.265 18.703 5.718-22.827-20.978 10.653 15.048-18.076-23.51.512 21.406-9.771-21.405-9.756 23.509.512-15.048-18.076 20.978 10.652-5.718-22.826 14.265 18.703 4.75-23.04z"/>
    </g>
</svg>
