<svg xmlns="http://www.w3.org/2000/svg" viewBox="0 0 512 512">
    <path d="M512 384c0 31.418-25.473 56.889-56.889 56.889H56.89C25.472 440.889 0 415.417 0 384V128c0-31.418 25.472-56.889 56.889-56.889H455.11C486.53 71.111 512 96.584 512 128v256z" fill="#fce100"/>
    <path d="M512 327.111H0V184.89h512v142.22z" fill="#141414"/>
    <path d="M455.111 71.111H56.89C25.472 71.111 0 96.582 0 128v56.889h512V128c0-31.417-25.473-56.889-56.889-56.889" fill="#007168"/>
    <path d="M512 199.111H0V184.89h512v14.222zm0 128H0V312.89h512v14.222z" fill="#eee"/>
    <path d="M18.674 425.955l223.559-168.974L18.915 85.988C7.381 96.398 0 111.304 0 128.07v256c0 16.654 7.281 31.488 18.674 41.884" fill="#dd2e44"/>
    <path d="M134.799 327.993L88.277 293.93l-46.45 34.063 18.02-54.77-46.762-33.635 57.657.198 17.55-54.855 17.636 54.898 57.6-.256-46.778 33.707 18.049 54.713z" fill="#fce100"/>
    <path d="M47.915 294.429h33.508c2.702 3.029 8.718 4.266 14.45-.029 10.496-5.746 30.82.029 30.82.029l3.996-4.253-9.743-32-3.499-3.755s-7.523-4.508-21.773-3.001c-14.252 1.508-19.243-.512-19.243-.512s-12.515 1.507-16.014 3.256c-.383.312-3.996 4.011-3.996 4.011l-8.506 36.254z" fill="#141414"/>
    <path d="M47.915 289.793h33.508c2.702 3.028 8.718 4.266 14.45-.03 10.496-5.745 30.82.03 30.82.03l3.996-4.253-9.743-32-3.499-3.755s-7.523-4.509-21.773-3.001c-14.252 1.494-19.243-.513-19.243-.513s-12.515 1.508-16.014 3.258c-.383.312-3.996 4.011-3.996 4.011l-8.506 36.253z" fill="#fff"/>
    <path d="M31.474 241.949l17.948-26.325 10.994 1.764 6.358-6.557 21.902 26.866 17.593-12.5 10.766-8.975 6.457 3.968 22.855-14.734-20.665 19.372L108.545 237l-13.654 6.144L141 297.5l-6.017 4.281-43.96-53.333-14.252 11.448 18.716 5.988-.597 8.974-26.298-7.254 1.166 18.617-6.072 2.632-5.376-10.738-23.254 27.264-8.363-14.365 26.325-22.144.598-7.78 14.35-13.155 4.195-.611 11.961-4.779-17.949-19.142-23.978 33.45L31.91 244.48" fill="#141414"/>
</svg>
