<svg xmlns="http://www.w3.org/2000/svg" viewBox="0 0 512 512">
    <path d="M455.111 71.111H56.89C25.472 71.111 0 96.584 0 128v256c0 31.416 25.472 56.889 56.889 56.889H455.11c31.417 0 56.89-25.473 56.89-56.889V128c0-31.416-25.473-56.889-56.889-56.889z" fill="#eee"/>
    <path d="M270.222 270.222L19.292 85.326C7.466 95.75 0 111 0 128v256c0 31.416 25.472 56.889 56.889 56.889h213.333L108.09 270.222h162.133z" fill="#003893"/>
    <path d="M64 426.666h166.454L76.04 256h154.417L22.234 108.04a49.532 49.532 0 0 0-8.012 27.071V376.89c0 27.491 22.286 49.776 49.777 49.776z" fill="#dd2e44"/>
    <path d="M45.511 353.692l-8.335 11.62 14.223-1.408-1.408 14.222 11.619-8.333 5.889 13.026 5.887-13.026 11.62 8.333-1.422-14.222 14.222 1.409-8.334-11.62 13.027-5.888-13.026-5.889 8.333-11.605-14.222 1.394 1.422-14.223-11.62 8.334L67.5 312.79l-5.889 13.026-11.619-8.334 1.408 14.223-14.223-1.394 8.335 11.605-13.027 5.889zm39.165-129.397l-2.489-3.47 8.69-3.939-8.69-3.926 5.562-7.751-9.501.925.952-9.501-7.779 5.56-3.926-8.703-3.939 8.704-7.766-5.561.953 9.5-9.502-.924 5.562 7.751-8.704 3.926 8.704 3.939-2.39 3.314c-9.53-4.039-17.38-11.264-22.258-20.353 1.764 20.324 18.56 36.338 39.325 36.48l.015.029.015-.029c.086 0 .156.029.241.029 20.893 0 37.832-16.086 39.609-36.509-4.964 9.215-12.97 16.498-22.684 20.509z" fill="#fff"/>
</svg>
