<svg xmlns="http://www.w3.org/2000/svg" viewBox="0 0 512 512">
    <path d="M0 384c0 31.418 25.473 56.889 56.889 56.889H455.11c31.42 0 56.89-25.473 56.89-56.889v-56.889H0V384z" fill="green"/>
    <path d="M455.111 71.111H56.89C25.472 71.111 0 96.582 0 128v56.889h512V128c0-31.417-25.473-56.889-56.889-56.889" fill="#eee"/>
    <path d="M512 184.889H128V71.11H56.889C25.472 71.111 0 96.583 0 128v256c0 31.418 25.472 56.889 56.889 56.889H128V327.11h384V184.89z" fill="#db161b"/>
    <g fill="#eee">
        <path d="M51.555 120.22c4.438 8.064 4.451 11.221 3.157 11.919-1.28.725-3.385-1.28-7.822-9.33-4.451-8.064-9.557-19.143-8.277-19.84 1.295-.725 8.506 9.202 12.942 17.251m26.895-4.949c-4.438 8.064-7.011 15.175-5.717 15.886 1.28.712 5.944-5.247 10.382-13.297 4.451-8.064 7.011-15.175 5.717-15.886-1.28-.712-5.944 5.247-10.382 13.297m-8.008 12.956l-4.223-20.223-.399-.072c1.465-.697 2.617-1.806 2.617-3.37 0-2.276-2.09-4.11-4.664-4.11s-4.666 1.834-4.666 4.11c0 1.535 1.067 2.744 2.49 3.455l-4.04 20.438 12.886-.228z"/>
        <path d="M95.331 167.395c-3.854-3.214-19.186-16.484-26.467-24.405.668-2.275 1.052-4.721.896-7.325h.241v.1H82.66v2.446h15.558v-7.552H82.66v2.446H70.001v.114h-.441v-3.827H57.997v3.827h-4.664v.213h-9.117v-3.1H29.554v8.22h14.662v-3.115h9.117v.228h3.925l-.513 5.334s-14.777.653-18.745 1.28c-9.785 1.565-6.67 4.451 1.323 7.111 3.697 1.238 7.367 1.706 10.837 1.891-5.66 6.03-17.18 14.976-19.94 16.555-3.115 1.778-3.115 3.996 2.887 2.674 5.818-1.294 19.272-13.184 23.95-19.171 1.423-.058 2.802-.114 4.054-.171 2.134-.072 3.811-1.408 5.248-3.187 6.072 7.197 17.962 17.835 22.755 20.75 5.106 3.1 7.495 3.044 9.301 2.745 1.809-.297.912-.752-3.084-4.081"/>
    </g>
</svg>
