<svg xmlns="http://www.w3.org/2000/svg" viewBox="0 0 512 512">
    <path d="M455.111 71.111H56.889C25.472 71.111 0 96.583 0 128v256c0 31.417 25.472 56.889 56.889 56.889h398.222C486.528 440.889 512 415.417 512 384V128c0-31.417-25.472-56.889-56.889-56.889z" fill="#eee"/>
    <path d="M0 256v128c0 31.417 25.472 56.889 56.889 56.889H256V256H0z" fill="#005293"/>
    <path d="M455.111 71.111H256V256h256V128c0-31.417-25.472-56.889-56.889-56.889z" fill="#d21034"/>
    <path d="M137.579 150.372l-9.586-29.483-9.572 29.483H87.417l25.088 18.219-9.586 29.483 25.074-18.219 25.088 18.219-9.586-29.483 25.088-18.219h-31.004z" fill="#005293"/>
    <path d="M368.5 353.481l-9.586 29.483 25.088-18.219 25.074 18.219-9.572-29.483 25.074-18.219h-31.004l-9.572-29.483-9.586 29.483h-30.99l25.074 18.219z" fill="#d21034"/>
</svg>
