<svg xmlns="http://www.w3.org/2000/svg" viewBox="0 0 512 512">
    <path d="M512 384c0 31.418-25.473 56.889-56.889 56.889H56.89C25.472 440.889 0 415.417 0 384V128c0-31.418 25.472-56.889 56.889-56.889H455.11C486.53 71.111 512 96.584 512 128v256z" fill="#141414"/>
    <path d="M492.345 426.695C504.291 416.27 512 401.095 512 384V128c0-31.418-25.473-56.889-56.889-56.889H56.89c-14.321 0-27.235 5.461-37.234 14.194l472.69 341.39z" fill="#ce1126"/>
    <path d="M109.81 192.513l5.447 18.716h18.83l-14.862 11.435 5.448 18.176-14.863-11.435-14.862 10.923 5.447-17.664-14.862-11.435h18.332l5.945-18.716zm-57.089 73.002l5.448 18.703h18.83l-14.863 11.434 5.448 18.19-14.863-11.435L37.86 313.33l5.447-17.679-14.862-11.435h18.332l5.945-18.701zm57.089 98.603l5.447 18.702h18.83l-14.862 11.435 5.448 18.19-14.863-11.42-14.862 10.894 5.447-17.664-14.862-11.435h18.332l5.945-18.702zm25.486-39.738l2.716 9.344h9.43l-7.44 5.746 2.717 9.074-7.424-5.718-7.424 5.461 2.716-8.817-7.438-5.746h9.173l2.974-9.344zm31.331-64.056l5.448 18.702h18.83l-14.863 11.435 5.448 18.19-14.863-11.42-14.862 10.894 5.447-17.664-14.847-11.435h18.319l5.943-18.702z" fill="#fff"/>
    <path d="M399.218 217.671c6.215 6.215 48.227 34.233 48.227 68.466 0 34.248-30.62 33.195-39.424 32.157 9.857 8.306 47.204 6.755 47.204-32.156 0-34.233-48.227-68.467-54.456-71.58-6.216-3.102-7.795-3.102-1.551 3.113m-76.004-36.565c-4.38 5.689-14.778-5.702-27.221-5.958-12.445-.257-21.277 11.932-24.89 16.085-3.64 4.152-15.317 25.927-15.047 28.26.27 2.332 7.268-6.485 9.857-8.035.256 3.1-2.86 6.74-2.092 7.765.783 1.052 9.088-6.216 11.947-6.472.782 2.076-1.55 4.139-.768 7.254 1.024 1.052 5.689-5.178 8.804-6.471.526 2.332-2.859 6.741-1.039 9.586 1.28.27 9.088-8.804 11.676-9.856 2.574-1.039-1.308 8.561 0 9.344 2.333-1.55 9.587-9.857 11.919-10.894 2.333-1.039-.256 10.624.768 10.624 2.872-2.063 10.112-11.92 10.893-13.47.783-1.564-.782 15.02 7.282 23.852 8.05 8.818 20.223 18.93 21.518 18.93 1.565-2.859-.526-8.818.783-8.561 3.641 3.897 10.367 9.6 11.919 9.6s-1.024-6.229 1.052-6.229c4.139 3.897 16.058 19.2 39.424 26.197-1.565-4.408-4.949-8.306-5.205-10.367 1.565.241 7.011 2.845 8.035 2.589 1.052-.256-11.393-15.559-10.639-17.635 2.859-.256 4.168 1.55 5.191.256-1.28-2.076-12.188-14.265-12.188-17.109 0-2.858 3.385.513 4.408 0 1.053-.526-4.138-11.406-3.115-12.715 1.039-1.28 12.445 6.998 15.318 6.998 2.859 0 .767-10.113 2.076-10.624 1.28-.512 10.894 5.447 12.943 5.447 2.09 0 1.835-4.408 2.617-3.897.783.526 23.339 23.083 15.559 49.536-7.78 18.93-23.339 29.041-46.165 20.75 1.294 2.063 13.497 12.174 26.709 8.548 13.226-3.613 29.312-13.995 27.506-39.921-1.835-25.942-10.383-29.568-11.663-33.452-1.337-3.897 2.048 1.039 4.879 2.063 2.901 1.039-.497-5.448-1.266-8.291-.783-2.845 8.547 5.958 10.88 6.727 2.332.783-5.448-21.262-7.78-22.812-2.333-1.55 2.332.526 3.896 1.038 1.55.513-14.279-24.121-17.635-24.121-3.371 0 2.859-1.28 4.665-1.28S410.878 158.3 407.493 158.3c-3.357 0 7.28-4.152 8.306-4.409 1.806.257-23.083-13.226-45.383.257-1.28-1.04 10.497-9.202 10.88-12.7.143-.91-3.882-2.86-4.138-3.898-.242-1.039 6.228-4.152 6.47-6.485-1.55-2.076-4.38-1.294-5.944-1.806-.384-1.949 5.447-6.741 4.921-8.818-.384-1.166-4.665-1.565-5.689-.782-1.066.782 2.717-5.448 2.048-7.254-.498-.782-2.574-.256-4.665.256-1.28-.256 6.755-11.42 5.191-12.971-1.55-1.55-23.325 11.406-31.36 25.928-8.05 14.535-1.835 26.197-2.859 31.132-1.023 4.906-2.332 9.856-5.688 9.856-3.4 0-11.18-5.191-13.753-7.794-2.617-2.588-3.115-4.395-6.755-5.432-3.641-1.052-11.946 2.063-15.047 2.333-3.115.256-15.29-2.333-16.058-1.565-.782.782 11.919 5.447 14.778 7.01 2.83 1.55 3.115 3.613 5.162 4.922 2.091 1.287 21.562 6.99 15.304 15.026" fill="#fcd116"/>
</svg>
