<svg xmlns="http://www.w3.org/2000/svg" viewBox="0 0 512 512">
    <path d="M0 327.111h512V184.875H0v142.236z" fill="#0c4076"/>
    <path d="M177.778 398.222c-40.808 0-74.292-31.25-77.887-71.11H0V384c0 31.416 25.473 56.889 56.889 56.889H455.11c31.417 0 56.89-25.473 56.89-56.889v-56.889H255.664c-3.595 39.86-37.079 71.111-77.886 71.111z" fill="#eee"/>
    <g fill="#c6363c">
        <path d="M120.438 142.671c-.442 4.438 1.336 6.884 1.336 4.438 0-2.43 4.475-.619 5.676 3.7-.476-2.468-1.03-7.372 1.435-8.138 3.555-1.124 6.001 5.106 6.229 3.555.213-1.565-1.778-2.674-.897-3.555.897-.896 5.774 3.1 5.774 3.1s-1.55-2.66-2.887-3.769c-1.323-1.108 0-3.213 0-3.213s-2.888-1.907-4.438-4.793c-1.565-2.887-4.451-15.545-4.451-15.545s-7.325 1.778-10.666 3.996c-3.328 2.22-3.328 5.547-.669 9.33 2.676 3.783 4.014 6.443 3.557 10.894zm26.681-8.006c-1.338.896-1.479 2.446-1.479 2.446s1.92 1.109 1.024 3.328c-.881 2.218-1.778 4.892 0 4.223s2.887-3.555 4.665-4.223c1.777-.669-.882 2.232 1.45 4.01 2.332 1.777 5.12 1.835 6.115 3.327-2.233-2.446-3.414-9.429 0-9.557 6.001-.228 2.446 9.116 2.446 9.116s2.887 1.109 2.887-1.565c0-2.66 3.1-2.446 2.66-4.224-.44-1.777.897-2.66 3.115-1.109 2.22 1.55 3.115 3.555 4.224 2.447 1.109-1.11 0-2.219-1.777-3.769-1.778-1.565-3.784-2.674-1.109-3.783-1.109-1.337-4.893-3.783-4.893-3.783s5.107-7.553 1.778-22.884c-18.674-.441-25.33 3.327-27.335 6.67-2.005 3.327 4.451 13.326 6.229 15.104s1.322 3.343 0 4.226z"/>
        <path d="M455.111 71.111H56.89C25.472 71.111 0 96.584 0 128v56.889h99.555V320c0 2.399.125 4.768.336 7.111 3.595 39.86 37.079 71.111 77.886 71.111s74.292-31.25 77.887-71.11c.211-2.345.336-4.713.336-7.112V184.889h256V128c0-31.416-25.473-56.889-56.889-56.889zM145.126 363.836c-.626-2.801-4.324-2.176-4.324 1.251 0 3.414 3.087 1.863 2.703 3.258-.37 1.407-3.2 4.352-5.063 4.352s-4.678-2.943-5.062-4.352c-.384-1.394 2.716.156 2.716-3.258 0-3.427-3.726-4.053-4.337-1.25-2.177-3.116-1.408-8.25 3.342-5.448-1.949-4.494-.584-5.134.995-6.699 1.565-1.55 2.346-3.713 2.346-3.713s.783 2.162 2.362 3.713c1.565 1.565 2.93 2.205.981 6.699 4.75-2.803 5.531 2.332 3.341 5.447zm58.341 17.498c-2.19 4.551-15.743 7.452-25.657 7.666-.043 0-.058.042-.1.042-.171 0-.37-.013-.555-.013s-.384.013-.555.013c-.043 0-.071-.042-.1-.042-9.913-.214-23.466-3.115-25.658-7.666-2.26-4.737 5.874-16.882 5.874-16.882s-3.257-4.152-1.109-7.708c2.148-3.555 6.343-9.77 6.343-9.77s-2.873-2.389 0-8.307c2.221-4.55 2.572-11.39.71-15.655a31.608 31.608 0 0 0 14.797 3.66c5.033 0 9.79-1.176 14.02-3.26-1.668 4.284-1.276 10.847.865 15.255 2.888 5.917 0 8.307 0 8.307s4.195 6.215 6.358 9.77c2.147 3.555-1.109 7.708-1.109 7.708s8.151 12.145 5.876 16.882zm19-17.498c-.627-2.801-4.338-2.176-4.338 1.251 0 3.414 3.1 1.863 2.716 3.258-.384 1.407-3.2 4.352-5.063 4.352-1.877 0-4.693-2.943-5.062-4.352-.384-1.394 2.702.156 2.702-3.258 0-3.427-3.712-4.053-4.323-1.25-2.19-3.116-1.408-8.25 3.327-5.448-1.934-4.494-.582-5.134.995-6.699 1.579-1.55 2.361-3.713 2.361-3.713s.768 2.162 2.347 3.713c1.579 1.565 2.944 2.205.995 6.699 4.751-2.803 5.518 2.332 3.342 5.447zm18.96-25.469c-5.505-1.478-8.918-8.59-8.918-8.59s1.835 8.59-1.579 7.71c-3.414-.897-4.195-7.41-6.826-9.786-2.618-2.375-4.722-7.709-4.722-7.709s-5.503-2.062 0 7.112c-4.466.298-7.352-2.66-7.352-2.66l-.474 2.512c2.769 6.939 4.036 10.323 8.615 10.018 5.774-.384 9.842-1.365 9.842.967 0 2.319-9.16 1.351-9.16 1.351s8.662 3.698 6.956 7.937c-1.693 4.266-9.159-5.405-9.159-5.405s-1.521.383-4.409-1.949c-1.567-1.259-4.535-5.145-6.92-8.436l-.795 4.866-4.721-7.709-3.1 3.555s-.344-8.86-2.389-11.684c7.843-5.79 12.934-15.093 12.934-25.586V240h-24.936v32.667h24.931v13.697h-24.931v39.523c-2.205.484-4.494.783-6.841.783-2.362 0-4.637-.299-6.842-.783v-39.523H145.69v8.52c0 10.321 4.923 19.491 12.544 25.298-2.253 2.444-2.623 11.97-2.623 11.97l-3.1-3.555-4.721 7.71-.61-3.733c-2.21 3.001-4.701 6.186-6.091 7.302-2.888 2.333-4.409 1.949-4.409 1.949s-7.466 9.671-9.159 5.405c-1.706-4.239 6.955-7.936 6.955-7.936s-9.173.967-9.173-1.352c0-2.332 4.08-1.35 9.856-.967 4.182.279 5.602-2.525 7.925-8.296l-.798-4.234s-2.901 2.959-7.352 2.66c5.504-9.174 0-7.111 0-7.111s-2.105 5.334-4.736 7.709c-2.618 2.375-3.4 8.888-6.813 9.785-3.414.88-1.579-7.71-1.579-7.71s-3.413 7.112-8.917 8.59c4.977-10.665 3.144-23.11 0-37.034-3.158-13.924-1.579-30.223-1.579-30.223s-2.901-29.937-.399-47.119c2.503-17.18 18.674-11.847 25.543 0 6.869 11.862 12.814 18.077 19.157 9.785 4.888-6.388 8.502-13.133 5.703-21.045-1.331.383-2.465.593-3.096.593-2.902 0-8.662 3.342-13.227-1.109-6.798-.669-8.405-6.442-8.405-6.442s4.978 3.342 9.857 2.887c4.892-.441 7.11-1.55 4.45-4.665-2.673-3.1-8.832 2.446-8.832 2.446s-1.621.228-5.475-5.333c-3.853-5.547.299-9.103 5.475-10.227 1.464-.313 3.762.084 6.445.95 2.06-4.158 7.128-2.676 13.988.16 7.865 3.272 12.842 1.778 12.075 5.348-.796 3.555-3.684 3.84-3.684 3.84s4.964 4.85 6.273 21.532c1.308-16.682 6.272-21.532 6.272-21.532s-2.887-.285-3.684-3.84c-.767-3.57 4.21-2.076 12.075-5.348 6.86-2.835 11.928-4.317 13.988-.16 2.684-.866 4.982-1.263 6.445-.95 5.176 1.124 9.33 4.68 5.475 10.227-3.854 5.561-5.475 5.333-5.475 5.333s-6.159-5.546-8.833-2.446c-2.66 3.115-.441 4.224 4.452 4.665 4.878.455 9.856-2.887 9.856-2.887s-1.608 5.774-8.405 6.442c-4.565 4.451-10.325 1.109-13.226 1.109-.632 0-1.767-.21-3.098-.594-2.801 7.911.806 14.656 5.705 21.045 6.343 8.291 12.288 1.18 19.158-10.666 6.868-11.848 23.04-17.18 25.542 0 2.503 17.18-.399 48-.399 48s1.579 16.299-1.578 30.223c-3.144 13.924-4.98 26.368-.002 37.034zm-73.412-237.663c-.003-.087-.013-.172-.013-.259 0-3.916 2.635-7.218 6.227-8.234v-3.324h-3.223c-1.294 0-2.332-1.038-2.332-2.332s1.038-2.333 2.332-2.333h3.223v-3.665c0-1.407 1.137-2.56 2.546-2.56s2.56 1.153 2.56 2.56v3.665h2.779c1.293 0 2.332 1.04 2.332 2.333s-1.039 2.332-2.332 2.332h-2.779v3.47c3.356 1.158 5.777 4.342 5.777 8.087 0 .053-.007.105-.007.158 50.185 1.974 66.026 24.023 61.571 32.512-4.679 8.888-18.674 31.772-18.674 31.772s4.1 1.666.443 9.71c-.003 1.088-.664 2.06-1.71 2.749-5.923 6.196-22.704 1.095-48.951 1.095-24.89 0-41.275 4.595-47.964-.211-2.29-.434-3.98-1.89-3.98-3.639 0-.603.221-1.164.581-1.67-2.38-6.606 1.13-8.034 1.13-8.034s-13.996-22.882-18.661-31.772c-4.383-8.349 10.842-29.834 59.125-32.41z"/>
        <path d="M185.561 140.439c2.219-1.55 3.555-.669 3.1 1.109-.441 1.777 2.674 1.564 2.674 4.223 0 2.674 2.888 1.565 2.888 1.565s-3.555-9.344 2.446-9.116c3.399.127 2.219 7.111 0 9.557.981-1.493 3.769-1.55 6.115-3.327 2.332-1.777-.341-4.679 1.436-4.01s2.888 3.555 4.665 4.224.896-2.005 0-4.224c-.881-2.219 1.039-3.327 1.039-3.327s-.143-1.55-1.479-2.447c-1.336-.881-1.777-2.446 0-4.223s8.22-11.777 6.229-15.104c-2.005-3.343-8.675-7.111-27.335-6.67-3.343 15.331 1.777 22.884 1.777 22.884s-3.782 2.446-4.892 3.783c2.66 1.109.669 2.219-1.11 3.783-1.778 1.55-2.888 2.66-1.778 3.769 1.111 1.106 1.993-.9 4.225-2.45zm35.769 2.232c.496.489.236 2.68-.281 4.729 1.483-2.544 3.707-5.331 5.613-4.729 2.492.775 1.9 5.78 1.423 8.22 1.166-4.38 5.689-6.229 5.689-3.782s1.777 0 1.336-4.438c-.441-4.451.896-7.111 3.555-10.894 2.66-3.782 2.66-7.11-.669-9.33-3.327-2.218-10.666-3.996-10.666-3.996s-2.887 12.658-4.437 15.545c-1.565 2.888-4.452 4.793-4.452 4.793s1.338 2.105 0 3.213c-1.336 1.11-2.887 3.77-2.887 3.77s4.895-3.996 5.776-3.1z"/>
    </g>
    <path d="M127.549 164.886s-3.51 1.428-1.13 8.034c.88-1.237 2.685-2.099 4.795-2.099 2.972 0 5.376 1.693 5.376 3.769 0 2.091-2.404 3.784-5.376 3.784-.486 0-.949-.06-1.396-.145 6.688 4.807 23.073.211 47.963.211 26.249 0 43.029 5.101 48.951-1.095-.96.633-2.243 1.028-3.664 1.028-2.973 0-5.377-1.693-5.377-3.784 0-2.076 2.404-3.769 5.377-3.769 2.972 0 5.376 1.693 5.376 3.769l-.001.006c3.655-8.044-.443-9.71-.443-9.71s13.995-22.884 18.674-31.772c4.454-8.488-11.386-30.537-61.571-32.512-.087 4.648-3.887 8.403-8.554 8.403-4.635 0-8.396-3.701-8.535-8.303-48.281 2.577-63.506 24.062-59.125 32.412 4.666 8.89 18.66 31.773 18.66 31.773zm25.29 12.197c-2.973 0-5.376-1.693-5.376-3.784 0-2.076 2.403-3.769 5.376-3.769 2.972 0 5.376 1.693 5.376 3.769 0 2.091-2.404 3.784-5.376 3.784zm48 0c-2.973 0-5.376-1.693-5.376-3.784 0-2.076 2.403-3.769 5.376-3.769 2.972 0 5.376 1.693 5.376 3.769 0 2.091-2.404 3.784-5.376 3.784zm17.605-35.08c1.337-1.108 0-3.213 0-3.213s2.887-1.906 4.451-4.792c1.55-2.888 4.438-15.545 4.438-15.545s7.338 1.777 10.666 3.996c3.327 2.219 3.327 5.546.669 9.33-2.66 3.784-3.997 6.442-3.556 10.894.442 4.437-1.336 6.883-1.336 4.437s-4.522-.597-5.689 3.783c.477-2.44 1.07-7.445-1.422-8.22-1.906-.603-4.131 2.185-5.614 4.728.518-2.048.776-4.24.281-4.728-.88-.897-5.773 3.1-5.773 3.1s1.547-2.66 2.885-3.77zm-35.329-2.887c1.777-1.565 3.769-2.673 1.11-3.782 1.109-1.338 4.893-3.784 4.893-3.784s-5.12-7.552-1.778-22.884c18.66-.441 25.33 3.328 27.335 6.67 1.991 3.328-4.451 13.327-6.229 15.104s-1.336 3.343 0 4.224c1.338.896 1.479 2.446 1.479 2.446s-1.92 1.109-1.039 3.328c.897 2.218 1.778 4.892 0 4.223s-2.887-3.555-4.665-4.223c-1.777-.67.897 2.232-1.436 4.01-2.346 1.777-5.134 1.835-6.115 3.327 2.219-2.446 3.399-9.429 0-9.557-6.001-.228-2.446 9.116-2.446 9.116s-2.888 1.109-2.888-1.565c0-2.66-3.115-2.446-2.673-4.224.455-1.777-.882-2.66-3.1-1.109-2.233 1.55-3.115 3.555-4.224 2.447-1.11-1.107-.001-2.217 1.776-3.767zm-6.331 30.143c2.972 0 5.376 1.692 5.376 3.769 0 2.09-2.404 3.782-5.376 3.782-2.973 0-5.376-1.692-5.376-3.782 0-2.077 2.403-3.77 5.376-3.77zm-35.894-53.923c2.005-3.342 8.661-7.111 27.335-6.67 3.328 15.332-1.777 22.884-1.777 22.884s3.782 2.446 4.892 3.784c-2.674 1.109-.669 2.219 1.109 3.782 1.777 1.55 2.887 2.66 1.777 3.769-1.108 1.109-2.005-.896-4.223-2.446-2.22-1.55-3.555-.669-3.115 1.109.44 1.777-2.66 1.565-2.66 4.223 0 2.674-2.888 1.565-2.888 1.565s3.555-9.344-2.446-9.116c-3.414.128-2.233 7.111 0 9.557-.995-1.493-3.784-1.55-6.115-3.327-2.333-1.777.327-4.679-1.45-4.01-1.778.669-2.888 3.555-4.665 4.224-1.778.669-.881-2.005 0-4.224.896-2.219-1.024-3.327-1.024-3.327s.143-1.55 1.479-2.447c1.322-.881 1.777-2.446 0-4.223s-8.235-11.778-6.229-15.107zm-23.339 7.112c3.343-2.22 10.667-3.997 10.667-3.997s2.887 12.658 4.45 15.545c1.55 2.888 4.438 4.793 4.438 4.793s-1.322 2.105 0 3.214c1.336 1.108 2.888 3.768 2.888 3.768s-4.879-3.996-5.774-3.1c-.881.882 1.109 1.992.896 3.555-.227 1.55-2.674-4.678-6.229-3.555-2.463.767-1.91 5.67-1.435 8.138-1.202-4.319-5.676-6.131-5.676-3.7 0 2.446-1.777 0-1.336-4.438.455-4.451-.881-7.111-3.555-10.893-2.663-3.784-2.663-7.112.666-9.33z" fill="#edb92e"/>
    <path d="M179.334 80.558c0-1.408-1.153-2.56-2.56-2.56s-2.546 1.152-2.546 2.56v3.664h5.106v-3.664zm0 11.798v-3.469h-5.106v3.324a8.515 8.515 0 0 1 2.32-.329c.977 0 1.91.173 2.786.474z" fill="#ffac33"/>
    <path d="M182.113 88.888c1.293 0 2.332-1.04 2.332-2.333s-1.039-2.333-2.332-2.333h-11.108c-1.294 0-2.332 1.04-2.332 2.333s1.038 2.333 2.332 2.333h11.108z" fill="#edb92e"/>
    <path d="M176.549 109.006c4.667 0 8.467-3.755 8.554-8.402 0-.054.007-.105.007-.159 0-3.746-2.42-6.929-5.777-8.088a8.498 8.498 0 0 0-2.785-.473c-.807 0-1.583.12-2.322.328-3.591 1.015-6.226 4.318-6.226 8.234 0 .088.01.173.013.259.14 4.6 3.902 8.301 8.536 8.301zM136.59 174.59c0-2.076-2.404-3.769-5.376-3.769-2.11 0-3.915.861-4.795 2.099-.36.506-.581 1.067-.581 1.67 0 1.749 1.69 3.204 3.98 3.639.447.085.91.145 1.396.145 2.972 0 5.376-1.693 5.376-3.784z" fill="#0c4076"/>
    <path d="M152.839 169.53c-2.973 0-5.376 1.693-5.376 3.769 0 2.091 2.403 3.784 5.376 3.784 2.972 0 5.376-1.693 5.376-3.784 0-2.076-2.404-3.769-5.376-3.769zm48 0c-2.973 0-5.376 1.693-5.376 3.769 0 2.091 2.403 3.784 5.376 3.784 2.972 0 5.376-1.693 5.376-3.784 0-2.076-2.404-3.769-5.376-3.769z" fill="#c6363c"/>
    <path d="M223.069 170.821c-2.973 0-5.376 1.693-5.376 3.769 0 2.091 2.403 3.784 5.376 3.784 1.422 0 2.705-.395 3.665-1.028 1.045-.689 1.707-1.661 1.71-2.749l.001-.006c0-2.077-2.404-3.77-5.376-3.77zm-51.662 2.207c0 2.09 2.404 3.782 5.377 3.782 2.972 0 5.376-1.693 5.376-3.782 0-2.077-2.404-3.77-5.376-3.77-2.973 0-5.376 1.693-5.376 3.77z" fill="#0c4076"/>
    <path d="M143.847 332.75l-.767-4.072c-2.324 5.772-3.744 8.575-7.925 8.296-5.774-.384-9.856-1.365-9.856.967 0 2.319 9.173 1.351 9.173 1.351s-8.66 3.698-6.955 7.937c1.693 4.266 9.16-5.405 9.16-5.405s1.52.383 4.408-1.949c1.39-1.116 3.881-4.3 6.091-7.303l-.699-4.275-2.63 4.453zm66.618 0l-2.631-4.451-.514 3.141c2.386 3.291 5.353 7.178 6.92 8.436 2.888 2.333 4.409 1.949 4.409 1.949s7.466 9.671 9.159 5.405c1.706-4.239-6.955-7.936-6.955-7.936s9.158.967 9.158-1.351c0-2.333-4.067-1.352-9.841-.968-4.579.305-5.846-3.079-8.615-10.017l-1.09 5.792z" fill="#edb92e"/>
    <g fill="#fff">
        <path d="M241.426 301.334c3.158-13.924 1.579-30.223 1.579-30.223s2.901-30.82.399-48c-2.503-17.18-18.674-11.847-25.543 0-6.87 11.848-12.813 18.959-19.157 10.666-4.899-6.388-8.506-13.133-5.705-21.045-4.794-1.378-12.149-5.003-7.796-9.177 4.488-4.305 13.792-9.525 20.604-11.723-2.06-4.158-7.127-2.676-13.987.16-7.865 3.272-12.842 1.778-12.075 5.348.796 3.555 3.684 3.84 3.684 3.84s-4.964 4.85-6.273 21.532c-1.309-16.682-6.272-21.532-6.272-21.532s2.887-.285 3.684-3.84c.767-3.57-4.21-2.076-12.076-5.348-6.86-2.835-11.927-4.317-13.987-.16 6.813 2.198 16.116 7.418 20.605 11.723 4.353 4.174-3.004 7.799-7.799 9.177 2.798 7.912-.815 14.657-5.702 21.045-6.344 8.292-12.288 2.077-19.158-9.785-6.869-11.847-23.04-17.18-25.542 0s.398 47.12.398 47.12-1.578 16.298 1.58 30.222c3.143 13.924 4.977 26.367 0 37.035 5.503-1.479 8.917-8.59 8.917-8.59s-1.835 8.59 1.578 7.709c3.414-.897 4.195-7.41 6.813-9.785 2.631-2.375 4.736-7.71 4.736-7.71s5.504-2.062 0 7.112c4.451.299 7.353-2.66 7.353-2.66l.797 4.234.768 4.072 2.631-4.451.699 4.275.61 3.732 4.721-7.708 3.1 3.555s.37-9.527 2.622-11.97c-7.62-5.808-12.543-14.979-12.543-25.299v-8.52h-.004v-13.696h.004V240h24.941v-.001h13.681V240h24.937v54.884c0 10.492-5.092 19.796-12.934 25.586 2.045 2.824 2.389 11.684 2.389 11.684l3.1-3.555 4.72 7.708.796-4.866.514-3.141 2.63 4.451 1.092-5.794.474-2.512s2.887 2.959 7.352 2.66c-5.504-9.174 0-7.111 0-7.111s2.105 5.333 4.721 7.708c2.632 2.375 3.414 8.89 6.827 9.785 3.413.882 1.578-7.708 1.578-7.708s3.414 7.111 8.918 8.59c-4.976-10.668-3.141-23.112.001-37.035z"/>
        <path d="M198.702 356.743c-2.16-3.555-6.357-9.77-6.357-9.77s2.888-2.39 0-8.307c-2.141-4.408-2.534-10.972-.865-15.255a31.637 31.637 0 0 1-14.02 3.259 31.608 31.608 0 0 1-14.798-3.659c1.863 4.265 1.512 11.104-.71 15.655-2.872 5.917 0 8.307 0 8.307s-4.195 6.215-6.342 9.77c-2.148 3.555 1.109 7.708 1.109 7.708s-8.135 12.146-5.874 16.881c2.19 4.552 15.744 7.453 25.657 7.667.03 0 .058.042.1.042.172 0 .37-.013.555-.013s.384.013.555.013c.043 0 .058-.042.1-.042 9.913-.214 23.467-3.115 25.658-7.666 2.275-4.737-5.874-16.882-5.874-16.882s3.254-4.152 1.106-7.709z"/>
    </g>
    <path d="M169.111 203.555c-4.489-4.305-13.792-9.525-20.605-11.723-2.684-.866-4.982-1.263-6.445-.95-5.177 1.124-9.33 4.68-5.475 10.227 3.854 5.561 5.475 5.334 5.475 5.334s6.159-5.547 8.833-2.447c2.66 3.115.441 4.224-4.452 4.665-4.878.455-9.856-2.887-9.856-2.887s1.608 5.774 8.405 6.442c4.565 4.452 10.325 1.109 13.226 1.109.63 0 1.765-.21 3.097-.592 4.792-1.378 12.149-5.003 7.797-9.178zm23.888 9.178c1.332.382 2.467.593 3.097.593 2.901 0 8.661 3.343 13.226-1.108 6.8-.67 8.405-6.443 8.405-6.443s-4.977 3.343-9.856 2.888c-4.892-.442-7.111-1.55-4.451-4.665 2.674-3.1 8.833 2.446 8.833 2.446s1.62.227 5.475-5.334c3.853-5.546-.3-9.102-5.475-10.226-1.464-.314-3.762.084-6.445.95-6.813 2.197-16.117 7.417-20.605 11.722-4.353 4.173 3 7.798 7.796 9.176zm-51.215 145.656c1.949-4.494.582-5.134-.981-6.699-1.58-1.55-2.362-3.713-2.362-3.713s-.782 2.162-2.346 3.713c-1.579 1.565-2.944 2.205-.995 6.699-4.75-2.801-5.519 2.332-3.342 5.447.61-2.801 4.337-2.176 4.337 1.251 0 3.414-3.1 1.863-2.716 3.258.384 1.407 3.2 4.353 5.062 4.353s4.694-2.944 5.063-4.353c.384-1.394-2.703.156-2.703-3.257 0-3.428 3.698-4.054 4.324-1.252 2.191-3.115 1.41-8.25-3.341-5.447zm77.341 0c1.949-4.494.583-5.134-.995-6.699-1.579-1.55-2.346-3.713-2.346-3.713s-.783 2.162-2.361 3.713c-1.58 1.565-2.93 2.205-.996 6.699-4.736-2.801-5.518 2.332-3.327 5.447.611-2.801 4.324-2.176 4.324 1.251 0 3.414-3.087 1.863-2.703 3.258.37 1.407 3.186 4.353 5.063 4.353 1.862 0 4.679-2.944 5.062-4.353.384-1.394-2.716.156-2.716-3.257 0-3.428 3.713-4.054 4.338-1.252 2.174-3.115 1.407-8.25-3.343-5.447z" fill="#edb92e"/>
    <path fill="#c6363c" d="M142.575 235.916h31.178v40.834h-31.178z"/>
    <path d="M170.63 239.999v32.669h-24.945v13.696h24.945v39.524c2.205.483 4.48.782 6.841.782 2.346 0 4.636-.299 6.841-.782v-39.524h24.932v-13.696h-24.932v-32.669H170.63z" fill="#eee"/>
</svg>
