<svg xmlns="http://www.w3.org/2000/svg" viewBox="0 0 512 512"><path d="M512 384c0 31.418-25.473 56.889-56.889 56.889H56.89C25.472 440.889 0 415.417 0 384V128c0-31.418 25.472-56.889 56.889-56.889H455.11C486.53 71.111 512 96.584 512 128v256z" fill="#20603d"/><path d="M512 369.778H0v-99.555h512v99.555z" fill="#fad201"/><path d="M455.111 71.111H56.89C25.472 71.111 0 96.582 0 128v170.666h512V128c0-31.418-25.473-56.889-56.889-56.889" fill="#00a1de"/><path d="M369.778 71.111l7.438 57.373 22.002-53.504-7.667 57.344 35.115-45.967-22.243 53.405 45.795-35.327-35.314 45.824L468.324 128l-45.995 35.115 57.359-7.68-53.504 22.016 57.372 7.439-57.372 7.424 53.504 22.016-57.36-7.666 45.996 35.115-53.419-22.258 35.314 45.824-45.795-35.327 22.244 53.418-35.116-45.995 7.667 57.344-22.002-53.49-7.438 57.373-7.424-57.373-22.03 53.49 7.68-57.344-35.115 45.995 22.244-53.418-45.795 35.327 35.3-45.824-53.405 22.258 45.98-35.115-57.33 7.666 53.475-22.016L256 184.89l57.359-7.439-53.475-22.016 57.33 7.68L271.233 128l53.405 22.258-35.3-45.824 45.795 35.327-22.244-53.405 35.115 45.967-7.68-57.344 22.03 53.504 7.424-57.372z" fill="#fad201"/><path d="M426.666 184.889c0 31.417-25.472 56.889-56.888 56.889-31.432 0-56.89-25.473-56.89-56.89 0-31.43 25.458-56.888 56.89-56.888 31.417 0 56.888 25.457 56.888 56.889" fill="#00a1de"/><path d="M412.445 184.889c0 23.566-19.1 42.666-42.666 42.666-23.566 0-42.666-19.1-42.666-42.666s19.1-42.666 42.666-42.666c23.565 0 42.666 19.1 42.666 42.666" fill="#fad201"/></svg>