<svg xmlns="http://www.w3.org/2000/svg" viewBox="0 0 512 512">
    <path d="M455.111 71.111H56.89C25.472 71.111 0 96.582 0 128v256c0 31.418 25.472 56.889 56.889 56.889H455.11c31.42 0 56.89-25.473 56.89-56.889V128c0-31.418-25.473-56.889-56.889-56.889" fill="#006c35"/>
    <g fill="#fff">
        <path d="M120.846 174.123c-.64 8.746-1.422 24.12 6.002 25.7 8.988.867 4.025-15.204 7.28-18.12.612-1.436 1.75-1.436 1.836.37v13.64c-.071 4.422 2.845 5.73 5.091 6.64 2.361-.17 3.94-.1 4.864 2.19.37 7.852.725 15.716 1.095 23.58 0 0 5.475 1.566 5.731-13.268.256-8.704-1.735-15.986-.569-17.679.043-1.664 2.162-1.764 3.642-.952 2.346 1.65 3.398 3.697 7.04 2.887 5.56-1.536 8.888-4.239 8.973-8.491-.327-4.054-.782-8.106-2.531-12.16.241-.74-1.066-2.645-.825-3.385.995 1.565 2.503 1.436 2.859 0-.953-3.115-2.418-6.101-4.793-7.395-1.962-1.721-4.835-1.365-5.887 2.247-.484 4.153 1.494 9.088 4.522 13.113.654 1.579 1.55 4.195 1.153 6.556-1.621.91-3.229.54-4.58-.896 0 0-4.423-3.314-4.423-4.054 1.18-7.509.27-8.362-.383-10.439-.455-2.872-1.82-3.797-2.915-5.76-1.11-1.166-2.603-1.166-3.314 0-1.963 3.385-1.053 10.653.37 13.91 1.01 3 2.574 4.878 1.835 4.878-.611 1.692-1.863 1.294-2.774-.654-1.309-4.039-1.565-10.069-1.565-12.771-.399-3.371-.811-10.539-3.029-12.359-1.351-1.835-3.356-.952-4.053.74-.143 3.328-.172 6.67.213 9.743 1.522 5.405 1.992 10.14 2.732 15.672.198 7.395-4.282 3.2-4.068-.455 1.024-4.765.754-12.274-.156-14.18-.725-1.891-1.593-2.375-3.371-2.062-1.394-.072-5.02 3.868-6.03 10.425 0 0-.868 3.385-1.238 6.371-.497 3.385-2.731 5.774-4.295-.469-1.353-4.537-2.178-15.73-4.439-13.113"/>
        <path d="M145.251 209.991c-7.936 3.869-15.601 7.481-23.395 11.235.285-5.305 11.121-14.876 18.518-15.019 4.806.143 3.597 1.878 4.877 3.784"/>
        <path d="M165.789 213.334c-.256.484-1.38.285-2.205.285-.939-.029-1.38-.199-1.949-.953-.27-.853.54-1.678.896-2.303.441-.754 2.816-1.537 3.655.582.37.924.043 1.905-.397 2.389m36.465-11.62c-.185 1.123-.355 2.247-.526 3.371-.214 1.095-2.39 1.137-2.476-.256-.952-4.338-4.906-4.907-7.296 1.82-1.607 1.308-4.508 1.578-4.807-.384.384-4.509-1.451-5.12-5.091-3.001-1.167-8.932-2.333-17.479-3.513-26.425 1.521-.058 2.915 1.081 4.295-.654-1.521-4.736-4.736-14.421-6.514-15.104-.867-1.052-1.607-.399-2.731-.142-1.906.611-3.684 2.261-3.129 5.475 2.262 13.725 3.74 24.177 6.002 37.902.34 1.608-1.01 3.726-2.745 3.513-2.944-1.992-3.684-6.045-8.72-5.86-3.654.042-7.822 3.982-8.348 7.807-.597 3.044-.825 6.343 0 8.989 2.574 3.086 5.646 2.787 8.349 2.091 2.205-.925 4.039-3.129 4.807-2.602.527.64.143 7.936-10.411 13.54-6.386 2.858-11.462 3.512-14.194-1.693-1.692-3.257.128-15.63-4.038-12.771-12.332 31.786 28.857 36.21 33.465 1.309.44-1.437 2.176-2.873 2.475-.527-.953 31.602-31.858 33.778-37.107 23.837-1.308-2.347-1.706-7.553-1.835-10.682-.782-6.2-4.038-3.81-4.551 2.347-.526 3.427-.399 4.38-.399 7.68 1.65 24.96 41.473 14.236 47.929-6.372 3.428-11.42-.555-19.84 1.309-19.81 3.94 4.265 9.457.582 10.666-.897.526-.74 1.835-1.224 2.745-.27 3.086 2.219 8.505 1.166 9.643-2.731.64-3.812 1.166-7.765 1.293-11.848-2.513.783-4.376 1.295-4.547 2.348"/>
        <path d="M203.79 167.537h-.014c-.753.185-1.721-.483-2.161-1.478-.455-1.01-.214-1.949.526-2.134h.014c.74-.185 1.706.484 2.161 1.479.455.996.214 1.949-.526 2.133m2.105 0c2.901-1.692 1.978-5.405.455-7.097-2.517-1.137-4.707-.767-6.315.057-2.034 1.963-2.517 5.092-.91 7.04 1.565.74 3.129 2.32 2.076 3.187-4.792 5.134-17.92 13.966-16.398 14.265.327.426 8.39.412 8.647 0 2.489-.91 14.208-14.322 14.208-14.322-.612-.526-1.153-.91-1.764-1.436-.653-.57-.582-1.125.001-1.694m-83.229 64.954c-4.395 6.998-4.779 17.465-2.346 20.58 1.28 1.479 3.399 2.134 4.978 1.664 2.744-1.195 3.967-6.799 3.3-8.846-.91-1.437-1.636-1.664-2.56-.442-1.934 3.954-2.76 1.238-2.916-.967-.298-4.181.1-8.035.54-11.079.484-3.129 0-2.176-.996-.91m187.877-11.222c-4.267-9.159-10.14-18.19-12.018-21.66-1.877-3.485-16.014-23.993-18.076-26.298-4.594-5.461 7.439 2.275-1.536-8.561-3.428-2.944-3.627-3.115-6.472-5.519-1.422-1.024-4.921-2.872-5.546.199-.312 2.716-.142 4.195.313 6.457.34 1.508 2.546 4.04 3.626 5.49 14.35 19.285 27.051 38.755 39.325 63.218 1.934-.91 1.507-11.804.384-13.326"/>
        <path d="M291.882 251.875c-.838.939 2.063 4.964 5.832 4.964 6.315-.74 11.847-4.281 16.981-13.596 1.38-2.177 3.797-6.827 3.869-10.425.468-21.134-1.053-37.59-4.224-52.864-.214-1.494-.085-3.243.171-3.684.399-.484 1.793 0 2.518-1.195 1.081-1.109-2.859-10.211-5.107-13.725-.782-1.565-1.066-2.617-2.388.185-1.394 2.275-2.319 6.244-2.205 9.941 3.001 20.822 3.925 39.027 5.887 59.833.171 2.02-.142 4.949-1.479 6.101-4.936 5.179-12.09 11.536-19.855 14.465m85.12-.114c-4.508 2.631-4.522 5.633-.867 5.731 6.3-.725 13.739-1.25 18.887-9.002 1.365-2.176 3.015-8.05 3.073-11.662.484-21.134-.27-36.907-3.441-52.182-.199-1.493-.854-4.921-.612-5.361.413-1.052 2.46.114 3.2-1.095 1.082-1.095-5.318-9.315-7.552-12.814-.811-1.579-1.095-2.617-2.404.171-1.394 2.275-1.877 6.358-1.322 9.955 3.342 22.6 5.831 39.58 6.342 59.605-.285 1.907-.355 2.93-1.251 5.32-1.963 2.53-4.153 5.702-6.201 7.224s-6.415 2.988-7.852 4.11"/>
        <path d="M380.387 231.509c-.042-5.291.085-9.841-.1-13.795-.17-3.94-.853-7.154-2.232-9.941-1.294-3.002-.484-5.42-1.095-8.605-.598-3.2-.441-7.98-1.365-11.777-.241-1.478-1.024-6.228-.796-6.67.383-1.066 1.792.029 2.488-1.195 1.053-1.137-3.598-13.17-5.958-16.597-.839-1.536-2.389-1.01-4.282 1.494-1.748 1.635-1.108 5.405-.44 8.973 4.537 23.595 7.893 44.957 7.153 67.414-.214 1.921 6.685-5.689 6.627-9.301m-33.393-29.269c-2.845-.057-8.804-5.533-10.539-8.746-.654-1.849-.241-3.641.341-4.694 1.039-.683 2.674-1.451 3.883-.725 0 0 1.266 1.764 1.01 1.991 1.55.74 2.205.313 2.375-.312.1-1.109-.455-1.764-.469-2.986.669-3.314 4.438-3.812 5.86-1.707 1.039 1.28 1.408 4.011 1.579 5.845-.014.953-1.536-.156-2.418.071-.853.228-1.066 1.223-1.137 2.12-.158 2.402-.428 6.242-.485 9.143M294.5 237.369c.782-7.183-.285-19.968-.355-24.206-.299-10.013-1.934-29.355-2.716-32.583-.868-6.087 2.517.669 2.047-2.872-1.095-6.073-4.48-10.198-8.434-15.773-1.28-1.806-1.237-2.176-3.213.455-2.19 4.949-.299 8.363.27 12.218 2.859 12.572 4.522 24.135 5.305 35.57.782 11.448 1.01 23.807.312 35.853 2.133.084 5.575-3.471 6.784-8.662"/>
        <path d="M390.072 225.849c-5.02-8.42-12.586-17.521-14.592-20.921-2.034-3.385-19.129-25.444-21.319-27.663-6.244-6.571 2.888-1.066-1.18-6.144-3.456-3.782-4.451-4.964-7.395-7.239-1.479-.952-2.375-2.773-2.859.342-.184 2.716-.398 5.874-.213 8.177 0 1.28 1.322 3.669 2.475 5.091 15.161 18.632 31.701 37.66 45.014 61.568 1.904-.994 1.278-11.732.07-13.211m-179.272-58.88c-4.565 13.041 2.618 27.321 7.595 25.941 3.599 1.479 5.888-5.347 7.353-12.842 1.01-2.106 1.763-2.32 2.275-1.252-.128 9.97.725 12.174 3.285 15.189 5.703 4.409 10.425.569 10.808.199l4.438-4.452c.981-1.038 2.304-1.108 3.697-.185 1.365 1.238 1.18 3.372 4.082 4.85 2.446.982 7.68.228 8.888-1.89 1.635-2.788 2.034-3.756 2.774-4.808 1.166-1.55 3.158-.868 3.158-.37-.185.867-1.351 1.721-.555 3.285 1.394 1.038 1.706.37 2.531.142 2.901-1.394 5.063-7.694 5.063-7.694.127-2.346-1.18-2.147-2.034-1.663-1.124.668-1.18.896-2.304 1.578-1.407.214-4.168 1.153-5.504-.952-1.394-2.531-1.422-6.059-2.475-8.605 0-.199-1.849-4.025-.127-4.266.867.156 2.716.64 3.001-.91.896-1.508-1.949-5.803-3.882-7.965-1.707-1.863-4.054-2.076-6.3-.185-1.593 1.465-1.365 3.086-1.68 4.636-.398 1.764-.312 3.954 1.494 6.3 1.58 3.115 4.467 7.125 3.513 12.771 0 0-1.693 2.674-4.622 2.333-1.223-.27-3.214-.796-4.267-8.633-.811-5.916.185-14.222-2.332-18.105-.91-2.346-1.565-4.607-3.783-.597-.597 1.579-3.157 3.967-1.294 8.889 1.508 3.115 2.12 8.192 1.437 13.852-1.053 1.608-1.28 2.148-2.66 3.755-1.934 2.076-4.025 1.55-5.633.768-1.507-1.01-2.674-1.537-3.371-4.75.127-5.12.412-13.512-.526-15.29-1.38-2.758-3.655-1.763-4.623-.924-4.679 4.266-6.997 11.477-8.405 17.222-1.294 4.195-2.674 2.987-3.641 1.294-2.358-2.202-2.515-19.51-5.374-16.666"/>
        <path d="M253.639 231.14c-2.873.981-5.618 1.749-5.633 5.903 1.053 5.773-1.465 3.782-2.958 3-1.778-1.265-6.742-4.323-7.44-10.922-.113-1.578 1.125-2.901 3.1-2.901 2.973.825 7.368.868 11.18 1.266 3.102.198 4.652 2.629 1.75 3.654m10.753-27.022c.413-.683 1.721-.64 2.959.07 1.238.726 1.934 1.85 1.536 2.532-.399.683-1.735.64-2.972-.085-1.239-.711-1.922-1.835-1.523-2.517zm20.65 15.886l-26.752-.128c-1.38-.526-.981-.981 0-1.351 6.386-.867 17.749-2.731 18.489-13.625-.114-5.689-2.433-9.401-9.416-10.439-5.106.399-8.76 5.361-8.177 10.823-.241 1.465.484 4.337-1.01 4.665-9.828.91-20.538 7.04-20.893 11.448-.61.413-1.933-.782-1.763-2.66-.384-7.608-2.873-16.213-6.755-22.855-3.1-3.086-2.134-2.062-4.21-.597-1.338 1.536-1.579 2.589-1.508 5.646 0 .1 2.503 7.098 4.623 11.989 1.407 5.006 2.745 10.753 1.777 16.156-3.3 7.168-9.927 13.597-16.341 17.082-3.3 1.066-6.115.682-6.826-.058-2.02-1.351-1.92-3.882-1.778-3.925 5.39-3.769 11.563-6.799 16.399-16.939 1.422-3.882 1.849-6.215.441-12.217-.569-2.248-1.28-4.068-2.801-5.66.854-.555 3.356 1.322 3.726.199-.555-2.873-2.502-6.713-4.707-8.675-1.92-1.75-4.012-1.95-5.76-.356-1.992 1.11-2.418 5.078-1.465 8.534 1.052 2.618 3.911 3.058 5.958 8.32 0 .114.74 3.925-.312 5.419-.839 2.617-11.719 11.165-12.331 11.549-.299.37-.157-.185-.199-1.608-.085-1.735.698-5.831.484-5.86-3.542 2.29-4.722 9.302-5.362 11.378-8.96 6.201-19.1 10.809-24.96 17.081-3.057 4.765 21.02-5.475 23.823-6.712.611.468.54 2.602 2.232 4.537 2.49 3.385 7.794 5.475 12.972 4.181 8.69-3.142 13.696-9.06 18.787-15.616.725-1.066 1.863-1.877 2.915-1.066 3.499 7.851 13.611 13.382 26.653 13.966 3.028-3.669 1.565-5.447.355-6.229 0-.113-6.457-2.56-7.424-5.006-.598-2.205.839-4.167 3.755-5.646 8.377-1.01 16.611-2.134 24.576-4.694.085-2.674 1.635-6.685 2.703-8.42 1.052-1.749 1.607-1.209 1.436-1.849l-1.354-.782zm-130.502-52.893c3.072 1.479 8.875.854 8.619-4.125 0-.426-.114-1.92-.157-2.319-.626-1.465-2.332-1.108-2.731.413-.114.484.214 1.294-.227 1.55-.257.256-1.238.1-1.195-1.266 0-.442-.328-.91-.513-1.18-.199-.143-.327-.172-.682-.172-.427.014-.427.128-.654.498-.1.355-.241.711-.241 1.137-.058.484-.228.654-.598.725-.399 0-.312.043-.626-.156-.199-.214-.441-.299-.441-.654 0-.37-.085-.967-.2-1.222-.17-.228-.44-.328-.753-.413-1.679.014-1.792 1.92-1.692 2.66-.128.13-.2 3.572 2.09 4.524"/>
        <path d="M244.75 205.255c3.086 1.465 10.411.626 8.619-4.125 0-.441-.1-1.92-.156-2.333-.627-1.45-2.333-1.095-2.732.413-.113.497.228 1.309-.227 1.55-.256.27-1.238.114-1.195-1.266 0-.442-.328-.897-.513-1.18-.198-.128-.327-.157-.682-.157-.426.014-.413.128-.654.484-.1.37-.241.725-.241 1.138-.043.497-.228.668-.583.74-.412 0-.312.042-.64-.157-.198-.213-.441-.298-.441-.653 0-.384-.085-.982-.199-1.238-.156-.214-.441-.312-.74-.399-1.692.014-1.806 1.92-1.706 2.645-.129.143-.2 3.585 2.09 4.538m52.623-15.815c3.072 1.479 8.86.854 8.605-4.125 0-.426-.1-1.92-.143-2.319-.626-1.465-2.332-1.095-2.731.413-.114.484.214 1.294-.228 1.55-.256.256-1.237.1-1.195-1.266 0-.442-.341-.91-.512-1.18-.199-.143-.328-.172-.683-.172-.426.029-.426.128-.653.498-.1.37-.242.711-.242 1.137-.057.484-.227.669-.597.725-.399 0-.313.043-.64-.156-.185-.214-.426-.285-.426-.654s-.085-.967-.2-1.222c-.17-.228-.44-.328-.753-.399-1.679 0-1.792 1.92-1.693 2.645-.128.13-.2 3.573 2.09 4.525m27.25 39.709c-5.36 6.045-3 16.042-1.792 18.205 1.764 3.527 3.2 5.802 6.641 7.552 3.129 2.304 5.561.868 6.913-.754 3.157-3.27 3.2-11.604 4.678-13.268 1.04-3.044 3.655-2.518 4.922-1.166 1.237 1.763 2.673 2.9 4.48 3.868 2.943 2.603 6.456 3.073 9.927.698 2.361-1.323 3.898-3.044 5.291-6.443 1.537-4.11.683-23.125.37-34.389-.127-.88-3.057-15.487-3.057-15.658 0-.157-.384-7.467-.711-9.202-.058-.697-.228-.91.512-.81.768.653.881.697 1.365.924.796.128 1.508-1.208 1.039-2.446-2.446-4.522-4.906-9.031-7.353-13.54-.582-.582-1.35-1.222-2.275.156-.91.783-1.848 2.205-1.82 4.025.228 3.214.783 6.472.995 9.685.982 5.49 1.963 10.98 2.93 16.469.94 11.761 1.167 21.361 2.092 33.109-.128 4.977-1.664 9.315-3.129 9.941 0 0-2.205 1.28-3.684-.127-1.081-.442-5.39-7.183-5.39-7.183-2.205-2.02-3.655-1.436-5.22 0-4.324 4.181-6.272 11.989-9.201 17.365-.768 1.209-2.901 2.233-5.276-.085-6.02-8.236-2.493-19.941-3.247-16.926m-25.813-68.523c2.758 1.153 4.707 6.741 4.067 9.473-.54 3.371-2.005 7.011-3.057 6.542-1.153-.426.782-3.356-.313-6.429-.611-2.005-4.38-5.66-3.996-6.74-.769-2.263 1.621-3.245 3.299-2.846"/>
        <path d="M333.498 232.463c.582-6.713-.4-10.795-.57-14.75-.184-3.924-4.466-34.02-5.333-36.992-1.039-5.646 4.167-.754 3.599-4.039-1.807-4.138-6.3-10.154-7.709-13.752-.854-1.536-.484-2.901-2.389-.399-1.749 5.746-2.361 10.454-1.692 14.023 4.522 23.609 9.145 43.221 8.42 65.678 2.146.03 4.621-4.906 5.673-9.77m47.118-62.365c2.517 1.252 3.982 8.25 3.713 10.254-.498 3.641-1.835 7.595-2.802 7.083-1.039-.469.214-5.419-.285-6.969-.555-2.161-3.982-6.115-3.626-7.281-.713-2.446 1.464-3.513 3-3.086m-186.823 49.678c2.404.925 3.812 6.059 3.542 7.538-.469 2.674-1.749 5.575-2.674 5.191-.981-.328.214-3.967-.27-5.106-.199-2.745-3.541-4.168-3.47-5.348-.626-2.19 1.393-2.588 2.873-2.275m-64.286-60.815c3.555 1.066 3.755 6.286 3.5 7.808-.485 2.787-1.736 5.789-2.632 5.39-.981-.341-.043-4.125-.512-5.291-.527-1.664-3.528-4.665-3.187-5.562-.667-1.861 1.367-2.671 2.832-2.345m70.029 24.648c-2.716 1.478-3.782 5.86-2.076 8.405 1.579 2.261 4.081 1.422 4.409 1.422 2.674.328 4.253-5.006 4.253-5.006s.085-1.494-3.087 1.351c-1.337.241-1.494-.256-1.835-1.01-.27-1.38-.214-2.773.413-4.167.483-1.323-.554-1.905-2.077-.995m20.452-26.653c-1.365.91-4.096 3.74-4.181 6.983-.072 1.835-.413 1.835.782 3.001.867 1.251 1.749 1.137 3.499.214 1.01-.725 1.337-1.223 1.679-2.46.412-2.091-2.205.981-2.532-1.338-.582-2.161 1.095-3.029 2.674-5.12.056-1.422.028-2.431-1.921-1.28m16.456 2.917c-.597 1.293-1.294 8.106-1.18 8.106-.469 2.02 2.119 2.887 3.3.285 1.764-4.779 1.764-6.799 1.891-8.833-.556-3.086-2.632-2.986-4.011.441m103.708 52.751c.34-.355 14.606-10.497 14.606-10.497 1.465-.512 1.137 5.234.484 5.191.27 1.138-14.08 10.88-15.09 10.482-.712.512-1.422-3.925 0-5.177m12.999.001c2.518 1.25 3.513 8.605 3.23 10.61.1 3.882-2.405 6.997-3.372 6.485-1.039-.455.085-4.822-.413-6.372-.555-2.161-2.687-6.243-2.318-7.41-.712-2.446 1.337-3.741 2.873-3.313m-84.821 31.601c.981-1.451 4.054-3.528 4.125-3.528 1.423-.711 2.788.555 2.703.469.241 1.422-.881 2.716-.54 4.607.312.768.54 1.622 1.933 1.294 2.262-1.792 4.367-1.906 6.628-2.005 1.735.085 1.806 3.029.711 3.044-4.181.925-6.059 2.034-9.045 3.186-1.422.825-2.631-.227-2.631-.341 0-.114-.825-.811-.241-2.688.1-1.493-.498-2.318-1.749-2.147-.953.512-1.778.839-2.248-.241-.187-.783-.258-1.18.354-1.65m99.825 3.968c.611.783 1.01 1.48-.042 2.76-.995.924-1.706 1.435-2.703 2.345-.484.812-.782 2.034.669 2.418 2.66.754 8.832-3.243 8.832-3.328.995-.753.654-2.16.583-2.16-.583-.67-1.891-.286-2.788-.4-.412 0-1.806-.198-1.137-1.422.54-.754.74-1.223 1.109-2.161.426-.91.057-1.522-1.437-2.02-1.536-.285-2.147-.143-3.84 0-.91.185-1.223.597-1.38 1.706.072 1.679 1.082 1.594 2.134 2.263m-5.49 78.918h-21.334V320a7.114 7.114 0 0 0-7.11-7.111A7.114 7.114 0 0 0 327.11 320v7.111H156.444s0 14.223 42.666 14.223h128v7.111a7.114 7.114 0 0 0 7.111 7.111 7.114 7.114 0 0 0 7.111-7.111v-7.111h14.223v7.111a7.114 7.114 0 0 0 7.111 7.111 7.114 7.114 0 0 0 7.111-7.111v-14.223a7.114 7.114 0 0 0-7.11-7.11"/>
    </g>
</svg>
