<svg xmlns="http://www.w3.org/2000/svg" viewBox="0 0 512 512">
    <path d="M455.111 71.111H56.889C25.472 71.111 0 96.583 0 128v256c0 12.48 4.03 24.013 10.844 33.393a57.11 57.11 0 0 0 5.224 6.209 57.182 57.182 0 0 0 7.033 6.162l188.353-90.686-188.347 90.689a56.735 56.735 0 0 0 6.297 4.042 56.608 56.608 0 0 0 27.485 7.079h398.222C486.528 440.889 512 415.417 512 384V127.776c0-31.313-25.547-56.665-56.889-56.665z" fill="#007a3d"/>
    <path d="M512 127.776c0-31.313-25.547-56.665-56.889-56.665H343.708L16.069 423.602a57.182 57.182 0 0 0 7.033 6.162L252.23 319.446 512 194.368v-66.592z" fill="#d62828"/>
    <path d="M343.703 71.111H170.667L10.844 417.393a57.11 57.11 0 0 0 5.224 6.209l327.64-352.491h-.005z" fill="#fcd856"/>
    <path d="M56.889 71.111C25.472 71.111 0 96.583 0 128v256c0 12.48 4.03 24.013 10.844 33.393L170.667 71.111H56.889z" fill="#003f87"/>
    <path d="M252.226 319.446L23.107 429.767a56.735 56.735 0 0 0 6.297 4.042L512 317.625v-123.26l-.006.003-259.768 125.078z" fill="#eee"/>
</svg>
