<svg xmlns="http://www.w3.org/2000/svg" viewBox="0 0 512 512">
    <path d="M0 384c0 31.417 25.472 56.889 56.889 56.889h398.222C486.528 440.889 512 415.417 512 384v-63.582H0V384z" fill="#141414"/>
    <path fill="#eee" d="M0 192.418h512v128H0z"/>
    <path d="M455.111 71.111H56.889C25.472 71.111 0 96.583 0 128v64.418h512V128c0-31.417-25.472-56.889-56.889-56.889z" fill="#d21034"/>
    <path d="M19.219 426.612L248.889 256 19.219 85.388C7.437 95.812 0 111.034 0 128v256c0 16.966 7.437 32.189 19.219 42.612z" fill="#007229"/>
</svg>
