<svg xmlns="http://www.w3.org/2000/svg" viewBox="0 0 512 512">
    <path d="M220.445 440.889h234.666c31.418 0 56.889-25.473 56.889-64v-85.334H220.445v149.334zM455.111 71.111H220.445v149.334H512V128c0-31.418-25.473-56.889-56.889-56.889m-305.777 0H56.889C25.486 71.111.029 96.555 0 127.957v92.488h149.334V71.111zM0 291.555v85.39c.029 38.5 25.486 63.943 56.889 63.943h92.445V291.553H0z" fill="#006aa7"/>
    <path d="M220.445 71.111h-71.111v149.334H0v71.111h149.334V440.89h71.111V291.556H512v-71.111H220.445V71.111z" fill="#fecc00"/>
</svg>
