<svg xmlns="http://www.w3.org/2000/svg" viewBox="0 0 512 512"><path d="M455.111 71.111H56.889C25.472 71.111 0 96.583 0 128v256c0 31.417 25.472 56.889 56.889 56.889h398.222C486.528 440.889 512 415.417 512 384V128c0-31.417-25.472-56.889-56.889-56.889z" fill="#eee"/><path d="M455.111 71.111H56.889C25.472 71.111 0 96.583 0 128v128h512V128c0-31.417-25.472-56.889-56.889-56.889z" fill="#ed2939"/><path d="M85.333 163.556c0-36.764 23.097-67.527 54.187-75.89-5.988-1.465-12.203-2.332-18.631-2.332-43.207 0-78.222 35.015-78.222 78.222s35.015 78.222 78.222 78.222c6.428 0 12.644-.868 18.631-2.332-31.09-8.363-54.187-39.126-54.187-75.89" fill="#fff"/><g fill="#eee"><path d="M170.667 99.556l3.2 9.828h10.325l-8.363 6.073 3.2 9.828-8.363-6.073-8.363 6.073 3.2-9.828-8.363-6.073h10.325l3.202-9.828zM142.222 199.111l3.2 9.828h10.325l-8.363 6.073 3.2 9.828-8.363-6.073-8.363 6.073 3.2-9.828-8.363-6.073h10.325l3.202-9.828zM199.111 199.111l3.2 9.828h10.325l-8.363 6.073 3.2 9.828-8.363-6.073-8.363 6.073 3.2-9.828-8.363-6.073h10.325l3.202-9.828zM128 142.222l3.2 9.828h10.325l-8.363 6.073 3.2 9.828-8.362-6.074-8.363 6.073 3.2-9.828-8.363-6.073H124.8l3.2-9.827zM213.333 142.222l3.2 9.828h10.325l-8.363 6.073 3.2 9.828-8.363-6.073-8.363 6.073 3.2-9.828-8.363-6.073h10.325l3.202-9.828z"/></g></svg>