<svg xmlns="http://www.w3.org/2000/svg" viewBox="0 0 512 512"><path d="M455.112 71.113H56.894C25.477 71.113.006 96.585.006 128.001v255.997c0 31.417 25.472 56.888 56.888 56.888h398.218c31.417 0 56.888-25.472 56.888-56.888V128.001c0-31.416-25.472-56.888-56.888-56.888z" fill="#00247d"/><path d="M270.224 256.001v-28.856l-100.977-70.699H94.882l142.178 99.555h33.165z" fill="#eee"/><path d="M270.224 235.834L156.86 156.446h-24.789l138.153 96.739v-17.351z" fill="#cf1b2b"/><path d="M115.199 156.446L0 238.45V256h47.387l142.193-99.555-74.381.001z" fill="#eee"/><path d="M152.38 156.446L10.444 256.001h24.561l142.178-99.555H152.38z" fill="#cf1b2b"/><path d="M237.072 71.114L94.895 170.669h74.366L270.224 99.97V71.114h-33.151z" fill="#eee"/><path d="M249.447 71.114l-142.163 99.555h24.788L270.226 73.93v-2.816h-20.778z" fill="#cf1b2b"/><path d="M142.226 170.669h47.331L48.315 71.757C32.087 74.214 18.117 83.527 9.43 96.65l132.794 92.95v-18.93z" fill="#eee"/><path d="M13.785 90.905l128.441 90.03v-10.268h10.154L24.589 81.184a57.286 57.286 0 0 0-10.804 9.721z" fill="#cf1b2b"/><path d="M270.224 128.002h-99.555V71.114H99.56v56.888H.005v71.11H99.56v56.89h71.11v-56.89h99.555v-71.11z" fill="#eee"/><g fill="#cf1b2b"><path d="M156.447 256.001h-42.666V71.115h42.666v184.886z"/><path d="M270.224 184.89H.005v-42.666h270.219v42.666z"/></g><path d="M390.683 334.402c-65.45-25.556-62.948-84.92-60.288-147.752l.143-3.555 2.943-1.991c5.39-3.698 31.374-10.88 59.789-10.88 28.43 0 54.4 7.182 59.789 10.88l2.93 2.006.156 3.541c2.646 62.834 5.162 122.196-60.301 147.753l-2.575 1.01-2.587-1.012z" fill="#eee"/><path d="M449.027 186.959c-3.882-2.659-28.173-9.628-55.765-9.628-27.576 0-51.867 6.969-55.765 9.628-2.687 63.715-3.967 117.488 55.765 140.812 59.748-23.323 58.454-77.097 55.766-140.812" fill="#ff0"/><path d="M336.613 227.556c.668 45.383 10.14 82.061 56.646 100.223 46.521-18.162 56.006-54.842 56.66-100.223H336.613z" fill="#8fc5ff"/><path d="M341.335 285.027h102.214s-11.99 46.222-50.29 46.222c-38.285 0-51.924-46.222-51.924-46.222" fill="#366cc9"/><path d="M349.336 254.38c2.39-6.385 7.695-15.416 9.77-15.701 2.09-.299 24.846 44.273 23.068 46.349-1.778 2.09-27.208 3.427-32.241 2.53-5.034-.88-.597-33.178-.597-33.178" fill="#5d3100"/><path d="M334.821 248.292c1.778-4.152 7.709-13.922 9.486-13.922s29.91 52.451 31.688 58.083c1.777 5.617-24.874 8.233-29.909 7.367-5.05-.855-11.265-51.528-11.265-51.528" fill="#cf6200"/><g fill="#ff0"><path d="M387.272 231.396h-1.863v53.93h1.864v-53.93zM406.216 229.916h-1.864v55.41h1.864v-55.41zM423.71 231.396h-1.864v53.93h1.864v-53.93z"/></g><path d="M360.002 271.612c2.817.783 14.777 7.41 22.172 9.628 8.889 2.659 21.987 2.319 25.544 2.319 3.554 0 10.338-10.383 13.312-10.383h17.793c2.673 0 1.762 17.778-5.05 17.778h-48c-4.437 0-19.554-13.91-22.498-15.403-2.974-1.478-5.79-4.636-3.272-3.938"/><g fill="#eee"><path d="M393.265 237.181a2.822 2.822 0 0 1-2.816 2.816h-9.856a2.822 2.822 0 0 1-2.817-2.816 2.822 2.822 0 0 1 2.816-2.816h9.857a2.823 2.823 0 0 1 2.816 2.816M412.099 234.363a2.822 2.822 0 0 1-2.816 2.816h-9.857a2.822 2.822 0 0 1-2.816-2.816 2.822 2.822 0 0 1 2.816-2.817h9.856a2.822 2.822 0 0 1 2.817 2.817M431.459 240.006a2.822 2.822 0 0 1-2.817 2.816h-9.856a2.822 2.822 0 0 1-2.816-2.816 2.822 2.822 0 0 1 2.816-2.816h9.856a2.822 2.822 0 0 1 2.817 2.816M431.459 255.559a2.822 2.822 0 0 1-2.817 2.816h-9.856a2.822 2.822 0 0 1-2.816-2.816 2.822 2.822 0 0 1 2.816-2.816h9.856a2.822 2.822 0 0 1 2.817 2.816M431.459 265.875a2.822 2.822 0 0 1-2.817 2.816h-9.856a2.822 2.822 0 0 1-2.816-2.816 2.822 2.822 0 0 1 2.816-2.816h9.856a2.822 2.822 0 0 1 2.817 2.816M412.099 244.737a2.822 2.822 0 0 1-2.816 2.817h-9.857a2.822 2.822 0 0 1-2.816-2.817 2.822 2.822 0 0 1 2.816-2.816h9.856a2.822 2.822 0 0 1 2.817 2.816M412.099 255.559a2.822 2.822 0 0 1-2.816 2.816h-9.857a2.822 2.822 0 0 1-2.816-2.816 2.822 2.822 0 0 1 2.816-2.816h9.856a2.822 2.822 0 0 1 2.817 2.816M412.099 265.875a2.822 2.822 0 0 1-2.816 2.816h-9.857a2.822 2.822 0 0 1-2.816-2.816 2.822 2.822 0 0 1 2.816-2.816h9.856a2.822 2.822 0 0 1 2.817 2.816M393.265 247.556a2.822 2.822 0 0 1-2.816 2.816h-9.856a2.822 2.822 0 0 1-2.817-2.816 2.822 2.822 0 0 1 2.816-2.816h9.857a2.822 2.822 0 0 1 2.816 2.816M393.265 258.375a2.822 2.822 0 0 1-2.816 2.816h-9.856a2.822 2.822 0 0 1-2.817-2.816 2.822 2.822 0 0 1 2.816-2.816h9.857a2.823 2.823 0 0 1 2.816 2.816M393.265 268.691a2.822 2.822 0 0 1-2.816 2.816h-9.856a2.822 2.822 0 0 1-2.817-2.816 2.822 2.822 0 0 1 2.816-2.816h9.857a2.824 2.824 0 0 1 2.816 2.816"/></g><g fill="#00d860"><path d="M390.224 298.236a2.512 2.512 0 0 0 2.517 2.518h42.965a2.512 2.512 0 0 0 2.518-2.518 2.512 2.512 0 0 0-2.518-2.517h-42.965a2.513 2.513 0 0 0-2.517 2.517M388.152 308.611a2.512 2.512 0 0 0 2.518 2.518h42.965c1.394 0 2.517-1.123 2.517-2.518s-1.122-2.517-2.517-2.517H390.67a2.51 2.51 0 0 0-2.518 2.517M381.626 318.985a2.512 2.512 0 0 0 2.518 2.517h42.965c1.394 0 2.517-1.122 2.517-2.517s-1.122-2.517-2.517-2.517h-42.965a2.515 2.515 0 0 0-2.518 2.517"/></g><path d="M367.89 188.32c.328-2.346 6.344-.455 8.704-2.531 2.361-2.063 8.775-7.083 14.009-.598 2.915 3.626 2.176 6.115 5.432 9.088 3.242 2.972 20.565 10.467 26.184 8.69-.285 3.555-5.334 5.334-5.334 5.334s4.765 3.54 5.361 7.695c.598 4.152-7.139-6.443-18.09-3.542-4.38 1.167-9.272 5.745-18.161 3.542-8.889-2.19-9.116-15.53-9.359-21.148-.084-2.05-8.972-4.98-8.746-6.53" fill="#ac5f1a"/><path d="M372.335 187.113c.426-1.905 5.176.056 7.254-1.48 2.047-1.507 7.637-5.162 11.434.485 2.118 3.128 1.35 5.12 3.81 7.766 2.433 2.616 16.016 9.912 20.722 8.86-.47 2.859-4.708 3.967-4.708 3.967s3.627 3.215 3.825 6.642c.214 3.398-5.347-5.76-14.478-4.125-3.642.655-7.937 4.038-15.004 1.635-7.096-2.375-6.385-13.27-6.186-17.85.072-1.662-6.968-4.663-6.669-5.9" fill="#eee"/><path d="M389.334 222.722a1.05 1.05 0 0 1-1.053 1.053c-.584 0-1.066-.47-1.066-1.052v-6.684c0-.584.484-1.053 1.066-1.053.584 0 1.053.47 1.053 1.053v6.684zM397.21 222.722a1.05 1.05 0 0 1-1.052 1.053c-.584 0-1.067-.47-1.067-1.052v-6.684c0-.584.484-1.053 1.066-1.053s1.053.47 1.053 1.053v6.684zM387.835 188.667c0 1.11-.896 2.007-2.006 2.007-1.11 0-1.992-.897-1.992-2.007s.882-2.006 1.992-2.006c1.11 0 2.006.897 2.006 2.006"/></svg>