<svg xmlns="http://www.w3.org/2000/svg" viewBox="0 0 512 512">
    <path d="M512 384c0 31.418-25.473 56.889-56.889 56.889H56.89C25.472 440.889 0 415.417 0 384V128c0-31.418 25.472-56.889 56.889-56.889H455.11C486.53 71.111 512 96.584 512 128v256z" fill="#0f47af"/>
    <path d="M512 327.111H0V184.89h512v142.22z" fill="#eee"/>
    <g fill="#1f601a">
        <path d="M248.349 302.891c3.499-10.866-8.661-12.885-8.661-12.885s.88 6.215-6.443 6.443c2.433 4.892.214 8.889-2.901 9.102 5.119 4.678 15.786 4.223 18.005-2.66m-18.063-6.585c6.728-8.22-3.142-14.109-3.142-14.109s-1.338 5.69-7.78 3.4c.469 5.048-2.816 7.78-5.589 6.912 2.844 5.802 12.245 9.031 16.511 3.797m-12.728-11.307c8.007-4.295 2.16-12.174 2.16-12.174s-2.943 4.039-7.267.128c-1.294 4.138-4.779 5.22-6.699 3.626.357 5.518 6.714 11.136 11.805 8.42m-4.921-14.35c8.448-1.721 5.277-10.468 5.277-10.468s-3.783 2.873-6.642-1.849c-2.303 3.4-5.76 3.428-7.068 1.48-1.167 5.105 3.072 11.932 8.433 10.837"/>
        <path d="M210.66 258.346c7.751-.057 6.471-8.334 6.471-8.334s-3.826 1.892-5.532-2.773c-2.631 2.602-5.675 2.02-6.5.071-1.92 4.31.64 11.065 5.561 11.036m1.82-11.732c6.045 2.076 6.998-5.618 6.998-5.618s-3.428.611-3.655-3.996c-2.66 1.592-4.893.241-5.063-1.706-2.519 3.283-2.12 9.997 1.72 11.32m4.651-9.714c3.015 1.764 6.4-4.096 6.4-4.096s-2.617-.939-1.962-5.248c-2.319 1.053-3.925.413-3.698-1.422-2.532 2.658-3.585 9.101-.74 10.766m44.316 65.991c-3.498-10.866 8.662-12.885 8.662-12.885s-.881 6.215 6.442 6.443c-2.432 4.892-.214 8.889 2.901 9.102-5.12 4.678-15.786 4.223-18.005-2.66m18.048-6.585c-6.727-8.22 3.142-14.109 3.142-14.109s1.352 5.69 7.78 3.4c-.468 5.048 2.83 7.78 5.604 6.912-2.859 5.802-12.245 9.031-16.526 3.797m12.744-11.307c-8.008-4.295-2.148-12.174-2.148-12.174s2.944 4.039 7.239.128c1.309 4.138 4.793 5.22 6.699 3.626-.342 5.518-6.699 11.136-11.79 8.42m4.92-14.35c-8.448-1.721-5.263-10.468-5.263-10.468s3.769 2.873 6.641-1.849c2.304 3.4 5.747 3.428 7.054 1.48 1.168 5.105-3.07 11.932-8.432 10.837"/>
        <path d="M299.094 258.346c-7.751-.057-6.471-8.334-6.471-8.334s3.826 1.892 5.546-2.773c2.617 2.602 5.675 2.02 6.485.071 1.906 4.31-.64 11.065-5.56 11.036m-1.793-11.732c-6.045 2.076-6.997-5.618-6.997-5.618s3.441.611 3.669-3.996c2.66 1.592 4.878.241 5.062-1.706 2.519 3.283 2.12 9.997-1.734 11.32m-4.636-9.714c-3.029 1.764-6.4-4.096-6.4-4.096s2.618-.939 1.963-5.248c2.318 1.053 3.91.413 3.683-1.422 2.532 2.658 3.584 9.101.754 10.766"/>
    </g>
    <path d="M260.353 302.961a5.676 5.676 0 0 1-5.69 5.675 5.675 5.675 0 0 1-5.688-5.675 5.678 5.678 0 0 1 5.689-5.689 5.68 5.68 0 0 1 5.689 5.69m-6.899-50.176l-26.439-28.345s-4.451 32.669 8.434 41.33c12.9 8.675 18.005-12.985 18.005-12.985" fill="#06209f"/>
    <path d="M239.715 238.066l-5.888-6.315s-3.028 25.359 9.857 34.034c-6.215-12.673-3.969-27.719-3.969-27.719" fill="#fff"/>
    <path d="M253.454 264.561L217.2 244.01s-1.777 21.106 4.565 31.331c6.358 10.226 29.654 10.88 32.897.881 3.228-9.996-1.21-11.66-1.21-11.66" fill="#06209f"/>
    <path d="M230.315 251.435l-6.799-3.854s-4.039 42.425 28.131 32.683c-21.29-.997-21.332-28.829-21.332-28.829" fill="#fff"/>
    <path d="M255.844 252.786l26.439-28.345s4.45 32.669-8.434 41.33c-12.9 8.675-18.005-12.985-18.005-12.985" fill="#06209f"/>
    <path d="M269.596 238.066l5.888-6.315s3.029 25.359-9.856 34.034c6.216-12.673 3.968-27.719 3.968-27.719" fill="#fff"/>
    <path d="M255.844 264.561l36.252-20.551s1.778 21.106-4.58 31.331c-6.342 10.226-29.639 10.88-32.881.881-3.229-9.996 1.209-11.66 1.209-11.66" fill="#06209f"/>
    <path d="M278.983 251.435l6.812-3.854s4.025 42.425-28.146 32.683c21.306-.997 21.334-28.829 21.334-28.829" fill="#fff"/>
    <path d="M253.454 217.558l-35.186 60.672h70.386l-35.2-60.673z" fill="#ffcc01"/>
    <path d="M223.204 275.371l30.251-52.152 30.251 52.152h-60.502z" fill="#fff"/>
    <path d="M231.865 260.438l-8.661 14.933h60.501l-8.661-14.934h-43.179z" fill="#017e93"/>
    <path d="M228.977 267.805s9.772-13.824 13.554-13.824 5.561 4.338 5.561 4.338 1.48-2.333 3.513-2.333c2.034 0 3.029 2.333 3.029 2.333s1.451-2.29 2.346-1.863c.881.413 3.797 3.968 3.797 3.968s.868-1.536 2.873-2.105c1.991-.555 3.328 2.105 3.328 2.105s1.962-4.21 2.417-2.105c.469 2.105 7.723 9.486 7.723 9.486h-48.14z" fill="#ffcc01"/>
    <path d="M256.995 245.12c0 1.479-1.209 2.688-2.688 2.688s-2.687-1.21-2.687-2.688 1.209-2.674 2.688-2.674 2.687 1.195 2.687 2.674" fill="#e60000"/>
    <path d="M199.111 230.969c-3.626 7.167-5.874 15.061-6.527 23.481l7.097.185c.626-7.381 2.618-14.321 5.831-20.623l-6.4-3.043zm67.641-26.425c9.003 1.891 17.053 6.101 23.894 11.747l4.906-5.148c-7.78-6.5-16.952-11.35-27.235-13.525l-1.565 6.926zm34.617 23.168c6.172 9.003 9.813 19.883 9.813 31.63 0 2.134-.383 4.168-.626 6.244l6.983 1.28c.299-2.502.754-4.949.754-7.524 0-13.198-4.068-25.415-10.98-35.555l-5.944 3.925zm-70.642 81.749a55.657 55.657 0 0 1-30.876-44.06l-7.026.783c2.389 22.001 15.9 40.476 34.973 49.749l2.93-6.472zm-19.001-85.035c10.269-12.786 25.841-21.149 43.52-21.149.355 0 .698.1 1.081.114.143-2.517.3-4.85.442-7.069-.526-.013-1.01-.156-1.521-.156-20.097 0-37.79 9.558-49.337 24.193 1.776 1.252 3.739 2.617 5.815 4.067m96.698 51.557c-4.694 15.005-15.374 27.25-29.411 33.877l2.887 6.485c15.829-7.439 27.904-21.205 33.237-38.101l-6.713-2.261z" fill="#ffcc01"/>
</svg>
