<svg xmlns="http://www.w3.org/2000/svg" viewBox="0 0 512 512"><path d="M455.111 71.111H56.889C25.472 71.111 0 96.583 0 128v256c0 31.417 25.472 56.889 56.889 56.889h398.222C486.528 440.889 512 415.417 512 384V128c0-31.417-25.472-56.889-56.889-56.889z" fill="#eee"/><path d="M455.111 71.111H56.889C25.472 71.111 0 96.583 0 128v56.889h512V128c0-31.417-25.472-56.889-56.889-56.889z" fill="#c00"/><path d="M0 384c0 31.417 25.472 56.889 56.889 56.889h398.222C486.528 440.889 512 415.417 512 384v-56.889H0V384z" fill="#060"/><g fill="#ffac33"><path d="M228.145 305.487c-5.803 1.65-9.188-3.854-9.188-3.854l4.594-2.076 2.219-7.111 4.608 6.613h5.177c-.001-.001-1.195 4.65-7.41 6.428M301.335 311.706c-8.889-2.66-29.611-6.215-45.34-6.215-15.701 0-36.437 3.556-45.326 6.215-8.889 2.66-6.812 11.25 0 8.59 6.812-2.674 23.41-5.333 45.326-5.333 21.945 0 38.528 2.66 45.34 5.333 6.827 2.66 8.889-5.931 0-8.59M259.556 295.708l-3.556-5.93-3.556 5.931-6.215 2.66s4.437 5.035 9.771 5.035c5.333 0 9.771-5.035 9.771-5.035l-6.215-2.661zM283.861 305.487c5.803 1.65 9.188-3.854 9.188-3.854l-4.608-2.076-2.219-7.111-4.58 6.613h-5.191c.001-.001 1.195 4.65 7.41 6.428"/><path d="M246.223 243.556c2.944-6.258 9.771-5.333 9.771-5.333s6.841-.924 9.785 5.333c-5.035.597-9.785 4.437-9.785 4.437s-4.737-3.84-9.771-4.437m71.708 44.088c-1.493-3.797-5.148 6.372-15.104 4.807-11.264-1.778-13.639-13.056-13.639-13.056s-8.889 8.903-18.076 4.75c-9.173-4.139-11.563-10.069-11.563-16.597 0-6.514-.825-11.321 0-13.924 1.337-4.139 6.229-7.111 11.278-2.361 4.139-5.931-2.972-18.375-14.834-18.375-11.847 0-18.958 12.444-14.805 18.375 5.049-4.75 9.927-1.778 11.25 2.361.839 2.603 0 7.41 0 13.924 0 6.528-2.361 12.459-11.548 16.597-9.188 4.153-18.076-4.75-18.076-4.75s-2.361 11.278-13.625 13.056c-9.956 1.564-13.639-8.604-15.118-4.807-1.465 3.783 6.528 15.175 17.778 11.477 11.278-3.684 12.743-13.198 12.743-13.198s5.788 10.667 19.257 6.528c10.155-3.129 12.146-12.743 12.146-12.743s2.005 9.614 12.16 12.743c13.483 4.139 19.257-6.528 19.257-6.528s1.479 9.515 12.743 13.198c11.262 3.699 19.255-7.693 17.776-11.477M188.444 257.694l2.816 8.661h9.102l-7.367 5.362 2.816 8.661-7.367-5.362-7.367 5.362 2.816-8.661-7.367-5.362h9.102l2.816-8.661zM197.333 225.993l2.816 8.661h9.102l-7.367 5.362 2.816 8.661-7.367-5.362-7.367 5.362 2.816-8.661-7.367-5.362h9.102l2.816-8.661zM221.181 200.507l2.816 8.661h9.102l-7.367 5.362 2.816 8.661-7.367-5.362-7.367 5.362 2.816-8.661-7.367-5.362h9.102l2.816-8.661zM256 191.91l2.816 8.661h9.102l-7.367 5.362 2.816 8.661-7.367-5.361-7.367 5.362 2.816-8.661-7.367-5.362h9.102L256 191.91zM321.028 257.694l-2.802 8.661h-9.116l7.367 5.362-2.816 8.661 7.367-5.362 7.381 5.362-2.83-8.661 7.381-5.362h-9.116l-2.816-8.661zM312.139 225.993l-2.802 8.661h-9.116l7.367 5.362-2.816 8.661 7.367-5.362 7.381 5.362-2.83-8.661 7.381-5.362h-9.116l-2.816-8.661zM288.305 200.507l-2.816 8.661h-9.116l7.381 5.362-2.83 8.661 7.381-5.362 7.367 5.362-2.816-8.661 7.367-5.362h-9.116l-2.802-8.661z"/></g></svg>