<svg xmlns="http://www.w3.org/2000/svg" viewBox="0 0 512 512">
    <path d="M455.111 71.111H56.889C25.472 71.111 0 96.583 0 128v256c0 31.417 25.472 56.889 56.889 56.889h398.222C486.528 440.889 512 415.417 512 384V128c0-31.417-25.472-56.889-56.889-56.889z" fill="#29ae66"/>
    <path d="M156.444 440.889H56.889V71.111h99.556v369.778z" fill="#ca3745"/>
    <path d="M56.889 118.223l11.449 11.449-3.115 3.1 4.551 4.565 3.001-3.001 9.444 9.444-9.33 9.33-3.883-3.883-4.124 4.11 3.456 3.442-11.449 10.112v-5.333l6.272-5.945-3.385-2.716 8.647-8.647 4.992 4.338 4.665-4.665-4.992-5.006-3.499 3.499-9.116-9.102 3.413-3.428-6.997-6.329v-5.334zm0 65.775l11.449 11.449-3.115 3.1 4.551 4.565 3.001-3.001 9.444 9.444-9.33 9.33-3.883-3.883-4.124 4.11 3.456 3.442-11.449 10.112v-5.333l6.272-5.945-3.385-2.716 8.647-8.647 4.992 4.338 4.665-4.665-4.992-5.006-3.499 3.499-9.116-9.102 3.413-3.428-6.997-6.329v-5.334zm0 67.114l11.449 11.449-3.115 3.1 4.551 4.565 3.001-3.001 9.444 9.444-9.33 9.33-3.883-3.883-4.124 4.11 3.456 3.442-11.449 10.112v-5.333l6.272-5.945-3.385-2.716 8.647-8.647 4.992 4.338 4.665-4.665-4.992-5.006-3.499 3.499-9.116-9.102 3.413-3.428-6.997-6.329v-5.334zm0 66.222l11.449 11.449-3.115 3.1 4.551 4.565 3.001-3.001 9.444 9.444-9.33 9.33-3.883-3.883-4.124 4.11 3.456 3.442-11.449 10.112v-5.333l6.272-5.945-3.385-2.716 8.647-8.647 4.992 4.338 4.665-4.665-4.992-5.006-3.499 3.499-9.116-9.102 3.413-3.428-6.997-6.329v-5.334zm99.555-199.111l-11.449 11.449 3.115 3.1-4.551 4.565-3.001-3.001-9.444 9.444 9.33 9.33 3.883-3.883 4.124 4.11-3.456 3.442 11.449 10.112v-5.333l-6.272-5.945 3.385-2.716-8.647-8.647-4.992 4.338-4.665-4.665 4.992-5.006 3.499 3.499 9.116-9.102-3.413-3.428 6.997-6.329v-5.334zM64.889 80.887l4.11-4.11 3.883 3.883 9.344-9.33-.228-.213h-4.281l.37.356-4.665 4.665-5.006-4.338-8.633 8.647 3.385 2.716-6.272 5.945v5.333l11.435-10.112-3.442-3.442zm88.667-.443l-8.633-8.633-5.006 4.324-4.665-4.665.356-.356h-4.281l-.213.213 9.33 9.344 3.897-3.897 4.11 4.11-3.456 3.442 11.449 10.112v-5.333l-6.272-5.945 3.384-2.716zm2.888 103.554l-11.449 11.449 3.115 3.1-4.551 4.565-3.001-3.001-9.444 9.444 9.33 9.33 3.883-3.883 4.124 4.11-3.456 3.442 11.449 10.112v-5.333l-6.272-5.945 3.385-2.716-8.647-8.647-4.992 4.338-4.665-4.665 4.992-5.006 3.499 3.499 9.116-9.102-3.413-3.428 6.997-6.329v-5.334zm0 67.114l-11.449 11.449 3.115 3.1-4.551 4.565-3.001-3.001-9.444 9.444 9.33 9.33 3.883-3.883 4.124 4.11-3.456 3.442 11.449 10.112v-5.333l-6.272-5.945 3.385-2.716-8.647-8.647-4.992 4.338-4.665-4.665 4.992-5.006 3.499 3.499 9.116-9.102-3.413-3.428 6.997-6.329v-5.334zm0 66.222l-11.449 11.449 3.115 3.1-4.551 4.565-3.001-3.001-9.444 9.444 9.33 9.33 3.883-3.883 4.124 4.11-3.456 3.442 11.449 10.112v-5.333l-6.272-5.945 3.385-2.716-8.647-8.647-4.992 4.338-4.665-4.665 4.992-5.006 3.499 3.499 9.116-9.102-3.413-3.428 6.997-6.329v-5.334z" fill="#faae29"/>
    <path d="M142.52 98.665v-5.632l-8.292-5.035h-6.229l-10.069-5.22H95.402l-10.069 5.22h-6.215l-8.306 5.035v5.632l-7.694 4.736v13.042l7.694 4.75v5.618l8.306 5.049h6.215l10.069 5.22h22.528l10.069-5.22h6.229l8.292-5.049v-5.618l7.708-4.75v-13.042l-7.708-4.736z" fill="#29ae66"/>
    <path d="M70.09 109.908v-5.561l6.571-4.053v-4.793l7.083-4.309h5.305l8.604-4.452h9.6v23.168H70.09z" fill="#faae29"/>
    <path d="M69.5 109.93v5.561l6.571 4.053v4.793l7.083 4.309h5.305l8.604 4.452h9.6V109.93H69.5zm74.334 0v-5.561l-6.571-4.053v-4.793l-7.083-4.309h-5.319l-8.59-4.452h-9.6v23.168h37.163z" fill="#fff"/>
    <g fill="#faae29">
        <path d="M143.834 109.93v5.561l-6.571 4.053v4.793l-7.083 4.309h-5.319l-8.59 4.452h-9.6V109.93h37.163zm-64.133 64.89h-9.614v-10.382h9.614v10.382zm9.629-1.48h-9.614v-10.382h9.614v10.382zm9.628-3.712h-9.614V159.26h9.614v10.368zm34.958 5.192h9.614v-10.382h-9.614v10.382zm-9.628-1.48h9.614v-10.382h-9.614v10.382z"/>
        <path d="M114.674 169.628h9.614V159.26h-9.614v10.368zm0-2.744H98.958V154.07h15.716v12.814zM79.701 177.55h-9.614v10.368h9.614V177.55zm9.629 1.479h-9.614v10.368h9.614v-10.368zm9.628 3.712h-9.614v10.368h9.614v-10.368zm34.958-5.191h9.614v10.368h-9.614V177.55zm-9.628 1.479h9.614v10.368h-9.614v-10.368z"/>
        <path d="M114.674 182.741h9.614v10.368h-9.614v-10.368zm0 2.745H98.958V198.3h15.716v-12.814z"/>
    </g>
    <path d="M121.59 349.986H92.306l-20.693 13.255v18.716l20.693 13.241h29.284l20.708-13.241v-18.716l-20.708-13.255z" fill="#fff"/>
    <g fill="#29ae66">
        <path d="M129.694 250.055l-13.326 9.387h-18.83l-13.326-9.387v-13.284l13.326-9.387h18.83l13.326 9.387v13.284zm-10.467-27.534H94.679l-17.365 12.231v17.323l17.365 12.231h24.548l17.365-12.231v-17.323l-17.365-12.231zm18.05 158.104l-17.778 11.364H94.397l-17.778-11.364v-16.071l17.778-11.364h25.102l17.778 11.364v16.071zm-15.075-31.587H91.695l-21.575 13.81v19.499l21.575 13.796h30.507l21.575-13.796v-19.499l-21.575-13.81zm6.893-24.601H84.75v-29.639h44.345v29.639zm9.629-19.555v-6.3h-6.272v-7.012H81.337v7.012h-7.026v6.3h-6.158v9.202h6.158v6.798h7.026v7.424h51.115v-7.424h6.272v-6.798h7.353v-9.202h-7.353z"/>
        <path d="M106.667 288l-26.965 16v10.368l26.965 17.493 27.25-16.896V304l-27.25-16z"/>
    </g>
    <path d="M94.597 366.444l12.075-6.969 12.06 6.969v13.938l-12.06 6.955-12.075-6.955v-13.938z" fill="#ca3745"/>
    <g fill="#faae29">
        <path d="M118.729 427.861l-3.47 2.361s-2.958-5.632-10.965-6.215c-7.993-.583-12.444 2.66-19.257 3.1-6.812.455-27.804-15.445-16.896-39.78 9.785 7.04 4.708 15.63 9.173 19.783 4.466 4.153 9.159 6.969 10.98 11.861 1.82 4.892 10.325.839 16 1.778 8.888 1.48 14.435 7.112 14.435 7.112"/>
        <path d="M94.597 427.861l3.47 2.361s2.958-5.632 10.965-6.215c7.993-.583 12.444 2.66 19.257 3.1 6.812.455 27.804-15.445 16.896-39.78-9.785 7.04-4.708 15.63-9.173 19.783-4.466 4.153-9.159 6.969-10.98 11.861-1.82 4.892-10.325.839-16 1.778-8.888 1.48-14.435 7.112-14.435 7.112"/>
    </g>
    <g fill="#fff">
        <path d="M258.556 117.882c9.244 8.021 15.218 19.726 15.218 32.939 0 24.178-19.598 43.776-43.776 43.776-8.32 0-16-2.446-22.628-6.471 8.121 8.846 19.684 14.478 32.626 14.478 24.548 0 44.444-19.897 44.444-44.444 0-17.906-10.638-33.238-25.884-40.278m-33.188-5.995l-3.499 6.869 5.447 5.461-7.609-1.209-3.513 6.869-1.209-7.623-7.623-1.195 6.884-3.513-1.209-7.623 5.461 5.461 6.87-3.497z"/>
        <path d="M247.145 125.087l-3.499 6.869 5.447 5.461-7.609-1.209-3.513 6.869-1.195-7.623-7.637-1.195 6.884-3.513-1.209-7.623 5.461 5.461 6.87-3.497zm-21.777 9.455l-3.499 6.869 5.447 5.461-7.609-1.209-3.513 6.869-1.209-7.609-7.623-1.209 6.884-3.513-1.209-7.623 5.461 5.461 6.87-3.497zM202.7 146.055l-3.499 6.869 5.447 5.461-7.609-1.209-3.513 6.869-1.195-7.623-7.637-1.195 6.884-3.513-1.209-7.623 5.461 5.461 6.87-3.497zm22.668 12.82l-3.499 6.869 5.447 5.461-7.609-1.209-3.513 6.869-1.209-7.609-7.623-1.209 6.884-3.513-1.209-7.623 5.461 5.461 6.87-3.497z"/>
    </g>
    <path d="M100.437 295.396h13.013v8.747h-13.013v-8.747zm0 19.939h13.013v8.747h-13.013v-8.747z" fill="#ca3745"/>
    <path d="M79.701 305.55h17.82v8.747h-17.82v-8.747zm36.751 0h17.465v8.747h-17.465v-8.747z" fill="#faae29"/>
</svg>
