<svg xmlns="http://www.w3.org/2000/svg" viewBox="0 0 512 512"><path d="M455.111 71.111H56.889C25.472 71.111 0 96.583 0 128v256c0 31.417 25.472 56.889 56.889 56.889h398.222C486.528 440.889 512 415.417 512 384V128c0-31.417-25.472-56.889-56.889-56.889zM256 348.444c-51.058 0-92.444-41.387-92.444-92.444s41.387-92.444 92.444-92.444 92.444 41.387 92.444 92.444-41.386 92.444-92.444 92.444z" fill="#e70013"/><path d="M256 163.556c-51.058 0-92.444 41.387-92.444 92.444s41.387 92.444 92.444 92.444 92.444-41.387 92.444-92.444-41.386-92.444-92.444-92.444" fill="#fff"/><g fill="#e70013"><path d="M219.022 256c0-30.635 24.832-55.467 55.467-55.467 14.492 0 27.676 5.561 37.561 14.663-12.601-17.294-33.01-28.53-56.05-28.53-38.286 0-69.333 31.047-69.333 69.333s31.047 69.333 69.333 69.333c23.04 0 43.449-11.236 56.05-28.53-9.884 9.102-23.068 14.663-37.561 14.663-30.635.002-55.467-24.83-55.467-55.465"/><path d="M279.398 240.885l-17.764-24.448v30.222l-28.743 9.344 28.743 9.33v30.222l17.764-24.448 28.743 9.344-17.764-24.448 17.764-24.462-28.743 9.344z"/></g></svg>