<svg xmlns="http://www.w3.org/2000/svg" viewBox="0 0 512 512"><path d="M455.111 71.111H213.334V256H0v128c0 31.418 25.472 56.889 56.889 56.889H455.11C486.53 440.889 512 415.416 512 384V128c0-31.418-25.473-56.889-56.889-56.889" fill="#c10000"/><path d="M170.666 184.889H128v42.666H85.334v-42.666H42.666v-42.666h42.666V99.556H128v42.667h42.666v42.666zM213.334 71.11H56.889C25.473 71.111 0 96.583 0 128v128h213.334V71.111z" fill="#eeeded"/><path d="M128 99.555H85.334v42.666H42.666v42.666h42.666v42.667H128v-42.667h42.666v-42.666H128V99.555z" fill="#c10000"/></svg>