<svg xmlns="http://www.w3.org/2000/svg" viewBox="0 0 512 512"><path d="M512 384c0 31.418-25.473 56.889-56.889 56.889H56.89C25.472 440.889 0 415.417 0 384V128c0-31.418 25.472-56.889 56.889-56.889H455.11C486.53 71.111 512 96.584 512 128v256z" fill="#e30917"/><g fill="#eee"><path d="M227.555 341.334c-47.133 0-85.334-38.201-85.334-85.334s38.201-85.334 85.334-85.334c18.645 0 35.84 6.045 49.877 16.185-19.17-21.675-47.103-35.427-78.32-35.427-57.757 0-104.577 46.82-104.577 104.576s46.82 104.59 104.576 104.59c31.218 0 59.165-13.752 78.322-35.456-14.023 10.155-31.218 16.2-49.878 16.2M283.207 259.271l34.688 7.993 3.142 35.456 18.32-30.521 34.702 7.979-23.382-26.867 18.304-30.521-32.767 13.938-23.368-26.867 3.129 35.47-32.768 13.94z"/></g></svg>