<svg xmlns="http://www.w3.org/2000/svg" viewBox="0 0 512 512">
    <path d="M455.111 71.111H130.494l.001.001H56.889c-9.034 0-17.569 2.114-25.098 5.862v.002l-.028-.001a57.108 57.108 0 0 0-15.407 11.139C6.254 98.38 0 112.459 0 128v256c0 31.416 25.473 56.889 56.889 56.889H381.51h-.001 73.601c9.034 0 17.569-2.115 25.098-5.864v-.004l.031.003a57.108 57.108 0 0 0 15.406-11.139C505.746 413.617 512 399.539 512 384V128c0-31.416-25.473-56.889-56.889-56.889z" fill="#ce1126"/>
    <path d="M16.341 88.113L355.414 440.89h26.097L31.734 76.974A57.021 57.021 0 0 0 16.34 88.112zm479.32 335.772L156.591 71.111h-26.097L480.27 435.025a57.066 57.066 0 0 0 15.391-11.14z" fill="#eee"/>
    <path d="M130.49 71.111H56.889a56.63 56.63 0 0 0-25.155 5.863l349.778 363.915h73.6a56.616 56.616 0 0 0 25.155-5.864L130.49 71.111z" fill="#141414"/>
</svg>
