<svg xmlns="http://www.w3.org/2000/svg" viewBox="0 0 512 512">
    <path d="M455.111 71.111H241.777V256H0v128c0 31.418 25.472 56.889 56.889 56.889H455.11c31.42 0 56.89-25.473 56.89-56.889V128c0-31.418-25.473-56.889-56.889-56.889" fill="#fe0000"/>
    <path d="M164.85 171.279a40.57 40.57 0 0 0 0-15.431l28.927 7.722-28.927 7.709zm-9.301 19.156a41.102 41.102 0 0 0 7.751-13.355l21.191 21.149-28.942-7.794zm-17.579 11.976a41.328 41.328 0 0 0 13.355-7.737l7.794 28.927-21.149-21.19zm-13.525 30.491l-7.709-28.942a40.57 40.57 0 0 0 15.431 0l-7.722 28.942zm-34.66-9.3l7.794-28.928a41.36 41.36 0 0 0 13.355 7.737l-21.149 21.19zm-4.181-46.52a41.08 41.08 0 0 0 7.737 13.354L64.4 198.23l21.205-21.149zm-1.565-21.234a41.864 41.864 0 0 0-.725 7.722c0 2.631.256 5.205.725 7.709L55.11 163.57l28.928-7.722zm9.301-19.158a41.09 41.09 0 0 0-7.738 13.355L64.4 128.896l28.941 7.794zm17.594-11.975a41.328 41.328 0 0 0-13.355 7.737l-7.794-28.927 21.149 21.19zm13.511-30.479l7.722 28.928a40.607 40.607 0 0 0-15.43 0l7.708-28.928zm34.674 9.288l-7.794 28.927a41.36 41.36 0 0 0-13.355-7.737l21.149-21.19zm0 60.046c0 19.142-15.532 34.66-34.674 34.66s-34.66-15.518-34.66-34.66c0-19.157 15.516-34.674 34.66-34.674s34.674 15.517 34.674 34.674m-3.57-26.88l28.942-7.794-21.191 21.149a41.124 41.124 0 0 0-7.751-13.355m86.228-65.565H56.89C25.472 71.125 0 96.598 0 128.014v128h241.777V71.125z" fill="#000095"/>
    <path d="M132.167 123.15l-7.708-28.927-7.723 28.927a40.607 40.607 0 0 1 15.431 0M83.3 163.555c0-2.631.256-5.22.74-7.709l-28.928 7.709 28.928 7.709a40.361 40.361 0 0 1-.74-7.709m33.421 40.406l7.709 28.928 7.722-28.928a40.607 40.607 0 0 1-15.43 0m48.867-40.406c0 2.631-.256 5.22-.74 7.709l28.927-7.709-28.927-7.709c.485 2.49.74 5.079.74 7.709m-6.47-60.046l-21.149 21.205a40.836 40.836 0 0 1 13.355 7.737l7.794-28.942zm-3.57 86.926l28.942 7.794-21.205-21.149a40.845 40.845 0 0 1-7.737 13.355m-65.764 33.166l21.149-21.205a40.836 40.836 0 0 1-13.355-7.737L89.785 223.6zm3.555-86.926l-28.942-7.794 21.205 21.149a40.893 40.893 0 0 1 7.737-13.355m44.615 65.721l21.149 21.205-7.794-28.942a41.067 41.067 0 0 1-13.355 7.737m-52.337-25.33l-21.205 21.149 28.942-7.794a41.09 41.09 0 0 1-7.737-13.355m25.316-52.337l-21.149-21.205 7.794 28.942a41.315 41.315 0 0 1 13.355-7.737m73.557 4.152l-28.942 7.794a40.823 40.823 0 0 1 7.737 13.355l21.205-21.149zm-60.046 0c-19.142 0-34.674 15.517-34.674 34.674 0 19.142 15.531 34.66 34.674 34.66s34.674-15.516 34.674-34.66c0-19.156-15.532-34.674-34.674-34.674" fill="#fff"/>
</svg>
