<svg xmlns="http://www.w3.org/2000/svg" viewBox="0 0 512 512">
    <path d="M455.111 71.111h-78.846l.206.002v-.002H56.889C25.472 71.111 0 96.583 0 128v256.057c0 31.39 25.491 56.832 56.889 56.832h398.223C486.528 440.889 512 415.417 512 384V128c0-31.417-25.472-56.889-56.889-56.889z" fill="#fbd035"/>
    <path d="M56.889 71.111C25.472 71.111 0 96.583 0 128v222.251l376.263-279.14H56.889z" fill="#1eb53a"/>
    <path d="M455.111 440.889C486.528 440.889 512 415.417 512 384V161.138L134.812 440.889h320.299z" fill="#00a3dd"/>
    <path d="M512 128c0-31.417-25.472-56.889-56.889-56.889h-36.009L0 378.852v5.205c0 31.39 25.491 56.832 56.889 56.832h35.088L512 132.523V128z" fill="#141414"/>
</svg>
