<svg xmlns="http://www.w3.org/2000/svg" viewBox="0 0 395.636 395.636">
    <path d="M351.677 54.949H43.96C19.684 54.949 0 74.633 0 98.909v197.818c0 24.276 19.684 43.96 43.96 43.96h307.717c24.276 0 43.96-19.684 43.96-43.96V98.909c-.001-24.276-19.684-43.96-43.96-43.96z" fill="#d90000"/>
    <path fill="#fcdc02" d="M0 102.141h395.636v71.111H0z"/>
    <path fill="#d90000" d="M0 157.091h395.636v43.96H0z"/>
    <path d="M0 190.714h395.636v68.525H0zM351.677 54.949H43.96C19.684 54.949 0 74.633 0 98.909v10.99h395.636v-10.99c0-24.276-19.683-43.96-43.959-43.96z" fill="#141414"/>
    <path d="M351.677 340.687H43.96c-24.276 0-43.96-19.684-43.96-43.96v-10.99h395.636v10.99c0 24.276-19.683 43.96-43.959 43.96z" fill="#d90000"/>
    <path fill="#fcdc02" d="M0 245.663h395.636v43.96H0z"/>
    <path d="M241.778 197.818c0 24.276-19.683 43.96-43.96 43.96s-43.96-19.683-43.96-43.96 19.683-43.96 43.96-43.96 43.96 19.684 43.96 43.96" fill="#fff"/>
    <path d="M190.607 165.192l-2.934-7.726s6.363-2.231 12.55 0c4.714 1.704 5.154 7.726 5.154 7.726l-7.375 2.231-7.395-2.231z" fill="#d90000"/>
    <path d="M193.354 163.99v-7.517s1.22-.483 4.649 0c3.418.473 4.968 2.879 4.968 2.879l-4.814 5.836-4.803-1.198z" fill="#fcdc02"/>
    <path d="M203.027 215.452h-2.516l.913-4.583c-.002 0 3.207 4.583 1.603 4.583m-8.013-29.761c-.913-1.604 0-10.99 2.626-11.682 2.626-.681 7.671-8.924 0-11.671s-9.276 5.264-9.276 5.264-7.572 2.231-6.627 4.121c.913 1.825 7.32-.693 8.693.913 1.374 1.604-.693 3.89-6.187 10.309-5.495 6.406-1.825 15.11.693 17.342 2.516 2.242 5.495 3.945 7.792 6.01 2.286 2.054 4.912 3.198 4.912 3.198v6.638s-7.66.693-11.331.231c-3.67-.461-6.187 2.066-7.1 5.034-.913 2.979 1.374 4.583 1.374 2.297s.913-.923 1.132.913c.208 1.835 1.846 1.143 1.846-1.143 0-2.297.923-1.374 1.143-.231.231 1.143 1.835-.461 2.066-1.835.231-1.374 2.286-2.054 4.121-2.516 1.835-.451 6.747.461 6.747.461v12.133s-10.187.693-11.101 2.066c-.923 1.374 6.187 1.143 6.187 1.143s-2.066 3.89-1.154 4.121c.923.242 7.33-3.89 9.847-4.352 2.517-.462 6.407 1.143 6.869 0 .451-1.154-6.187-2.747-6.869-3.89-.693-1.132-2.066-11.661-2.066-11.661s2.989-.253 6.65-.022c3.66.242 2.747-2.979.451-6.176-2.286-3.198-.231-4.121 3.67-3.429 3.89.693 6.869 0 6.869-6.187.004-6.188-21.064-15.805-21.977-17.399" fill="#141414"/>
    <path d="M192.039 173.778c.318-2.736-4.133-2.516-4.352 0-.231 2.517 3.89 3.89 4.352 0" fill="#d90000"/>
    <path d="M195.073 187.344c1.263-.451 15.451 6.01 19.232 7.726 3.78 1.715 3.33 8.242 2.693 12.187-.638 3.956-2.869 5.154-2.869 5.154s-2.461-6.374-10.297-9.44c-10.529-4.121-13.562-13.912-8.759-15.627" fill="#9ca69c"/>
    <path d="M211.037 194.9c4.627 1.21 14.418 3.429 15.287 13.396.857 9.958-9.33 15.792-9.33 15.792l1.704-3.088-3.022 1.033 1.319-2.231-4.759 1.022s7.968-6.353 5.187-12.012c.221 4.714-2.956 6.001-2.956 6.001s2.736-6.539-9.1-13.737c1.374-.341 3.099-.791 3.099-.791l-3.099-2.461 6.528 2.461-3.088-3.836 6.176 2.397-3.946-3.946z" fill="#d90000"/>
    <path d="M193.354 168.54c0 .615-.506 1.121-1.121 1.121-.614 0-1.109-.506-1.109-1.121s.495-1.109 1.109-1.109a1.114 1.114 0 0 1 1.121 1.109" fill="#9ca69c"/>
</svg>
