<svg xmlns="http://www.w3.org/2000/svg" viewBox="0 0 512 512">
    <path d="M0 384c0 31.417 25.472 56.889 56.889 56.889h398.222C486.528 440.889 512 415.417 512 384v-56.889H0V384z" fill="#1eb53a"/>
    <path d="M455.111 71.111H56.889C25.472 71.111 0 96.583 0 128v56.889h512V128c0-31.417-25.472-56.889-56.889-56.889z" fill="#0099b5"/>
    <path d="M0 206.222h512v-21.333H0v21.333zm0 120.889h512v-21.333H0v21.333z" fill="#ce1126"/>
    <path d="M0 256v49.778h512v-99.556H0V256z" fill="#eee"/>
    <path d="M59.733 130.276c0-21.988 16-40.22 36.978-43.748a45.283 45.283 0 0 0-7.396-.626c-24.505 0-44.373 19.868-44.373 44.373s19.868 44.373 44.373 44.373c2.517 0 4.992-.228 7.396-.626-20.978-3.526-36.978-21.759-36.978-43.746m66.6 32.757l-1.991-6.13-1.991 6.13h-6.457l5.22 3.783-1.991 6.144 5.22-3.797 5.22 3.797-1.991-6.144 5.205-3.783h-6.444zm38.436 0l-1.991-6.13-1.991 6.13h-6.457l5.22 3.783-1.991 6.144 5.22-3.797 5.22 3.797-1.991-6.144 5.205-3.783h-6.444zm-1.991-41.632l-1.991 6.13h-6.443l5.205 3.797-1.991 6.13 5.22-3.797 5.22 3.797-1.991-6.13 5.205-3.797h-6.443l-1.991-6.13zm40.431 41.632l-1.991-6.13-1.991 6.13h-6.457l5.22 3.783-1.991 6.144 5.22-3.797 5.22 3.797-1.991-6.144 5.205-3.783h-6.444zm-1.991-41.632l-1.991 6.13h-6.443l5.205 3.797-1.991 6.13 5.22-3.797 5.22 3.797-1.991-6.13 5.205-3.797h-6.443l-1.991-6.13zm0-35.499l-1.991 6.13h-6.443l5.205 3.797-1.991 6.13 5.22-3.797 5.22 3.797-1.991-6.13 5.205-3.797h-6.443l-1.991-6.13zm40.428 77.131l-1.991-6.13-1.991 6.13h-6.457l5.22 3.783-1.991 6.144 5.22-3.797 5.22 3.797-1.991-6.144 5.205-3.783h-6.444zm-1.992-41.632l-1.991 6.13h-6.443l5.205 3.797-1.991 6.13 5.22-3.797 5.22 3.797-1.991-6.13 5.205-3.797h-6.443l-1.991-6.13zm0-35.499l-1.991 6.13h-6.443l5.205 3.797-1.991 6.13 5.22-3.797 5.22 3.797-1.991-6.13 5.205-3.797h-6.443l-1.991-6.13zm40.429 77.131l-1.991-6.13-1.991 6.13h-6.457l5.22 3.783-1.991 6.144 5.22-3.797 5.22 3.797-1.991-6.144 5.205-3.783h-6.444zm-1.992-41.632l-1.991 6.13h-6.443l5.205 3.797-1.991 6.13 5.22-3.797 5.22 3.797-1.991-6.13 5.205-3.797h-6.443l-1.991-6.13zm0-35.499l-1.991 6.13h-6.443l5.205 3.797-1.991 6.13 5.22-3.797 5.22 3.797-1.991-6.13 5.205-3.797h-6.443l-1.991-6.13z" fill="#fff"/>
</svg>
