<svg xmlns="http://www.w3.org/2000/svg" viewBox="0 0 512 512">
    <path fill="#00247d" d="M0 168.157h512v175.686H0z"/>
    <path d="M0 384c0 31.417 25.472 56.889 56.889 56.889h398.222C486.528 440.889 512 415.417 512 384v-56.889H0V384z" fill="#cf142b"/>
    <path d="M455.111 71.111H56.889C25.472 71.111 0 96.583 0 128v56.889h512V128c0-31.417-25.472-56.889-56.889-56.889z" fill="#fc0"/>
    <g fill="#fff">
        <path d="M264.529 231.411l10.055-4.907 7.78 8.05-1.55-11.079 10.055-4.907-11.022-1.948-1.564-11.079-5.248 9.87-11.022-1.934 7.78 8.05-5.264 9.884zm44.345 7.572l4.551 10.226 2.332-10.951 11.136-1.166-9.7-5.604 2.332-10.951-8.32 7.495-9.7-5.589 4.551 10.226-8.32 7.481 11.138-1.167zm44.255 10.098a.338.338 0 0 1-.234-.1.335.335 0 0 1-.1-.234c0-.092.033-.176.1-.234a.341.341 0 0 1 .477 0c.059.059.092.142.092.234s-.033.176-.1.234a.34.34 0 0 1-.235.1z"/>
        <path d="M325.959 259.723l10.866 2.702.782 11.179 5.931-9.5 10.852 2.702-7.196-8.562 5.945-9.5-10.382 4.196-7.196-8.576.782 11.164-10.384 4.195zm29.103 34.304l-3.086 10.766 8.818-6.898 9.287 6.258-3.826-10.51 8.818-6.898-11.193.384-3.826-10.51-3.086 10.752-11.193.398 9.287 6.258zm-125.425-59.471l7.78-8.05 10.055 4.907-5.248-9.884 7.765-8.05-11.022 1.934-5.248-9.884-1.564 11.093-11.022 1.948 10.069 4.907-1.565 11.079zm-33.39 3.701l2.332 10.951 4.551-10.226 11.136 1.166-8.32-7.495 4.551-10.226-9.7 5.604-8.32-7.495 2.332 10.951-9.7 5.604 11.138 1.166zm-37.376 10.824a.302.302 0 0 1-.234-.1.317.317 0 0 1-.1-.234c0-.092.033-.176.092-.243a.368.368 0 0 1 .477 0c.059.067.1.151.1.243a.352.352 0 0 1-.1.234.336.336 0 0 1-.235.1z"/>
        <path d="M168.466 264.105l5.931 9.486.782-11.164 10.866-2.702-10.382-4.196.782-11.164-7.196 8.576-10.382-4.196 5.931 9.486-7.196 8.576 10.864-2.702zm-26.544 40.05l9.287-6.258 8.818 6.884-3.086-10.752 9.273-6.258-11.179-.398-3.086-10.752-3.826 10.51-11.193-.384 8.818 6.884-3.826 10.524z"/>
    </g>
</svg>
