<svg xmlns="http://www.w3.org/2000/svg" viewBox="0 0 512 512"><path d="M455.111 71.111H56.89C25.472 71.111 0 96.584 0 128v256c0 31.416 25.472 56.889 56.889 56.889H455.11C486.527 440.889 512 415.416 512 384V128c0-31.416-25.473-56.889-56.889-56.889z" fill="#d21034"/><path d="M0 384c0 31.416 25.473 56.889 56.889 56.889H455.11C486.527 440.889 512 415.416 512 384V256H0v128z" fill="#009543"/><path d="M24.644 81.142C9.76 91.404 0 108.558 0 128v256c0 19.606 9.921 36.899 25.015 47.129l216.762-132.463H512v-85.334H241.777L24.644 81.142z" fill="#141414"/><path d="M8 98.914A56.603 56.603 0 0 0 0 128v256a56.603 56.603 0 0 0 8 29.086l233.777-142.863H512v-28.445H241.777L8 98.914z" fill="#fdce12"/><path fill="#141414" d="M0 128v256l213.334-128z"/><g fill="#fdce12"><path d="M62.222 307.278s46.223-7.112 46.223-52.765c0-28.062-24.291-43.55-43.264-43.55-18.958 0-39.111 14.208-39.111 39.112s23.111 32.598 34.375 32.598 28.445-8.89 26.07-28.445c-6.599 27.207-34.304 26.425-45.027 10.07C29.626 246.22 48 220.45 71.71 227.56c22.456 6.728 23.624 29.583 16 43.862-9.486 17.777-25.187 16.88-25.187 16.88l-.3 18.975z"/><path d="M48.597 266.376s-.455-6.343 2.375-10.07c9.174-12.145 25.473-20.75 27.55-19.555 2.075 1.182-5.633 3.542-13.626 13.028-3.84 4.536-6.159 8.917-9.187 11.861-3.285 3.2-7.112 4.736-7.112 4.736"/><path d="M78.834 266.376s.455-6.343-2.375-10.07c-9.174-12.145-25.473-20.75-27.549-19.555-2.076 1.182 5.633 3.542 13.625 13.028 3.84 4.536 6.159 8.917 9.188 11.861 3.284 3.2 7.11 4.736 7.11 4.736"/></g></svg>