<svg xmlns="http://www.w3.org/2000/svg" viewBox="0 0 512 512">
    <path d="M455.111 71.111H270.222V256H0v128c0 31.418 25.473 56.889 56.889 56.889H455.11c31.42 0 56.89-25.473 56.89-56.889V128c0-31.418-25.473-56.889-56.889-56.889" fill="#ce1126"/>
    <path d="M203.605 154.026l-11.904-8.647-11.904 8.647 4.552-13.995-11.904-8.647h14.706l4.551-13.995 4.552 13.995h14.706l-11.904 8.647 4.549 13.995zm-33.492 35.271l-7.937-5.773-7.936 5.774 3.029-9.33-7.936-5.76h9.813l3.029-9.33 3.029 9.33h9.799l-7.922 5.76 3.032 9.33zm-20.324 59.066l-15.858-11.534-15.872 11.534 6.059-18.66-15.873-11.534h19.613l6.072-18.66 6.059 18.66H159.6l-15.872 11.534 6.06 18.66zm-59.663-84.195l-12.7-9.217-12.686 9.217 4.85-14.92-12.7-9.23h15.688l4.85-14.918 4.85 14.919h15.7l-12.7 9.23c-.002-.001 4.848 14.919 4.848 14.919zm38.955-70.373l4.85-14.919 4.85 14.919h15.688l-12.7 9.23 4.85 14.919-12.686-9.216-12.7 9.216 4.85-14.919-12.7-9.23h15.698zm141.142-22.627H56.888C25.472 71.168 0 96.64 0 128.058v128h270.222V71.168z" fill="#002b7f"/>
    <path d="M121.23 117.888l12.7-9.23 12.686 9.23-4.85-14.92 12.7-9.23H138.78l-4.85-14.918-4.85 14.919h-15.7l12.7 9.23-4.85 14.919zm-38.955 22.058l-4.85-14.919-4.85 14.92H56.887l12.687 9.23-4.85 14.918 12.7-9.23 12.7 9.23-4.85-14.919 12.686-9.23H82.275zm113.977-8.619l-4.55-13.995-4.538 13.995h-14.72l11.904 8.648-4.552 13.995 11.904-8.648 11.904 8.648-4.538-13.995 11.89-8.648h-14.703zm-31.047 42.81l-3.029-9.33-3.029 9.33h-9.813l7.936 5.76-3.029 9.33 7.936-5.76 7.937 5.76-3.029-9.33 7.936-5.76h-9.816zm-25.216 43.976l-6.059-18.66-6.059 18.66h-19.626l15.872 11.533-6.058 18.66 15.872-11.534 15.873 11.534-6.073-18.66 15.873-11.533h-19.615z" fill="#fff"/>
</svg>
