<svg xmlns="http://www.w3.org/2000/svg" viewBox="0 0 512 512">
    <path d="M455.111 71.111H92.445L270.222 192H512v-64c0-31.417-25.473-56.889-56.889-56.889" fill="#de3830"/>
    <path d="M92.445 440.889h362.666C486.53 440.889 512 415.416 512 384v-64H270.222L92.445 440.889z" fill="#002395"/>
    <path d="M0 156.445v199.111L149.334 256 0 156.445z" fill="#141414"/>
    <path d="M0 128v28.445L149.334 256 0 355.555V384l192-128L0 128z" fill="#ffb611"/>
    <path d="M50.361 71.509C22.03 74.752 0 98.787 0 128l192 128L0 384c0 29.199 22.03 53.234 50.361 56.476l212.75-148.921H512v-71.111H263.111L50.361 71.509z" fill="#007a4d"/>
    <path d="M92.445 71.111H56.889c-2.219 0-4.38.156-6.528.399l212.75 148.935H512V192H270.222L92.445 71.111zM50.361 440.462c2.148.242 4.324.4 6.528.4h35.555l177.777-120.89H512v-28.445H263.111L50.361 440.462z" fill="#eee"/>
</svg>
