<svg xmlns="http://www.w3.org/2000/svg" viewBox="0 0 512 512">
    <path d="M455.111 71.111H56.89C25.472 71.111 0 96.584 0 128v256c0 31.416 25.472 56.889 56.889 56.889H455.11c31.417 0 56.89-25.473 56.89-56.889V128c0-31.416-25.473-56.889-56.889-56.889z" fill="#1a8a00"/>
    <path d="M440.889 440.889h14.222C486.528 440.889 512 415.416 512 384V213.334h-71.111v227.555z" fill="#ef7d00"/>
    <path d="M369.778 213.334h71.11v227.555h-71.11V213.334z" fill="#141414"/>
    <path d="M298.666 213.334h71.111v227.555h-71.11V213.334z" fill="#de200f"/>
    <path d="M498.966 117.41c-1.565-.299-10.184 4.636-10.184 4.636s8.022-9.245 6.16-9.245c-1.85 0-12.318 4.921-12.318 4.921s6.471-8.02 4.31-7.082c-2.176.925-13.881 6.159-22.813 9.899 1.252-2.119.939-5.277 0-5.277-.91 0-6.158 3.385-14.178 5.234s-20.025 8.633-25.273 7.709c-5.234-.925-15.73 0-15.73 0s-3.057-4.623-.611-5.859c2.446-1.237 4.324 1.849 4.324 1.849s4.322-1.849 4.322-4.465c0-2.616-7.41-2.93-7.41-2.93s-3.086-3.996-8.007-3.996c-12.943 0-13.882 13.866-13.882 13.866s-5.247-1.849-10.168-3.086c-4.922-1.238-13.568-.612-22.187-5.859-8.632-5.248-14.178-7.083-3.712 4.01-15.416-5.234-23.41-15.715-25.585-11.165-2.161 4.551 5.859 9.927 5.859 9.927s-4.31-1.223-8.008-4.622c-3.697-3.399-8.945-5.546-3.996 1.849-6.471-1.849-1.849 4.935-1.849 4.935s-5.247 1.536 0 5.233c5.234 3.713 14.791 5.248 14.791 5.248s-4.323 3.072-1.55 4.31c2.774 1.237 7.395.312 7.395.312s-3.697 3.073 0 4.31c3.698 1.238 8.32 0 8.32 0s-1.536 3.087 2.148 4.48c3.712 1.394 9.571-1.692 9.571-1.692s-2.774 1.834 0 3.385c2.788 1.536 7.083-1.693 7.083-1.693s-2.462 4.153 0 4.78c2.46.61 6.47-2.475 6.47-2.475s-2.274 4.01.187 4.324c2.461.313 8.208-2.774 8.208-2.774s-4.183 4.31 0 4.31c3.346 0 7.21-2.147 7.21-2.147s-1.018 3.385 1.756 4.607c2.774 1.238 6.737-2.147 6.737-2.147s.902 6.471.29 10.169c-.611 3.697 3.985.925 3.985.925s-.631 5.546-4.315 5.233c-3.697-.298-7.412 4.623-6.161 5.86 1.238 1.237 6.156-.926 6.156-.926s-.313 6.784 1.535 6.215c1.849-.569 4.935-4.366 4.935-4.366s1.849 4.935 3.102 4.324c1.223-.625 1.833-3.399 1.833-4.935 0-1.537 3.385-2.162 3.385-2.162s.925 6.16 2.162 4.964c1.25-1.194 1.536-5.276 3.385-6.499 1.848-1.223 1.237 7.083 3.086 6.472 1.864-.612.939-6.173.312-8.022-.611-1.848 3.698 1.55 3.399 0-.312-1.55-3.712-4.622-3.712-4.622s4.31 1.55 3.086 0c-1.224-1.55-1.849-5.546 0-4.665 1.849.867 3.399-2.73 3.399-2.73s4.92 3.697 8.007 2.461c3.073-1.209-4.01-5.546-4.01-5.546s10.794 3.712 13.17 3.086c2.39-.625-3.626-4.622-3.626-4.622s6.799 1.536 8.035 0c1.224-1.55-4.409-2.774-4.409-2.774s7.481 1.237 8.406 0c.925-1.238-2.147-2.774-2.147-2.774s12.317-.312 14.791-4.622c12.33.298 25.885-9.558 27.121-11.719 1.224-2.148-2.147-2.148-2.147-2.148s7.395-5.858 6.471-6.783c-.939-.925-4.935 1.223-4.935 1.223s9.556-8.323 8.021-8.637zm-91.535 53.02c-3.982 0-1.251-2.147-1.877-4.31-.625-2.161 2.161-.313 1.849-2.161-.328-1.849 0-10.781 0-10.781 3.086 3.072 4.622 7.082 4.322 10.168-.313 3.086 1.536 3.385 2.147 4.935.614 1.553-2.458 2.149-6.44 2.149z" fill="#ef7d00"/>
</svg>
