<svg xmlns="http://www.w3.org/2000/svg" viewBox="0 0 512 512"><path d="M455.111 71.111H56.89C25.472 71.111 0 96.584 0 128v256c0 31.416 25.472 56.889 56.889 56.889H455.11C486.527 440.889 512 415.416 512 384V128c0-31.416-25.473-56.889-56.889-56.889z" fill="#319209"/><path d="M512 398.222H0V113.777h512v284.445z" fill="#ffd200"/><path d="M512 341.334H0V170.668h512v170.666z" fill="#de200f"/><g fill="#141414"><path d="M512 284.445H0v-56.889h512v56.889z"/><path d="M26.086 431.816L256 256 26.086 80.184C10.396 90.312 0 107.937 0 128v256c0 20.062 10.396 37.687 26.086 47.816z"/></g><path d="M18.961 426.389L241.777 256 18.961 85.611C7.327 96.03 0 111.156 0 128v256c0 16.844 7.327 31.971 18.961 42.389z" fill="#eee"/><path d="M95.028 164.931L120.4 216.33l56.719 8.234-41.046 40.007 9.686 56.505-50.73-26.681-50.73 26.681 9.686-56.505-41.031-40.006 56.703-8.234 25.37-51.4z" fill="#de200f"/><path d="M40.889 197.339s2.375-8.889 10.666-10.666c5.334-13.042 17.777-14.82 27.264 0 9.472 14.818 14.806 22.513 27.847 33.18 13.041 10.667 56.291 40.89 56.291 40.89h-7.11l-11.735 50.745h-84.72l-5.46-28.815s-9.487-4.14-1.195-20.737C61.042 245.34 65.78 240.02 64.6 221.048c-1.197-18.973-10.085-27.862-23.71-23.71" fill="#ffd200"/><path d="M144.148 311.529h-84.79l-.007-.034-5.457-28.794c-.25-.119-2.708-1.352-3.918-4.687-1.485-4.093-.567-9.508 2.724-16.096a455.213 455.213 0 0 1 3.501-6.817c6.034-11.572 9.358-17.947 8.355-34.051-.496-7.869-2.287-14.026-5.327-18.295-3.013-4.232-7.083-6.377-12.096-6.377-1.954 0-4.05.336-6.232 1l-.072.023.02-.073c.006-.023.614-2.257 2.23-4.68 1.489-2.233 4.162-5.087 8.447-6.013 2.727-6.65 7.31-10.464 12.58-10.464 5.187 0 10.424 3.722 14.749 10.479 9.155 14.323 14.55 22.303 27.839 33.171 12.891 10.544 55.856 40.585 56.29 40.887l.109.076h-7.21l-11.736 50.745zm-84.72-.084h84.653l11.734-50.745h7.011c-2.429-1.699-43.61-30.53-56.185-40.815-13.297-10.876-18.697-18.86-27.856-33.19-4.31-6.731-9.523-10.439-14.679-10.439-5.24 0-9.8 3.803-12.511 10.433l-.009.021-.022.004c-4.269.915-6.933 3.757-8.415 5.98-1.444 2.166-2.08 4.18-2.199 4.584 2.164-.653 4.242-.983 6.182-.983 2.503 0 4.81.549 6.853 1.631 2.032 1.075 3.819 2.685 5.312 4.783 3.05 4.282 4.847 10.452 5.342 18.339 1.003 16.126-2.324 22.51-8.365 34.096a438.126 438.126 0 0 0-3.5 6.815c-3.282 6.567-4.197 11.961-2.719 16.03 1.257 3.465 3.867 4.637 3.894 4.649l.021.01.004.02 5.453 28.777z" fill="#f15a29"/><g fill="#ffac33"><path d="M155.855 260.744s-43.107-5.192-53.93-6.969c-10.809-1.778-19.256-18.659-19.256-18.659l-4.893 3.356s8.889 19.457 21.789 22.273c12.886 2.816 54.57 7.439 54.57 7.439l1.72-7.44zM151.971 279.945s-43.535-7.025-55.082-7.709c-11.563-.682-23.112 4.935-24.889 10.895 0 0 18.219-1.521 27.549 0 9.343 1.508 50.83 3.726 50.83 3.726l1.592-6.912zM81.334 296.894s35.882-2.404 65.366 3.427l-2.575 11.165H83.551l-2.217-14.592z"/></g></svg>